<svg width="1440" height="960" viewBox="0 0 1440 960" fill="none" xmlns="http://www.w3.org/2000/svg">
<rect x="-1" width="1442" height="960" fill="#F1F1F1"/>
<mask id="mask0_601_746" style="mask-type:alpha" maskUnits="userSpaceOnUse" x="-1" y="0" width="1442" height="860">
<rect x="-1" width="1442" height="860" fill="#F1F1F1"/>
</mask>
<g mask="url(#mask0_601_746)">
<g opacity="0.06">
<mask id="mask1_601_746" style="mask-type:alpha" maskUnits="userSpaceOnUse" x="-5" y="-539" width="1446" height="1704">
<rect x="-4.08154" y="-539" width="1445.08" height="1704" rx="24" fill="#181059"/>
</mask>
<g mask="url(#mask1_601_746)">
<path d="M565.61 -486.697C691.592 -443.79 488.746 -67.8476 1099.18 -67.8476C1421.54 -67.8476 1352.07 239.308 1546.6 261.102" stroke="#181059"/>
<path d="M812.945 -661.59C938.927 -618.683 736.081 -242.741 1346.51 -242.741C1668.88 -242.741 1599.4 64.4149 1793.93 86.2087" stroke="#181059"/>
<path d="M-189.157 -298.448C15.313 -325.678 433.94 -325.717 349.97 -165.164C211.02 100.511 538.171 361.522 1411.55 413.116" stroke="#181059"/>
<path d="M-470.954 -199.424C-218.207 -233.029 299.263 -233.077 195.466 -34.9367C23.7085 292.937 428.104 615.054 1507.7 678.727" stroke="#181059"/>
<path d="M-732.181 -33.752C-446.065 -71.8069 139.723 -71.8616 22.2222 152.517C-172.212 523.807 285.573 888.58 1507.7 960.684" stroke="#181059"/>
</g>
</g>
</g>
</svg>
