<svg width="20" height="20" viewBox="0 0 20 20" fill="none" xmlns="http://www.w3.org/2000/svg">
<g clip-path="url(#clip0_601_725)">
<path d="M19.6713 7.58008C19.6103 7.39098 19.495 7.22402 19.3397 7.10002C19.1845 6.97601 18.9962 6.90044 18.7983 6.88273L13.2905 6.38259L11.1126 1.28499C10.952 0.91142 10.5863 0.669678 10.18 0.669678C9.77364 0.669678 9.4079 0.911457 9.24733 1.28592L7.06942 6.38262L1.56083 6.88273C1.36315 6.90084 1.17513 6.97657 1.02008 7.10053C0.865035 7.22449 0.74978 7.39123 0.688607 7.58008C0.562965 7.96651 0.678991 8.39032 0.985175 8.65748L5.14838 12.3086L3.92074 17.7163C3.83091 18.1139 3.98522 18.5249 4.31514 18.7634C4.49244 18.8915 4.69993 18.9567 4.90914 18.9567C5.08953 18.9567 5.26843 18.9081 5.42907 18.812L10.18 15.9725L14.9292 18.812C15.2767 19.0211 15.7148 19.002 16.0439 18.7634C16.2051 18.6467 16.3284 18.4853 16.3985 18.2991C16.4686 18.1129 16.4825 17.9103 16.4383 17.7163L15.2107 12.3086L19.3739 8.65822C19.5237 8.52743 19.6317 8.35551 19.6846 8.16383C19.7375 7.97215 19.7328 7.76916 19.6713 7.58008Z" fill="#FFC107"/>
</g>
<defs>
<clipPath id="clip0_601_725">
<rect width="19.0824" height="19.0824" fill="white" transform="translate(0.638672 0.633057)"/>
</clipPath>
</defs>
</svg>
