<svg width="34" height="34" viewBox="0 0 34 34" fill="none" xmlns="http://www.w3.org/2000/svg">
<g clip-path="url(#clip0_717_420)">
<path d="M5.64707 22.865C5.77794 22.7889 5.92661 22.7486 6.07804 22.7482C6.22653 22.7482 6.37515 22.7873 6.51068 22.8656L8.64597 24.0984C8.91671 24.2547 9.07828 24.5342 9.07828 24.8461C9.07828 25.1579 8.91665 25.4374 8.64597 25.5937L6.51068 26.8264C6.24001 26.9828 5.91714 26.9828 5.64707 26.827C5.37706 26.6711 5.21583 26.3913 5.21583 26.0788V23.6132C5.21576 23.3007 5.37699 23.021 5.64707 22.865ZM6.01263 26.0788C6.01263 26.0885 6.01263 26.118 6.04551 26.1369C6.05536 26.1429 6.06661 26.1461 6.07811 26.1462C6.0894 26.1462 6.10082 26.1429 6.11224 26.1363L8.24754 24.9036C8.2559 24.8987 8.28147 24.8841 8.28147 24.8461C8.28147 24.8081 8.25597 24.7934 8.24754 24.7886L6.11224 23.5558C6.10232 23.5494 6.09078 23.5459 6.07896 23.5458C6.06714 23.5457 6.05554 23.549 6.04551 23.5552C6.01263 23.5742 6.01263 23.6036 6.01263 23.6133V26.0788ZM2.3907 20.3992H11.0393C11.9913 20.3992 12.7658 21.1738 12.7658 22.1258V27.5663C12.7658 28.5183 11.9913 29.2928 11.0393 29.2928H2.3907C1.4387 29.2928 0.664142 28.5183 0.664142 27.5663V22.1258C0.664208 21.1738 1.4387 20.3992 2.3907 20.3992ZM1.46108 27.5663C1.46108 28.0789 1.87811 28.496 2.39077 28.496H11.0393C11.552 28.496 11.969 28.0789 11.969 27.5663V22.1258C11.969 21.6132 11.552 21.1961 11.0393 21.1961H2.3907C1.87811 21.1961 1.46102 21.6132 1.46102 22.1258V27.5663H1.46108ZM21.523 15.0611C21.5005 15.1453 21.451 15.2197 21.3821 15.273C21.3132 15.3263 21.2288 15.3556 21.1417 15.3564L19.3271 15.3724L17.978 20.4075C17.8802 20.7725 17.6453 21.078 17.3164 21.2678C16.9875 21.4577 16.6054 21.5085 16.2404 21.4106C15.8754 21.3128 15.5699 21.0779 15.38 20.749C15.1902 20.4202 15.1394 20.038 15.2373 19.6731L15.3928 19.0926C14.7973 17.9934 12.713 14.9193 7.38193 13.2041C6.40516 12.8899 5.38616 12.6348 4.40062 12.388C3.90357 12.2636 3.38959 12.1349 2.8849 11.9997C2.1031 11.7901 1.45384 11.2848 1.05687 10.5766C0.658364 9.86589 0.559087 9.02598 0.777298 8.21184C1.15634 6.79712 2.36706 5.88085 3.71206 5.88098C3.97018 5.88098 4.23348 5.91478 4.49651 5.98517C4.55747 6.00151 4.61863 6.01838 4.67973 6.03505L7.33465 1.43661C7.62086 0.940956 8.14168 0.663574 8.67659 0.663643C8.94722 0.663551 9.21308 0.734909 9.4473 0.870499C9.80397 1.07649 10.0594 1.41005 10.1666 1.80995C10.2737 2.20978 10.2193 2.62648 10.0134 2.98315L7.75606 6.89295C8.16778 7.00052 8.58103 7.102 8.99314 7.19078C14.4679 8.37095 17.8098 6.75084 18.8751 6.09654L19.0306 5.51615C19.2003 4.88303 19.7749 4.46441 20.4014 4.46447C20.5225 4.46447 20.6457 4.48014 20.7682 4.51288C21.5238 4.71542 21.9738 5.4949 21.7713 6.25047L20.4222 11.2855L21.9857 12.2068C22.0607 12.251 22.1192 12.3186 22.1522 12.3992C22.1852 12.4798 22.1908 12.569 22.1683 12.6532L21.523 15.0611ZM4.29019 6.75509C3.0881 6.43282 1.88309 7.16355 1.54695 8.41817C1.38286 9.0305 1.45564 9.6587 1.75188 10.1871C2.04293 10.7062 2.51854 11.0767 3.09109 11.23C3.5894 11.3635 4.1002 11.4914 4.59413 11.6151C5.46 11.8318 6.35137 12.0552 7.22647 12.321L8.41694 7.87808C7.52643 7.67076 6.64309 7.41855 5.78506 7.17338C5.29518 7.03333 4.7887 6.88863 4.29019 6.75509ZM9.32318 2.58491C9.42273 2.41258 9.44882 2.21064 9.39676 2.01634C9.3447 1.82203 9.22112 1.66027 9.04879 1.56079C8.87647 1.46132 8.67466 1.43508 8.48022 1.48721C8.28592 1.53928 8.12415 1.66292 8.02468 1.83518L5.47242 6.25578C5.65092 6.30638 5.82869 6.35705 6.004 6.40712C6.31963 6.4973 6.63898 6.58827 6.96025 6.67772L9.32318 2.58491ZM9.19688 8.04609L7.98596 12.5653C11.3672 13.7253 14.1557 15.713 15.6797 18.0217L18.5881 7.1676C16.1138 8.40502 12.7051 8.73214 9.19688 8.04609ZM20.5619 5.28273C20.2305 5.19388 19.889 5.39124 19.8002 5.7224L16.0069 19.8794C15.9642 20.0387 15.9867 20.2061 16.0701 20.3506C16.1535 20.4951 16.2873 20.5983 16.4466 20.641C16.4988 20.655 16.5525 20.6621 16.6065 20.6621C16.7143 20.6621 16.8212 20.6335 16.9179 20.5777C17.0624 20.4943 17.1655 20.3606 17.2082 20.2013L21.0016 6.04434C21.0903 5.71311 20.8931 5.37145 20.5619 5.28273ZM20.2081 12.0843L19.541 14.5737L20.8317 14.5623L21.3201 12.7396L20.2081 12.0843ZM23.5208 19.4109L22.1113 16.9696C22.0852 16.9242 22.0503 16.8845 22.0088 16.8526C21.9673 16.8208 21.9199 16.7974 21.8694 16.7839C21.8188 16.7703 21.7661 16.7669 21.7142 16.7737C21.6624 16.7805 21.6123 16.7976 21.567 16.8237C21.4755 16.8766 21.4088 16.9636 21.3814 17.0657C21.3541 17.1677 21.3684 17.2765 21.4212 17.368L22.8307 19.8093C22.8839 19.9001 22.9708 19.9661 23.0726 19.993C23.1743 20.0199 23.2825 20.0055 23.3736 19.9528C23.4647 19.9002 23.5314 19.8137 23.5589 19.7122C23.5865 19.6106 23.5728 19.5023 23.5208 19.4109ZM25.6747 9.19492L23.2334 10.6045C23.1878 10.6304 23.1477 10.6652 23.1155 10.7067C23.0833 10.7482 23.0596 10.7957 23.0458 10.8464C23.0321 10.8971 23.0285 10.9501 23.0352 11.0022C23.042 11.0543 23.059 11.1045 23.0853 11.15C23.1116 11.1956 23.1466 11.2354 23.1883 11.2673C23.2301 11.2993 23.2777 11.3226 23.3285 11.336C23.3793 11.3495 23.4323 11.3527 23.4843 11.3456C23.5364 11.3385 23.5865 11.3211 23.6319 11.2946L26.0732 9.88501C26.1188 9.85904 26.1589 9.82429 26.1911 9.78276C26.2233 9.74124 26.247 9.69375 26.2608 9.64304C26.2745 9.59233 26.2781 9.5394 26.2713 9.48729C26.2646 9.43518 26.2476 9.38493 26.2213 9.33942C26.195 9.29391 26.16 9.25406 26.1183 9.22214C26.0765 9.19022 26.0289 9.16687 25.9781 9.15344C25.9273 9.14001 25.8743 9.13676 25.8223 9.14388C25.7702 9.151 25.7201 9.16834 25.6747 9.19492ZM23.7844 14.7891L26.5073 15.5187C26.6094 15.5461 26.7181 15.5317 26.8097 15.4789C26.9012 15.4261 26.9679 15.339 26.9953 15.237C27.0088 15.1864 27.0123 15.1337 27.0055 15.0818C26.9986 15.03 26.9816 14.9799 26.9555 14.9346C26.9293 14.8893 26.8945 14.8496 26.853 14.8177C26.8114 14.7859 26.7641 14.7625 26.7135 14.749L23.9906 14.0193C23.8885 13.992 23.7798 14.0064 23.6883 14.0592C23.5968 14.1121 23.53 14.1991 23.5026 14.3011C23.4753 14.4032 23.4896 14.5119 23.5424 14.6035C23.5953 14.695 23.6823 14.7618 23.7844 14.7891ZM31.2402 33.3362H21.5372C20.3816 33.3362 19.4413 32.3959 19.4413 31.2403V26.3058C19.4413 25.1502 20.3816 24.2099 21.5372 24.2099H22.5747V21.9334C22.5747 21.8579 22.5961 21.7839 22.6366 21.7202C22.677 21.6564 22.7347 21.6054 22.803 21.5731C22.8713 21.5409 22.9473 21.5287 23.0222 21.538C23.0972 21.5473 23.1679 21.5777 23.2263 21.6257L26.3685 24.2099H31.2402C32.3959 24.2099 33.3361 25.1502 33.3361 26.3058V31.2403C33.336 32.3959 32.3958 33.3362 31.2402 33.3362ZM32.5391 26.3059C32.5391 25.5896 31.9564 25.0068 31.2401 25.0068H26.2256C26.1333 25.0068 26.0438 24.9748 25.9725 24.9161L23.3716 22.7771V24.6084C23.3716 24.7141 23.3296 24.8154 23.2549 24.8901C23.1801 24.9649 23.0788 25.0068 22.9731 25.0068H21.5372C20.821 25.0068 20.2382 25.5896 20.2382 26.3059V31.2403C20.2382 31.9565 20.8209 32.5393 21.5372 32.5393H31.2402C31.9564 32.5393 32.5392 31.9566 32.5392 31.2403V26.3059H32.5391ZM30.9079 30.6408C30.9079 30.5351 30.866 30.4337 30.7912 30.359C30.7165 30.2843 30.6152 30.2423 30.5095 30.2423H22.2679C22.1622 30.2423 22.0609 30.2843 21.9861 30.359C21.9114 30.4337 21.8694 30.5351 21.8694 30.6408C21.8694 30.7464 21.9114 30.8478 21.9861 30.9225C22.0609 30.9972 22.1622 31.0392 22.2679 31.0392H30.5095C30.6152 31.0392 30.7165 30.9972 30.7912 30.9225C30.866 30.8478 30.9079 30.7464 30.9079 30.6408ZM30.9079 26.9055C30.9079 26.7998 30.866 26.6985 30.7912 26.6237C30.7165 26.549 30.6152 26.507 30.5095 26.507H26.2256C26.1199 26.507 26.0185 26.549 25.9438 26.6237C25.8691 26.6985 25.8271 26.7998 25.8271 26.9055C25.8271 27.0111 25.8691 27.1125 25.9438 27.1872C26.0185 27.2619 26.1199 27.3039 26.2256 27.3039H30.5095C30.6152 27.3039 30.7165 27.2619 30.7912 27.1872C30.866 27.1125 30.9079 27.0111 30.9079 26.9055ZM30.9079 28.7731C30.9079 28.6674 30.866 28.5661 30.7912 28.4913C30.7165 28.4166 30.6152 28.3746 30.5095 28.3746H22.2679C22.1622 28.3746 22.0609 28.4166 21.9861 28.4913C21.9114 28.5661 21.8694 28.6674 21.8694 28.7731C21.8694 28.8787 21.9114 28.9801 21.9861 29.0548C22.0609 29.1295 22.1622 29.1715 22.2679 29.1715H30.5095C30.6152 29.1715 30.7165 29.1295 30.7912 29.0548C30.866 28.9801 30.9079 28.8787 30.9079 28.7731ZM30.955 8.37275C30.2611 8.37275 29.6089 8.0443 29.1628 7.49937C28.7167 8.0443 28.0646 8.37275 27.3707 8.37275C26.0578 8.37275 24.9896 7.2269 24.9896 5.81843C24.9896 4.64051 26.3848 3.13867 27.9392 1.57421C28.1911 1.32067 28.4087 1.10166 28.5705 0.926544C28.7246 0.759865 28.9405 0.664307 29.1629 0.664307C29.3854 0.664371 29.6013 0.759933 29.7551 0.926544C29.917 1.10166 30.1345 1.32067 30.3864 1.57421C31.9408 3.13867 33.336 4.64045 33.336 5.81843C33.336 7.2269 32.2679 8.37275 30.955 8.37275ZM29.8212 2.1358C29.5638 1.87682 29.3415 1.65303 29.1699 1.46736C29.1659 1.46311 29.1633 1.46165 29.1632 1.46125C29.1603 1.4628 29.1577 1.46489 29.1557 1.46742C28.9841 1.6531 28.7618 1.87682 28.5044 2.13587C27.5545 3.09185 25.7864 4.87147 25.7864 5.81843C25.7864 6.78749 26.4971 7.57587 27.3706 7.57587C27.974 7.57587 28.5342 7.18573 28.7976 6.58197C28.8286 6.51088 28.8797 6.45038 28.9446 6.40789C29.0094 6.3654 29.0853 6.34277 29.1628 6.34277C29.2404 6.34277 29.3163 6.3654 29.3811 6.40789C29.446 6.45038 29.4971 6.51088 29.5281 6.58197C29.7915 7.18573 30.3516 7.57587 30.9551 7.57587C31.8286 7.57587 32.5392 6.78749 32.5392 5.81843C32.5391 4.87147 30.7711 3.09192 29.8212 2.1358Z" fill="black"/>
</g>
<defs>
<clipPath id="clip0_717_420">
<rect width="34" height="34" fill="white" transform="matrix(1 0 0 -1 0 34)"/>
</clipPath>
</defs>
</svg>
