<svg width="37" height="37" viewBox="0 0 37 37" fill="none" xmlns="http://www.w3.org/2000/svg">
<path d="M21.8984 15.9609C21.7972 16.0193 21.7234 16.1155 21.6931 16.2284C21.6628 16.3412 21.6786 16.4615 21.7369 16.5627L24.2982 21.001C24.3579 21.0998 24.4539 21.1713 24.5656 21.2C24.6774 21.2288 24.7959 21.2126 24.8959 21.155C24.9958 21.0973 25.0692 21.0027 25.1002 20.8916C25.1312 20.7805 25.1174 20.6616 25.0617 20.5605L22.5004 16.1222C22.4715 16.072 22.433 16.0281 22.387 15.9929C22.3411 15.9576 22.2887 15.9318 22.2328 15.9168C22.1769 15.9018 22.1186 15.898 22.0612 15.9056C22.0038 15.9131 21.9485 15.9319 21.8984 15.9609ZM12.7023 21.001L15.2636 16.5627C15.3219 16.4615 15.3377 16.3412 15.3074 16.2284C15.2771 16.1155 15.2033 16.0193 15.1021 15.9609C15.052 15.9319 14.9967 15.9131 14.9393 15.9055C14.8819 15.8979 14.8236 15.9017 14.7677 15.9167C14.7118 15.9317 14.6593 15.9575 14.6134 15.9928C14.5675 16.0281 14.529 16.072 14.5001 16.1222L11.9388 20.5605C11.8831 20.6616 11.8693 20.7805 11.9003 20.8916C11.9313 21.0027 12.0047 21.0973 12.1046 21.155C12.2046 21.2126 12.3231 21.2288 12.4349 21.2C12.5466 21.1713 12.6426 21.0998 12.7023 21.001ZM20.8692 34.7051H25.0996C25.4944 35.7906 27.3362 36.5645 29.6935 36.5645C32.3584 36.5645 34.3683 35.5759 34.3683 34.2652C34.3683 33.3932 33.475 32.6674 32.094 32.2777C33.1044 30.6798 33.9686 28.9961 33.9686 27.9078C33.9686 25.5496 32.0513 23.6309 29.6944 23.6309C27.3362 23.6309 25.4176 25.5496 25.4176 27.9078C25.4176 28.9998 26.2814 30.6815 27.2918 32.2766C26.1517 32.5984 25.3468 33.1503 25.1004 33.8239H20.8691C20.8112 33.8239 20.7539 33.8353 20.7005 33.8574C20.647 33.8796 20.5984 33.912 20.5575 33.9529C20.5166 33.9938 20.4842 34.0424 20.462 34.0959C20.4399 34.1493 20.4285 34.2066 20.4285 34.2645C20.4285 34.3224 20.4399 34.3797 20.4621 34.4331C20.4842 34.4866 20.5167 34.5351 20.5576 34.576C20.5985 34.6169 20.6471 34.6494 20.7005 34.6715C20.754 34.6937 20.8113 34.7051 20.8692 34.7051ZM29.6945 24.5121C31.5653 24.5121 33.0875 26.0354 33.0875 27.9078C33.0875 28.8991 32.0145 30.9718 30.1441 33.5935C29.9344 33.8868 29.4557 33.8873 29.2453 33.5937C27.3728 30.9761 26.2988 28.9036 26.2988 27.9078C26.2988 26.0354 27.822 24.5121 29.6945 24.5121ZM27.7991 33.054C28.0371 33.4084 28.2803 33.7593 28.5287 34.1065C28.8012 34.4873 29.2264 34.7059 29.6945 34.7059C30.163 34.7059 30.5881 34.4873 30.8611 34.106C31.1078 33.7602 31.3494 33.4107 31.5859 33.0578C32.7883 33.3401 33.4871 33.856 33.4871 34.2652C33.4871 34.8574 32.0438 35.6833 29.6935 35.6833C27.3429 35.6833 25.8996 34.8574 25.8996 34.2652C25.8995 33.8555 26.5938 33.3359 27.7991 33.054ZM22.3138 12.7199C22.4078 12.6528 22.4717 12.5515 22.4917 12.4378C22.5118 12.3241 22.4865 12.2071 22.4212 12.1119C22.3559 12.0166 22.2559 11.9508 22.1426 11.9286C22.0293 11.9064 21.9118 11.9294 21.8153 11.9929C21.1141 12.4736 19.844 12.7722 18.5009 12.7722C16.1488 12.7722 14.7048 11.9449 14.7048 11.3518C14.7048 10.924 15.4648 10.3768 16.7733 10.1057C16.9571 10.375 17.1438 10.6422 17.3336 10.9073C17.6061 11.2903 18.0313 11.5097 18.5001 11.5097C18.969 11.5097 19.3941 11.2903 19.6664 10.9081C19.8554 10.6439 20.0415 10.3776 20.2246 10.1092C20.87 10.2426 21.4278 10.4485 21.8129 10.7113C21.8607 10.7439 21.9145 10.7667 21.9711 10.7785C22.0277 10.7904 22.0861 10.7909 22.1429 10.7801C22.1998 10.7694 22.2539 10.7475 22.3023 10.7158C22.3507 10.6842 22.3924 10.6432 22.425 10.5954C22.4576 10.5477 22.4805 10.4939 22.4923 10.4373C22.5042 10.3807 22.5048 10.3223 22.494 10.2654C22.4833 10.2085 22.4614 10.1544 22.4297 10.106C22.3981 10.0576 22.3571 10.0159 22.3093 9.98328C21.9021 9.70549 21.3634 9.4827 20.7464 9.32436C21.8213 7.65973 22.7741 5.85966 22.7741 4.70948C22.7741 2.35283 20.8568 0.435547 18.5003 0.435547C16.1438 0.435547 14.2265 2.35283 14.2265 4.70948C14.2265 5.86038 15.1792 7.6603 16.2539 9.32436C14.785 9.70224 13.8238 10.4484 13.8238 11.3518C13.8238 12.664 15.8347 13.6534 18.501 13.6534C20.0354 13.6534 21.4609 13.3044 22.3138 12.7199ZM18.5002 1.31668C20.371 1.31668 21.8928 2.83867 21.8928 4.70948C21.8928 5.70769 20.8202 7.78005 18.9494 10.3961C18.7388 10.6915 18.262 10.6921 18.0506 10.3954C16.1802 7.78091 15.1076 5.70841 15.1076 4.70948C15.1076 2.83867 16.6294 1.31668 18.5002 1.31668ZM2.63184 34.2651C2.63184 35.5759 4.64169 36.5645 7.30699 36.5645C9.66429 36.5645 11.5061 35.7906 11.9009 34.705H16.131C16.3744 34.705 16.5716 34.5078 16.5716 34.2644C16.5716 34.021 16.3744 33.8238 16.131 33.8238H11.8998C11.6528 33.1508 10.8471 32.6004 9.70708 32.2789C10.7181 30.6831 11.5829 29.0003 11.5829 27.9078C11.5829 25.595 9.71221 23.6309 7.30562 23.6309C4.94911 23.6309 3.03183 25.5495 3.03183 27.9078C3.03183 28.8418 3.66906 30.3143 4.90987 32.2747C3.52648 32.6646 2.63184 33.3921 2.63184 34.2651ZM7.30562 24.5121C9.20729 24.5121 10.7017 26.0648 10.7017 27.9078C10.7017 28.9036 9.62773 30.9761 7.75482 33.5939C7.54619 33.8861 7.06504 33.8853 6.85714 33.5948C6.63102 33.2764 6.2892 32.79 5.93466 32.2439C4.63114 30.2552 3.91311 28.7152 3.91311 27.9078C3.91303 26.0354 5.4348 24.5121 7.30562 24.5121ZM5.41522 33.0567C5.65157 33.41 5.89301 33.7598 6.13947 34.1061C6.27235 34.2914 6.44743 34.4423 6.65023 34.5465C6.85303 34.6506 7.07771 34.705 7.30569 34.7051C7.76833 34.7051 8.20409 34.4812 8.47191 34.1063C8.71909 33.7608 8.96116 33.4116 9.19804 33.059C10.4006 33.341 11.101 33.856 11.101 34.2651C11.101 34.8573 9.65772 35.6833 7.30706 35.6833C4.9564 35.6833 3.51312 34.8573 3.51312 34.2651C3.51304 33.8558 4.21192 33.339 5.41522 33.0567Z" fill="black"/>
<path d="M31.775 27.9078C31.775 26.7607 30.8419 25.8273 29.6946 25.8273C28.5473 25.8273 27.6141 26.7606 27.6141 27.9078C27.6141 29.0549 28.5473 29.9882 29.6946 29.9882C30.8419 29.9882 31.775 29.0549 31.775 27.9078ZM28.4953 27.9078C28.4953 27.2465 29.0334 26.7085 29.6946 26.7085C30.3558 26.7085 30.8938 27.2465 30.8938 27.9078C30.8938 28.569 30.3558 29.107 29.6946 29.107C29.0334 29.107 28.4953 28.569 28.4953 27.9078ZM9.38614 27.9078C9.38614 26.8036 8.5011 25.8273 7.30568 25.8273C6.15875 25.8273 5.22559 26.7606 5.22559 27.9078C5.22559 29.0172 6.12023 29.9429 7.22518 29.9842C8.2038 30.1002 9.38614 29.1981 9.38614 27.9078ZM6.10679 27.9078C6.10679 27.2403 6.64828 26.6951 7.32425 26.7087C8.00499 26.7186 8.50493 27.2787 8.50493 27.9078C8.50493 28.5727 7.9565 29.1228 7.27641 29.1043H7.27403C6.63036 29.0888 6.10679 28.552 6.10679 27.9078ZM20.5807 4.70948C20.5807 3.56241 19.6476 2.62903 18.5003 2.62903C17.353 2.62903 16.4198 3.56234 16.4198 4.70948C16.4198 5.85663 17.353 6.78994 18.5003 6.78994C19.6476 6.78994 20.5807 5.85656 20.5807 4.70948ZM17.301 4.70948C17.301 4.04825 17.839 3.51024 18.5003 3.51024C19.1615 3.51024 19.6995 4.04825 19.6995 4.70948C19.6995 5.37071 19.1615 5.90873 18.5003 5.90873C17.839 5.90873 17.301 5.37071 17.301 4.70948Z" fill="black"/>
</svg>
