<svg width="34" height="34" viewBox="0 0 34 34" fill="none" xmlns="http://www.w3.org/2000/svg">
<path d="M10.0938 32.9375C9.95285 32.9375 9.81773 32.8815 9.7181 32.7819C9.61847 32.6823 9.5625 32.5471 9.5625 32.4062V22.8438C9.5625 22.7029 9.61847 22.5677 9.7181 22.4681C9.81773 22.3685 9.95285 22.3125 10.0938 22.3125C10.2346 22.3125 10.3698 22.3685 10.4694 22.4681C10.569 22.5677 10.625 22.7029 10.625 22.8438V32.4062C10.625 32.5471 10.569 32.6823 10.4694 32.7819C10.3698 32.8815 10.2346 32.9375 10.0938 32.9375ZM7.4375 7.4375C5.68012 7.4375 4.25 6.00738 4.25 4.25C4.25 2.49262 5.68012 1.0625 7.4375 1.0625C9.19488 1.0625 10.625 2.49262 10.625 4.25C10.625 6.00738 9.19488 7.4375 7.4375 7.4375ZM7.4375 2.125C6.26556 2.125 5.3125 3.07806 5.3125 4.25C5.3125 5.42194 6.26556 6.375 7.4375 6.375C8.60944 6.375 9.5625 5.42194 9.5625 4.25C9.5625 3.07806 8.60944 2.125 7.4375 2.125ZM3.71875 32.9375C3.63766 32.9374 3.55767 32.9187 3.48492 32.8828C3.41218 32.847 3.3486 32.795 3.29906 32.7308C3.24952 32.6666 3.21534 32.5919 3.19913 32.5124C3.18293 32.433 3.18513 32.3509 3.20556 32.2724L6.39306 20.0536C6.42521 19.9331 6.49875 19.8277 6.60079 19.756C6.70282 19.6842 6.82686 19.6507 6.95115 19.6612C7.07545 19.6717 7.19208 19.7256 7.28061 19.8135C7.36914 19.9014 7.42393 20.0176 7.43538 20.1418L8.49788 32.3606C8.504 32.4301 8.49635 32.5002 8.47536 32.5668C8.45437 32.6334 8.42046 32.6952 8.37556 32.7487C8.33066 32.8022 8.27565 32.8463 8.21369 32.8785C8.15172 32.9107 8.08401 32.9304 8.01444 32.9364C7.87436 32.9474 7.7356 32.9028 7.62807 32.8124C7.52054 32.722 7.45286 32.5929 7.43962 32.453L6.64381 23.2996L4.23194 32.5401C4.20267 32.6539 4.13635 32.7548 4.04343 32.8267C3.95051 32.8987 3.83627 32.9377 3.71875 32.9375ZM7.96875 18.0625H3.71875C3.57785 18.0625 3.44273 18.0065 3.3431 17.9069C3.24347 17.8073 3.1875 17.6721 3.1875 17.5312C3.1875 17.3904 3.24347 17.2552 3.3431 17.1556C3.44273 17.056 3.57785 17 3.71875 17H7.96875C8.10965 17 8.24477 16.944 8.3444 16.8444C8.44403 16.7448 8.5 16.6096 8.5 16.4688C8.5 16.3279 8.44403 16.1927 8.3444 16.0931C8.24477 15.9935 8.10965 15.9375 7.96875 15.9375H4.25C3.6635 15.9375 3.1875 15.4604 3.1875 14.875C3.1875 14.7341 3.24347 14.599 3.3431 14.4993C3.44273 14.3997 3.57785 14.3438 3.71875 14.3438C3.85965 14.3438 3.99477 14.3997 4.0944 14.4993C4.19403 14.599 4.25 14.7341 4.25 14.875H7.96875C8.84744 14.875 9.5625 15.5901 9.5625 16.4688C9.5625 17.3474 8.84744 18.0625 7.96875 18.0625Z" fill="#2F3339"/>
<path d="M3.71875 15.4062C3.57785 15.4062 3.44273 15.3503 3.3431 15.2507C3.24347 15.151 3.1875 15.0159 3.1875 14.875V13.2812C3.1875 13.1404 3.24347 13.0052 3.3431 12.9056C3.44273 12.806 3.57785 12.75 3.71875 12.75C3.85965 12.75 3.99477 12.806 4.0944 12.9056C4.19403 13.0052 4.25 13.1404 4.25 13.2812V14.875C4.25 15.0159 4.19403 15.151 4.0944 15.2507C3.99477 15.3503 3.85965 15.4062 3.71875 15.4062ZM17.5312 21.25H9.03125C8.89035 21.25 8.75523 21.194 8.6556 21.0944C8.55597 20.9948 8.5 20.8596 8.5 20.7188V13.2812C8.5 13.1404 8.55597 13.0052 8.6556 12.9056C8.75523 12.806 8.89035 12.75 9.03125 12.75H17.5312C17.6721 12.75 17.8073 12.806 17.9069 12.9056C18.0065 13.0052 18.0625 13.1404 18.0625 13.2812V20.7188C18.0625 20.8596 18.0065 20.9948 17.9069 21.0944C17.8073 21.194 17.6721 21.25 17.5312 21.25ZM9.5625 20.1875H17V13.8125H9.5625V20.1875Z" fill="#2F3339"/>
<path d="M13.2816 15.9375C13.1407 15.9375 13.0055 15.8815 12.9059 15.7819C12.8063 15.6823 12.7503 15.5471 12.7503 15.4062V13.2812C12.7503 13.1404 12.8063 13.0052 12.9059 12.9056C13.0055 12.806 13.1407 12.75 13.2816 12.75C13.4225 12.75 13.5576 12.806 13.6572 12.9056C13.7568 13.0052 13.8128 13.1404 13.8128 13.2812V15.4062C13.8128 15.5471 13.7568 15.6823 13.6572 15.7819C13.5576 15.8815 13.4225 15.9375 13.2816 15.9375ZM1.58132 32.9375C1.50335 32.9377 1.4263 32.9207 1.35563 32.8878C1.28496 32.8548 1.22241 32.8067 1.17241 32.7469C1.12242 32.6871 1.08621 32.617 1.06635 32.5416C1.04649 32.4662 1.04347 32.3873 1.05751 32.3106L3.19632 20.6231L3.18888 18.0094C2.58908 17.8864 2.05005 17.5603 1.66274 17.086C1.27543 16.6118 1.06354 16.0185 1.06282 15.4062V12.2188C1.06282 10.1681 2.73094 8.5 4.78157 8.5H9.03157C9.80518 8.50152 10.5592 8.74359 11.1891 9.19267C11.819 9.64174 12.2937 10.2756 12.5474 11.0064C12.5703 11.0724 12.5799 11.1423 12.5758 11.212C12.5717 11.2818 12.5539 11.35 12.5234 11.4128C12.4929 11.4757 12.4503 11.5319 12.3981 11.5783C12.3459 11.6247 12.2851 11.6604 12.2191 11.6833C12.1531 11.7061 12.0832 11.7158 12.0135 11.7117C11.9438 11.7076 11.8755 11.6898 11.8127 11.6593C11.7498 11.6288 11.6936 11.5862 11.6472 11.534C11.6008 11.4818 11.5651 11.4209 11.5423 11.3549C11.3617 10.8324 11.023 10.3791 10.5731 10.0579C10.1232 9.73668 9.58438 9.56353 9.03157 9.5625H4.78157C4.07735 9.56334 3.40221 9.84347 2.90425 10.3414C2.40629 10.8394 2.12616 11.5145 2.12532 12.2188V15.4062C2.12532 16.2849 2.84038 17 3.71907 17C3.85996 17 3.99509 17.056 4.09472 17.1556C4.19435 17.2552 4.25032 17.3904 4.25032 17.5312V20.7188L2.10301 32.5019C2.08085 32.6241 2.01649 32.7347 1.92114 32.8143C1.8258 32.8939 1.70553 32.9375 1.58132 32.9375ZM29.2191 32.9375H10.0941C9.95317 32.9375 9.81805 32.8815 9.71842 32.7819C9.61879 32.6823 9.56282 32.5471 9.56282 32.4062C9.56282 32.2654 9.61879 32.1302 9.71842 32.0306C9.81805 31.931 9.95317 31.875 10.0941 31.875H29.2191C30.6843 31.875 31.8753 30.6829 31.8753 29.2188C31.8753 27.7546 30.6843 26.5625 29.2191 26.5625H21.7816C20.3164 26.5625 19.1253 25.3704 19.1253 23.9062C19.1253 22.4421 20.3164 21.25 21.7816 21.25H25.5003C25.6412 21.25 25.7763 21.306 25.876 21.4056C25.9756 21.5052 26.0316 21.6404 26.0316 21.7812C26.0316 21.9221 25.9756 22.0573 25.876 22.1569C25.7763 22.2565 25.6412 22.3125 25.5003 22.3125H21.7816C20.9029 22.3125 20.1878 23.0276 20.1878 23.9062C20.1878 24.7849 20.9029 25.5 21.7816 25.5H29.2191C31.2697 25.5 32.9378 27.1681 32.9378 29.2188C32.9378 31.2694 31.2697 32.9375 29.2191 32.9375Z" fill="#2F3339"/>
<path d="M25.4678 22.3125C25.2786 22.2987 25.1554 22.2402 25.0555 22.1159C24.7686 21.7632 18.0303 13.4141 18.0303 8.5C18.0303 4.39875 21.3676 1.0625 25.4678 1.0625C29.568 1.0625 32.9053 4.39875 32.9053 8.5C32.9053 13.5469 26.1637 21.7717 25.8779 22.1191C25.8281 22.1797 25.7655 22.2285 25.6946 22.262C25.6237 22.2954 25.5462 22.3127 25.4678 22.3125ZM25.4678 2.125C21.952 2.125 19.0928 4.98419 19.0928 8.5C19.0928 12.3813 24.0026 19.0251 25.471 20.9249C26.9425 19.0443 31.8428 12.4854 31.8428 8.5C31.8428 4.98419 28.9825 2.125 25.4678 2.125Z" fill="#2F3339"/>
<path d="M25.4678 12.2517C23.4171 12.2517 21.749 10.5836 21.749 8.53296C21.749 6.48233 23.4171 4.81421 25.4678 4.81421C27.5184 4.81421 29.1865 6.48233 29.1865 8.53296C29.1865 10.5836 27.5173 12.2517 25.4678 12.2517ZM25.4678 5.87671C24.0026 5.87671 22.8115 7.06883 22.8115 8.53296C22.8115 9.99708 24.0026 11.1892 25.4678 11.1892C26.933 11.1892 28.124 9.99708 28.124 8.53296C28.124 7.06883 26.933 5.87671 25.4678 5.87671Z" fill="#2F3339"/>
</svg>
