<svg width="33" height="33" viewBox="0 0 33 33" fill="none" xmlns="http://www.w3.org/2000/svg">
<path d="M10.5265 12.838C10.9313 12.9109 14.1449 13.4761 16.4129 13.4761C18.8031 13.4761 22.0664 12.9102 22.4723 12.838C22.6942 12.8345 22.913 12.7853 23.1151 12.6935C23.3172 12.6018 23.4983 12.4694 23.6471 12.3047C23.7958 12.1399 23.9091 11.9464 23.9798 11.736C24.0505 11.5256 24.0772 11.3029 24.0582 11.0817L23.6134 5.22109C23.5425 4.29 22.7258 3.54492 21.7917 3.54492H11.2076C10.2738 3.54492 9.45682 4.29 9.38618 5.22109L8.94145 11.088C8.9225 11.3088 8.94927 11.5311 9.02008 11.7411C9.09089 11.9511 9.20423 12.1442 9.35301 12.3084C9.50179 12.4726 9.68283 12.6044 9.88482 12.6955C10.0868 12.7867 10.3054 12.8352 10.527 12.838H10.5265ZM9.8409 11.1499L10.286 5.28928C10.3102 5.06055 10.4173 4.84859 10.5871 4.69345C10.7569 4.53831 10.9776 4.45073 11.2076 4.44727H21.7917C22.0217 4.45072 22.2425 4.53829 22.4123 4.69343C22.5821 4.84857 22.6892 5.06054 22.7134 5.28928L23.1585 11.1561C23.1682 11.2567 23.1564 11.3582 23.1239 11.4539C23.0914 11.5496 23.0389 11.6373 22.97 11.7112C22.9011 11.7851 22.8172 11.8435 22.724 11.8826C22.6308 11.9217 22.5304 11.9405 22.4294 11.9378C22.4025 11.9376 22.3757 11.9397 22.3492 11.9443C22.3143 11.9507 18.8297 12.5742 16.4131 12.5742C14.1229 12.5742 10.6857 11.9501 10.6513 11.9439C10.6245 11.9389 10.5974 11.9364 10.5701 11.9364C10.4688 11.9387 10.3681 11.9194 10.2748 11.8799C10.1815 11.8404 10.0976 11.7816 10.0287 11.7072C9.95977 11.6329 9.90741 11.5448 9.87507 11.4488C9.84272 11.3527 9.83112 11.2509 9.84102 11.1501L9.8409 11.1499Z" fill="black"/>
<path d="M5.2279 7.64839L5.55069 9.36974C5.56595 9.45118 5.60335 9.52685 5.65877 9.58843L6.75067 10.8016C6.65696 11.9149 6.58954 12.951 6.58954 13.7259C6.58896 14.593 6.62319 16.4054 6.65767 17.9775C5.88674 19.502 5.31724 24.5204 5.25349 25.0995C5.24657 25.1616 5.25303 25.2245 5.27243 25.2839C5.29183 25.3433 5.32372 25.3979 5.36596 25.4439C5.40859 25.4903 5.46058 25.5271 5.5185 25.552C5.57642 25.5768 5.63895 25.589 5.70196 25.5879H6.63853V28.1221C6.63853 28.7224 7.1528 29.1973 7.75318 29.1973H8.81098C9.41136 29.1973 9.92564 28.7224 9.92564 28.1221V26.3227C10.32 26.5793 10.7335 26.8053 11.1624 26.9987C12.3045 27.501 13.5183 27.8214 14.7596 27.9481V30.6861C14.7584 30.8285 14.7854 30.9696 14.839 31.1015C14.8925 31.2334 14.9716 31.3534 15.0717 31.4546C15.1718 31.5559 15.2909 31.6363 15.4222 31.6913C15.5534 31.7464 15.6943 31.775 15.8366 31.7754H17.1629C17.3053 31.775 17.4462 31.7464 17.5774 31.6914C17.7087 31.6363 17.8278 31.5559 17.9279 31.4547C18.028 31.3534 18.1071 31.2334 18.1607 31.1015C18.2143 30.9697 18.2413 30.8285 18.2401 30.6861V27.9453C19.4783 27.8099 20.6878 27.4821 21.825 26.9736C22.2589 26.7763 22.6766 26.5449 23.0741 26.2817V28.1221C23.0741 28.7224 23.5927 29.1973 24.193 29.1973H25.2508C25.8512 29.1973 26.3612 28.7224 26.3612 28.1221V25.5879H27.3022C27.3652 25.5893 27.4278 25.5771 27.4857 25.5523C27.5436 25.5275 27.5956 25.4906 27.6381 25.4441C27.6805 25.3975 27.7126 25.3424 27.732 25.2825C27.7514 25.2225 27.7578 25.1591 27.7507 25.0965C27.6871 24.5185 27.1197 19.5205 26.3514 17.9851C26.3901 16.4298 26.4287 14.6434 26.4284 13.7892C26.4284 12.9953 26.3585 11.9299 26.2622 10.7868L27.3409 9.58824C27.3963 9.52671 27.4337 9.45108 27.449 9.36968L27.7717 7.64833C28.0992 7.58364 28.393 7.40474 28.6008 7.14355C28.8085 6.88236 28.9168 6.55585 28.9062 6.22226C28.8956 5.88867 28.7669 5.56968 28.5429 5.32219C28.319 5.0747 28.0145 4.9148 27.6836 4.871C27.3527 4.8272 27.017 4.90235 26.7364 5.08305C26.4558 5.26376 26.2485 5.53826 26.1515 5.85761C26.0545 6.17695 26.074 6.52038 26.2067 6.82664C26.3394 7.1329 26.5765 7.38208 26.8758 7.52974L26.5854 9.07893L26.1522 9.56027C26.1001 9.00875 26.0468 8.45735 25.9922 7.90608C25.8724 6.6865 25.7593 5.53453 25.706 4.70372C25.6021 3.07248 24.2102 1.65722 22.6036 1.54894C22.3583 1.53224 22.084 1.51271 21.7886 1.49164C20.2067 1.3793 18.0403 1.22461 16.3811 1.22461C14.7477 1.22461 12.7893 1.3704 11.3593 1.47694C11.0151 1.50272 10.6965 1.52625 10.4132 1.54571C8.8075 1.65696 7.41544 3.07325 7.31006 4.70347C7.25682 5.53008 7.14371 6.67644 7.02396 7.89016C6.96982 8.43962 6.91374 9.00855 6.8605 9.57483L6.41423 9.07893L6.12374 7.52974C6.42276 7.3821 6.65963 7.13306 6.79211 6.82702C6.92459 6.52098 6.94406 6.17783 6.84706 5.85877C6.75006 5.5397 6.54289 5.26546 6.26248 5.08495C5.98208 4.90443 5.64668 4.82937 5.31608 4.87316C4.98548 4.91694 4.68118 5.07673 4.45744 5.32402C4.2337 5.5713 4.10506 5.89002 4.09446 6.22334C4.08386 6.55665 4.192 6.8829 4.39958 7.1439C4.60716 7.4049 4.90076 7.5837 5.2279 7.64839ZM27.4983 5.7625C27.5983 5.76248 27.696 5.79211 27.7791 5.84762C27.8622 5.90313 27.9269 5.98204 27.9652 6.07436C28.0034 6.16669 28.0134 6.26828 27.9939 6.3663C27.9744 6.46431 27.9263 6.55434 27.8557 6.62501C27.785 6.69567 27.695 6.74379 27.5969 6.76329C27.4989 6.78278 27.3973 6.77277 27.305 6.73452C27.2127 6.69627 27.1338 6.6315 27.0783 6.54841C27.0228 6.46531 26.9931 6.36761 26.9931 6.26768C26.9933 6.13374 27.0466 6.00534 27.1413 5.91063C27.236 5.81592 27.3644 5.76265 27.4983 5.7625ZM6.74893 21.0707C6.87784 22.4582 7.34113 23.6543 8.12024 24.6855H6.20837C6.32155 23.7832 6.51465 22.3442 6.74893 21.0707ZM9.02329 28.1221C9.02329 28.2231 8.91205 28.2949 8.81098 28.2949H7.75318C7.65212 28.2949 7.54087 28.2231 7.54087 28.1221V25.5879H8.95684C8.97012 25.5879 8.95884 25.6237 9.02329 25.6356V28.1221ZM14.1701 19.733C14.1616 19.6325 14.1741 19.5313 14.2071 19.4359C14.24 19.3405 14.2925 19.2531 14.3613 19.1793C14.43 19.1055 14.5135 19.0468 14.6063 19.0072C14.6991 18.9676 14.7991 18.9478 14.9 18.9492H18.1001C18.2006 18.9478 18.3002 18.9674 18.3927 19.0067C18.4852 19.0461 18.5684 19.1042 18.6372 19.1776C18.7059 19.2509 18.7585 19.3378 18.7918 19.4326C18.825 19.5274 18.8381 19.6282 18.8302 19.7283L18.4546 22.3523C18.1853 22.0346 17.9161 21.8242 17.6429 21.7175C17.6004 21.7011 17.5557 21.6911 17.5103 21.688C17.1687 21.6642 15.9266 21.6641 15.4961 21.688C15.4562 21.6902 15.4168 21.6977 15.3788 21.7103C15.0679 21.8134 14.7768 22.0635 14.5145 22.3806L14.1701 19.733ZM15.6154 22.5856C16.0293 22.5689 17.0011 22.5684 17.3709 22.5843C17.6674 22.739 18.009 23.2129 18.313 23.7602C18.3267 23.795 18.3447 23.828 18.3666 23.8584C18.5274 24.1567 18.676 24.472 18.7993 24.7665C18.4718 24.8935 18.1344 24.9937 17.7906 25.066C17.7378 25.0671 17.6856 25.0775 17.6364 25.0968C17.2541 25.1689 16.8658 25.2056 16.4767 25.2063C16.1001 25.2059 15.7242 25.1704 15.3541 25.1004C15.3107 25.0846 15.265 25.0755 15.2188 25.0736C14.8753 25.0019 14.5387 24.9004 14.2128 24.7702C14.573 23.8886 15.1637 22.7959 15.6154 22.5856ZM17.1629 30.873H15.8366C15.8128 30.8724 15.7894 30.8671 15.7677 30.8573C15.746 30.8476 15.7264 30.8336 15.7101 30.8162C15.6939 30.7988 15.6813 30.7783 15.673 30.756C15.6647 30.7337 15.661 30.7099 15.662 30.6861V26.0592C16.2186 26.1269 16.7815 26.1252 17.3377 26.0541V30.6861C17.3387 30.7099 17.335 30.7337 17.3267 30.756C17.3184 30.7784 17.3058 30.7988 17.2895 30.8162C17.2732 30.8336 17.2537 30.8476 17.2319 30.8573C17.2102 30.8671 17.1868 30.8724 17.1629 30.873ZM25.4588 28.1221C25.4588 28.2231 25.3519 28.2949 25.2508 28.2949H24.193C24.0919 28.2949 23.9764 28.2231 23.9764 28.1221V25.5879H25.4588V28.1221ZM24.8416 24.6855C25.6385 23.6543 26.1155 22.4444 26.251 21.0494C26.4871 22.3284 26.6817 23.7832 26.7955 24.6855H24.8416ZM8.21054 4.76154C8.28788 3.56587 9.30392 2.52708 10.4754 2.44593C10.7599 2.4266 11.0802 2.40249 11.4262 2.37677C12.8421 2.27133 14.7813 2.12695 16.3811 2.12695C18.0083 2.12695 20.1562 2.27996 21.7243 2.39173C22.0208 2.41287 22.296 2.43246 22.5425 2.44922C23.714 2.52817 24.7292 3.56529 24.8054 4.76141C24.8597 5.60755 24.9736 6.76687 25.0942 7.99425C25.2962 10.0521 25.5254 12.3846 25.526 13.7903C25.5266 15.449 25.3811 20.5727 25.3726 20.7332C25.2119 23.2187 23.9019 25.0383 21.4906 26.1415C20.1969 26.7335 18.8846 26.9555 18.2401 27.0358V25.8856C19.078 25.685 19.5506 25.4192 19.5839 25.4013C19.6804 25.3506 19.7554 25.2669 19.7953 25.1655C19.8351 25.0641 19.8372 24.9517 19.8011 24.8489C19.7914 24.8224 19.5292 24.1936 19.2069 23.5071L19.729 19.842C19.7303 19.832 19.73 19.822 19.7308 19.812C19.7501 19.5867 19.7222 19.3598 19.6488 19.1459C19.5755 18.932 19.4584 18.7357 19.3049 18.5696C19.1515 18.4035 18.9651 18.2712 18.7576 18.1812C18.5502 18.0912 18.3262 18.0455 18.1001 18.0469H14.9C14.6741 18.0455 14.4504 18.0912 14.2432 18.1811C14.036 18.2709 13.8498 18.403 13.6965 18.5689C13.5432 18.7348 13.4261 18.9308 13.3528 19.1445C13.2795 19.3581 13.2516 19.5847 13.2708 19.8098C13.2714 19.8179 13.2722 19.8269 13.2733 19.835L13.7603 23.5788C13.5535 23.992 13.3716 24.4172 13.2153 24.8521C13.1808 24.9529 13.1829 25.0627 13.2212 25.1622C13.2594 25.2616 13.3315 25.3445 13.4247 25.3962C13.4569 25.4144 13.9215 25.6893 14.7594 25.8922V27.0394C13.6325 26.9187 12.5312 26.6237 11.4947 26.1651C10.9011 25.9025 10.3428 25.5661 9.83327 25.1639C9.78218 25.0831 9.70698 25.0205 9.61832 24.9848C9.56854 24.9413 9.51944 24.8971 9.47105 24.8521C9.45106 24.8294 9.42887 24.8088 9.40479 24.7905C8.31869 23.7451 7.72256 22.3895 7.6273 20.7381C7.61886 20.5628 7.49021 15.3481 7.4915 13.7267C7.49234 12.3327 7.7205 10.0197 7.92179 7.97885C8.04251 6.7572 8.15633 5.60343 8.21054 4.76154ZM5.50125 5.7625C5.60119 5.76247 5.69889 5.79208 5.78199 5.84759C5.8651 5.90309 5.92988 5.982 5.96814 6.07432C6.0064 6.16664 6.01642 6.26824 5.99693 6.36626C5.97744 6.46428 5.92933 6.55432 5.85867 6.62499C5.788 6.69566 5.69797 6.74378 5.59996 6.76328C5.50194 6.78278 5.40034 6.77277 5.30801 6.73453C5.21569 6.69628 5.13677 6.63151 5.08126 6.54841C5.02574 6.46531 4.99612 6.36762 4.99613 6.26768C4.99628 6.13376 5.04955 6.00536 5.14424 5.91065C5.23894 5.81595 5.36733 5.76267 5.50125 5.7625Z" fill="black"/>
<path d="M10.0869 17.2819C10.4502 17.2819 10.8054 17.1741 11.1074 16.9723C11.4095 16.7704 11.645 16.4836 11.784 16.1479C11.923 15.8123 11.9594 15.4429 11.8885 15.0866C11.8177 14.7303 11.6427 14.4029 11.3858 14.1461C11.1289 13.8892 10.8016 13.7142 10.4453 13.6433C10.089 13.5725 9.71961 13.6088 9.38396 13.7479C9.04831 13.8869 8.76142 14.1223 8.55958 14.4244C8.35773 14.7265 8.25 15.0816 8.25 15.4449C8.25055 15.932 8.44425 16.3989 8.78862 16.7432C9.13299 17.0876 9.5999 17.2813 10.0869 17.2819ZM10.0869 14.5104C10.2718 14.5104 10.4524 14.5652 10.6061 14.6679C10.7598 14.7706 10.8796 14.9165 10.9503 15.0873C11.0211 15.2581 11.0396 15.446 11.0035 15.6273C10.9675 15.8086 10.8785 15.9751 10.7478 16.1058C10.6171 16.2365 10.4505 16.3255 10.2692 16.3616C10.088 16.3976 9.90004 16.3791 9.72927 16.3084C9.5585 16.2376 9.41254 16.1179 9.30985 15.9642C9.20716 15.8105 9.15234 15.6298 9.15234 15.4449C9.15263 15.1972 9.25119 14.9596 9.42639 14.7844C9.6016 14.6092 9.83914 14.5107 10.0869 14.5104ZM21.0762 15.4449C21.0762 15.8083 21.1839 16.1634 21.3857 16.4655C21.5876 16.7676 21.8745 17.003 22.2101 17.142C22.5458 17.2811 22.9151 17.3174 23.2715 17.2466C23.6278 17.1757 23.9551 17.0007 24.212 16.7438C24.4689 16.4869 24.6438 16.1596 24.7147 15.8033C24.7856 15.447 24.7492 15.0776 24.6102 14.742C24.4711 14.4063 24.2357 14.1195 23.9336 13.9176C23.6315 13.7158 23.2764 13.608 22.9131 13.608C22.4261 13.6086 21.9592 13.8023 21.6148 14.1467C21.2704 14.491 21.0767 14.9579 21.0762 15.4449ZM23.8477 15.4449C23.8477 15.6298 23.7928 15.8105 23.6902 15.9642C23.5875 16.1179 23.4415 16.2376 23.2707 16.3084C23.1 16.3791 22.9121 16.3976 22.7308 16.3616C22.5495 16.3255 22.3829 16.2365 22.2522 16.1058C22.1215 15.9751 22.0325 15.8086 21.9965 15.6273C21.9604 15.446 21.9789 15.2581 22.0497 15.0873C22.1204 14.9165 22.2402 14.7706 22.3939 14.6679C22.5476 14.5652 22.7282 14.5104 22.9131 14.5104C23.1609 14.5107 23.3984 14.6092 23.5736 14.7844C23.7488 14.9596 23.8474 15.1972 23.8477 15.4449ZM18.3305 14.1152H14.6695C14.3638 14.1152 14.1152 14.3839 14.1152 14.7037V16.1862C14.1138 16.2602 14.127 16.3337 14.1541 16.4026C14.1813 16.4715 14.2218 16.5343 14.2733 16.5874C14.3248 16.6406 14.3864 16.683 14.4544 16.7122C14.5224 16.7415 14.5955 16.757 14.6695 16.7578H18.3305C18.4045 16.757 18.4776 16.7415 18.5456 16.7122C18.6136 16.683 18.6752 16.6406 18.7267 16.5874C18.7782 16.5343 18.8187 16.4715 18.8459 16.4026C18.873 16.3337 18.8862 16.2602 18.8848 16.1862V14.7037C18.8848 14.3839 18.6362 14.1152 18.3305 14.1152ZM17.9824 15.8554H15.0176V15.0176H17.9824V15.8554Z" fill="black"/>
</svg>
