<svg width="1885" height="1573" viewBox="0 0 1885 1573" fill="none" xmlns="http://www.w3.org/2000/svg">
<g clip-path="url(#clip0_326_451)">
<path fill-rule="evenodd" clip-rule="evenodd" d="M942.5 0.000807732C1258.44 0.000807732 1530.46 188.099 1652.62 458.413C1639.59 456.104 1626.16 458.392 1614.63 464.885C1603.1 471.378 1594.19 481.674 1589.4 494.013C1583.54 489.84 1576.6 487.444 1569.41 487.111C1562.22 486.779 1555.08 488.525 1548.86 492.139C1551.84 469.563 1545.86 446.716 1532.19 428.505C1518.51 410.293 1498.24 398.168 1475.73 394.734C1453.22 391.3 1430.26 396.831 1411.78 410.138C1393.3 423.445 1380.77 443.468 1376.89 465.908C1365.2 457.239 1350.72 453.163 1336.22 454.45C1321.72 455.738 1308.2 462.301 1298.21 472.895C1288.22 483.489 1282.47 497.378 1282.04 511.931C1281.61 526.483 1286.53 540.688 1295.87 551.853L1153.48 574.825L1464.36 575.612L1694.82 576.192C1712.6 642.358 1721.59 710.578 1721.55 779.092C1721.55 1209.31 1372.81 1558.05 942.594 1558.05C512.38 1558.05 163.54 1209.18 163.54 778.961C163.31 621.524 211.018 467.747 300.318 338.086L527.519 339.079L769.935 340.147L645.467 322.272C649.471 315.484 652.1 307.973 653.202 300.168C654.303 292.364 653.857 284.419 651.888 276.787C649.92 269.155 646.467 261.986 641.728 255.688C636.988 249.391 631.055 244.088 624.266 240.084C617.478 236.079 609.967 233.451 602.163 232.349C594.358 231.247 586.413 231.694 578.781 233.662C571.149 235.631 563.98 239.084 557.682 243.823C551.385 248.562 546.082 254.496 542.078 261.284C533.082 258.629 523.523 258.538 514.479 261.022C514.893 257.916 515.099 254.787 515.097 251.654C515.101 232.92 507.847 214.913 494.858 201.414C481.868 187.914 464.154 179.972 445.434 179.255C585.038 63.173 760.939 -0.261091 942.5 0.000807732Z" fill="#A7E92F"/>
<path fill-rule="evenodd" clip-rule="evenodd" d="M366.663 147.627C366.663 147.627 370.092 177.343 377.737 189.785C385.381 202.226 390.852 213.88 390.552 221.637C390.552 221.637 398.778 219.52 404.23 220.588C409.683 221.656 411.013 223.23 412.812 223.417C412.812 223.417 409.196 224.354 406.872 224.785C404.549 225.216 402.825 231.98 397.504 232.86C403.786 237.976 409.79 243.424 415.491 249.18C421.487 255.682 432.223 265.368 442.397 268.085C442.397 268.085 425.122 268.76 417.121 265.443C405.131 259.905 394.317 252.112 385.269 242.491C385.269 242.491 365.595 242.491 362.991 242.491C360.386 242.491 332.768 259.073 326.754 262.352C326.754 262.352 346.278 249.03 353.622 242.023C353.622 242.023 320.758 245.189 314.688 245.526C314.688 245.526 350.643 239.268 354.84 237.769C359.037 236.27 366.082 229.488 372.34 226.527C372.34 226.527 365.951 217.309 359 195.705C352.049 174.102 366.663 147.627 366.663 147.627Z" fill="#051E34"/>
<path fill-rule="evenodd" clip-rule="evenodd" d="M540.916 291.432C540.916 291.432 542.789 308.295 547.211 315.415C551.633 322.535 554.706 329.111 554.5 333.57C557.035 332.907 559.669 332.704 562.276 332.971C563.935 333.415 565.568 333.953 567.166 334.582C567.166 334.582 565.105 335.107 563.793 335.351C562.482 335.594 561.489 339.454 558.416 339.941C561.99 342.88 565.405 346.007 568.646 349.309C572.056 353.057 578.164 358.509 583.935 360.064C583.935 360.064 574.117 360.439 569.564 358.565C562.74 355.395 556.588 350.943 551.446 345.45H538.761C537.281 345.45 521.579 354.818 518.151 356.692C523.454 353.12 528.558 349.26 533.44 345.131C533.44 345.131 514.703 347.005 511.293 347.136C511.293 347.136 531.753 343.557 534.133 342.714C536.513 341.871 540.541 338.011 544.082 336.325C544.082 336.325 540.466 331.079 536.494 318.806C532.522 306.533 540.916 291.432 540.916 291.432Z" fill="#051E34"/>
<path fill-rule="evenodd" clip-rule="evenodd" d="M321.489 359.576C321.489 359.576 323.906 380.636 329.321 389.555C334.735 398.474 338.595 406.624 338.408 412.17C341.566 411.343 344.848 411.095 348.095 411.439C350.157 411.998 352.189 412.661 354.184 413.425C354.184 413.425 351.617 414.1 349.968 414.4C348.32 414.7 347.102 419.496 343.261 420.021C347.714 423.648 351.973 427.506 356.02 431.581C360.274 436.191 367.881 443.048 375.076 444.997C375.076 444.997 362.841 445.465 357.182 443.123C348.677 439.2 341.006 433.679 334.586 426.86C334.586 426.86 320.645 426.86 318.791 426.86C316.936 426.86 297.393 438.626 293.121 440.931C299.718 436.476 306.072 431.672 312.158 426.541C312.158 426.541 288.868 428.771 284.559 429.014C284.559 429.014 310.04 424.574 313.038 423.525C316.036 422.475 321.002 417.66 325.423 415.561C325.423 415.561 320.908 409.041 316.055 393.733C311.202 378.425 321.489 359.576 321.489 359.576Z" fill="#051E34"/>
<path fill-rule="evenodd" clip-rule="evenodd" d="M1647.49 1109.6C1595.25 1220.32 1517.75 1317.22 1421.22 1392.52H463.776C281.056 1249.98 163.539 1027.72 163.539 777.96C163.539 751.729 164.788 725.828 167.286 700.259C167.952 702.22 168.287 704.278 168.279 706.349V761.697H197.097V973.721H211.767V926.749H247.779V887.701H265.148V838.255H302.809V887.701H358.438V1035.93H378.58V1070.25H429.113V1167.12H451.073V997.461C442.847 925.587 429.994 843.295 411.726 805.616C400.877 810.019 388.417 818.151 378.768 824.783L369.156 819.406L375.358 827.107C366.27 833.533 357.745 840.335 349.913 847.136L345.229 842.246L347.908 848.879C340.245 855.605 333.237 862.332 326.979 868.683C327.26 813.429 372.66 803.817 394.975 805.166C384.389 802.618 373.765 800.613 363.235 799.077L358.832 785.211L357.895 798.327C343.205 796.453 328.722 795.292 314.913 794.842L314.782 785.83L311.391 794.73C297.806 794.355 284.897 794.58 273.018 795.104C325.481 739.063 381.072 776.143 399.453 797.484C391.958 784.237 383.695 771.515 375.095 759.373L384.276 742.623L371.029 753.621C359.563 737.882 347.496 723.193 335.43 709.646L343.861 701.346L332.338 706.199C320.384 692.97 308.468 680.885 297.226 670.112C379.011 669.419 404.343 726.078 409.065 767.13C420.438 727.446 454.483 676.164 534.601 689.729C521.785 698.592 508.126 708.616 494.223 719.708L483.675 713.15L490.701 722.668C476.63 734.135 462.39 746.745 448.581 760.46L437.189 747.494L443.597 765.482C442.023 767.074 440.468 768.686 438.913 770.316C460.46 757.519 490.645 752.684 524.258 779.834C513.429 780.846 501.774 782.288 489.389 784.312L485.211 776.667L486.223 784.855C473.744 787.029 460.76 789.821 447.663 793.437L445.171 781.651L442.904 794.767C433.085 797.634 423.23 800.969 413.506 804.847C423.324 819.05 443.484 858.191 463.945 957.87H471.177V943.612H508.651V904.264H534.414V879.232C534.424 874.655 536.247 870.269 539.486 867.034C542.724 863.8 547.112 861.981 551.689 861.976C556.263 861.986 560.646 863.807 563.88 867.041C567.114 870.275 568.936 874.659 568.945 879.232V904.264H594.708V943.612H606.587V1144.21H628.285V881.162H682.809V832.953H731.018V881.162H742.26V1136.82H779.04V1069.15H836.019V1037.43H883.291V1069.15H893.053V1200.04H917.018V1139H928.26V1012.94H936.541V982.959H983.72V1012.94H996.311V960.212C996.321 956.516 997.792 952.974 1000.4 950.359C1003.02 947.744 1006.56 946.268 1010.25 946.253C1013.95 946.263 1017.5 947.737 1020.11 950.353C1022.73 952.969 1024.2 956.513 1024.21 960.212V1012.94H1039.2V1138.89H1050.44V1257.06H1070.43V1171.6H1108.84V1194.08H1134.91V1171.6H1158.55V1156.37H1196.33V1037.71H1224.43V1032.46L1281.95 990.978V1037.71H1316.33V997.274H1355.25V799.732H1364.99V781.427H1378.77V746.726H1386.78V735.278H1402.04V724.392C1402.05 719.485 1404 714.782 1407.47 711.313C1410.94 707.843 1415.64 705.89 1420.55 705.88C1425.45 705.895 1430.15 707.85 1433.62 711.318C1437.09 714.787 1439.05 719.487 1439.06 724.392V735.259H1454.29V781.408H1497.11V799.714H1512.9V1141.1H1532.2V1066.34H1574.64V1037.73H1588V1024.99C1588.01 1020.74 1589.71 1016.67 1592.71 1013.67C1595.71 1010.67 1599.77 1008.98 1604.02 1008.97C1608.26 1008.98 1612.33 1010.67 1615.33 1013.67C1618.33 1016.67 1620.02 1020.74 1620.04 1024.99V1037.73H1633.4V1066.34H1647.45L1647.49 1109.6Z" fill="black"/>
<path fill-rule="evenodd" clip-rule="evenodd" d="M771.32 1188.19C765.399 1188.19 759.516 1188.96 753.632 1187.01C746.138 1184.5 743.814 1179.66 745.744 1172.41C747.674 1165.16 752.096 1163.04 759.253 1164.92C768.622 1167.32 777.99 1169 786.909 1173.01C791.012 1174.89 795.378 1177.11 794.403 1182.7C793.429 1188.28 788.483 1187.59 784.642 1188C780.276 1188.49 775.742 1188.19 771.32 1188.19Z" fill="#0A1B49"/>
<path fill-rule="evenodd" clip-rule="evenodd" d="M1727 1232.46V1442.75L1334.49 1507.87L942 1573L549.491 1507.87L157 1442.75V1232.46H183.926C182.054 1231.44 177.803 1228.3 200.179 1227.82C226.881 1227.25 250.512 1219.65 283.879 1213.18C317.247 1206.71 325.598 1208.24 348.386 1212.43C371.174 1216.61 368.984 1197.59 418.735 1215.65C468.487 1233.72 559.434 1224.21 594.749 1214.13C630.064 1204.05 658.151 1187.92 679.01 1194.55C699.87 1201.19 694.851 1204.44 706.536 1199.32C718.22 1194.19 725.448 1189.05 752.973 1197.41C780.499 1205.78 838.04 1204.26 899.214 1197.41C960.388 1190.56 933.424 1198.75 974.862 1192.47C1016.3 1186.19 1010.16 1179.17 1030.46 1187.92C1050.75 1196.66 1050.21 1184.86 1075.51 1185.63C1100.81 1186.39 1082.19 1179.93 1107.77 1174.61C1133.35 1169.28 1157.82 1200.46 1264.59 1214.14C1371.36 1227.82 1448.67 1182.59 1476.48 1186.39C1504.29 1190.19 1505.95 1213.38 1533.76 1203.88C1561.57 1194.39 1574.95 1200.84 1612.16 1214.52C1643.99 1226.21 1686.69 1231.2 1698.54 1232.47L1727 1232.46Z" fill="black"/>
<path d="M793.923 302.904H1097.48L1134.5 305.372L1178.92 320.18L1208.54 332.52L1260.37 354.731L1282.58 369.539L1299.85 386.815L1319.6 416.43L1329.47 433.706V450.981L1299.85 480.597L1280.11 497.872L1277.64 665.693L1280.11 724.924L1294.92 739.731L1297.38 1114.86V1193.83L1292.45 1198.77L1262.83 1206.17L1257.9 1208.64L1252.96 1307.36L1243.09 1319.7L1235.69 1322.17H1215.94L1193.73 1314.76L1191.26 1309.83L1188.8 1265.4V1230.85L1025.91 1233.32L1001.23 1235.79L1003.7 1324.64L1062.93 1327.1L1067.87 1329.57V1344.38L1060.46 1351.78L1040.72 1354.25H1018.51L1020.97 1371.53L1003.7 1381.4L1001.23 1462.84L998.763 1467.78L986.423 1470.24L969.148 1462.84V1544.28L966.68 1581.3L954.34 1596.11L944.468 1598.58L924.725 1591.17L917.321 1583.77L914.853 1573.9L912.385 1460.37L895.109 1472.71L885.238 1470.24L882.77 1462.84V1425.82L885.238 1364.12L882.77 1356.72L867.962 1351.78L838.346 1349.31H818.603L813.667 1344.38L816.135 1332.04L818.603 1329.57H867.962L860.558 1287.62L863.026 1265.4L875.366 1250.6L877.834 1240.72L872.898 1238.26L826.007 1235.79H692.738L690.27 1290.08L682.866 1314.76L672.994 1322.17L653.25 1324.64L631.039 1319.7L623.635 1307.36L621.167 1203.71L591.552 1201.24L586.616 1191.37L584.148 1021.08V932.231L586.616 742.199L603.891 724.924V497.872L591.552 485.532L566.872 465.789L552.064 448.513L554.532 433.706L569.34 406.558L589.084 381.879L608.827 362.135L638.443 347.327L714.949 315.244L747.032 305.372L793.923 302.904ZM623.635 552.167L628.571 569.443L643.379 579.315L650.782 576.847L648.314 562.039L633.507 552.167H623.635ZM677.93 586.718L672.994 591.654L668.058 623.738V692.84L672.994 702.712L680.398 705.18H1215.94V601.526L1206.07 589.186L1188.8 586.718L1099.95 591.654H786.52L714.949 589.186L677.93 586.718ZM840.814 1336.97L843.282 1344.38L845.75 1336.97H840.814Z" fill="#6D981E"/>
<path d="M793.923 302.904H1097.48L1134.5 305.372L1178.92 320.18L1208.54 332.52L1260.37 354.731L1282.58 369.539L1299.85 386.815L1319.6 416.43L1329.47 433.706V450.981L1299.85 480.597L1280.11 497.872L1277.64 505.276H1272.71L1265.3 517.616L1228.28 547.231L1215.94 554.635L1203.6 569.443L1186.33 574.379L1030.85 576.847H756.904L707.545 574.379L685.334 566.975L665.59 549.699L658.186 527.488L650.782 529.956L638.443 525.02L635.975 517.616L628.571 515.148V510.212L618.699 507.744L613.763 492.936V458.385L616.231 436.174L611.295 441.109L608.827 490.468L603.891 495.404L569.34 468.257L552.064 448.513L554.532 433.706L569.34 406.558L589.084 381.879L608.827 362.135L638.443 347.327L714.949 315.244L747.032 305.372L793.923 302.904Z" fill="#464240"/>
<path d="M608.826 436.174H616.23V492.937L621.166 507.744L628.57 510.212L640.909 525.02L658.185 527.488L660.653 522.552L668.057 549.699L690.268 566.975L707.544 571.911L781.582 574.379H1030.85L1186.33 571.911L1203.6 569.443L1208.54 559.571L1220.88 547.232L1238.15 537.36L1260.36 517.616H1265.3L1270.24 502.808H1280.11L1277.64 665.693L1280.11 724.924L1294.92 739.732L1297.38 1114.86V1193.83L1292.45 1198.77L1262.83 1206.17L1255.43 1208.64V1201.24H1188.79L1186.33 1213.58H1129.56L1107.35 1208.64H1001.23L998.762 1102.52L993.826 1095.12L971.614 1092.65L966.679 1085.24L954.339 1092.65H929.659L912.384 1080.31L902.512 1063.03L904.98 1040.82L914.852 1026.01L927.191 1018.61L934.595 1016.14H951.871L966.679 1026.01L976.55 1038.35L979.018 1043.29V1085.24L991.358 1087.71H998.762L996.294 1077.84L1003.7 1070.44L1013.57 1043.29L1011.1 1026.01L1006.17 1023.55L1011.1 998.866L1018.51 991.462L1028.38 1003.8L1033.31 1021.08V1050.69L1025.91 1075.37L1016.04 1092.65V1109.92L1020.97 1119.8L1023.44 1146.94L1025.91 1164.22L1136.97 1166.69H1292.45L1285.04 1146.94L1272.7 1132.14L1270.24 1008.74L1262.83 954.443L1265.3 937.167L1270.24 927.296V843.385L1228.28 833.514L1220.88 813.77V717.52H665.589L663.121 737.264L660.653 823.642L653.249 831.046L638.441 833.514V838.449H608.826V1114.86L603.89 1142.01L594.018 1156.81L591.55 1169.15L690.268 1171.62L863.025 1174.09L870.429 1196.3L865.493 1201.24L774.179 1206.17L781.582 1213.58H690.268L687.8 1206.17L623.634 1203.71V1223.45H621.166V1203.71L591.55 1201.24L586.614 1191.37L584.146 1021.08V932.232L586.614 742.199L603.89 724.924V495.405L606.358 478.129L608.826 436.174ZM623.634 552.167L628.57 569.443L643.377 579.315L650.781 576.847L648.313 562.039L633.505 552.167H623.634ZM677.929 586.719L672.993 591.655L668.057 623.738V692.841L672.993 702.712L680.396 705.18H1215.94V601.526L1206.07 589.187L1188.79 586.719L1099.95 591.655H786.518L714.948 589.187L677.929 586.719Z" fill="#30312F"/>
<path d="M890.172 1090.18L902.512 1095.11L907.448 1124.73L919.788 1127.2H979.019V1095.11L981.487 1092.65H993.826L1001.23 1102.52L1003.7 1206.17H1107.35L1132.03 1211.11H1186.33L1188.79 1201.24L1193.73 1198.77H1250.49L1255.43 1201.24V1270.34L1252.96 1307.36L1243.09 1319.7L1235.69 1322.16H1215.94L1193.73 1314.76L1191.26 1309.83L1188.79 1265.4V1230.85L1025.91 1233.32L1001.23 1235.79L1003.7 1324.63L1062.93 1327.1L1067.86 1329.57V1344.38L1060.46 1351.78L1040.72 1354.25H1018.51L1020.97 1371.52L1003.7 1381.4L1001.23 1462.84L998.762 1467.77L986.422 1470.24L969.147 1462.84V1544.28L966.679 1581.3L954.339 1596.11L944.467 1598.58L924.724 1591.17L917.32 1583.77L914.852 1573.9L912.384 1460.37L895.108 1472.71L885.237 1470.24L882.769 1462.84V1425.82L885.237 1364.12L882.769 1356.72L867.961 1351.78L838.346 1349.31H818.602L813.666 1344.38L816.134 1332.04L818.602 1329.57H867.961L860.557 1287.61L863.025 1265.4L875.365 1250.59L877.833 1240.72L872.897 1238.25L826.006 1235.79V1233.32L867.961 1230.85L885.237 1225.91L882.769 1203.7L880.301 1201.24V1132.13L882.769 1095.11L890.172 1090.18ZM840.813 1336.97L843.281 1344.38L845.749 1336.97H840.813Z" fill="#464240"/>
<path d="M653.249 826.107H660.653L663.121 900.146H668.057L680.397 890.274L700.141 880.402L705.076 872.998L695.205 870.53L697.673 858.191L764.307 840.915L779.115 833.511L798.858 831.043L808.73 843.383L813.666 850.787L811.198 865.595L801.326 875.466L779.115 877.934L771.711 872.998H754.435L714.948 885.338L687.801 895.21L685.333 900.146H680.397V905.082H788.987L850.685 907.55L860.557 932.229L858.089 939.633H621.166V1026.01L618.698 1087.71L616.23 1104.99L870.429 1107.45L863.025 1085.24L855.621 1075.37L850.685 1050.69V1026.01L855.621 1001.33L872.897 986.524L882.769 988.992L887.705 1003.8H1001.23V981.588L1016.04 988.992L1011.1 1003.8L1008.63 1023.54L1013.57 1030.95L1016.04 1045.75L1003.7 1075.37L996.294 1077.84L998.762 1087.71L981.487 1090.18L976.551 1085.24V1043.29L966.679 1028.48L951.871 1018.61H934.596L917.32 1026.01L907.448 1040.82L904.98 1063.03L917.32 1082.77L929.66 1090.18H954.339L969.147 1082.77L971.615 1092.65L981.487 1095.11L979.019 1127.2L974.083 1129.67H919.788L904.98 1124.73L900.044 1095.11L890.173 1092.65L885.237 1095.11L882.769 1132.13V1201.24L885.237 1203.7V1225.92L867.961 1233.32L692.737 1235.79L690.269 1290.08L682.865 1314.76L672.993 1322.17L653.249 1324.63L631.038 1319.7L623.634 1307.36V1203.7H687.801L690.269 1213.58L779.115 1211.11L771.711 1206.17L774.179 1203.7L865.493 1198.77L867.961 1191.36L863.025 1174.09H690.269L596.487 1171.62L591.551 1169.15L594.019 1151.88L601.423 1142L606.358 1112.39L608.826 838.447L623.634 835.979L633.506 833.511L638.442 831.043H653.249V826.107Z" fill="#46423F"/>
<path d="M793.923 302.904H1097.48L1134.5 305.372L1178.92 320.18L1208.54 332.52L1260.37 354.731L1282.58 369.539L1299.85 386.815L1319.6 416.43L1329.47 433.706V443.577L1309.72 441.109V436.174L1285.04 428.77L1255.43 418.898L1215.94 404.09L1166.58 384.347L1119.69 369.539L1097.48 367.071H766.776L695.205 391.75L665.59 404.09L611.295 423.834L574.276 436.174H559.468L557 426.302L584.147 386.815L608.827 362.135L638.442 347.327L714.949 315.244L747.032 305.372L793.923 302.904Z" fill="#30312F"/>
<path d="M1275.17 665.691H1277.64L1280.11 724.922L1294.92 739.73L1297.38 1114.86V1193.83L1292.45 1198.77L1262.83 1206.17L1255.43 1208.64V1201.24H1188.79L1186.33 1213.58H1129.56L1107.35 1208.64H1001.23L998.762 1102.52L993.826 1095.11L971.614 1092.65L966.678 1085.24L954.339 1092.65H929.659L912.384 1080.31L902.512 1063.03L904.98 1040.82L914.851 1026.01L927.191 1018.61L934.595 1016.14H951.871L966.678 1026.01L976.55 1038.35L979.018 1043.29V1085.24L991.358 1087.71H998.762L996.294 1077.84L1003.7 1070.44L1013.57 1043.29L1011.1 1026.01L1006.17 1023.54L1011.1 998.865L1018.51 991.461L1028.38 1003.8L1033.31 1021.08V1050.69L1025.91 1075.37L1016.04 1092.65V1109.92L1020.97 1119.79L1023.44 1146.94L1025.91 1164.22L1136.97 1166.69H1292.45L1285.04 1146.94L1272.7 1132.13L1270.24 1008.74L1262.83 954.441L1265.3 937.166L1270.24 927.294V843.384L1228.28 833.512L1220.88 813.768V766.877L1225.81 739.73L1238.15 742.198L1243.09 747.134L1250.49 739.73H1267.77L1270.24 722.454L1272.7 680.499L1275.17 665.691Z" fill="black"/>
<path d="M1223.35 818.705L1228.28 823.641V833.513H1243.09L1270.24 843.385L1272.71 892.744V927.295L1265.3 947.038L1267.77 971.718L1272.71 1008.74L1275.17 1132.13L1289.98 1149.41L1292.45 1166.69L1250.49 1169.15H1136.97L1033.31 1166.69L1025.91 1164.22L1020.97 1146.94L1018.51 1119.79L1016.04 1109.92H1095.01L1265.3 1112.39L1260.37 1026.01L1257.9 949.506L1252.96 939.635H1038.25L1023.44 934.699L1030.85 907.551L1033.31 905.083L1201.14 902.615L1193.73 897.679V892.744L1166.58 885.34L1122.16 870.532L1107.35 877.936H1087.61L1072.8 865.596V845.853L1077.74 833.513L1097.48 831.045L1112.29 835.981L1119.69 843.385L1186.33 855.724L1188.8 858.192V873L1178.92 877.936L1186.33 882.872L1206.07 887.808L1211.01 902.615H1225.81L1223.35 818.705Z" fill="#464240"/>
<path d="M606.358 520.084H608.826L611.294 544.763L616.23 547.231L618.698 542.296L631.038 544.763L638.441 554.635L623.634 552.167L621.166 559.571L611.294 557.103V710.116L616.23 727.392V739.731L643.377 747.135H660.653V823.642L653.249 831.046L638.441 833.513V838.449H608.826V1114.86L603.89 1142.01L594.018 1156.81L591.55 1169.15L690.268 1171.62L863.025 1174.09L870.429 1196.3L865.493 1201.24L774.179 1206.17L781.582 1213.58H690.268L687.8 1206.17L623.634 1203.71V1223.45H621.166V1203.71L591.55 1201.24L586.614 1191.37L584.146 1021.08V932.231L586.614 742.199L603.89 724.924L606.358 520.084Z" fill="#30312F"/>
<path d="M892.642 845.854H986.424L996.296 850.789L998.764 858.193L1001.23 892.745L1003.7 905.084L1013.57 907.552L1008.64 932.232V974.187L1020.98 988.995L1030.85 998.866L1035.78 1018.61V1055.63L1028.38 1080.31L1018.51 1095.12L1016.04 1102.52L1030.85 1100.05L1065.4 1102.52H1132.03L1257.9 1107.46L1260.37 1026.01H1262.83L1265.3 1058.1V1112.39H1080.21L1013.57 1109.92V1092.65L1025.91 1070.44L1030.85 1050.69V1021.08L1023.44 998.866L1013.57 988.995L1003.7 984.059L1001.23 1003.8L993.828 1006.27H887.706L880.302 988.995L870.43 991.462L858.091 1001.33L853.155 1026.01V1050.69L855.623 1072.9L850.687 1067.97L848.219 1055.63V1013.67L855.623 993.93L870.43 981.591L877.834 966.783L875.366 939.636L870.43 910.02L880.302 900.148L882.77 875.469L887.706 848.321L892.642 845.854Z" fill="black"/>
<path d="M793.923 302.904H1097.48L1134.5 305.372L1146.84 310.308L1136.97 317.712L1127.1 322.648L1122.16 330.052V354.731L1109.82 359.667H781.583L756.904 352.263L732.224 332.52H712.48L668.057 347.327L643.378 354.731L628.57 359.667H616.23L621.166 354.731L702.609 320.18L747.032 305.372L793.923 302.904Z" fill="#30312F"/>
<path d="M608.827 436.174H616.23V492.937L621.166 507.744L628.57 510.212L640.91 525.02L658.185 527.488L660.653 522.552L668.057 549.699L690.269 566.975L707.544 571.911L781.583 574.379H1030.85L1186.33 571.911L1203.6 569.443L1208.54 559.571L1220.88 547.232L1238.15 537.36L1260.36 517.616H1265.3L1270.24 502.808H1280.11L1277.64 653.353L1272.7 643.482V606.462L1270.24 601.526H1275.17V596.59H1270.24L1272.7 579.315V564.507H1265.3L1260.36 569.443L1248.03 579.315L1230.75 586.719H1218.41V581.783H1213.47V596.59L1201.13 589.187L1099.95 594.123H786.519L714.948 591.655L677.929 589.187L672.993 606.462L655.718 591.655L640.91 584.251L621.166 576.847H608.827V557.103H618.698H626.102L631.038 569.443L643.378 576.847H648.314L645.846 562.039L628.57 544.764L618.698 542.296L616.23 549.699L608.827 544.764L603.891 495.405L606.359 478.129L608.827 436.174Z" fill="#30312F"/>
<path d="M900.734 1213.48H905.198L909.661 1223.37L925.283 1215.95H969.916L987.77 1223.37L992.233 1230.78V1275.27L994.465 1292.57L996.697 1327.18L998.928 1337.07L992.233 1369.2L990.002 1381.56L992.233 1411.22L983.306 1448.29L974.38 1453.24L972.148 1450.77V1386.5L983.306 1379.08L985.538 1374.14L972.148 1371.67L969.916 1282.69H925.283L923.051 1374.14H914.124L923.051 1384.03V1448.29L920.819 1450.77H909.661L905.198 1408.75V1381.56L907.429 1371.67L900.734 1342.01L896.271 1334.59L894.039 1309.88L885.113 1299.99L882.881 1277.74L887.344 1270.33H894.039L896.271 1245.61L898.503 1223.37L900.734 1213.48Z" fill="#FEFEFE"/>
<path d="M1099.95 517.615H1112.29L1114.76 525.019H1127.1L1139.44 534.891L1154.24 554.634L1149.31 564.506L1146.84 566.974L1127.1 569.442H774.179L739.627 566.974L734.691 559.57L739.627 547.231L761.839 537.359L779.114 534.891H816.134L840.813 539.827L949.403 534.891H1055.52L1085.14 527.487L1099.95 517.615Z" fill="#464240"/>
<path d="M850.685 374.475H1050.59L1065.4 379.411L1062.93 423.834L1055.52 426.302L986.422 428.769H904.98L823.538 426.302L818.602 421.366L813.666 381.878L818.602 376.943L850.685 374.475Z" fill="#464240"/>
<path d="M1275.17 665.691H1277.64L1280.11 724.922L1292.45 737.262L1294.92 742.198L1292.45 749.602L1289.98 781.685L1287.51 1139.54L1275.17 1134.6L1272.71 1132.13L1270.24 1008.74L1262.83 954.441L1265.3 937.166L1270.24 927.294V843.384L1228.28 833.512L1220.88 813.768V766.877L1225.81 739.73L1238.15 742.198L1243.09 747.134L1250.49 739.73H1267.77L1270.24 722.454L1272.71 680.499L1275.17 665.691Z" fill="#30312F"/>
<path d="M1085.14 831.045H1102.42L1114.76 838.449L1119.69 843.385L1186.33 855.724L1188.79 858.192V873L1178.92 877.936L1186.33 882.872L1206.07 887.808L1211.01 902.615H1225.81L1228.28 895.212L1235.69 917.423L1252.96 934.699V939.635H1038.25L1023.44 934.699L1030.85 907.551L1033.31 905.083L1201.13 902.615L1193.73 897.68V892.744L1166.58 885.34L1122.16 870.532L1107.35 877.936H1087.61L1072.8 865.596V845.853L1077.74 833.513L1085.14 831.045Z" fill="black"/>
<path d="M658.186 831.045H660.654L663.122 900.147H668.058L680.398 890.276L700.141 880.404L705.077 873L695.205 870.532L697.673 858.192L764.308 840.917L779.116 833.513L798.859 831.045L808.731 843.385L813.667 850.789L811.199 865.596L801.327 875.468L779.116 877.936L771.712 873H754.436L714.949 885.34L687.801 895.212L685.333 900.147H680.398V905.083H788.987L850.686 907.551L860.558 932.231L858.09 939.635H623.635L626.103 927.295L650.782 912.487L655.718 887.808L658.186 831.045Z" fill="black"/>
<path d="M618.699 744.666H635.975L643.379 747.134H660.654V823.64L653.25 831.044L638.443 833.512V838.448H608.827V1114.86L603.891 1139.54H596.487L594.02 1021.08V828.576L596.487 749.602L608.827 752.07L613.763 757.006L618.699 744.666Z" fill="#FEFEFE"/>
<path d="M622 1204H686.621L684.136 1218.82H873.029L878 1221.29V1226.22L835.748 1228.69H763.67L751.243 1231.16H689.107V1290.43L681.65 1315.12L671.709 1322.53L651.825 1325L629.456 1320.06L622 1307.71V1204Z" fill="#323230"/>
<path d="M897.576 850.787H988.89L993.826 855.723L996.294 868.063L998.762 905.082L1001.23 914.954V939.633L907.448 937.165L887.704 934.697L885.236 932.229L887.704 902.614L892.64 855.723L897.576 850.787Z" fill="#4A4E4E"/>
<path d="M1001.23 981.59L1016.04 988.994L1011.1 1003.8L1008.64 1023.54L1013.57 1030.95L1016.04 1045.76L1003.7 1075.37L996.296 1077.84L998.764 1087.71L981.488 1090.18L976.552 1085.24V1043.29L966.68 1028.48L951.873 1018.61H934.597L917.322 1026.01L907.45 1040.82L904.982 1063.03L917.322 1082.78L929.661 1090.18H954.341L969.148 1082.78L971.616 1092.65L981.488 1095.12L979.02 1127.2L974.084 1129.67H919.789L904.982 1124.73L900.046 1095.12L895.11 1092.65V1085.24H890.174L882.77 1070.44L875.366 1026.01L872.898 1008.74L875.366 1003.8H1001.23V981.59Z" fill="#48433F"/>
<path d="M872.897 986.527L882.769 988.995L885.237 1003.8H875.365L877.833 1030.95L885.237 1070.44L890.173 1085.25H895.108V1090.18L885.237 1095.12L882.769 1132.14V1201.24L885.237 1203.71V1225.92L867.961 1233.32L692.737 1235.79V1253.07L687.801 1248.13V1228.39H751.967L764.307 1225.92H877.833V1220.98H722.352L685.333 1218.51L687.801 1206.17L690.269 1213.58L779.115 1211.11L771.711 1206.17L774.179 1203.71L865.493 1198.77L867.961 1191.37L863.025 1174.09H690.269L596.487 1171.62L591.551 1169.16V1156.82L596.487 1164.22L717.416 1166.69H860.557L863.025 1169.16L865.493 1164.22L867.961 1139.54V1095.12L855.621 1075.37L850.685 1050.69V1026.01L855.621 1001.34L872.897 986.527Z" fill="black"/>
<path d="M907.449 1176.56H954.34L983.955 1179.02L986.423 1181.49L988.891 1213.58H996.295V1245.66L1001.23 1258L1003.7 1324.63L1062.93 1327.1L1067.87 1329.57V1344.38L1060.46 1351.78L1040.72 1354.25H1018.51L1020.97 1371.52L1003.7 1381.4L1001.23 1462.84L998.763 1467.77L986.423 1470.24L969.147 1460.37V1452.97L979.019 1448.03L988.891 1408.54L986.423 1371.52L991.359 1364.12L996.295 1332.04L993.827 1327.1L991.359 1285.15L988.891 1265.4V1230.85L986.423 1223.45L971.615 1220.98L966.679 1218.51H917.32L897.577 1225.92L895.109 1213.58H890.173L887.705 1223.45V1203.7L892.641 1186.43L900.045 1179.02L907.449 1176.56Z" fill="#464240"/>
<path d="M613.762 574.377L638.442 579.313L648.313 586.717L665.589 596.588L670.525 603.992L668.057 697.774L663.121 705.178L658.185 727.39L648.313 742.197H621.166L616.23 739.73L608.826 702.71V576.845L613.762 574.377Z" fill="#30312F"/>
<path d="M1202.55 1204H1258V1307.25L1247.92 1319.54L1240.36 1322H1220.19L1197.51 1314.62L1194.99 1309.71L1192.47 1265.46L1189.95 1231.04L1134.5 1228.58L1018.56 1226.12L1011 1223.67V1218.75L1016.04 1216.29H1197.51L1202.55 1221.21L1200.03 1233.5L1210.11 1235.96L1217.67 1233.5L1222.71 1226.12H1227.76L1225.23 1211.37L1202.55 1206.46V1204Z" fill="#323130"/>
<path d="M1228.28 1171.62H1289.98L1282.58 1196.3L1280.11 1201.24L1255.43 1208.64V1201.24H1188.8L1186.33 1213.58H1129.56L1112.29 1211.11L1122.16 1206.17L1117.22 1203.71L1082.67 1201.24L1016.04 1198.77L1018.51 1179.03L1023.44 1174.09L1228.28 1171.62Z" fill="#30312F"/>
<path d="M668.058 692.84L672.994 700.244L680.398 702.712L1215.94 705.18L1218.41 700.244V705.18L1225.81 707.648V747.135L1220.88 737.263V717.519H665.59L660.654 747.135L640.911 749.603L618.699 744.667V742.199L648.315 739.731L658.186 719.987L663.122 700.244L668.058 692.84Z" fill="#30312F"/>
<path d="M653.25 826.107H660.653L658.185 887.806L653.25 912.486L640.91 922.357L628.57 927.293L623.634 939.633L618.698 1087.71L613.762 1127.2L603.891 1139.54L606.359 1104.99L608.827 838.447L623.634 835.979L633.506 833.511L638.442 831.043H653.25V826.107Z" fill="#30312F"/>
<path d="M890.854 945.673C891.948 943.484 894.186 942.102 896.633 942.102H978.618C986.226 942.102 992.981 946.97 995.387 954.188C995.987 955.99 996.294 957.878 996.294 959.778V987.868C996.294 990.23 995.744 992.561 994.687 994.674C992.586 998.875 988.664 1001.87 984.058 1002.79L981.26 1003.35C979.77 1003.65 978.251 1003.78 976.732 1003.73L902.695 1001.49C899.407 1001.39 896.28 1000.04 893.954 997.711C891.532 995.289 890.172 992.004 890.172 988.579V948.563C890.172 947.56 890.405 946.57 890.854 945.673Z" fill="black"/>
<path d="M591.551 1174.09H863.025L865.493 1179.03V1196.3L863.025 1198.77H645.846L633.506 1196.3L623.634 1186.43L621.166 1181.49L606.358 1179.03L601.423 1188.9L596.487 1186.43L591.551 1174.09Z" fill="#30312F"/>
<path d="M890.172 1102.52H895.108L897.576 1107.46V1129.67H979.018L983.954 1127.2L988.89 1109.92L993.826 1107.46L996.294 1117.33V1142.01L998.762 1146.94V1179.03L996.294 1213.58H986.422L983.954 1181.49L954.339 1179.03H907.448L895.108 1186.43L887.704 1191.37L885.236 1169.15V1129.67L887.704 1107.46L890.172 1102.52Z" fill="#FEFEFE"/>
<path d="M1223.35 818.705L1228.28 823.641V833.513H1243.09L1270.24 843.385L1272.7 892.744V927.295L1265.3 947.038L1267.77 971.718L1272.7 1008.74V1127.2L1267.77 1119.79L1265.3 1112.39L1260.36 1026.01L1257.9 949.506L1252.96 937.167L1233.22 917.423L1225.81 895.211L1223.35 818.705Z" fill="#30312F"/>
<path d="M1280.11 749.604L1289.98 752.071L1287.51 1139.54L1277.64 1134.6L1275.17 1129.67V752.071L1280.11 749.604Z" fill="#FEFEFE"/>
<path d="M618.698 744.666H635.974L643.377 747.134H660.653V823.64L653.249 831.044L638.442 833.512V838.448H608.826V794.025L611.294 757.006L616.23 749.602L618.698 744.666Z" fill="#30312F"/>
<path d="M1193.73 1198.77H1250.49L1255.43 1201.24V1270.34H1252.96V1203.71L1213.48 1206.17L1225.81 1218.51L1223.35 1225.92L1211.01 1238.26H1198.67L1193.73 1230.85L1196.2 1220.98L1191.26 1218.51H1011.1V1223.45L1132.03 1225.92L1186.33 1228.38V1230.85L1025.91 1233.32L1003.7 1235.79L998.764 1225.92V1211.11L1016.04 1206.17H1107.35L1132.03 1211.11H1186.33L1188.8 1201.24L1193.73 1198.77Z" fill="#464240"/>
<path d="M951.872 1509.73L964.211 1512.2L966.679 1514.67V1581.3L954.34 1596.11L944.468 1598.58L924.724 1591.17L917.32 1583.77V1524.54L932.128 1514.67L951.872 1509.73Z" fill="#313130"/>
<path d="M791.455 831.045L801.327 833.513L813.667 850.789L811.199 865.596L801.327 875.468L779.116 877.936L771.712 873H754.436L714.949 885.34L687.801 895.212L677.93 897.68L680.398 890.276L700.141 880.404L705.077 873L695.205 870.532L697.673 858.192L764.308 840.917L779.116 833.513L791.455 831.045Z" fill="#30312F"/>
<path d="M1270.24 502.809H1280.11L1277.64 653.353L1272.7 643.482V606.462L1270.24 601.527H1275.17V596.591H1270.24L1272.7 579.315V564.507H1265.3L1260.36 569.443L1248.02 579.315L1230.75 586.719H1218.41V581.783H1213.47V596.591L1201.13 589.187L1198.67 569.443H1203.6L1208.54 559.571L1220.88 547.232L1238.15 537.36L1260.36 517.616H1265.3L1270.24 502.809Z" fill="#30312F"/>
<path d="M1292.45 742.199H1294.92L1297.39 1114.86V1193.83L1292.45 1198.77H1277.64L1282.58 1196.3L1287.51 1174.09L1257.9 1171.62V1169.15L1289.98 1166.69L1287.51 1149.41L1277.64 1139.54L1280.11 1134.6L1287.51 1139.54V781.686L1289.98 749.603L1292.45 742.199Z" fill="#30312F"/>
<path d="M766.776 364.602H1097.48L1119.69 367.07L1178.92 386.813L1215.94 401.621L1206.07 404.089L1161.65 386.813L1129.56 376.941L1114.76 374.473L1075.27 372.005H808.731L761.84 374.473L729.757 386.813L658.186 411.493L581.68 438.64L557 443.576L552.064 448.512L554.532 433.704H574.276L653.25 406.557L690.27 391.749L751.968 369.537L766.776 364.602Z" fill="#30312F"/>
<path d="M937.065 1021.08L956.808 1023.54L971.616 1035.88L976.552 1048.22L974.084 1065.5L964.212 1080.31L954.34 1085.24H929.661L917.321 1077.84L907.449 1058.1L909.917 1040.82L919.789 1028.48L937.065 1021.08Z" fill="#FEFEFE"/>
<path d="M1023.44 1174.09H1208.54V1176.56L1060.46 1179.03L1055.53 1183.96L1060.46 1186.43L1082.67 1188.9H1124.63L1161.65 1191.37L1173.99 1193.83V1198.77H1193.73L1188.8 1201.24L1186.33 1213.58H1129.56L1112.29 1211.11L1122.16 1206.17L1117.22 1203.71L1082.67 1201.24L1016.04 1198.77L1018.51 1179.03L1023.44 1174.09Z" fill="#30312F"/>
<path d="M882.768 1203.71H885.236V1225.92L867.96 1233.32L692.736 1235.79V1253.06L687.8 1248.13V1228.38H751.967L764.306 1225.92H877.832V1220.98H722.351L685.332 1218.51L687.8 1206.17L690.268 1213.58L779.114 1211.11L771.71 1206.17H880.3L882.768 1203.71Z" fill="#30312F"/>
<path d="M1215.94 404.09L1230.75 406.558L1275.17 423.833L1309.72 436.173V441.109L1329.47 443.577L1327 453.449L1299.85 480.596L1280.11 497.872L1277.64 505.276H1272.7L1267.77 510.212V473.192L1265.3 426.301L1215.94 406.558V404.09Z" fill="#464240"/>
<path d="M966.68 1082.78L971.615 1092.65L981.487 1095.12L979.019 1127.2L974.083 1129.67H919.789L904.981 1124.73L900.045 1092.65L912.385 1090.18L922.256 1085.24L929.66 1090.18H954.34L966.68 1082.78Z" fill="#464342"/>
<path d="M875.366 1003.8L892.642 1006.27L934.597 1013.67V1018.61L917.322 1026.01L907.45 1040.82L904.982 1063.03L917.322 1082.78L912.386 1092.65L904.982 1095.11L895.11 1092.65V1085.24H890.174L882.77 1070.44L875.366 1026.01L872.898 1008.74L875.366 1003.8Z" fill="#4A423D"/>
<path d="M665.589 715.051H1169.05L1220.88 717.519V722.455H663.121L665.589 715.051Z" fill="#3E767A"/>
<path d="M890.173 1090.18L902.512 1095.11L907.448 1124.73L919.788 1127.2H979.019V1095.11L981.487 1092.65H993.826L1001.23 1102.52L1003.7 1206.17L1001.23 1211.11L1003.7 1235.79L1001.23 1258L996.294 1250.59L993.826 1233.32L996.294 1179.02V1146.94L993.826 1134.6V1117.33L991.358 1109.92L983.955 1129.66L979.019 1132.13H902.512L897.576 1129.66L895.108 1102.52H890.173L887.705 1146.94V1181.49L890.173 1203.7L887.705 1225.91H885.237L882.769 1203.7L880.301 1201.24V1132.13L882.769 1095.11L890.173 1090.18Z" fill="#887F64"/>
<path d="M816.134 372.006H1065.4L1075.27 376.942L1070.33 404.089L1067.87 423.833L1055.53 431.237L863.025 433.705L818.602 431.237L811.198 413.961L808.73 376.942L816.134 372.006ZM850.686 374.474L818.602 376.942L813.666 384.346L818.602 421.365L823.538 426.301L937.064 428.769H1006.17L1055.53 426.301L1062.93 423.833L1065.4 379.41L1048.12 374.474H850.686Z" fill="#30312F"/>
<path d="M1028.38 1006.27H1033.31L1035.78 1018.61V1055.63L1028.38 1080.31L1018.51 1095.12L1016.04 1102.52L1030.85 1100.05L1065.4 1102.52H1132.03L1257.9 1107.46L1260.37 1026.01H1262.83L1265.3 1058.1V1112.39H1080.2L1013.57 1109.92V1092.65L1025.91 1070.44L1030.85 1050.69V1021.08L1028.38 1006.27Z" fill="#3E767A"/>
<path d="M616.23 1104.99L867.961 1107.46L858.089 1112.39L833.41 1117.33H714.948L655.718 1119.8L631.038 1122.26L616.23 1119.8V1104.99Z" fill="#4A4E4E"/>
<path d="M1016.04 1109.92H1095.01L1267.77 1112.39L1270.24 1124.73H1243.09L1191.26 1122.26H1119.69L1097.48 1124.73L1072.8 1122.26H1050.59L1040.72 1124.73L1033.31 1119.8L1016.04 1114.86V1109.92Z" fill="#4A4E4D"/>
<path d="M606.359 520.084H608.827L611.295 544.763L616.231 547.231L618.699 542.296L631.038 544.763L638.442 554.635L623.634 552.167L621.167 559.571L611.295 557.103V710.116L616.231 727.392V739.731L621.167 742.199L616.231 759.475L606.359 752.071H596.487L594.019 774.283L591.551 1030.95H589.083L586.615 742.199L603.891 724.924L606.359 520.084Z" fill="#30312F"/>
<path d="M882.769 1309.83H885.237L887.705 1334.51L895.109 1346.85L900.045 1376.46L897.577 1388.8V1415.95L900.045 1450.5L912.384 1448.03V1383.86L904.981 1378.93V1373.99H914.852L917.32 1378.93V1470.24L912.384 1467.77V1460.37L895.109 1472.71L885.237 1470.24L882.769 1462.84V1425.82L885.237 1364.12L882.769 1356.72L877.833 1351.78L880.301 1336.97L875.365 1334.51L880.301 1332.04L882.769 1309.83Z" fill="#5E9B9E"/>
<path d="M621.166 939.635H623.634V1040.82L621.166 1102.52L626.102 1100.05H858.089L865.493 1102.52V1090.18L870.429 1095.12V1107.46H631.038L616.23 1104.99L621.166 939.635Z" fill="#3E767A"/>
<path d="M996.295 892.744H1001.23L1003.7 905.084L1013.57 907.552L1008.63 932.231V974.186L1020.97 988.994L1030.85 998.866L1028.38 1006.27L1013.57 988.994L1003.7 984.058L1001.23 1003.8L993.827 1006.27H887.705L882.77 996.398L887.705 944.571H890.173L892.641 998.866L986.423 1001.33L991.359 998.866L993.827 991.462V956.911L991.359 944.571L892.641 942.103V939.635L993.827 937.167L1001.23 939.635L996.295 905.084V892.744Z" fill="black"/>
<path d="M865.494 1186.43L870.43 1196.3L865.494 1201.24L774.18 1206.17L781.584 1213.58H690.27L687.802 1206.17L623.635 1203.71V1223.45H621.167V1203.71L594.02 1198.77L603.891 1196.3H863.026L865.494 1186.43Z" fill="#30312F"/>
<path d="M907.448 1181.49H976.551L979.019 1183.96V1211.11L954.339 1208.64H919.788L907.448 1211.11L904.98 1208.64V1183.96L907.448 1181.49Z" fill="#444240"/>
<path d="M907.449 1176.56H954.34L983.955 1179.02L986.423 1181.49V1213.58L981.487 1218.51H917.32L897.577 1225.92L895.109 1213.58H890.173L887.705 1223.45V1203.7L892.641 1186.43L900.045 1179.02L907.449 1176.56ZM907.449 1181.49L904.981 1183.96V1208.64L912.385 1211.11L919.788 1208.64H954.34L979.019 1211.11V1183.96L976.551 1181.49H907.449Z" fill="#6A867B"/>
<path d="M613.762 835.98L628.57 838.448L623.634 843.384L616.23 845.852V984.057L613.762 1127.2L603.891 1139.54L606.359 1104.99L608.827 838.448L613.762 835.98Z" fill="#30312F"/>
<path d="M1016.04 1216.04H1193.73L1198.67 1220.98L1196.2 1230.85H1186.33L1132.03 1228.38L1018.51 1225.92L1011.1 1223.45V1218.51L1016.04 1216.04Z" fill="#333231"/>
<path d="M623.635 1203.71H665.59L660.654 1206.17L663.122 1218.51L670.526 1223.45L668.058 1235.79L645.846 1243.19L633.507 1248.13L628.571 1255.53H623.635V1203.71Z" fill="#30312F"/>
<path d="M1011.1 1327.1H1062.93L1067.87 1329.57V1344.38L1060.46 1351.78L1040.72 1354.25H1016.04L1003.7 1349.32L1006.17 1334.51L1011.1 1327.1Z" fill="#4C5453"/>
<path d="M1257.9 752.07H1267.77V818.705L1265.3 831.045L1248.03 826.109L1245.56 808.833V764.41L1250.49 754.538L1257.9 752.07Z" fill="#FEFEFE"/>
<path d="M591.551 1156.81L596.487 1164.22L717.416 1166.69H860.557L863.025 1174.09H690.269L596.487 1171.62L591.551 1169.15V1156.81Z" fill="#30312F"/>
<path d="M1257.9 939.635L1262.83 942.103L1272.71 1008.74V1127.2L1267.77 1119.8L1265.3 1112.39L1260.37 1026.01L1257.9 939.635Z" fill="#30312F"/>
<path d="M1013.57 1114.86H1018.51L1020.97 1119.79L1023.44 1146.94L1025.91 1164.22L1136.97 1166.68H1289.98V1169.15L1257.9 1171.62H1023.44L1016.04 1169.15L1013.57 1164.22V1114.86Z" fill="#464240"/>
<path d="M1223.35 747.133L1245.56 752.069L1243.09 764.408L1240.62 821.171L1238.15 826.107L1225.81 823.639L1220.88 813.767V766.876L1223.35 747.133Z" fill="#FEFEFE"/>
<path d="M1193.73 1198.77H1250.49L1255.43 1201.24V1270.34H1252.96V1203.71L1213.47 1206.17L1225.81 1218.51L1223.35 1225.92L1211.01 1238.26H1198.67L1193.73 1230.85L1196.2 1220.98L1191.26 1218.51H1171.52L1176.46 1213.58L1186.33 1211.11L1188.8 1201.24L1193.73 1198.77Z" fill="#464240"/>
<path d="M1013.57 1361.65L1020.98 1364.12L1018.51 1373.99L1003.7 1381.4L1001.23 1462.84L998.764 1467.77L986.424 1470.24L969.148 1460.37V1452.97L986.424 1450.5L991.36 1433.22L993.828 1391.27L996.296 1369.06L1013.57 1361.65Z" fill="#30312F"/>
<path d="M655.719 747.133H660.655V823.639L653.251 828.575L643.379 826.107V766.876L645.847 749.601L655.719 747.133Z" fill="#FEFEFE"/>
<path d="M934.597 1016.14H951.873L966.68 1026.01L976.552 1038.35L979.02 1043.29V1065.5L971.616 1082.78L954.341 1092.65H929.661L912.385 1080.31L902.514 1063.03L904.982 1040.82L914.853 1026.01L927.193 1018.61L934.597 1016.14ZM937.065 1021.08L919.789 1028.48L909.918 1040.82L907.45 1058.1L917.321 1077.84L929.661 1085.24H954.341L964.212 1080.31L976.552 1060.56L974.084 1040.82L961.744 1026.01L949.405 1021.08H937.065Z" fill="#827C64"/>
<path d="M1260.36 537.357H1272.7L1275.17 547.229V564.505H1265.3L1260.36 569.441L1248.02 579.313H1225.81V566.973L1235.68 554.633H1243.09L1248.02 544.761L1260.36 542.293V537.357Z" fill="#FEFEFE"/>
<path d="M1272.71 843.385H1275.17L1277.64 1134.6L1272.71 1132.13L1270.24 1008.74L1262.83 954.442L1265.3 937.167L1270.24 927.295L1272.71 843.385Z" fill="#30312F"/>
<path d="M764.276 1226H875L867.618 1235.55L692.921 1238.73V1261L688 1254.64V1229.18H751.974L764.276 1226Z" fill="#30312F"/>
<path d="M904.98 1373.99H914.852L917.32 1378.93V1470.24L912.384 1467.77V1460.37L895.108 1472.71L885.236 1470.24V1428.29H892.64L895.108 1438.16H900.044V1450.5L912.384 1448.03V1383.86L904.98 1378.93V1373.99Z" fill="#30312F"/>
<path d="M1020.97 1169.15L1228.28 1171.62V1174.09L1023.44 1176.56L1016.04 1198.77H1082.67L1136.97 1203.71V1206.17L1107.35 1208.64V1203.71H1008.63L1013.57 1181.49L1020.97 1169.15Z" fill="#30312F"/>
<path d="M621.167 752.07L631.039 754.538L635.975 757.006V823.641L623.635 826.109L621.167 823.641L618.699 761.942L621.167 752.07Z" fill="#FEFEFE"/>
<path d="M1011.1 1213.58H1062.93V1216.04L1011.1 1218.51V1223.45L1132.03 1225.92L1186.33 1228.38V1230.85L1013.57 1233.32L1001.23 1223.45V1218.51L1011.1 1213.58Z" fill="#464240"/>
<path d="M818.602 1329.57H855.621L872.897 1336.97V1346.85H855.621L853.153 1349.31H818.602L813.666 1344.38L816.134 1332.04L818.602 1329.57ZM840.813 1336.97L843.281 1344.38L845.749 1336.97H840.813Z" fill="#4E5957"/>
<path d="M621.166 932.23L623.634 939.634L618.698 1087.71L616.23 1112.39H613.762V966.782L616.23 937.166H621.166V932.23Z" fill="#30312F"/>
<path d="M1215.94 404.09L1230.75 406.558L1275.17 423.833L1309.72 436.173L1302.32 438.641L1272.7 428.769L1275.17 438.641L1277.64 488L1280.11 497.872L1277.64 505.276H1272.7L1267.77 510.212V473.192L1265.3 426.301L1215.94 406.558V404.09Z" fill="#30312F"/>
<path d="M890.173 1090.18L897.576 1092.65L900.044 1114.86L895.108 1107.45V1102.52H890.173L887.705 1146.94V1181.49L890.173 1203.7L887.705 1225.91H885.237L882.769 1203.7L880.301 1201.24V1132.13L882.769 1095.11L890.173 1090.18Z" fill="#30312F"/>
<path d="M606.359 520.084H608.827L611.295 544.763L616.231 547.231L618.699 542.296L631.039 544.763L638.443 554.635L623.635 552.167L621.167 559.571L611.295 557.103V710.116L616.231 724.924L606.359 719.988V520.084Z" fill="#30312F"/>
<path d="M887.705 944.572H890.173L892.641 998.867L986.423 1001.34L991.359 998.867L996.295 966.784H998.763L1001.23 1003.8L993.827 1006.27H887.705L882.77 996.399L887.705 944.572Z" fill="#7F8672"/>
<path d="M687.8 1206.17L690.268 1213.58L779.114 1211.11L771.71 1206.17L796.39 1208.64L803.794 1211.11V1216.04L798.858 1218.51L742.095 1220.98L685.332 1218.51L687.8 1206.17Z" fill="#30312F"/>
<path d="M867.96 1280.21L872.896 1287.61L875.364 1299.95L882.768 1304.89V1332.04L880.3 1336.97V1351.78L853.152 1349.31L858.088 1341.91V1346.85L865.492 1344.38L872.896 1346.85V1336.97L863.024 1334.51L855.62 1329.57H867.96L865.492 1302.42L867.96 1280.21Z" fill="#30312F"/>
<path d="M1275.17 665.691H1277.64L1280.11 724.922L1292.45 737.262L1294.92 742.198L1289.98 752.07H1272.71V680.499L1275.17 665.691Z" fill="#30312F"/>
<path d="M885.237 1376.46H887.705V1388.8L895.109 1381.4L897.577 1398.67V1438.16L887.705 1433.22L885.237 1462.84H882.77V1425.82L885.237 1376.46Z" fill="#7CB6BC"/>
<path d="M1215.94 557.104L1218.41 562.039V569.443L1225.82 566.975V579.315H1243.09L1233.22 584.251L1230.75 586.719H1218.41V581.783H1213.48V596.591L1201.14 589.187L1198.67 569.443L1213.48 559.571L1215.94 557.104Z" fill="#30312F"/>
<path d="M904.98 1003.8L993.827 1006.27L991.359 1011.2L956.807 1013.67L951.871 1018.61L927.192 1013.67L892.641 1008.74V1006.27L904.98 1003.8Z" fill="#455F5F"/>
<path d="M917.32 1280.21H966.678V1282.68L919.787 1285.15V1371.53L914.852 1373.99V1282.68L917.32 1280.21Z" fill="#746755"/>
<path d="M1141.9 1203.71H1188.8L1186.33 1213.58H1129.56L1112.29 1211.11L1122.16 1206.17L1141.9 1203.71Z" fill="#464240"/>
<path d="M1287.51 942.102H1289.98V1146.94L1280.11 1142.01V1134.6L1287.51 1139.54V942.102Z" fill="#30312F"/>
<path d="M1087.61 1206.17H1107.35L1132.03 1211.11L1176.45 1213.58V1216.04H1080.2L1072.8 1208.64L1087.61 1206.17Z" fill="#464240"/>
<path d="M1270.24 529.955L1277.64 532.423V653.353L1272.7 643.481V606.461L1270.24 601.526H1275.17V596.59H1270.24L1272.7 579.314V547.231L1265.3 534.891L1270.24 529.955Z" fill="#30312F"/>
<path d="M608.827 436.174H616.23V492.937L621.166 510.212L608.827 505.276L603.891 495.405L606.359 478.129L608.827 436.174Z" fill="#30312F"/>
<path d="M687.801 1228.38H769.243L811.198 1230.85V1233.32L692.737 1235.79V1253.06L687.801 1248.13V1228.38Z" fill="#30312F"/>
<path d="M902.512 1181.49L907.448 1183.96V1208.64L919.787 1206.17H954.339L979.018 1211.11L976.55 1181.49H981.486V1213.58L976.55 1216.05L971.614 1213.58H914.851L904.98 1218.51L902.512 1216.05V1181.49Z" fill="#3E767A"/>
<path d="M1013.57 1361.65L1020.98 1364.12L1018.51 1373.99L1003.7 1381.4L1001.23 1435.69H998.764L996.296 1391.27L993.828 1381.4L996.296 1369.06L1013.57 1361.65Z" fill="#30312F"/>
<path d="M818.602 1329.57H840.813L838.346 1349.31H818.602L813.666 1344.38L816.134 1332.04L818.602 1329.57Z" fill="#373735"/>
<path d="M594.02 1196.3L687.802 1198.77V1203.71H623.635V1223.45H621.167V1203.71L594.02 1198.77V1196.3Z" fill="#30312F"/>
<path d="M1257.9 566.975L1260.36 571.911H1270.24V584.25L1255.43 581.782L1238.15 589.186L1213.47 599.058V581.782H1218.41V586.718H1230.75L1233.22 581.782H1243.09L1245.56 576.846H1252.96L1257.9 566.975Z" fill="#30312F"/>
<path d="M1060.46 1329.57H1067.87V1344.38L1065.4 1349.31H1048.12L1030.85 1341.91L1033.32 1336.97L1060.46 1334.51V1329.57Z" fill="#454341"/>
<path d="M914.853 1026.01L922.257 1028.48L912.385 1040.82L909.918 1058.1L917.321 1072.9V1077.84L929.661 1082.78L951.873 1087.71V1090.18H932.129L914.853 1082.78L902.514 1063.03L904.982 1040.82L914.853 1026.01Z" fill="#907959"/>
<path d="M1270.24 927.295H1272.71V1008.74H1270.24L1262.83 954.442L1265.3 937.167L1270.24 927.295Z" fill="#30312F"/>
<path d="M880.301 1225.92H887.705V1258L882.769 1262.94L877.833 1250.6V1240.72L872.897 1238.26L826.006 1235.79V1233.32L867.961 1230.85L880.301 1225.92Z" fill="black"/>
<path d="M633.507 413.961L635.975 418.897L581.68 438.64L557 443.576L552.064 448.512L554.532 433.705H574.276L633.507 413.961Z" fill="#30312F"/>
<path d="M1287.51 781.686H1289.98L1292.45 882.871H1294.92V912.487H1289.98L1287.51 917.423V781.686Z" fill="#30312F"/>
<path d="M956.808 1011.2H986.423L974.083 1033.41L954.34 1018.61L956.808 1011.2Z" fill="#674626"/>
<path d="M998.762 1179.03H1001.23L1003.7 1206.17L1001.23 1211.11L1003.7 1235.79L1001.23 1258L996.294 1250.6L993.826 1233.32L996.294 1181.49L998.762 1179.03Z" fill="#30312F"/>
<path d="M1225.81 739.73L1238.15 742.198L1243.09 747.134H1270.24L1267.77 757.006V752.07L1250.49 754.538L1248.02 764.41L1240.62 761.942V757.006L1235.68 752.07L1225.81 749.602V739.73Z" fill="#30312F"/>
<path d="M606.359 520.084H608.827L611.295 544.763L616.231 547.231L618.699 542.296L631.039 544.763L638.443 554.635L623.635 552.167L621.167 559.571L611.295 557.103L608.827 569.443H606.359V520.084Z" fill="#30312F"/>
<path d="M897.576 1008.74L927.192 1011.2L934.595 1013.67V1018.61L917.32 1026.01L907.448 1035.88L904.98 1013.67L897.576 1011.2V1008.74Z" fill="#30312F"/>
<path d="M660.653 579.314H675.461V584.25L680.397 586.718L675.461 591.654L672.993 606.462L655.717 591.654L650.781 584.25L660.653 579.314Z" fill="#30312F"/>
<path d="M1292.45 1159.28H1294.92V1196.3L1292.45 1198.77H1277.64L1282.58 1196.3L1287.51 1174.09L1257.9 1171.62V1169.15L1289.98 1166.69L1292.45 1159.28Z" fill="#30312F"/>
<path d="M749.5 1201.24H821.071V1203.7L774.179 1206.17L781.583 1213.58H761.84V1208.64L749.5 1203.7V1201.24Z" fill="#30312F"/>
<path d="M660.654 717.52H663.122V737.263L660.654 747.135L640.911 749.603L618.699 744.667V742.199L648.315 739.731L660.654 717.52Z" fill="#30312F"/>
<path d="M904.98 1373.99H914.852L917.32 1378.93V1470.24L912.384 1467.77L909.916 1452.97H914.852L912.384 1383.86L904.98 1378.93V1373.99Z" fill="#567673"/>
<path d="M890.173 1090.18L897.577 1092.65L900.045 1114.86L895.109 1107.45V1102.52H890.173L887.705 1129.66H882.77V1095.11L890.173 1090.18Z" fill="#30312F"/>
<path d="M897.577 1181.49L900.045 1188.9L897.577 1198.77L900.045 1218.51L907.449 1223.45L897.577 1225.92L895.109 1213.58H890.173L887.705 1223.45V1203.71L892.641 1186.43L897.577 1181.49Z" fill="#4E9CA5"/>
<path d="M907.448 1181.49H976.551V1183.96H909.916V1206.17L919.788 1208.64L907.448 1211.11L904.98 1208.64V1183.96L907.448 1181.49Z" fill="#4A4E4E"/>
<path d="M887.705 944.572H890.173L892.641 998.867L904.981 1001.34V1006.27H887.705L882.77 996.399L887.705 944.572Z" fill="#30312F"/>
<path d="M771.712 1206.17L796.391 1208.64L803.795 1211.11V1216.04H732.225V1213.58L761.84 1211.11H779.116L771.712 1206.17Z" fill="#30312F"/>
<path d="M643.379 557.104L653.251 559.571L665.59 566.975L675.462 564.507L680.398 566.975L677.93 576.847L665.59 574.379L650.783 576.847L643.379 557.104Z" fill="#30312F"/>
<path d="M1011.1 1327.1H1038.25L1028.38 1332.04L1011.1 1339.44L1008.64 1349.32L1038.25 1351.78V1354.25H1016.04L1003.7 1349.32L1006.17 1334.51L1011.1 1327.1Z" fill="#30312F"/>
<path d="M611.294 554.635L626.102 557.103L628.57 569.442L613.762 576.846H608.826V557.103L611.294 554.635Z" fill="#30312F"/>
<path d="M786.52 1206.17L813.667 1208.64L835.879 1211.11L838.346 1216.04L823.539 1218.51H798.859L803.795 1216.04V1211.11L786.52 1208.64V1206.17Z" fill="#30312F"/>
<path d="M954.341 1186.43H971.617L974.085 1203.71H959.277L951.873 1193.83L954.341 1186.43Z" fill="#31302F"/>
<path d="M1065.4 1198.77L1117.23 1201.24L1136.97 1203.71V1206.17L1107.35 1208.64V1203.71H1065.4V1198.77Z" fill="#30312F"/>
<path d="M1289.98 912.488H1294.92V956.911H1289.98L1287.51 942.104V917.424L1289.98 912.488Z" fill="#30312F"/>
<path d="M653.251 826.107H660.655L658.187 887.806L653.251 877.934V840.915L650.783 835.979H633.508L638.444 831.043H653.251V826.107Z" fill="#30312F"/>
<path d="M991.359 1411.01H993.827V1433.23L986.423 1450.5L979.02 1448.03L988.891 1413.48L991.359 1411.01Z" fill="#464240"/>
<path d="M897.576 1092.65L902.512 1095.12L907.448 1124.73L919.788 1127.2L909.916 1132.14L897.576 1129.67V1092.65Z" fill="#30312F"/>
<path d="M971.617 1072.9L974.085 1080.31L954.341 1092.65H929.662L922.258 1085.24L934.598 1087.71V1085.24L959.277 1080.31L969.149 1077.84L971.617 1072.9Z" fill="#4C7C7C"/>
<path d="M1265.3 515.148H1270.24L1267.77 522.552L1248.03 537.36L1240.62 544.764L1228.28 552.168L1223.35 549.7L1248.03 527.488L1265.3 515.148Z" fill="#FCF9F6"/>
<path d="M586.615 742.199L594.019 744.667V774.283L591.551 781.686H586.615V742.199Z" fill="#30312F"/>
<path d="M687.8 1206.17L690.268 1213.58H732.223L729.755 1218.51H685.332L687.8 1206.17Z" fill="#30312F"/>
<path d="M983.955 1213.58H996.295V1235.79L991.359 1245.66L986.423 1223.45L971.615 1220.98L981.487 1216.04L983.955 1213.58Z" fill="#4E9CA5"/>
<path d="M996.296 1452.97H1001.23L998.764 1467.78L986.424 1470.24L969.148 1460.37L971.616 1455.44L981.488 1460.37L991.36 1457.9L996.296 1452.97Z" fill="#464240"/>
<path d="M1013.57 1114.86H1016.04L1020.97 1156.81L1023.44 1169.15H1016.04L1013.57 1164.22V1114.86Z" fill="#464240"/>
<path d="M623.636 569.443L635.976 571.911L648.315 576.847L653.251 579.315V589.187L640.912 584.251L621.168 576.847L623.636 569.443Z" fill="#30312F"/>
<path d="M1257.9 566.975L1260.36 571.911H1270.24V584.25L1255.43 581.782L1240.62 584.25L1245.56 576.846H1252.96L1257.9 566.975Z" fill="#30312F"/>
<path d="M692.738 858.191L697.674 860.659V870.531L705.078 872.999L700.142 882.871L685.334 890.275L680.398 887.807L692.738 877.935L690.27 863.127L692.738 858.191Z" fill="#30312F"/>
<path d="M1270.24 638.545L1275.17 643.481L1277.64 663.224L1272.71 685.436H1270.24V638.545Z" fill="#30312F"/>
<path d="M865.494 1109.92H867.962L865.494 1144.48L863.027 1166.69H860.559V1119.8L865.494 1109.92Z" fill="#333231"/>
<path d="M658.187 522.551H660.655L665.59 537.358V549.698L648.315 534.891L643.379 527.487H658.187V522.551Z" fill="#30312F"/>
<path d="M1060.46 1329.57H1067.87V1344.38L1055.53 1346.85L1050.59 1344.38L1053.06 1336.97L1060.46 1329.57Z" fill="#343534"/>
<path d="M687.801 1228.38L724.82 1233.32V1235.79H692.737V1253.06L687.801 1248.13V1228.38Z" fill="#30312F"/>
<path d="M900.045 1179.03L907.449 1181.49H902.513L904.981 1216.04L907.449 1220.98L897.577 1218.51L895.109 1196.3L900.045 1179.03Z" fill="#30312F"/>
<path d="M554.532 433.703H581.68V438.639L557 443.575L552.064 448.511L554.532 433.703Z" fill="#30312F"/>
<path d="M872.896 1336.97H880.3V1351.78L853.152 1349.31L858.088 1341.91V1346.84L865.492 1344.38L872.896 1346.84V1336.97Z" fill="#6C7C6F"/>
<path d="M880.301 1225.92L882.769 1233.32L875.365 1235.79H826.006V1233.32L867.961 1230.85L880.301 1225.92Z" fill="#30312F"/>
<path d="M934.596 1016.14H951.872L956.807 1021.08L927.192 1026.01L922.256 1028.48L917.32 1023.54L934.596 1016.14Z" fill="#5B7A72"/>
<path d="M996.294 966.781H998.762L1001.23 1003.8L986.422 1006.27V1001.33L991.358 998.865L996.294 966.781Z" fill="#957C5B"/>
<path d="M1265.3 835.98L1272.7 840.916V892.743H1270.24V843.384L1257.9 840.916L1265.3 835.98Z" fill="#30312F"/>
<path d="M1215.94 557.104L1218.41 562.039L1211.01 576.847H1198.67V569.443L1213.48 559.571L1215.94 557.104Z" fill="#FEFEFE"/>
<path d="M754.436 1203.71H771.711V1208.64L781.583 1211.11V1213.58H761.839V1208.64L754.436 1206.17V1203.71Z" fill="#30312F"/>
<path d="M1270.24 529.955L1277.64 532.423V564.506H1275.17L1270.24 542.295L1265.3 534.891L1270.24 529.955Z" fill="#30312F"/>
<path d="M872.896 986.527L882.768 988.995V1001.34L865.492 998.867L872.896 986.527Z" fill="#5E4835"/>
<path d="M1265.3 559.57L1267.77 564.506H1272.7L1275.17 594.122L1270.24 586.718V571.91L1260.37 569.442L1265.3 559.57Z" fill="#30312F"/>
<path d="M1275.17 1193.83L1282.58 1196.3L1280.11 1201.24L1255.43 1208.64V1201.24L1250.49 1198.77H1275.17V1193.83Z" fill="#30312F"/>
<rect x="882.881" y="938.688" width="118.237" height="70.0664" rx="3" fill="#FEFEFE"/>
<circle cx="939.81" cy="1053.64" r="38.3175" fill="#FEFEFE"/>
<rect x="888.355" y="1169.69" width="14.2322" height="303.256" rx="7.11611" fill="#30312F"/>
<rect x="985.791" y="1169.69" width="14.2322" height="303.256" rx="7.11611" fill="#30312F"/>
<rect x="911.346" y="1255.08" width="62.4028" height="339.384" rx="30" fill="#3D3B39"/>
<rect x="900.398" y="1175.16" width="86.4882" height="48.1706" fill="#454746"/>
</g>
<defs>
<clipPath id="clip0_326_451">
<rect width="1885" height="1573" fill="white"/>
</clipPath>
</defs>
</svg>
