<svg width="1560" height="369" viewBox="0 0 1560 369" fill="none" xmlns="http://www.w3.org/2000/svg">
<g clip-path="url(#clip0_346_1223)">
<path fill-rule="evenodd" clip-rule="evenodd" d="M221.001 0.000189481C295.083 0.000189481 358.867 44.1249 387.512 107.536C384.457 106.995 381.308 107.531 378.604 109.054C375.901 110.578 373.81 112.993 372.688 115.887C371.313 114.908 369.685 114.346 367.999 114.268C366.313 114.19 364.641 114.6 363.181 115.448C363.881 110.152 362.478 104.792 359.272 100.52C356.066 96.248 351.313 93.4038 346.034 92.5982C340.756 91.7926 335.372 93.09 331.038 96.2117C326.705 99.3333 323.768 104.03 322.858 109.294C320.115 107.261 316.722 106.305 313.322 106.607C309.921 106.909 306.75 108.448 304.408 110.933C302.066 113.419 300.717 116.677 300.616 120.091C300.516 123.504 301.67 126.837 303.861 129.456L270.471 134.844L343.367 135.029L397.406 135.165C401.577 150.687 403.684 166.69 403.675 182.762C403.675 283.683 321.9 365.494 221.023 365.494C120.145 365.494 38.3479 283.653 38.3479 182.732C38.2939 145.799 49.4806 109.726 70.4199 79.3095L123.695 79.5424L180.537 79.793L151.351 75.5998C152.29 74.0073 152.907 72.2454 153.165 70.4146C153.423 68.5838 153.319 66.7201 152.857 64.9298C152.396 63.1394 151.586 61.4576 150.475 59.9803C149.363 58.503 147.972 57.2591 146.38 56.3197C144.788 55.3803 143.027 54.7638 141.197 54.5053C139.367 54.2469 137.504 54.3515 135.715 54.8133C133.925 55.2751 132.244 56.0851 130.767 57.1969C129.291 58.3086 128.047 59.7005 127.108 61.293C124.999 60.67 122.758 60.6487 120.637 61.2315C120.734 60.503 120.782 59.7688 120.782 59.0338C120.783 54.6392 119.082 50.415 116.036 47.2483C112.99 44.0816 108.837 42.2185 104.447 42.0503C137.182 14.8193 178.428 -0.0612476 221.001 0.000189481Z" fill="#A7E92F"/>
<path fill-rule="evenodd" clip-rule="evenodd" d="M85.9765 34.6309C85.9765 34.6309 86.7805 41.6018 88.573 44.5203C90.3655 47.4388 91.6484 50.1727 91.5781 51.9924C91.5781 51.9924 93.5068 51.4957 94.7853 51.7463C96.0638 51.9968 96.3757 52.366 96.7975 52.41C96.7975 52.41 95.9496 52.6297 95.4048 52.7308C94.86 52.8319 94.4558 54.4186 93.2081 54.6252C94.6811 55.8253 96.0889 57.1033 97.4258 58.4535C98.8317 59.9787 101.349 62.2511 103.735 62.8884C103.735 62.8884 99.684 63.0466 97.808 62.2687C94.9965 60.9693 92.4609 59.1414 90.3391 56.8844C90.3391 56.8844 85.726 56.8844 85.1153 56.8844C84.5047 56.8844 78.0287 60.7743 76.6184 61.5434C76.6184 61.5434 81.1964 58.4184 82.9186 56.7745C82.9186 56.7745 75.2125 57.5173 73.7891 57.5964C73.7891 57.5964 82.2201 56.1284 83.2042 55.7768C84.1883 55.4251 85.8403 53.834 87.3077 53.1396C87.3077 53.1396 85.8095 50.9771 84.1795 45.9093C82.5496 40.8414 85.9765 34.6309 85.9765 34.6309Z" fill="#051E34"/>
<path fill-rule="evenodd" clip-rule="evenodd" d="M126.835 68.3652C126.835 68.3652 127.274 72.321 128.311 73.9912C129.348 75.6615 130.068 77.2042 130.02 78.2503C130.614 78.0947 131.232 78.0471 131.843 78.1097C132.232 78.2138 132.615 78.34 132.99 78.4877C132.99 78.4877 132.507 78.6107 132.199 78.6679C131.892 78.725 131.659 79.6305 130.938 79.7447C131.776 80.4341 132.577 81.1677 133.337 81.9424C134.137 82.8215 135.569 84.1005 136.922 84.4653C136.922 84.4653 134.62 84.5532 133.552 84.1137C131.952 83.3701 130.51 82.3255 129.304 81.0369H126.329C125.982 81.0369 122.301 83.2346 121.497 83.6741C122.74 82.8362 123.937 81.9309 125.082 80.9622C125.082 80.9622 120.688 81.4018 119.889 81.4325C119.889 81.4325 124.686 80.593 125.244 80.3952C125.802 80.1975 126.747 79.292 127.577 78.8964C127.577 78.8964 126.729 77.6657 125.798 74.7868C124.866 71.9079 126.835 68.3652 126.835 68.3652Z" fill="#051E34"/>
<path fill-rule="evenodd" clip-rule="evenodd" d="M75.3841 84.3516C75.3841 84.3516 75.9508 89.2919 77.2205 91.3841C78.4902 93.4763 79.3953 95.3882 79.3513 96.6892C80.0919 96.4952 80.8615 96.4371 81.6228 96.5178C82.1063 96.6488 82.5829 96.8043 83.0506 96.9837C83.0506 96.9837 82.4487 97.142 82.0621 97.2123C81.6755 97.2826 81.3899 98.4078 80.4892 98.5309C81.5335 99.3817 82.5322 100.287 83.4812 101.243C84.4785 102.324 86.2622 103.933 87.9493 104.39C87.9493 104.39 85.0804 104.5 83.7536 103.95C81.7593 103.03 79.9605 101.735 78.4551 100.135C78.4551 100.135 75.1864 100.135 74.7514 100.135C74.3165 100.135 69.7341 102.895 68.7324 103.436C70.2792 102.391 71.7692 101.264 73.1961 100.06C73.1961 100.06 67.7351 100.584 66.7246 100.641C66.7246 100.641 72.6997 99.599 73.4026 99.3528C74.1056 99.1067 75.2698 97.9771 76.3067 97.4848C76.3067 97.4848 75.2479 95.9552 74.11 92.3642C72.9721 88.7733 75.3841 84.3516 75.3841 84.3516Z" fill="#051E34"/>
<path fill-rule="evenodd" clip-rule="evenodd" d="M386.308 260.294C374.059 286.266 355.886 308.999 333.253 326.663H108.748C65.9033 293.223 38.3477 241.086 38.3477 182.496C38.3477 176.343 38.6406 170.267 39.2263 164.269C39.3823 164.729 39.461 165.212 39.4592 165.697V178.681H46.2163V228.419H49.6564V217.4H58.1005V208.24H62.1733V196.64H71.0041V208.24H84.0482V243.011H88.7711V251.063H100.62V273.787H105.769V233.988C103.841 217.127 100.827 197.823 96.5431 188.984C93.9993 190.017 91.0777 191.924 88.8151 193.48L86.5612 192.219L88.0155 194.025C85.8846 195.533 83.8856 197.128 82.0492 198.724L80.9508 197.577L81.5791 199.133C79.7822 200.711 78.139 202.288 76.6716 203.778C76.7375 190.817 87.3828 188.562 92.6154 188.878C90.1331 188.281 87.642 187.81 85.1729 187.45L84.1404 184.197L83.9208 187.274C80.4763 186.834 77.0802 186.562 73.8422 186.456L73.8115 184.342L73.0163 186.43C69.831 186.342 66.8039 186.395 64.0185 186.518C76.3201 173.372 89.3555 182.07 93.6654 187.076C91.908 183.969 89.9705 180.984 87.9539 178.136L90.1067 174.207L87.0006 176.787C84.3118 173.095 81.4824 169.649 78.653 166.471L80.6301 164.524L77.9281 165.662C75.1251 162.559 72.3309 159.724 69.6948 157.197C88.8722 157.034 94.8121 170.326 95.9192 179.956C98.5861 170.646 106.569 158.616 125.355 161.799C122.35 163.878 119.147 166.229 115.887 168.831L113.414 167.293L115.061 169.526C111.762 172.216 108.423 175.174 105.185 178.391L102.514 175.349L104.016 179.569C103.647 179.943 103.283 180.321 102.918 180.703C107.97 177.701 115.048 176.567 122.93 182.936C120.391 183.173 117.658 183.512 114.754 183.986L113.774 182.193L114.011 184.114C111.085 184.624 108.041 185.279 104.97 186.127L104.385 183.362L103.854 186.439C101.552 187.111 99.2407 187.894 96.9605 188.804C99.2627 192.135 103.99 201.317 108.788 224.7H110.484V221.355H119.27V212.125H125.311V206.253C125.314 205.179 125.741 204.15 126.501 203.392C127.26 202.633 128.289 202.206 129.362 202.205C130.435 202.207 131.462 202.634 132.221 203.393C132.979 204.152 133.406 205.18 133.408 206.253V212.125H139.449V221.355H142.235V268.412H147.322V206.706H160.107V195.397H171.412V206.706H174.048V266.68H182.672V250.804H196.032V243.363H207.117V250.804H209.406V281.51H215.025V267.19H217.661V237.618H219.603V230.586H230.666V237.618H233.618V225.25C233.621 224.383 233.966 223.552 234.578 222.938C235.19 222.325 236.02 221.979 236.887 221.975C237.754 221.977 238.586 222.323 239.199 222.937C239.812 223.55 240.158 224.382 240.16 225.25V237.618H243.675V267.163H246.311V294.885H250.999V274.838H260.005V280.112H266.117V274.838H271.661V271.264H280.518V243.429H287.108V242.198L300.596 232.467V243.429H308.658V233.944H317.783V187.604H320.068V183.309H323.297V175.169H325.178V172.484H328.754V169.93C328.756 168.779 329.214 167.676 330.028 166.862C330.841 166.048 331.944 165.59 333.095 165.587C334.245 165.591 335.347 166.05 336.16 166.863C336.973 167.677 337.432 168.779 337.435 169.93V172.479H341.007V183.305H351.046V187.599H354.75V267.682H359.275V250.145H369.226V243.433H372.359V240.444C372.362 239.449 372.759 238.495 373.463 237.791C374.166 237.087 375.12 236.69 376.115 236.686C377.11 236.69 378.064 237.087 378.767 237.791C379.471 238.495 379.868 239.449 379.871 240.444V243.433H383.004V250.145H386.299L386.308 260.294Z" fill="black"/>
<path fill-rule="evenodd" clip-rule="evenodd" d="M180.862 278.73C179.473 278.73 178.094 278.91 176.714 278.453C174.957 277.864 174.412 276.73 174.864 275.029C175.317 273.328 176.354 272.831 178.032 273.271C180.229 273.833 182.426 274.229 184.517 275.169C185.479 275.609 186.503 276.132 186.274 277.442C186.046 278.752 184.886 278.589 183.985 278.686C182.962 278.8 181.898 278.73 180.862 278.73Z" fill="#0A1B49"/>
<path fill-rule="evenodd" clip-rule="evenodd" d="M404.952 289.113V338.445L312.916 353.721L220.883 368.999L128.847 353.721L36.8145 338.445V289.113H43.1282C42.6891 288.875 41.6925 288.138 46.9393 288.026C53.2003 287.892 58.7413 286.108 66.5655 284.59C74.3896 283.073 76.3478 283.433 81.6912 284.414C87.0347 285.395 86.5209 280.934 98.1869 285.172C109.853 289.409 131.178 287.179 139.459 284.814C147.74 282.449 154.326 278.665 159.217 280.222C164.108 281.779 162.931 282.542 165.671 281.34C168.411 280.138 170.106 278.93 176.56 280.892C183.014 282.855 196.507 282.5 210.851 280.892C225.195 279.285 218.873 281.205 228.589 279.732C238.306 278.259 236.865 276.613 241.625 278.665C246.384 280.716 246.257 277.949 252.189 278.128C258.12 278.307 253.756 276.792 259.754 275.542C265.751 274.293 271.49 281.608 296.525 284.817C321.561 288.026 339.69 277.415 346.21 278.307C352.73 279.199 353.121 284.638 359.641 282.41C366.161 280.182 369.3 281.697 378.025 284.906C385.489 287.648 395.499 288.82 398.279 289.116L404.952 289.113Z" fill="black"/>
<path d="M186.161 71.0566H257.34L266.02 71.6356L276.437 75.1092L283.381 78.0039L295.534 83.2144L300.742 86.688L304.793 90.7406L309.422 97.6879L311.737 101.74V105.793L304.793 112.74L300.163 116.793L299.584 156.161L300.163 170.055L303.635 173.529L304.214 261.528V280.054L303.057 281.212L296.112 282.949L294.955 283.528L293.798 306.685L291.483 309.58L289.747 310.159H285.117L279.909 308.422L279.33 307.264L278.752 296.843V288.738L240.558 289.317L234.771 289.896L235.35 310.738L249.238 311.317L250.396 311.896V315.369L248.66 317.106L244.03 317.685H238.822L239.401 321.738L235.35 324.054L234.771 343.159L234.192 344.316L231.299 344.895L227.248 343.159V362.264L226.669 370.948L223.776 374.421L221.461 375L216.832 373.263L215.096 371.527L214.517 369.211L213.938 342.58L209.887 345.474L207.573 344.895L206.994 343.159V334.474L207.573 320.001L206.994 318.264L203.522 317.106L196.577 316.527H191.948L190.791 315.369L191.369 312.475L191.948 311.896H203.522L201.786 302.054L202.364 296.843L205.258 293.37L205.836 291.054L204.679 290.475L193.684 289.896H162.435L161.856 302.633L160.12 308.422L157.805 310.159L153.176 310.738L147.967 309.58L146.231 306.685L145.653 282.37L138.708 281.791L137.551 279.475L136.972 239.528V218.686L137.551 174.108L141.602 170.055V116.793L138.708 113.898L132.921 109.267L129.449 105.214L130.028 101.74L133.5 95.3721L138.13 89.5827L142.759 84.9512L149.703 81.4776L167.643 73.9513L175.166 71.6356L186.161 71.0566ZM146.231 129.53L147.389 133.582L150.861 135.898L152.597 135.319L152.018 131.845L148.546 129.53H146.231ZM158.962 137.635L157.805 138.793L156.648 146.319V162.529L157.805 164.845L159.541 165.424H285.117V141.108L282.802 138.214L278.752 137.635L257.919 138.793H184.425L167.643 138.214L158.962 137.635ZM197.156 313.633L197.735 315.369L198.313 313.633H197.156Z" fill="#6D981E"/>
<path d="M186.161 71.0566H257.34L266.02 71.6356L276.437 75.1092L283.381 78.0039L295.534 83.2144L300.742 86.688L304.793 90.7406L309.422 97.6879L311.737 101.74V105.793L304.793 112.74L300.163 116.793L299.584 118.53H298.427L296.691 121.424L288.011 128.372L285.117 130.109L282.224 133.582L278.173 134.74L241.715 135.319H177.481L165.907 134.74L160.699 133.003L156.069 128.951L154.333 123.74L152.597 124.319L149.703 123.161L149.125 121.424L147.389 120.846V119.688L145.074 119.109L143.917 115.635V107.53L144.495 102.319L143.338 103.477L142.759 115.056L141.602 116.214L133.5 109.846L129.449 105.214L130.028 101.74L133.5 95.3721L138.13 89.5827L142.759 84.9512L149.703 81.4776L167.643 73.9513L175.166 71.6356L186.161 71.0566Z" fill="#464240"/>
<path d="M142.76 102.32H144.496V115.636L145.653 119.11L147.389 119.689L150.283 123.162L154.333 123.741L154.912 122.583L156.648 128.952L161.856 133.004L165.907 134.162L183.268 134.741H241.716L278.173 134.162L282.224 133.583L283.382 131.267L286.275 128.373L290.326 126.057L295.534 121.425H296.691L297.849 117.952H300.164L299.585 156.162L300.164 170.056L303.636 173.53L304.214 261.529V280.055L303.057 281.213L296.113 282.95L294.377 283.529V281.792H278.752L278.173 284.687H264.863L259.655 283.529H234.772L234.193 258.634L233.035 256.897L227.827 256.318L226.67 254.582L223.776 256.318H217.989L213.939 253.424L211.624 249.371L212.203 244.161L214.517 240.687L217.411 238.95L219.147 238.371H223.198L226.67 240.687L228.985 243.582L229.563 244.74V254.582L232.457 255.161H234.193L233.614 252.845L235.35 251.108L237.665 244.74L237.086 240.687L235.929 240.108L237.086 234.319L238.822 232.582L241.137 235.477L242.294 239.529V246.476L240.558 252.266L238.244 256.318V260.371L239.401 262.687L239.98 269.055L240.558 273.108L266.6 273.687H303.057L301.321 269.055L298.428 265.582L297.849 236.634L296.113 223.898L296.691 219.845L297.849 217.529V197.845L288.011 195.53L286.275 190.898V168.32H156.069L155.491 172.951L154.912 193.214L153.176 194.951L149.704 195.53V196.688H142.76V261.529L141.602 267.897L139.287 271.371L138.709 274.266L161.856 274.845L202.365 275.423L204.101 280.634L202.943 281.792L181.532 282.95L183.268 284.687H161.856L161.278 282.95L146.232 282.371V287.002H145.653V282.371L138.709 281.792L137.551 279.476L136.973 239.529V218.687L137.551 174.109L141.602 170.056V116.215L142.181 112.162L142.76 102.32ZM146.232 129.531L147.389 133.583L150.861 135.899L152.597 135.32L152.019 131.846L148.546 129.531H146.232ZM158.963 137.636L157.806 138.794L156.648 146.32V162.53L157.806 164.846L159.542 165.425H285.118V141.109L282.803 138.215L278.752 137.636L257.919 138.794H184.425L167.643 138.215L158.963 137.636Z" fill="#30312F"/>
<path d="M208.73 255.738L211.624 256.896L212.781 263.843L215.675 264.422H229.563V256.896L230.142 256.317H233.035L234.772 258.633L235.35 282.948H259.655L265.442 284.106H278.173L278.752 281.791L279.909 281.212H293.219L294.377 281.791V298.001L293.798 306.685L291.483 309.58L289.747 310.159H285.118L279.909 308.422L279.331 307.264L278.752 296.843V288.738L240.558 289.317L234.772 289.896L235.35 310.738L249.239 311.317L250.396 311.895V315.369L248.66 317.106L244.031 317.685H238.822L239.401 321.737L235.35 324.053L234.772 343.158L234.193 344.316L231.299 344.895L227.249 343.158V362.263L226.67 370.947L223.776 374.421L221.462 375L216.832 373.263L215.096 371.526L214.517 369.211L213.939 342.579L209.888 345.474L207.573 344.895L206.994 343.158V334.474L207.573 320.001L206.994 318.264L203.522 317.106L196.578 316.527H191.948L190.791 315.369L191.37 312.474L191.948 311.895H203.522L201.786 302.054L202.365 296.843L205.258 293.369L205.837 291.054L204.68 290.475L193.684 289.896V289.317L203.522 288.738L207.573 287.58L206.994 282.37L206.416 281.791V265.58L206.994 256.896L208.73 255.738ZM197.157 313.632L197.735 315.369L198.314 313.632H197.157Z" fill="#464240"/>
<path d="M153.176 193.791H154.912L155.491 211.159H156.648L159.542 208.843L164.171 206.528L165.329 204.791L163.014 204.212L163.593 201.317L179.217 197.265L182.69 195.528L187.319 194.949L189.634 197.844L190.791 199.58L190.213 203.054L187.898 205.37L182.69 205.949L180.953 204.791H176.903L167.644 207.686L161.278 210.001L160.699 211.159H159.542V212.317H185.004L199.472 212.896L201.786 218.685L201.208 220.422H145.653V240.685L145.075 255.159L144.496 259.211L204.101 259.79L202.365 254.58L200.629 252.264L199.472 246.475V240.685L200.629 234.896L204.68 231.422L206.995 232.001L208.152 235.475H234.772V230.264L238.244 232.001L237.087 235.475L236.508 240.106L237.665 241.843L238.244 245.317L235.35 252.264L233.614 252.843L234.193 255.159L230.142 255.738L228.985 254.58V244.738L226.67 241.264L223.198 238.948H219.147L215.096 240.685L212.781 244.159L212.203 249.369L215.096 254.001L217.99 255.738H223.777L227.249 254.001L227.827 256.317L230.142 256.896L229.564 264.422L228.406 265.001H215.675L212.203 263.843L211.045 256.896L208.731 256.317L207.573 256.896L206.995 265.58V281.79L207.573 282.369V287.579L203.522 289.316L162.435 289.895L161.857 302.632L160.121 308.421L157.806 310.158L153.176 310.737L147.968 309.579L146.232 306.684V282.369H161.278L161.857 284.685L182.69 284.106L180.953 282.948L181.532 282.369L202.944 281.211L203.522 279.474L202.365 275.422H161.857L139.866 274.843L138.709 274.264L139.288 270.211L141.024 267.895L142.181 260.948L142.76 196.686L146.232 196.107L148.547 195.528L149.704 194.949H153.176V193.791Z" fill="#46423F"/>
<path d="M186.16 71.0566H257.339L266.019 71.6356L276.436 75.1092L283.38 78.0039L295.533 83.2144L300.741 86.688L304.792 90.7406L309.421 97.6879L311.736 101.74V104.056L307.106 103.477V102.319L301.319 100.583L294.375 98.2668L285.116 94.7932L273.542 90.1617L262.547 86.688L257.339 86.1091H179.794L163.012 91.8985L156.068 94.7932L143.337 99.4247L134.656 102.319H131.184L130.605 100.004L136.971 90.7406L142.758 84.9512L149.702 81.4776L167.642 73.9513L175.165 71.6356L186.16 71.0566Z" fill="#30312F"/>
<path d="M299.005 156.16H299.584L300.163 170.055L303.635 173.528L304.214 261.527V280.053L303.056 281.211L296.112 282.948L294.376 283.527V281.79H278.751L278.173 284.685H264.863L259.654 283.527H234.771L234.192 258.633L233.035 256.896L227.826 256.317L226.669 254.58L223.776 256.317H217.989L213.938 253.422L211.623 249.37L212.202 244.159L214.517 240.685L217.41 238.949L219.146 238.37H223.197L226.669 240.685L228.984 243.58L229.562 244.738V254.58L232.456 255.159H234.192L233.613 252.843L235.349 251.106L237.664 244.738L237.085 240.685L235.928 240.107L237.085 234.317L238.822 232.58L241.136 235.475L242.294 239.528V246.475L240.558 252.264L238.243 256.317V260.369L239.4 262.685L239.979 269.054L240.558 273.106L266.599 273.685H303.056L301.32 269.054L298.427 265.58L297.848 236.633L296.112 223.896L296.691 219.844L297.848 217.528V197.844L288.01 195.528L286.274 190.897V179.897L287.432 173.528L290.325 174.107L291.482 175.265L293.219 173.528H297.269L297.848 169.476L298.427 159.634L299.005 156.16Z" fill="black"/>
<path d="M286.852 192.055L288.01 193.213V195.528H291.482L297.847 197.844L298.426 209.423V217.528L296.69 222.16L297.269 227.949L298.426 236.633L299.005 265.58L302.477 269.633L303.056 273.685L293.218 274.264H266.598L242.293 273.685L240.557 273.106L239.4 269.054L238.821 262.685L238.242 260.37H256.76L296.69 260.949L295.533 240.686L294.954 222.739L293.797 220.423H243.45L239.978 219.265L241.714 212.897L242.293 212.318L281.644 211.739L279.908 210.581V209.423L273.542 207.686L263.126 204.212L259.654 205.949H255.024L251.552 203.055V198.423L252.709 195.528L257.339 194.949L260.811 196.107L262.547 197.844L278.172 200.739L278.751 201.318V204.791L276.436 205.949L278.172 207.107L282.801 208.265L283.959 211.739H287.431L286.852 192.055Z" fill="#464240"/>
<path d="M142.181 122.004H142.76L143.338 127.793L144.496 128.372L145.074 127.214L147.968 127.793L149.704 130.109L146.232 129.53L145.653 131.267L143.338 130.688V166.582L144.496 170.635V173.53L150.861 175.266H154.912V193.214L153.176 194.95L149.704 195.529V196.687H142.76V261.529L141.602 267.897L139.287 271.371L138.709 274.265L161.856 274.844L202.365 275.423L204.101 280.634L202.943 281.791L181.532 282.949L183.268 284.686H161.856L161.278 282.949L146.232 282.37V287.002H145.653V282.37L138.709 281.791L137.551 279.476L136.973 239.529V218.687L137.551 174.109L141.602 170.056L142.181 122.004Z" fill="#30312F"/>
<path d="M209.309 198.424H231.299L233.614 199.582L234.193 201.319L234.771 209.424L235.35 212.318L237.665 212.897L236.508 218.687V228.529L239.401 232.002L241.716 234.318L242.873 238.95V247.634L241.137 253.423L238.822 256.897L238.244 258.634L241.716 258.055L249.817 258.634H265.442L294.955 259.791L295.534 240.686H296.113L296.691 248.213V260.949H253.29L237.665 260.37V256.318L240.558 251.107L241.716 246.476V239.529L239.98 234.318L237.665 232.002L235.35 230.844L234.771 235.476L233.035 236.055H208.152L206.416 232.002L204.101 232.581L201.207 234.897L200.05 240.686V246.476L200.629 251.686L199.471 250.528L198.893 247.634V237.792L200.629 233.16L204.101 230.266L205.837 226.792L205.258 220.424L204.101 213.476L206.416 211.161L206.994 205.371L208.152 199.003L209.309 198.424Z" fill="black"/>
<path d="M186.16 71.0566H257.339L266.019 71.6356L268.913 72.7935L266.598 74.5303L264.283 75.6882L263.126 77.425V83.2144L260.232 84.3723H183.266L177.48 82.6354L171.693 78.0039H167.063L156.647 81.4776L150.86 83.2144L147.388 84.3723H144.494L145.652 83.2144L164.748 75.1092L175.165 71.6356L186.16 71.0566Z" fill="#30312F"/>
<path d="M142.759 102.32H144.495V115.636L145.652 119.11L147.388 119.689L150.282 123.162L154.333 123.741L154.911 122.583L156.648 128.952L161.856 133.004L165.907 134.162L183.267 134.741H241.715L278.173 134.162L282.224 133.583L283.381 131.267L286.274 128.373L290.325 126.057L295.533 121.425H296.691L297.848 117.952H300.163L299.584 153.267L298.427 150.951V142.267L297.848 141.109H299.006V139.951H297.848L298.427 135.899V132.425H296.691L295.533 133.583L292.64 135.899L288.589 137.636H285.696V136.478H284.538V139.951L281.645 138.215L257.919 139.372H184.425L167.643 138.794L158.962 138.215L157.805 142.267L153.754 138.794L150.282 137.057L145.652 135.32H142.759V130.688H145.074H146.81L147.967 133.583L150.861 135.32H152.018L151.439 131.846L147.388 127.794L145.074 127.215L144.495 128.952L142.759 127.794L141.602 116.215L142.18 112.162L142.759 102.32Z" fill="#30312F"/>
<path d="M211.206 284.662H212.252L213.299 286.981L216.962 285.242H227.428L231.614 286.981L232.661 288.721V299.158L233.184 303.217L233.707 311.334L234.231 313.654L232.661 321.191L232.137 324.09L232.661 331.048L230.568 339.746L228.474 340.905L227.951 340.326V325.25L230.568 323.511L231.091 322.351L227.951 321.771L227.428 300.897H216.962L216.439 322.351H214.346L216.439 324.67V339.746L215.915 340.326H213.299L212.252 330.469V324.09L212.776 321.771L211.206 314.813L210.159 313.074L209.636 307.275L207.543 304.956L207.02 299.738L208.066 297.998H209.636L210.159 292.2L210.683 286.981L211.206 284.662Z" fill="#FEFEFE"/>
<path d="M257.918 121.424H260.811L261.39 123.161H264.283L267.177 125.476L270.649 130.108L269.492 132.424L268.913 133.003L264.283 133.582H181.531L173.429 133.003L172.271 131.266L173.429 128.371L178.637 126.055L182.688 125.476H191.368L197.155 126.634L222.618 125.476H247.501L254.446 123.74L257.918 121.424Z" fill="#464240"/>
<path d="M199.471 87.8457H246.345L249.818 89.0036L249.239 99.4245L247.503 100.003L231.299 100.582H212.203L193.106 100.003L191.948 98.8456L190.791 89.5825L191.948 88.4246L199.471 87.8457Z" fill="#464240"/>
<path d="M299.005 156.16H299.583L300.162 170.055L303.055 172.949L303.634 174.107L303.055 175.844L302.477 183.37L301.898 267.317L299.005 266.159L298.426 265.58L297.847 236.633L296.111 223.896L296.69 219.844L297.847 217.528V197.844L288.01 195.528L286.273 190.897V179.897L287.431 173.528L290.324 174.107L291.482 175.265L293.218 173.528H297.269L297.847 169.476L298.426 159.634L299.005 156.16Z" fill="#30312F"/>
<path d="M254.446 194.949H258.497L261.39 196.686L262.547 197.844L278.172 200.739L278.751 201.318V204.791L276.436 205.949L278.172 207.107L282.802 208.265L283.959 211.738H287.431L288.01 210.002L289.746 215.212L293.797 219.265V220.423H243.451L239.979 219.265L241.715 212.896L242.293 212.317L281.644 211.738L279.908 210.581V209.423L273.543 207.686L263.126 204.212L259.654 205.949H255.024L251.552 203.054V198.423L252.71 195.528L254.446 194.949Z" fill="black"/>
<path d="M154.332 194.949H154.911L155.49 211.16H156.647L159.54 208.844L164.17 206.528L165.327 204.791L163.013 204.212L163.591 201.318L179.216 197.265L182.688 195.528L187.318 194.949L189.632 197.844L190.79 199.581L190.211 203.054L187.896 205.37L182.688 205.949L180.952 204.791H176.901L167.642 207.686L161.276 210.002L160.698 211.16H159.54V212.317H185.003L199.47 212.896L201.785 218.686L201.206 220.423H146.23L146.809 217.528L152.596 214.054L153.753 208.265L154.332 194.949Z" fill="black"/>
<path d="M145.074 174.688H149.125L150.861 175.266H154.912V193.214L153.176 194.95L149.704 195.529V196.687H142.759V261.529L141.602 267.318H139.866L139.287 239.529V194.371L139.866 175.845L142.759 176.424L143.917 177.582L145.074 174.688Z" fill="#FEFEFE"/>
<path d="M145.848 282.439H161L160.417 285.915H204.71L205.875 286.494V287.653L195.968 288.232H179.067L176.153 288.812H161.583V302.714L159.835 308.507L157.503 310.245L152.841 310.824L147.596 309.666L145.848 306.769V282.439Z" fill="#323230"/>
<path d="M210.466 199.58H231.877L233.035 200.738L233.613 203.633L234.192 212.317L234.771 214.633V220.422L212.78 219.843L208.151 219.264L207.572 218.685L208.151 211.738L209.308 200.738L210.466 199.58Z" fill="#4A4E4E"/>
<path d="M234.772 230.266L238.244 232.002L237.086 235.476L236.508 240.108L237.665 241.844L238.244 245.318L235.35 252.265L233.614 252.844L234.193 255.16L230.142 255.739L228.985 254.581V244.739L226.67 241.265L223.198 238.95H219.147L215.096 240.687L212.781 244.16L212.203 249.371L215.096 254.002L217.99 255.739H223.777L227.249 254.002L227.827 256.318L230.142 256.897L229.563 264.423L228.406 265.002H215.675L212.203 263.844L211.045 256.897L209.888 256.318V254.581H208.731L206.994 251.107L205.258 240.687L204.68 236.634L205.258 235.476H234.772V230.266Z" fill="#48433F"/>
<path d="M204.68 231.424L206.995 232.003L207.573 235.476H205.258L205.837 241.845L207.573 251.108L208.731 254.581H209.888V255.739L207.573 256.897L206.995 265.581V281.792L207.573 282.371V287.581L203.522 289.318L162.435 289.897V293.949L161.278 292.791V288.16H176.324L179.217 287.581H205.837V286.423H169.38L160.699 285.844L161.278 282.95L161.857 284.686L182.69 284.107L180.953 282.95L181.532 282.371L202.944 281.213L203.522 279.476L202.365 275.423H161.857L139.866 274.844L138.709 274.265V271.371L139.866 273.108L168.222 273.686H201.786L202.365 274.265L202.944 273.108L203.522 267.318V256.897L200.629 252.266L199.472 246.476V240.687L200.629 234.897L204.68 231.424Z" fill="black"/>
<path d="M212.78 276.002H223.775L230.719 276.581L231.298 277.16L231.877 284.686H233.613V292.212L234.77 295.107L235.349 310.738L249.237 311.317L250.395 311.896V315.37L248.659 317.107L244.029 317.686H238.821L239.4 321.738L235.349 324.054L234.77 343.159L234.192 344.317L231.298 344.896L227.247 342.58V340.843L229.562 339.685L231.877 330.422L231.298 321.738L232.455 320.001L233.613 312.475L233.034 311.317L232.455 301.475L231.877 296.844V288.739L231.298 287.002L227.826 286.423L226.669 285.844H215.095L210.465 287.581L209.886 284.686H208.729L208.15 287.002V282.37L209.308 278.318L211.044 276.581L212.78 276.002Z" fill="#464240"/>
<path d="M143.915 134.74L149.702 135.898L152.017 137.635L156.068 139.951L157.225 141.688L156.646 163.687L155.489 165.424L154.332 170.635L152.017 174.108H145.651L144.494 173.529L142.758 164.845V135.319L143.915 134.74Z" fill="#30312F"/>
<path d="M281.978 282.439H294.98V306.66L292.616 309.544L290.843 310.12H286.115L280.796 308.39L280.205 307.237L279.614 296.857L279.023 288.783L266.021 288.206L238.835 287.63L237.062 287.053V285.9L238.244 285.323H280.796L281.978 286.476L281.387 289.36L283.751 289.936L285.524 289.36L286.706 287.63H287.888L287.297 284.17L281.978 283.016V282.439Z" fill="#323130"/>
<path d="M288.01 274.844H302.477L300.741 280.633L300.162 281.791L294.375 283.528V281.791H278.751L278.172 284.686H264.862L260.811 284.107L263.126 282.949L261.969 282.37L253.867 281.791L238.242 281.212L238.821 276.581L239.978 275.423L288.01 274.844Z" fill="#30312F"/>
<path d="M156.648 162.529L157.805 164.266L159.542 164.845L285.118 165.424L285.696 164.266V165.424L287.432 166.003V175.266L286.275 172.95V168.319H156.069L154.912 175.266L150.282 175.845L145.074 174.687V174.108L152.019 173.529L154.333 168.898L155.491 164.266L156.648 162.529Z" fill="#30312F"/>
<path d="M153.175 193.791H154.911L154.333 208.265L153.175 214.054L150.282 216.37L147.388 217.528L146.231 220.422L145.074 255.159L143.916 264.422L141.602 267.316L142.18 259.211L142.759 196.686L146.231 196.107L148.546 195.528L149.703 194.949H153.175V193.791Z" fill="#30312F"/>
<path d="M208.89 221.84C209.147 221.326 209.672 221.002 210.246 221.002H229.468C231.253 221.002 232.837 222.144 233.402 223.838V223.838C233.542 224.26 233.614 224.703 233.614 225.148V231.738C233.614 232.292 233.485 232.839 233.238 233.334V233.334C232.745 234.32 231.825 235.023 230.744 235.239L230.112 235.366C229.747 235.439 229.376 235.47 229.004 235.459L211.668 234.933C210.896 234.91 210.163 234.593 209.617 234.047V234.047C209.049 233.479 208.73 232.709 208.73 231.906V222.517C208.73 222.282 208.785 222.05 208.89 221.84V221.84Z" fill="black"/>
<path d="M138.709 275.422H202.365L202.944 276.58V280.632L202.365 281.211H151.44L148.547 280.632L146.232 278.317L145.653 277.159L142.181 276.58L141.024 278.896L139.866 278.317L138.709 275.422Z" fill="#30312F"/>
<path d="M208.73 258.633H209.887L210.466 259.791V265.001H229.563L230.72 264.422L231.877 260.37L233.035 259.791L233.613 262.106V267.896L234.192 269.054V276.58L233.613 284.685H231.299L230.72 277.159L223.776 276.58H212.78L209.887 278.317L208.151 279.475L207.572 274.264V265.001L208.151 259.791L208.73 258.633Z" fill="#FEFEFE"/>
<path d="M286.854 192.055L288.011 193.213V195.528H291.483L297.849 197.844L298.427 209.423V217.528L296.691 222.16L297.27 227.949L298.427 236.633V264.422L297.27 262.685L296.691 260.949L295.534 240.686L294.955 222.739L293.798 219.844L289.168 215.212L287.432 210.002L286.854 192.055Z" fill="#30312F"/>
<path d="M300.163 175.846L302.478 176.425L301.899 267.318L299.585 266.16L299.006 265.003V176.425L300.163 175.846Z" fill="#FEFEFE"/>
<path d="M145.073 174.688H149.123L150.859 175.266H154.91V193.214L153.174 194.95L149.702 195.529V196.687H142.758V186.266L143.337 177.582L144.494 175.845L145.073 174.688Z" fill="#30312F"/>
<path d="M279.908 281.211H293.218L294.375 281.79V298H293.797V282.369L284.538 282.948L287.431 285.842L286.852 287.579L283.959 290.474H281.065L279.908 288.737L280.487 286.421L279.329 285.842H237.085V287L265.441 287.579L278.172 288.158V288.737L240.557 289.316L235.349 289.895L234.191 287.579V284.106L238.242 282.948H259.654L265.441 284.106H278.172L278.751 281.79L279.908 281.211Z" fill="#464240"/>
<path d="M223.197 354.158L226.091 354.737L226.67 355.316V370.947L223.776 374.421L221.461 375L216.832 373.263L215.096 371.526V357.632L218.568 355.316L223.197 354.158Z" fill="#313130"/>
<path d="M185.583 194.949L187.897 195.528L190.791 199.581L190.212 203.054L187.897 205.37L182.689 205.949L180.953 204.791H176.902L167.643 207.686L161.278 210.002L158.963 210.581L159.542 208.844L164.171 206.528L165.328 204.791L163.014 204.212L163.592 201.318L179.217 197.265L182.689 195.528L185.583 194.949Z" fill="#30312F"/>
<path d="M297.848 117.951H300.163L299.585 153.267L298.427 150.951V142.267L297.848 141.109H299.006V139.951H297.848L298.427 135.898V132.425H296.691L295.534 133.583L292.64 135.898L288.589 137.635H285.696V136.477H284.539V139.951L281.645 138.214L281.066 133.583H282.224L283.381 131.267L286.275 128.372L290.325 126.056L295.534 121.425H296.691L297.848 117.951Z" fill="#30312F"/>
<path d="M303.057 174.107H303.635L304.214 261.527V280.053L303.057 281.211H299.585L300.742 280.632L301.899 275.422L294.955 274.843V274.264L302.478 273.685L301.899 269.633L299.585 267.317L300.163 266.159L301.899 267.317V183.37L302.478 175.844L303.057 174.107Z" fill="#30312F"/>
<path d="M179.795 85.5293H257.34L262.548 86.1082L276.437 90.7398L285.117 94.2134L282.802 94.7923L272.386 90.7398L264.863 88.424L261.391 87.8451L252.132 87.2661H189.633L178.638 87.8451L171.115 90.7398L154.333 96.5292L136.394 102.898L130.607 104.055L129.449 105.213L130.028 101.74H134.657L153.176 95.3713L161.856 91.8976L176.323 86.6872L179.795 85.5293Z" fill="#30312F"/>
<path d="M219.726 239.527L224.355 240.106L227.827 243.001L228.985 245.896L228.406 249.948L226.091 253.422L223.776 254.58H217.989L215.096 252.843L212.781 248.211L213.36 244.159L215.675 241.264L219.726 239.527Z" fill="#FEFEFE"/>
<path d="M239.978 275.422H283.38V276.001L248.659 276.58L247.501 277.738L248.659 278.317L253.867 278.896H263.705L272.385 279.474L275.278 280.053V281.211H279.908L278.751 281.79L278.172 284.685H264.862L260.811 284.106L263.126 282.948L261.969 282.369L253.867 281.79L238.242 281.211L238.821 276.58L239.978 275.422Z" fill="#30312F"/>
<path d="M206.995 282.369H207.573V287.58L203.522 289.316L162.435 289.895V293.948L161.278 292.79V288.159H176.324L179.217 287.58H205.837V286.422H169.38L160.699 285.843L161.278 282.948L161.857 284.685L182.689 284.106L180.953 282.948H206.416L206.995 282.369Z" fill="#30312F"/>
<path d="M285.117 94.793L288.589 95.3719L299.006 99.4245L307.107 102.319V103.477L311.737 104.056L311.158 106.372L304.793 112.74L300.163 116.793L299.584 118.53H298.427L297.27 119.687V111.003L296.691 100.003L285.117 95.3719V94.793Z" fill="#464240"/>
<path d="M226.67 254.002L227.827 256.318L230.142 256.897L229.563 264.423L228.406 265.002H215.674L212.202 263.844L211.045 256.318L213.938 255.739L216.253 254.581L217.989 255.739H223.776L226.67 254.002Z" fill="#464342"/>
<path d="M205.258 235.475L209.309 236.054L219.147 237.79V238.948L215.096 240.685L212.781 244.159L212.203 249.369L215.096 254.001L213.939 256.316L212.203 256.895L209.888 256.316V254.58H208.731L206.994 251.106L205.258 240.685L204.68 236.632L205.258 235.475Z" fill="#4A423D"/>
<path d="M156.069 167.74H274.122L286.275 168.319V169.477H155.49L156.069 167.74Z" fill="#3E767A"/>
<path d="M208.731 255.738L211.624 256.896L212.782 263.843L215.675 264.422H229.564V256.896L230.142 256.317H233.036L234.772 258.633L235.351 282.948L234.772 284.106L235.351 289.896L234.772 295.106L233.615 293.369L233.036 289.317L233.615 276.58V269.054L233.036 266.159V262.107L232.457 260.37L230.721 265.001L229.564 265.58H211.624L210.467 265.001L209.888 258.633H208.731L208.152 269.054V277.159L208.731 282.37L208.152 287.58H207.573L206.995 282.37L206.416 281.791V265.58L206.995 256.896L208.731 255.738Z" fill="#887F64"/>
<path d="M191.369 87.2676H249.817L252.131 88.4255L250.974 94.7938L250.395 99.4253L247.502 101.162L202.364 101.741L191.948 101.162L190.212 97.1096L189.633 88.4255L191.369 87.2676ZM199.471 87.8465L191.948 88.4255L190.79 90.1623L191.948 98.8464L193.105 100.004L219.725 100.583H235.928L247.502 100.004L249.238 99.4253L249.817 89.0044L245.766 87.8465H199.471Z" fill="#30312F"/>
<path d="M241.136 236.055H242.294L242.872 238.949V247.633L241.136 253.423L238.821 256.897L238.243 258.633L241.715 258.054L249.817 258.633H265.441L294.955 259.791L295.533 240.686H296.112L296.691 248.212V260.949H253.289L237.664 260.37V256.318L240.558 251.107L241.715 246.476V239.528L241.136 236.055Z" fill="#3E767A"/>
<path d="M144.494 259.213L203.521 259.792L201.206 260.95L195.419 262.108H167.642L153.753 262.687L147.966 263.265L144.494 262.687V259.213Z" fill="#4A4E4E"/>
<path d="M238.242 260.371H256.76L297.269 260.95L297.847 263.845H291.482L279.329 263.266H262.547L257.339 263.845L251.552 263.266H246.344L244.029 263.845L242.293 262.687L238.242 261.529V260.371Z" fill="#4A4E4D"/>
<path d="M142.18 122.004H142.759L143.338 127.793L144.495 128.372L145.074 127.214L147.967 127.793L149.703 130.109L146.231 129.53L145.652 131.267L143.338 130.688V166.582L144.495 170.635V173.53L145.652 174.109L144.495 178.161L142.18 176.424H139.866L139.287 181.635L138.708 241.845H138.129L137.551 174.109L141.602 170.056L142.18 122.004Z" fill="#30312F"/>
<path d="M206.994 307.264H207.573L208.151 313.053L209.887 315.948L211.045 322.895L210.466 325.79V332.158L211.045 340.263L213.938 339.684V324.632L212.202 323.474V322.316H214.517L215.096 323.474V344.895L213.938 344.316V342.579L209.887 345.474L207.573 344.895L206.994 343.158V334.474L207.573 320L206.994 318.264L205.837 317.106L206.415 313.632L205.258 313.053L206.415 312.474L206.994 307.264Z" fill="#5E9B9E"/>
<path d="M145.652 220.424H146.23V244.16L145.652 258.634L146.809 258.055H201.206L202.942 258.634V255.739L204.099 256.897V259.792H147.966L144.494 259.213L145.652 220.424Z" fill="#3E767A"/>
<path d="M233.614 209.424H234.771L235.35 212.319L237.665 212.897L236.507 218.687V228.529L239.401 232.003L241.716 234.318L241.137 236.055L237.665 232.003L235.35 230.845L234.771 235.476L233.035 236.055H208.152L206.994 233.739L208.152 221.582H208.73L209.309 234.318L231.299 234.897L232.457 234.318L233.035 232.581V224.476L232.457 221.582L209.309 221.003V220.424L233.035 219.845L234.771 220.424L233.614 212.319V209.424Z" fill="black"/>
<path d="M202.943 278.316L204.101 280.632L202.943 281.79L181.532 282.948L183.268 284.685H161.856L161.277 282.948L146.231 282.369V287.001H145.653V282.369L139.287 281.211L141.602 280.632H202.364L202.943 278.316Z" fill="#30312F"/>
<path d="M212.78 277.16H228.983L229.562 277.739V284.107L223.775 283.528H215.673L212.78 284.107L212.201 283.528V277.739L212.78 277.16Z" fill="#444240"/>
<path d="M212.78 276.002H223.775L230.719 276.581L231.298 277.16V284.686L230.141 285.844H215.095L210.465 287.581L209.886 284.686H208.729L208.15 287.002V282.37L209.308 278.318L211.044 276.581L212.78 276.002ZM212.78 277.16L212.201 277.739V283.528L213.937 284.107L215.673 283.528H223.775L229.562 284.107V277.739L228.983 277.16H212.78Z" fill="#6A867B"/>
<path d="M143.916 196.107L147.388 196.686L146.231 197.844L144.495 198.423V230.844L143.916 264.422L141.602 267.317L142.18 259.212L142.759 196.686L143.916 196.107Z" fill="#30312F"/>
<path d="M238.243 285.264H279.909L281.066 286.422L280.488 288.737H278.173L265.442 288.158L238.822 287.579L237.086 287V285.843L238.243 285.264Z" fill="#333231"/>
<path d="M146.23 282.369H156.068L154.911 282.948L155.49 285.843L157.226 287.001L156.647 289.895L151.439 291.632L148.545 292.79L147.388 294.527H146.23V282.369Z" fill="#30312F"/>
<path d="M237.086 311.316H249.238L250.396 311.895V315.369L248.66 317.106L244.03 317.685H238.243L235.35 316.527L235.928 313.053L237.086 311.316Z" fill="#4C5453"/>
<path d="M294.954 176.424H297.269V192.055L296.69 194.95L292.639 193.792L292.061 189.739V179.319L293.218 177.003L294.954 176.424Z" fill="#FEFEFE"/>
<path d="M138.709 271.369L139.866 273.106L168.222 273.685H201.786L202.365 275.422H161.857L139.866 274.843L138.709 274.264V271.369Z" fill="#30312F"/>
<path d="M294.955 220.424L296.112 221.003L298.427 236.634V264.423L297.27 262.686L296.691 260.95L295.534 240.687L294.955 220.424Z" fill="#30312F"/>
<path d="M237.664 261.527H238.821L239.4 262.685L239.979 269.054L240.558 273.106L266.599 273.685H302.478V274.264L294.955 274.843H239.979L238.243 274.264L237.664 273.106V261.527Z" fill="#464240"/>
<path d="M286.852 175.266L292.06 176.424L291.482 179.318L290.903 192.634L290.324 193.792L287.431 193.213L286.273 190.897V179.897L286.852 175.266Z" fill="#FEFEFE"/>
<path d="M279.909 281.211H293.219L294.377 281.79V298H293.798V282.369L284.539 282.948L287.432 285.842L286.854 287.579L283.96 290.474H281.067L279.909 288.737L280.488 286.421L279.331 285.842H274.701L275.859 284.685L278.173 284.106L278.752 281.79L279.909 281.211Z" fill="#464240"/>
<path d="M237.664 319.422L239.401 320.001L238.822 322.317L235.35 324.053L234.771 343.158L234.192 344.316L231.299 344.895L227.248 342.579V340.843L231.299 340.264L232.456 336.211L233.035 326.369L233.614 321.159L237.664 319.422Z" fill="#30312F"/>
<path d="M153.755 175.266H154.912V193.213L153.176 194.371L150.861 193.792V179.897L151.44 175.845L153.755 175.266Z" fill="#FEFEFE"/>
<path d="M219.146 238.371H223.197L226.669 240.687L228.984 243.582L229.562 244.739V249.95L227.826 254.002L223.776 256.318H217.989L213.938 253.424L211.623 249.371L212.202 244.16L214.517 240.687L217.41 238.95L219.146 238.371ZM219.725 239.529L215.674 241.266L213.359 244.16L212.78 248.213L215.095 252.845L217.989 254.581H223.776L226.09 253.424L228.984 248.792L228.405 244.16L225.512 240.687L222.618 239.529H219.725Z" fill="#827C64"/>
<path d="M295.533 126.055H298.427L299.005 128.37V132.423H296.691L295.533 133.581L292.64 135.897H287.432V133.002L289.746 130.107H291.482L292.64 127.792L295.533 127.213V126.055Z" fill="#FEFEFE"/>
<path d="M298.428 197.844H299.007L299.585 266.159L298.428 265.58L297.849 236.633L296.113 223.896L296.692 219.843L297.849 217.528L298.428 197.844Z" fill="#30312F"/>
<path d="M179.21 287.6H205.172L203.442 289.839L162.478 290.585V295.81L161.324 294.317V288.346H176.325L179.21 287.6Z" fill="#30312F"/>
<path d="M212.202 322.316H214.517L215.095 323.474V344.895L213.938 344.316V342.579L209.887 345.474L207.572 344.895V335.053H209.308L209.887 337.369H211.044V340.264L213.938 339.685V324.632L212.202 323.474V322.316Z" fill="#30312F"/>
<path d="M239.401 274.266L288.011 274.845V275.424L239.98 276.002L238.244 281.213H253.869L266.6 282.371V282.95L259.655 283.529V282.371H236.508L237.665 277.16L239.401 274.266Z" fill="#30312F"/>
<path d="M145.653 176.424L147.968 177.003L149.125 177.582V193.213L146.232 193.792L145.653 193.213L145.074 178.74L145.653 176.424Z" fill="#FEFEFE"/>
<path d="M237.086 284.686H249.239V285.264L237.086 285.843V287.001L265.442 287.58L278.173 288.159V288.738L237.665 289.317L234.771 287.001V285.843L237.086 284.686Z" fill="#464240"/>
<path d="M191.948 311.896H200.629L204.68 313.633V315.949H200.629L200.05 316.528H191.948L190.791 315.37L191.37 312.475L191.948 311.896ZM197.157 313.633L197.735 315.37L198.314 313.633H197.157Z" fill="#4E5957"/>
<path d="M145.652 218.686L146.231 220.422L145.073 255.159L144.495 260.948H143.916V226.791L144.495 219.843H145.652V218.686Z" fill="#30312F"/>
<path d="M285.117 94.793L288.589 95.3719L299.006 99.4245L307.107 102.319L305.371 102.898L298.427 100.582L299.006 102.898L299.584 114.477L300.163 116.793L299.584 118.53H298.427L297.27 119.687V111.003L296.691 100.003L285.117 95.3719V94.793Z" fill="#30312F"/>
<path d="M208.731 255.738L210.467 256.317L211.046 261.528L209.888 259.791V258.633H208.731L208.152 269.054V277.159L208.731 282.37L208.152 287.58H207.573L206.995 282.37L206.416 281.791V265.58L206.995 256.896L208.731 255.738Z" fill="#30312F"/>
<path d="M142.18 122.004H142.758L143.337 127.793L144.494 128.372L145.073 127.214L147.967 127.793L149.703 130.109L146.231 129.53L145.652 131.267L143.337 130.688V166.582L144.494 170.056L142.18 168.898V122.004Z" fill="#30312F"/>
<path d="M208.152 221.582H208.73L209.309 234.319L231.299 234.898L232.457 234.319L233.614 226.792H234.193L234.771 235.477L233.035 236.056H208.152L206.994 233.74L208.152 221.582Z" fill="#7F8672"/>
<path d="M161.278 282.949L161.857 284.686L182.689 284.107L180.953 282.949L186.74 283.528L188.476 284.107V285.265L187.319 285.844L174.009 286.423L160.699 285.844L161.278 282.949Z" fill="#30312F"/>
<path d="M203.521 300.316L204.678 302.053L205.257 304.948L206.993 306.106V312.474L206.414 313.632V317.106L200.049 316.527L201.206 314.79V315.948L202.942 315.369L204.678 315.948V313.632L202.364 313.053L200.628 311.895H203.521L202.942 305.527L203.521 300.316Z" fill="#30312F"/>
<path d="M299.006 156.16H299.585L300.164 170.055L303.057 172.949L303.636 174.107L302.479 176.423H298.428V159.634L299.006 156.16Z" fill="#30312F"/>
<path d="M207.573 322.895H208.152V325.789L209.888 324.052L210.466 328.105V337.368L208.152 336.21L207.573 343.157H206.994V334.473L207.573 322.895Z" fill="#7CB6BC"/>
<path d="M285.117 130.688L285.696 131.845V133.582L287.432 133.003V135.898H291.483L289.168 137.056L288.589 137.635H285.696V136.477H284.539V139.951L281.645 138.214L281.066 133.582L284.539 131.266L285.117 130.688Z" fill="#30312F"/>
<path d="M212.202 235.475L233.035 236.054L232.456 237.211L224.355 237.79L223.197 238.948L217.41 237.79L209.309 236.632V236.054L212.202 235.475Z" fill="#455F5F"/>
<path d="M215.096 300.316H226.67V300.895L215.675 301.474V321.737L214.518 322.316V300.895L215.096 300.316Z" fill="#746755"/>
<path d="M267.757 282.369H278.752L278.173 284.685H264.863L260.812 284.106L263.127 282.948L267.757 282.369Z" fill="#464240"/>
<path d="M301.9 221.002H302.479V269.054L300.164 267.896V266.159L301.9 267.317V221.002Z" fill="#30312F"/>
<path d="M255.025 282.949H259.654L265.441 284.107L275.858 284.686V285.265H253.289L251.553 283.528L255.025 282.949Z" fill="#464240"/>
<path d="M297.849 124.318L299.585 124.897V153.265L298.427 150.95V142.266L297.849 141.108H299.006V139.95H297.849L298.427 135.897V128.371L296.691 125.476L297.849 124.318Z" fill="#30312F"/>
<path d="M142.759 102.32H144.495V115.636L145.652 119.689L142.759 118.531L141.602 116.215L142.18 112.162L142.759 102.32Z" fill="#30312F"/>
<path d="M161.277 288.158H180.374L190.212 288.737V289.316L162.435 289.895V293.948L161.277 292.79V288.158Z" fill="#30312F"/>
<path d="M211.623 277.16L212.78 277.739V283.528L215.674 282.95H223.776L229.562 284.107L228.984 277.16H230.141V284.686L228.984 285.265L227.826 284.686H214.517L212.202 285.844L211.623 285.265V277.16Z" fill="#3E767A"/>
<path d="M237.665 319.422L239.401 320.001L238.822 322.317L235.35 324.053L234.771 336.79H234.193L233.614 326.369L233.035 324.053L233.614 321.159L237.665 319.422Z" fill="#30312F"/>
<path d="M191.948 311.896H197.157L196.578 316.528H191.948L190.791 315.37L191.37 312.475L191.948 311.896Z" fill="#373735"/>
<path d="M139.287 280.633L161.277 281.212V282.37H146.231V287.001H145.653V282.37L139.287 281.212V280.633Z" fill="#30312F"/>
<path d="M294.956 133.004L295.534 134.162H297.849V137.056L294.377 136.478L290.326 138.214L284.539 140.53V136.478H285.696V137.635H288.59L289.169 136.478H291.483L292.062 135.32H293.798L294.956 133.004Z" fill="#30312F"/>
<path d="M248.659 311.896H250.395V315.37L249.817 316.528H245.766L241.715 314.791L242.294 313.633L248.659 313.054V311.896Z" fill="#454341"/>
<path d="M214.517 240.686L216.253 241.264L213.938 244.159L213.359 248.212L215.095 251.685V252.843L217.989 254.001L223.197 255.159V255.738H218.567L214.517 254.001L211.623 249.37L212.202 244.159L214.517 240.686Z" fill="#907959"/>
<path d="M297.847 217.529H298.426V236.634H297.847L296.111 223.898L296.69 219.845L297.847 217.529Z" fill="#30312F"/>
<path d="M206.415 287.58H208.151V295.106L206.993 296.264L205.836 293.369V291.054L204.679 290.475L193.684 289.896V289.317L203.521 288.738L206.415 287.58Z" fill="black"/>
<path d="M148.546 97.1094L149.125 98.2673L136.394 102.899L130.607 104.057L129.449 105.215L130.028 101.741H134.657L148.546 97.1094Z" fill="#30312F"/>
<path d="M301.898 183.371H302.477L303.056 207.108H303.635V214.055H302.477L301.898 215.213V183.371Z" fill="#30312F"/>
<path d="M224.354 237.211H231.298L228.405 242.421L223.775 238.948L224.354 237.211Z" fill="#674626"/>
<path d="M234.193 276.58H234.771L235.35 282.948L234.771 284.106L235.35 289.896L234.771 295.106L233.614 293.369L233.035 289.317L233.614 277.159L234.193 276.58Z" fill="#30312F"/>
<path d="M287.432 173.529L290.325 174.108L291.482 175.266H297.848L297.269 177.582V176.424L293.219 177.003L292.64 179.319L290.904 178.74V177.582L289.746 176.424L287.432 175.845V173.529Z" fill="#30312F"/>
<path d="M142.18 122.004H142.758L143.337 127.793L144.494 128.372L145.073 127.214L147.967 127.793L149.703 130.109L146.231 129.53L145.652 131.267L143.337 130.688L142.758 133.583H142.18V122.004Z" fill="#30312F"/>
<path d="M210.465 236.633L217.409 237.212L219.145 237.791V238.949L215.094 240.685L212.78 243.001L212.201 237.791L210.465 237.212V236.633Z" fill="#30312F"/>
<path d="M154.912 135.898H158.385V137.056L159.542 137.635L158.385 138.793L157.806 142.267L153.755 138.793L152.598 137.056L154.912 135.898Z" fill="#30312F"/>
<path d="M303.057 271.949H303.635V280.633L303.057 281.212H299.585L300.742 280.633L301.899 275.423L294.955 274.844V274.265L302.478 273.686L303.057 271.949Z" fill="#30312F"/>
<path d="M175.744 281.791H192.526V282.37L181.531 282.949L183.267 284.686H178.638V283.528L175.744 282.37V281.791Z" fill="#30312F"/>
<path d="M154.912 168.318H155.491V172.95L154.912 175.266L150.282 175.845L145.074 174.687V174.108L152.019 173.529L154.912 168.318Z" fill="#30312F"/>
<path d="M212.201 322.316H214.516L215.095 323.474V344.895L213.937 344.316L213.359 340.842H214.516L213.937 324.632L212.201 323.474V322.316Z" fill="#567673"/>
<path d="M208.73 255.738L210.466 256.317L211.045 261.528L209.888 259.791V258.633H208.73L208.152 265.001H206.994V256.896L208.73 255.738Z" fill="#30312F"/>
<path d="M210.465 277.16L211.044 278.897L210.465 281.213L211.044 285.844L212.78 287.002L210.465 287.581L209.886 284.686H208.729L208.15 287.002V282.371L209.308 278.318L210.465 277.16Z" fill="#4E9CA5"/>
<path d="M212.78 277.16H228.983V277.739H213.359V282.95L215.673 283.528L212.78 284.107L212.201 283.528V277.739L212.78 277.16Z" fill="#4A4E4E"/>
<path d="M208.152 221.582H208.73L209.309 234.319L212.202 234.898V236.056H208.152L206.994 233.74L208.152 221.582Z" fill="#30312F"/>
<path d="M180.952 282.949L186.739 283.528L188.475 284.107V285.265H171.693V284.686L178.638 284.107H182.688L180.952 282.949Z" fill="#30312F"/>
<path d="M150.861 130.688L153.176 131.266L156.07 133.003L158.384 132.424L159.542 133.003L158.963 135.319L156.07 134.74L152.597 135.319L150.861 130.688Z" fill="#30312F"/>
<path d="M237.086 311.316H243.451L241.137 312.474L237.086 314.211L236.507 316.527L243.451 317.106V317.685H238.243L235.35 316.527L235.928 313.053L237.086 311.316Z" fill="#30312F"/>
<path d="M143.337 130.109L146.809 130.688L147.387 133.583L143.915 135.32H142.758V130.688L143.337 130.109Z" fill="#30312F"/>
<path d="M184.424 282.949L190.789 283.528L195.998 284.107L196.576 285.265L193.104 285.844H187.317L188.475 285.265V284.107L184.424 283.528V282.949Z" fill="#30312F"/>
<path d="M223.776 278.316H227.827L228.405 282.369H224.933L223.197 280.053L223.776 278.316Z" fill="#31302F"/>
<path d="M249.816 281.211L261.969 281.79L266.598 282.369V282.948L259.654 283.527V282.369H249.816V281.211Z" fill="#30312F"/>
<path d="M302.477 214.055H303.635V224.476H302.477L301.898 221.002V215.213L302.477 214.055Z" fill="#30312F"/>
<path d="M153.176 193.791H154.912L154.334 208.265L153.176 205.949V197.265L152.598 196.107H148.547L149.704 194.949H153.176V193.791Z" fill="#30312F"/>
<path d="M232.456 331H233.035V336.21L231.299 340.263L229.562 339.684L231.877 331.579L232.456 331Z" fill="#464240"/>
<path d="M210.465 256.318L211.622 256.897L212.78 263.845L215.673 264.424L213.358 265.581L210.465 265.002V256.318Z" fill="#30312F"/>
<path d="M227.826 251.686L228.404 253.422L223.775 256.317H217.988L216.252 254.58L219.145 255.159V254.58L224.932 253.422L227.247 252.843L227.826 251.686Z" fill="#4C7C7C"/>
<path d="M296.691 120.846H297.849L297.27 122.583L292.64 126.056L290.904 127.793L288.011 129.53L286.854 128.951L292.64 123.74L296.691 120.846Z" fill="#FCF9F6"/>
<path d="M137.551 174.107L139.287 174.686V181.634L138.708 183.37H137.551V174.107Z" fill="#30312F"/>
<path d="M161.278 282.949L161.857 284.686H171.694L171.116 285.844H160.699L161.278 282.949Z" fill="#30312F"/>
<path d="M230.72 284.686H233.613V289.896L232.456 292.212L231.298 287.001L227.826 286.422L230.141 285.264L230.72 284.686Z" fill="#4E9CA5"/>
<path d="M233.614 340.844H234.771L234.192 344.317L231.299 344.896L227.248 342.581L227.827 341.423L230.142 342.581L232.456 342.002L233.614 340.844Z" fill="#464240"/>
<path d="M237.664 261.527H238.243L239.4 271.369L239.979 274.264H238.243L237.664 273.106V261.527Z" fill="#464240"/>
<path d="M146.231 133.582L149.124 134.161L152.018 135.319L153.175 135.898V138.214L150.282 137.056L145.652 135.319L146.231 133.582Z" fill="#30312F"/>
<path d="M294.955 133.004L295.534 134.162H297.849V137.056L294.376 136.478L290.904 137.056L292.062 135.32H293.798L294.955 133.004Z" fill="#30312F"/>
<path d="M162.434 201.318L163.592 201.897V204.213L165.328 204.792L164.171 207.108L160.698 208.845L159.541 208.266L162.434 205.95L161.856 202.476L162.434 201.318Z" fill="#30312F"/>
<path d="M297.848 149.793L299.005 150.951L299.584 155.582L298.426 160.793H297.848V149.793Z" fill="#30312F"/>
<path d="M202.943 260.371H203.521L202.943 268.476L202.364 273.687H201.785V262.687L202.943 260.371Z" fill="#333231"/>
<path d="M154.333 122.582H154.912L156.07 126.056V128.95L152.019 125.477L150.861 123.74H154.333V122.582Z" fill="#30312F"/>
<path d="M248.659 311.896H250.395V315.37L247.501 315.949L246.344 315.37L246.922 313.633L248.659 311.896Z" fill="#343534"/>
<path d="M161.277 288.158L169.958 289.316V289.895H162.435V293.948L161.277 292.79V288.158Z" fill="#30312F"/>
<path d="M211.044 276.58L212.78 277.159H211.623L212.201 285.264L212.78 286.422L210.465 285.843L209.887 280.633L211.044 276.58Z" fill="#30312F"/>
<path d="M130.028 101.74H136.394V102.898L130.607 104.056L129.449 105.214L130.028 101.74Z" fill="#30312F"/>
<path d="M204.678 313.633H206.414V317.106L200.049 316.528L201.206 314.791V315.949L202.942 315.37L204.678 315.949V313.633Z" fill="#6C7C6F"/>
<path d="M206.415 287.58L206.993 289.317L205.257 289.896H193.684V289.317L203.521 288.738L206.415 287.58Z" fill="#30312F"/>
<path d="M219.147 238.371H223.197L224.355 239.529L217.41 240.687L216.253 241.266L215.096 240.108L219.147 238.371Z" fill="#5B7A72"/>
<path d="M233.614 226.791H234.192L234.771 235.475L231.299 236.054V234.896L232.456 234.317L233.614 226.791Z" fill="#957C5B"/>
<path d="M296.691 196.107L298.427 197.265V209.423H297.849V197.844L294.955 197.265L296.691 196.107Z" fill="#30312F"/>
<path d="M285.117 130.688L285.696 131.845L283.96 135.319H281.066V133.582L284.539 131.266L285.117 130.688Z" fill="#FEFEFE"/>
<path d="M176.902 282.369H180.953V283.527L183.268 284.106V284.685H178.638V283.527L176.902 282.948V282.369Z" fill="#30312F"/>
<path d="M297.849 124.318L299.585 124.897V132.424H299.006L297.849 127.213L296.691 125.476L297.849 124.318Z" fill="#30312F"/>
<path d="M204.679 231.424L206.994 232.003V234.897L202.943 234.319L204.679 231.424Z" fill="#5E4835"/>
<path d="M296.691 131.266L297.269 132.424H298.427L299.005 139.371L297.848 137.634V134.16L295.533 133.581L296.691 131.266Z" fill="#30312F"/>
<path d="M299.006 280.055L300.742 280.634L300.163 281.792L294.376 283.528V281.792L293.219 281.213H299.006V280.055Z" fill="#30312F"/>
<rect x="207.02" y="220.201" width="27.7245" height="16.4364" rx="3" fill="#FEFEFE"/>
<ellipse cx="220.37" cy="247.166" rx="8.9848" ry="8.98867" fill="#FEFEFE"/>
<rect x="208.303" y="274.391" width="3.33721" height="71.1389" rx="1.66861" fill="#30312F"/>
<rect x="231.15" y="274.391" width="3.33721" height="71.1389" rx="1.66861" fill="#30312F"/>
<rect x="213.695" y="294.422" width="14.6324" height="79.6139" rx="7.3162" fill="#3D3B39"/>
<rect x="211.127" y="275.674" width="20.28" height="11.3" fill="#454746"/>
</g>
<path d="M470.926 217.672V138.349L501.519 168.942V217.672H470.926ZM594.171 72.3564H600.727V217.672H570.134V139.66L553.963 156.049L547.626 162.168L545.878 163.916L540.415 169.598L536.263 173.531L515.722 152.99L501.519 138.786L470.926 108.194V72.3564H478.356L507.637 101.638L536.263 130.264L594.171 72.3564ZM623.079 73.449H752.005V104.042H623.079V79.1305V73.449ZM653.672 156.049V187.079H752.005V217.672H623.079V192.761V187.079V125.238L653.672 125.457H739.113V156.049H653.672ZM908.122 208.931L913.367 217.672H877.529L875.781 215.05L838.633 154.083C837.759 154.301 836.885 154.52 836.011 154.738C835.574 154.738 835.137 154.738 834.918 154.738C834.7 154.957 834.481 154.957 834.263 154.957C833.826 154.957 833.388 154.957 832.951 155.175C832.733 155.175 832.514 155.175 832.296 155.175C831.64 155.175 831.203 155.394 830.766 155.394C830.111 155.394 829.674 155.394 829.237 155.394L829.018 155.612H828.581C828.144 155.612 827.707 155.612 827.27 155.612C827.27 155.612 827.051 155.612 826.833 155.612C826.396 155.612 826.177 155.612 825.74 155.612H825.303H825.085H824.866C824.429 155.612 823.992 155.831 823.555 155.831H804.544V217.672H773.951V125.02H823.555C829.018 125.02 834.481 123.927 839.507 121.96C839.726 121.742 839.726 121.742 839.944 121.742C844.751 119.557 848.903 116.716 852.618 113.001C855.459 110.379 857.863 107.101 859.829 103.605H839.507H773.951V73.0119H895.23L895.448 78.4749C895.667 80.0045 895.667 81.7527 895.667 83.5009C895.667 88.7453 895.23 93.9898 893.918 99.2343C891.078 112.782 884.085 125.02 874.252 134.853C873.159 135.946 872.285 136.601 871.411 137.475C871.192 137.694 870.755 138.131 870.537 138.349C870.537 138.349 870.318 138.349 870.318 138.568C869.881 138.786 869.444 139.223 869.226 139.442C868.789 139.66 868.57 139.879 868.133 140.097C868.133 140.316 867.915 140.534 867.696 140.534L867.478 140.753C867.259 140.972 867.04 141.19 866.822 141.19L908.122 208.931ZM935.493 73.2304H966.086V217.672H935.493V73.2304Z" fill="#252525"/>
<path d="M1168.81 208.929L1174.06 217.67H1138.22L1136.47 215.048L1099.32 154.081C1098.45 154.299 1097.58 154.518 1096.7 154.736C1096.27 154.736 1095.83 154.736 1095.61 154.736C1095.39 154.955 1095.17 154.955 1094.95 154.955C1094.52 154.955 1094.08 154.955 1093.64 155.173C1093.42 155.173 1093.21 155.173 1092.99 155.173C1092.33 155.173 1091.89 155.392 1091.46 155.392C1090.8 155.392 1090.37 155.392 1089.93 155.392L1089.71 155.61H1089.27C1088.84 155.61 1088.4 155.61 1087.96 155.61C1087.96 155.61 1087.74 155.61 1087.52 155.61C1087.09 155.61 1086.87 155.61 1086.43 155.61H1085.99H1085.78H1085.56C1085.12 155.61 1084.68 155.829 1084.25 155.829H1065.24V217.67H1034.64V125.018H1084.25C1089.71 125.018 1095.17 123.925 1100.2 121.958C1100.42 121.74 1100.42 121.74 1100.64 121.74C1105.44 119.555 1109.59 116.714 1113.31 112.999C1116.15 110.377 1118.55 107.099 1120.52 103.603H1100.2H1034.64V73.01H1155.92L1156.14 78.473C1156.36 80.0026 1156.36 81.7507 1156.36 83.4989C1156.36 88.7434 1155.92 93.9878 1154.61 99.2323C1151.77 112.781 1144.78 125.018 1134.94 134.851C1133.85 135.944 1132.98 136.599 1132.1 137.473C1131.88 137.692 1131.45 138.129 1131.23 138.347C1131.23 138.347 1131.01 138.347 1131.01 138.566C1130.57 138.784 1130.14 139.221 1129.92 139.44C1129.48 139.658 1129.26 139.877 1128.82 140.095C1128.82 140.314 1128.61 140.533 1128.39 140.533L1128.17 140.751C1127.95 140.97 1127.73 141.188 1127.51 141.188L1168.81 208.929ZM1196.19 73.2285H1226.78V217.67H1196.19V73.2285ZM1388.52 135.725C1389.18 139.003 1389.4 142.499 1389.4 145.777C1389.4 149.492 1388.96 152.988 1388.52 156.484C1383.93 188.607 1357.93 213.737 1325.81 217.67H1325.37H1258.28V125.455H1288.88V187.077H1323.4C1340.45 184.455 1354.21 171.344 1357.71 154.518C1358.37 151.677 1358.58 148.836 1358.58 145.777C1358.58 143.155 1358.37 140.314 1357.93 137.692C1355.74 127.64 1350.28 118.681 1341.98 112.562C1336.95 108.847 1331.27 106.225 1325.15 104.914C1323.18 104.477 1321 104.258 1318.81 104.04H1258.28V73.447L1322.53 73.6655C1338.04 74.7581 1353.12 81.0952 1364.92 91.5841C1377.81 102.947 1386.12 118.681 1388.52 135.725ZM1411.29 73.447H1540.22V104.04H1411.29V79.1285V73.447ZM1441.88 156.047V187.077H1540.22V217.67H1411.29V192.759V187.077V125.236L1441.88 125.455H1527.32V156.047H1441.88Z" fill="#A7E92F"/>
<path d="M474.645 278.012H504.75V283.138H474.645V278.012ZM475.296 304.293H509.55V309.5H469.275V252.545H508.33V257.753H475.296V304.293ZM548.616 309.5V300.062L548.372 298.516V282.731C548.372 279.097 547.341 276.304 545.28 274.351C543.273 272.398 540.263 271.422 536.249 271.422C533.482 271.422 530.851 271.883 528.356 272.805C525.861 273.727 523.746 274.948 522.01 276.466L519.406 272.154C521.576 270.31 524.18 268.9 527.217 267.923C530.255 266.893 533.455 266.377 536.818 266.377C542.351 266.377 546.609 267.76 549.592 270.527C552.63 273.239 554.149 277.388 554.149 282.975V309.5H548.616ZM533.889 309.907C530.689 309.907 527.895 309.392 525.509 308.361C523.176 307.276 521.386 305.812 520.139 303.967C518.891 302.069 518.267 299.899 518.267 297.458C518.267 295.234 518.782 293.227 519.813 291.437C520.898 289.593 522.634 288.128 525.02 287.044C527.461 285.905 530.716 285.335 534.784 285.335H549.511V289.647H534.947C530.824 289.647 527.949 290.38 526.322 291.844C524.749 293.309 523.963 295.126 523.963 297.295C523.963 299.736 524.912 301.689 526.81 303.154C528.709 304.618 531.367 305.35 534.784 305.35C538.039 305.35 540.832 304.618 543.164 303.154C545.551 301.635 547.287 299.465 548.372 296.645L549.674 300.631C548.589 303.452 546.69 305.703 543.978 307.385C541.32 309.066 537.957 309.907 533.889 309.907ZM569.839 309.5V266.784H575.372V278.419L574.802 276.385C575.996 273.13 578.003 270.662 580.823 268.981C583.644 267.245 587.142 266.377 591.319 266.377V271.991C591.102 271.991 590.885 271.991 590.668 271.991C590.451 271.937 590.234 271.91 590.017 271.91C585.515 271.91 581.989 273.293 579.44 276.06C576.891 278.772 575.616 282.65 575.616 287.695V309.5H569.839ZM623.666 266.377C627.137 266.377 630.175 267.055 632.778 268.411C635.436 269.713 637.497 271.72 638.962 274.432C640.481 277.144 641.24 280.562 641.24 284.684V309.5H635.463V285.254C635.463 280.752 634.324 277.361 632.046 275.083C629.822 272.751 626.676 271.585 622.608 271.585C619.57 271.585 616.912 272.208 614.634 273.456C612.41 274.649 610.674 276.412 609.427 278.745C608.234 281.023 607.637 283.789 607.637 287.044V309.5H601.86V266.784H607.393V278.5L606.498 276.304C607.854 273.212 610.024 270.798 613.007 269.062C615.99 267.272 619.543 266.377 623.666 266.377ZM690.424 309.5V257.753H670.409V252.545H716.461V257.753H696.445V309.5H690.424ZM746.665 266.377C750.136 266.377 753.174 267.055 755.777 268.411C758.435 269.713 760.496 271.72 761.961 274.432C763.48 277.144 764.239 280.562 764.239 284.684V309.5H758.462V285.254C758.462 280.752 757.323 277.361 755.045 275.083C752.821 272.751 749.675 271.585 745.607 271.585C742.569 271.585 739.911 272.208 737.633 273.456C735.409 274.649 733.673 276.412 732.426 278.745C731.233 281.023 730.636 283.789 730.636 287.044V309.5H724.859V249.128H730.636V278.5L729.497 276.304C730.853 273.212 733.023 270.798 736.006 269.062C738.989 267.272 742.542 266.377 746.665 266.377ZM797.987 309.907C793.539 309.907 789.634 308.985 786.271 307.14C782.908 305.242 780.277 302.665 778.379 299.411C776.48 296.102 775.531 292.332 775.531 288.101C775.531 283.87 776.426 280.128 778.216 276.873C780.06 273.619 782.555 271.069 785.701 269.225C788.902 267.326 792.482 266.377 796.441 266.377C800.455 266.377 804.008 267.299 807.1 269.144C810.246 270.934 812.714 273.483 814.504 276.792C816.294 280.046 817.189 283.816 817.189 288.101C817.189 288.373 817.162 288.671 817.108 288.996C817.108 289.268 817.108 289.566 817.108 289.891H779.924V285.579H814.016L811.738 287.288C811.738 284.196 811.06 281.457 809.704 279.07C808.402 276.629 806.612 274.731 804.334 273.375C802.055 272.018 799.425 271.34 796.441 271.34C793.512 271.34 790.881 272.018 788.549 273.375C786.217 274.731 784.399 276.629 783.098 279.07C781.796 281.511 781.145 284.304 781.145 287.45V288.345C781.145 291.6 781.85 294.475 783.26 296.97C784.725 299.411 786.732 301.337 789.281 302.747C791.885 304.103 794.841 304.781 798.15 304.781C800.754 304.781 803.167 304.32 805.391 303.398C807.669 302.476 809.622 301.065 811.249 299.167L814.504 302.91C812.606 305.188 810.219 306.923 807.344 308.117C804.523 309.31 801.404 309.907 797.987 309.907ZM874.407 309.988C867.138 309.988 861.416 307.9 857.239 303.723C853.062 299.547 850.974 293.363 850.974 285.172V252.545H856.995V284.928C856.995 291.654 858.514 296.617 861.551 299.818C864.589 303.018 868.874 304.618 874.407 304.618C879.994 304.618 884.306 303.018 887.344 299.818C890.381 296.617 891.9 291.654 891.9 284.928V252.545H897.758V285.172C897.758 293.363 895.67 299.547 891.493 303.723C887.371 307.9 881.675 309.988 874.407 309.988ZM914.681 309.5V249.128H920.458V309.5H914.681ZM950.276 309.907C946.263 309.907 943.171 308.822 941.001 306.652C938.831 304.483 937.746 301.418 937.746 297.458V257.346H943.523V297.133C943.523 299.628 944.147 301.553 945.395 302.91C946.696 304.266 948.541 304.944 950.927 304.944C953.477 304.944 955.592 304.211 957.274 302.747L959.308 306.896C958.169 307.927 956.786 308.686 955.158 309.175C953.585 309.663 951.958 309.907 950.276 309.907ZM930.098 271.585V266.784H956.541V271.585H930.098ZM969.824 309.5V266.784H975.601V309.5H969.824ZM972.753 257.346C971.56 257.346 970.556 256.939 969.743 256.125C968.929 255.312 968.522 254.335 968.522 253.196C968.522 252.057 968.929 251.108 969.743 250.349C970.556 249.535 971.56 249.128 972.753 249.128C973.947 249.128 974.95 249.508 975.764 250.267C976.577 251.027 976.984 251.976 976.984 253.115C976.984 254.308 976.577 255.312 975.764 256.125C975.004 256.939 974.001 257.346 972.753 257.346ZM1045.05 266.377C1048.52 266.377 1051.53 267.055 1054.08 268.411C1056.68 269.713 1058.69 271.72 1060.1 274.432C1061.57 277.144 1062.3 280.562 1062.3 284.684V309.5H1056.52V285.254C1056.52 280.752 1055.44 277.361 1053.27 275.083C1051.15 272.751 1048.14 271.585 1044.24 271.585C1041.31 271.585 1038.76 272.208 1036.59 273.456C1034.47 274.649 1032.82 276.412 1031.62 278.745C1030.49 281.023 1029.92 283.789 1029.92 287.044V309.5H1024.14V285.254C1024.14 280.752 1023.05 277.361 1020.88 275.083C1018.71 272.751 1015.68 271.585 1011.77 271.585C1008.9 271.585 1006.37 272.208 1004.2 273.456C1002.04 274.649 1000.35 276.412 999.16 278.745C998.021 281.023 997.452 283.789 997.452 287.044V309.5H991.675V266.784H997.207V278.338L996.312 276.304C997.614 273.212 999.703 270.798 1002.58 269.062C1005.51 267.272 1008.95 266.377 1012.91 266.377C1017.09 266.377 1020.64 267.435 1023.57 269.55C1026.5 271.612 1028.4 274.731 1029.26 278.907L1026.99 278.012C1028.23 274.541 1030.43 271.747 1033.58 269.632C1036.78 267.462 1040.6 266.377 1045.05 266.377ZM1104.73 309.5V300.062L1104.49 298.516V282.731C1104.49 279.097 1103.46 276.304 1101.4 274.351C1099.39 272.398 1096.38 271.422 1092.37 271.422C1089.6 271.422 1086.97 271.883 1084.47 272.805C1081.98 273.727 1079.86 274.948 1078.13 276.466L1075.52 272.154C1077.69 270.31 1080.3 268.9 1083.33 267.923C1086.37 266.893 1089.57 266.377 1092.94 266.377C1098.47 266.377 1102.73 267.76 1105.71 270.527C1108.75 273.239 1110.27 277.388 1110.27 282.975V309.5H1104.73ZM1090.01 309.907C1086.81 309.907 1084.01 309.392 1081.63 308.361C1079.29 307.276 1077.5 305.812 1076.26 303.967C1075.01 302.069 1074.38 299.899 1074.38 297.458C1074.38 295.234 1074.9 293.227 1075.93 291.437C1077.02 289.593 1078.75 288.128 1081.14 287.044C1083.58 285.905 1086.83 285.335 1090.9 285.335H1105.63V289.647H1091.06C1086.94 289.647 1084.07 290.38 1082.44 291.844C1080.87 293.309 1080.08 295.126 1080.08 297.295C1080.08 299.736 1081.03 301.689 1082.93 303.154C1084.83 304.618 1087.48 305.35 1090.9 305.35C1094.16 305.35 1096.95 304.618 1099.28 303.154C1101.67 301.635 1103.4 299.465 1104.49 296.645L1105.79 300.631C1104.71 303.452 1102.81 305.703 1100.1 307.385C1097.44 309.066 1094.07 309.907 1090.01 309.907ZM1139.46 309.907C1135.45 309.907 1132.36 308.822 1130.19 306.652C1128.02 304.483 1126.93 301.418 1126.93 297.458V257.346H1132.71V297.133C1132.71 299.628 1133.33 301.553 1134.58 302.91C1135.88 304.266 1137.73 304.944 1140.11 304.944C1142.66 304.944 1144.78 304.211 1146.46 302.747L1148.49 306.896C1147.36 307.927 1145.97 308.686 1144.34 309.175C1142.77 309.663 1141.14 309.907 1139.46 309.907ZM1119.28 271.585V266.784H1145.73V271.585H1119.28ZM1175.64 309.907C1171.2 309.907 1167.29 308.985 1163.93 307.14C1160.57 305.242 1157.93 302.665 1156.04 299.411C1154.14 296.102 1153.19 292.332 1153.19 288.101C1153.19 283.87 1154.08 280.128 1155.87 276.873C1157.72 273.619 1160.21 271.069 1163.36 269.225C1166.56 267.326 1170.14 266.377 1174.1 266.377C1178.11 266.377 1181.67 267.299 1184.76 269.144C1187.9 270.934 1190.37 273.483 1192.16 276.792C1193.95 280.046 1194.85 283.816 1194.85 288.101C1194.85 288.373 1194.82 288.671 1194.77 288.996C1194.77 289.268 1194.77 289.566 1194.77 289.891H1157.58V285.579H1191.67L1189.4 287.288C1189.4 284.196 1188.72 281.457 1187.36 279.07C1186.06 276.629 1184.27 274.731 1181.99 273.375C1179.71 272.018 1177.08 271.34 1174.1 271.34C1171.17 271.34 1168.54 272.018 1166.21 273.375C1163.87 274.731 1162.06 276.629 1160.76 279.07C1159.45 281.511 1158.8 284.304 1158.8 287.45V288.345C1158.8 291.6 1159.51 294.475 1160.92 296.97C1162.38 299.411 1164.39 301.337 1166.94 302.747C1169.54 304.103 1172.5 304.781 1175.81 304.781C1178.41 304.781 1180.83 304.32 1183.05 303.398C1185.33 302.476 1187.28 301.065 1188.91 299.167L1192.16 302.91C1190.26 305.188 1187.88 306.923 1185 308.117C1182.18 309.31 1179.06 309.907 1175.64 309.907ZM1229.12 309.5V252.545H1250.44C1255.26 252.545 1259.41 253.332 1262.89 254.905C1266.36 256.424 1269.02 258.648 1270.86 261.577C1272.76 264.452 1273.71 267.95 1273.71 272.073C1273.71 276.087 1272.76 279.558 1270.86 282.487C1269.02 285.362 1266.36 287.586 1262.89 289.159C1259.41 290.678 1255.26 291.437 1250.44 291.437H1232.46L1235.14 288.671V309.5H1229.12ZM1268.01 309.5L1253.37 288.834H1259.88L1274.6 309.5H1268.01ZM1235.14 289.159L1232.46 286.311H1250.27C1255.97 286.311 1260.28 285.064 1263.21 282.569C1266.19 280.073 1267.69 276.575 1267.69 272.073C1267.69 267.516 1266.19 263.991 1263.21 261.495C1260.28 259 1255.97 257.753 1250.27 257.753H1232.46L1235.14 254.905V289.159ZM1304.84 309.907C1300.39 309.907 1296.49 308.985 1293.13 307.14C1289.76 305.242 1287.13 302.665 1285.23 299.411C1283.33 296.102 1282.39 292.332 1282.39 288.101C1282.39 283.87 1283.28 280.128 1285.07 276.873C1286.91 273.619 1289.41 271.069 1292.56 269.225C1295.76 267.326 1299.34 266.377 1303.3 266.377C1307.31 266.377 1310.86 267.299 1313.95 269.144C1317.1 270.934 1319.57 273.483 1321.36 276.792C1323.15 280.046 1324.04 283.816 1324.04 288.101C1324.04 288.373 1324.02 288.671 1323.96 288.996C1323.96 289.268 1323.96 289.566 1323.96 289.891H1286.78V285.579H1320.87L1318.59 287.288C1318.59 284.196 1317.91 281.457 1316.56 279.07C1315.26 276.629 1313.47 274.731 1311.19 273.375C1308.91 272.018 1306.28 271.34 1303.3 271.34C1300.37 271.34 1297.74 272.018 1295.4 273.375C1293.07 274.731 1291.25 276.629 1289.95 279.07C1288.65 281.511 1288 284.304 1288 287.45V288.345C1288 291.6 1288.7 294.475 1290.11 296.97C1291.58 299.411 1293.59 301.337 1296.14 302.747C1298.74 304.103 1301.7 304.781 1305 304.781C1307.61 304.781 1310.02 304.32 1312.25 303.398C1314.52 302.476 1316.48 301.065 1318.1 299.167L1321.36 302.91C1319.46 305.188 1317.07 306.923 1314.2 308.117C1311.38 309.31 1308.26 309.907 1304.84 309.907ZM1343.71 309.5L1327.6 266.784H1333.14L1347.78 306.408H1345.26L1360.31 266.784H1365.27L1380.16 306.408H1377.64L1392.53 266.784H1397.82L1381.63 309.5H1376.18L1361.86 272.235H1363.57L1349.16 309.5H1343.71ZM1432.02 309.5V300.062L1431.77 298.516V282.731C1431.77 279.097 1430.74 276.304 1428.68 274.351C1426.67 272.398 1423.66 271.422 1419.65 271.422C1416.88 271.422 1414.25 271.883 1411.76 272.805C1409.26 273.727 1407.15 274.948 1405.41 276.466L1402.81 272.154C1404.98 270.31 1407.58 268.9 1410.62 267.923C1413.65 266.893 1416.85 266.377 1420.22 266.377C1425.75 266.377 1430.01 267.76 1432.99 270.527C1436.03 273.239 1437.55 277.388 1437.55 282.975V309.5H1432.02ZM1417.29 309.907C1414.09 309.907 1411.29 309.392 1408.91 308.361C1406.58 307.276 1404.79 305.812 1403.54 303.967C1402.29 302.069 1401.67 299.899 1401.67 297.458C1401.67 295.234 1402.18 293.227 1403.21 291.437C1404.3 289.593 1406.03 288.128 1408.42 287.044C1410.86 285.905 1414.12 285.335 1418.18 285.335H1432.91V289.647H1418.35C1414.22 289.647 1411.35 290.38 1409.72 291.844C1408.15 293.309 1407.36 295.126 1407.36 297.295C1407.36 299.736 1408.31 301.689 1410.21 303.154C1412.11 304.618 1414.77 305.35 1418.18 305.35C1421.44 305.35 1424.23 304.618 1426.56 303.154C1428.95 301.635 1430.69 299.465 1431.77 296.645L1433.07 300.631C1431.99 303.452 1430.09 305.703 1427.38 307.385C1424.72 309.066 1421.36 309.907 1417.29 309.907ZM1453.24 309.5V266.784H1458.77V278.419L1458.2 276.385C1459.4 273.13 1461.4 270.662 1464.22 268.981C1467.04 267.245 1470.54 266.377 1474.72 266.377V271.991C1474.5 271.991 1474.28 271.991 1474.07 271.991C1473.85 271.937 1473.63 271.91 1473.42 271.91C1468.91 271.91 1465.39 273.293 1462.84 276.06C1460.29 278.772 1459.02 282.65 1459.02 287.695V309.5H1453.24ZM1501.87 309.907C1497.8 309.907 1494.14 308.985 1490.88 307.14C1487.68 305.296 1485.16 302.747 1483.32 299.492C1481.47 296.183 1480.55 292.387 1480.55 288.101C1480.55 283.762 1481.47 279.965 1483.32 276.71C1485.16 273.456 1487.68 270.934 1490.88 269.144C1494.14 267.299 1497.8 266.377 1501.87 266.377C1505.61 266.377 1508.95 267.218 1511.88 268.9C1514.86 270.581 1517.22 273.049 1518.95 276.304C1520.74 279.504 1521.64 283.437 1521.64 288.101C1521.64 292.712 1520.77 296.645 1519.04 299.899C1517.3 303.154 1514.94 305.649 1511.96 307.385C1509.03 309.066 1505.66 309.907 1501.87 309.907ZM1502.27 304.781C1505.31 304.781 1508.02 304.103 1510.41 302.747C1512.85 301.337 1514.75 299.384 1516.11 296.889C1517.52 294.339 1518.22 291.41 1518.22 288.101C1518.22 284.738 1517.52 281.809 1516.11 279.314C1514.75 276.819 1512.85 274.893 1510.41 273.537C1508.02 272.127 1505.31 271.422 1502.27 271.422C1499.29 271.422 1496.61 272.127 1494.22 273.537C1491.83 274.893 1489.93 276.819 1488.52 279.314C1487.11 281.809 1486.41 284.738 1486.41 288.101C1486.41 291.41 1487.11 294.339 1488.52 296.889C1489.93 299.384 1491.83 301.337 1494.22 302.747C1496.61 304.103 1499.29 304.781 1502.27 304.781ZM1518.38 309.5V296.645L1518.95 288.02L1518.14 279.395V249.128H1523.92V309.5H1518.38Z" fill="#252525"/>
<defs>
<clipPath id="clip0_346_1223">
<rect width="442" height="369" fill="white"/>
</clipPath>
</defs>
</svg>
