<svg width="1882" height="1234" viewBox="0 0 1882 1234" fill="none" xmlns="http://www.w3.org/2000/svg">
<rect width="1882" height="1234" fill="white"/>
<g clip-path="url(#clip0_342_471)">
<path fill-rule="evenodd" clip-rule="evenodd" d="M386.001 432.5C460.083 432.5 523.867 476.625 552.512 540.036C549.457 539.495 546.308 540.031 543.604 541.554C540.901 543.078 538.81 545.493 537.688 548.387C536.313 547.408 534.685 546.846 532.999 546.768C531.313 546.69 529.641 547.1 528.181 547.948C528.881 542.652 527.478 537.292 524.272 533.02C521.066 528.748 516.313 525.904 511.034 525.098C505.756 524.293 500.372 525.59 496.038 528.712C491.705 531.833 488.768 536.53 487.858 541.794C485.115 539.761 481.722 538.805 478.322 539.107C474.921 539.409 471.75 540.948 469.408 543.433C467.066 545.919 465.717 549.177 465.616 552.591C465.516 556.004 466.67 559.337 468.861 561.956L435.471 567.344L508.367 567.529L562.406 567.665C566.577 583.187 568.684 599.19 568.675 615.262C568.675 716.183 486.9 797.994 386.023 797.994C285.145 797.994 203.348 716.153 203.348 615.232C203.294 578.299 214.481 542.226 235.42 511.809L288.695 512.042L345.537 512.293L316.351 508.1C317.29 506.507 317.907 504.745 318.165 502.915C318.423 501.084 318.319 499.22 317.857 497.43C317.396 495.639 316.586 493.958 315.475 492.48C314.363 491.003 312.972 489.759 311.38 488.82C309.788 487.88 308.027 487.264 306.197 487.005C304.367 486.747 302.504 486.852 300.715 487.313C298.925 487.775 297.244 488.585 295.767 489.697C294.291 490.809 293.047 492.201 292.108 493.793C289.999 493.17 287.758 493.149 285.637 493.731C285.734 493.003 285.782 492.269 285.782 491.534C285.783 487.139 284.082 482.915 281.036 479.748C277.99 476.582 273.837 474.719 269.447 474.55C302.182 447.319 343.428 432.439 386.001 432.5Z" fill="#A7E92F"/>
<path fill-rule="evenodd" clip-rule="evenodd" d="M250.976 467.131C250.976 467.131 251.78 474.102 253.573 477.02C255.366 479.939 256.648 482.673 256.578 484.492C256.578 484.492 258.507 483.996 259.785 484.246C261.064 484.497 261.376 484.866 261.797 484.91C261.797 484.91 260.95 485.13 260.405 485.231C259.86 485.332 259.456 486.919 258.208 487.125C259.681 488.325 261.089 489.603 262.426 490.954C263.832 492.479 266.349 494.751 268.735 495.388C268.735 495.388 264.684 495.547 262.808 494.769C259.996 493.469 257.461 491.641 255.339 489.384C255.339 489.384 250.726 489.384 250.115 489.384C249.505 489.384 243.029 493.274 241.618 494.043C241.618 494.043 246.196 490.918 247.919 489.275C247.919 489.275 240.213 490.017 238.789 490.096C238.789 490.096 247.22 488.628 248.204 488.277C249.188 487.925 250.84 486.334 252.308 485.64C252.308 485.64 250.81 483.477 249.18 478.409C247.55 473.341 250.976 467.131 250.976 467.131Z" fill="#051E34"/>
<path fill-rule="evenodd" clip-rule="evenodd" d="M291.835 500.865C291.835 500.865 292.274 504.821 293.311 506.491C294.348 508.161 295.068 509.704 295.02 510.75C295.614 510.595 296.232 510.547 296.843 510.61C297.232 510.714 297.615 510.84 297.99 510.988C297.99 510.988 297.507 511.111 297.199 511.168C296.892 511.225 296.659 512.13 295.938 512.245C296.776 512.934 297.577 513.668 298.337 514.442C299.137 515.321 300.569 516.601 301.922 516.965C301.922 516.965 299.62 517.053 298.552 516.614C296.952 515.87 295.51 514.826 294.304 513.537H291.329C290.982 513.537 287.301 515.735 286.497 516.174C287.74 515.336 288.937 514.431 290.082 513.462C290.082 513.462 285.688 513.902 284.889 513.933C284.889 513.933 289.686 513.093 290.244 512.895C290.802 512.697 291.747 511.792 292.577 511.396C292.577 511.396 291.729 510.166 290.798 507.287C289.866 504.408 291.835 500.865 291.835 500.865Z" fill="#051E34"/>
<path fill-rule="evenodd" clip-rule="evenodd" d="M240.384 516.852C240.384 516.852 240.951 521.792 242.221 523.884C243.49 525.976 244.395 527.888 244.351 529.189C245.092 528.995 245.861 528.937 246.623 529.018C247.106 529.149 247.583 529.304 248.051 529.484C248.051 529.484 247.449 529.642 247.062 529.712C246.675 529.783 246.39 530.908 245.489 531.031C246.533 531.882 247.532 532.787 248.481 533.743C249.478 534.824 251.262 536.433 252.949 536.89C252.949 536.89 250.08 537 248.754 536.45C246.759 535.53 244.961 534.235 243.455 532.635C243.455 532.635 240.186 532.635 239.751 532.635C239.316 532.635 234.734 535.395 233.732 535.936C235.279 534.891 236.769 533.764 238.196 532.56C238.196 532.56 232.735 533.084 231.725 533.141C231.725 533.141 237.7 532.099 238.403 531.853C239.106 531.607 240.27 530.477 241.307 529.985C241.307 529.985 240.248 528.455 239.11 524.864C237.972 521.273 240.384 516.852 240.384 516.852Z" fill="#051E34"/>
<path fill-rule="evenodd" clip-rule="evenodd" d="M551.308 692.794C539.059 718.766 520.886 741.499 498.253 759.163H273.748C230.903 725.723 203.348 673.586 203.348 614.996C203.348 608.843 203.641 602.767 204.226 596.769C204.382 597.229 204.461 597.712 204.459 598.197V611.181H211.216V660.919H214.656V649.9H223.101V640.74H227.173V629.14H236.004V640.74H249.048V675.511H253.771V683.563H265.62V706.287H270.769V666.488C268.841 649.627 265.827 630.323 261.543 621.484C258.999 622.517 256.078 624.424 253.815 625.98L251.561 624.719L253.015 626.525C250.885 628.033 248.886 629.628 247.049 631.224L245.951 630.077L246.579 631.633C244.782 633.211 243.139 634.788 241.672 636.278C241.738 623.317 252.383 621.062 257.615 621.378C255.133 620.781 252.642 620.31 250.173 619.95L249.14 616.697L248.921 619.774C245.476 619.334 242.08 619.062 238.842 618.956L238.811 616.842L238.016 618.93C234.831 618.842 231.804 618.895 229.019 619.018C241.32 605.872 254.355 614.57 258.665 619.576C256.908 616.469 254.971 613.484 252.954 610.636L255.107 606.707L252.001 609.287C249.312 605.595 246.482 602.149 243.653 598.971L245.63 597.024L242.928 598.162C240.125 595.059 237.331 592.224 234.695 589.697C253.872 589.534 259.812 602.826 260.919 612.456C263.586 603.146 271.569 591.116 290.355 594.299C287.35 596.378 284.147 598.729 280.887 601.331L278.414 599.793L280.061 602.026C276.762 604.716 273.423 607.674 270.185 610.891L267.514 607.849L269.016 612.069C268.647 612.443 268.283 612.821 267.918 613.203C272.97 610.201 280.048 609.067 287.93 615.436C285.391 615.673 282.658 616.012 279.754 616.486L278.774 614.693L279.011 616.614C276.085 617.124 273.041 617.779 269.97 618.627L269.385 615.862L268.854 618.939C266.552 619.611 264.241 620.394 261.96 621.304C264.263 624.635 268.99 633.817 273.788 657.2H275.484V653.855H284.27V644.625H290.311V638.753C290.314 637.679 290.741 636.65 291.501 635.892C292.26 635.133 293.289 634.706 294.362 634.705C295.435 634.707 296.462 635.134 297.221 635.893C297.979 636.652 298.406 637.68 298.408 638.753V644.625H304.449V653.855H307.235V700.912H312.322V639.206H325.107V627.897H336.412V639.206H339.048V699.18H347.672V683.304H361.032V675.863H372.117V683.304H374.406V714.01H380.025V699.69H382.661V670.118H384.603V663.086H395.666V670.118H398.618V657.75C398.621 656.883 398.966 656.052 399.578 655.438C400.19 654.825 401.02 654.479 401.887 654.475C402.754 654.477 403.586 654.823 404.199 655.437C404.812 656.05 405.158 656.882 405.16 657.75V670.118H408.675V699.663H411.311V727.385H415.999V707.338H425.005V712.612H431.117V707.338H436.661V703.764H445.518V675.929H452.108V674.698L465.596 664.967V675.929H473.658V666.444H482.783V620.104H485.068V615.809H488.297V607.669H490.178V604.984H493.754V602.43C493.756 601.279 494.214 600.176 495.028 599.362C495.841 598.548 496.944 598.09 498.095 598.087C499.245 598.091 500.347 598.55 501.16 599.363C501.973 600.177 502.432 601.279 502.435 602.43V604.979H506.007V615.805H516.046V620.099H519.75V700.182H524.275V682.645H534.226V675.933H537.359V672.944C537.362 671.949 537.759 670.995 538.463 670.291C539.166 669.587 540.12 669.19 541.115 669.186C542.11 669.19 543.064 669.587 543.767 670.291C544.471 670.995 544.868 671.949 544.871 672.944V675.933H548.004V682.645H551.299L551.308 692.794Z" fill="black"/>
<path fill-rule="evenodd" clip-rule="evenodd" d="M345.862 711.23C344.473 711.23 343.094 711.41 341.714 710.953C339.957 710.364 339.412 709.23 339.864 707.529C340.317 705.828 341.354 705.331 343.032 705.771C345.229 706.333 347.426 706.729 349.517 707.669C350.479 708.109 351.503 708.632 351.274 709.942C351.046 711.252 349.886 711.089 348.985 711.186C347.962 711.3 346.898 711.23 345.862 711.23Z" fill="#0A1B49"/>
<path fill-rule="evenodd" clip-rule="evenodd" d="M569.952 721.613V770.945L477.916 786.221L385.883 801.499L293.847 786.221L201.814 770.945V721.613H208.128C207.689 721.375 206.692 720.638 211.939 720.526C218.2 720.392 223.741 718.608 231.565 717.09C239.39 715.573 241.348 715.933 246.691 716.914C252.035 717.895 251.521 713.434 263.187 717.672C274.853 721.909 296.178 719.679 304.459 717.314C312.74 714.949 319.326 711.165 324.217 712.722C329.108 714.279 327.931 715.042 330.671 713.84C333.411 712.638 335.106 711.43 341.56 713.392C348.014 715.355 361.507 715 375.851 713.392C390.195 711.785 383.873 713.705 393.589 712.232C403.306 710.759 401.865 709.113 406.625 711.165C411.384 713.216 411.257 710.449 417.189 710.628C423.12 710.807 418.756 709.292 424.754 708.042C430.751 706.793 436.49 714.108 461.525 717.317C486.561 720.526 504.69 709.915 511.21 710.807C517.73 711.699 518.121 717.138 524.641 714.91C531.161 712.682 534.3 714.197 543.025 717.406C550.489 720.148 560.499 721.32 563.279 721.616L569.952 721.613Z" fill="black"/>
<path d="M351.161 503.557H422.34L431.02 504.136L441.437 507.609L448.381 510.504L460.534 515.714L465.742 519.188L469.793 523.241L474.422 530.188L476.737 534.24V538.293L469.793 545.24L465.163 549.293L464.584 588.661L465.163 602.555L468.635 606.029L469.214 694.028V712.554L468.057 713.712L461.112 715.449L459.955 716.028L458.798 739.185L456.483 742.08L454.747 742.659H450.117L444.909 740.922L444.33 739.764L443.752 729.343V721.238L405.558 721.817L399.771 722.396L400.35 743.238L414.238 743.817L415.396 744.396V747.869L413.66 749.606L409.03 750.185H403.822L404.401 754.238L400.35 756.554L399.771 775.659L399.192 776.816L396.299 777.395L392.248 775.659V794.764L391.669 803.448L388.776 806.921L386.461 807.5L381.832 805.763L380.096 804.027L379.517 801.711L378.938 775.08L374.887 777.974L372.573 777.395L371.994 775.659V766.974L372.573 752.501L371.994 750.764L368.522 749.606L361.577 749.027H356.948L355.791 747.869L356.369 744.975L356.948 744.396H368.522L366.786 734.554L367.364 729.343L370.258 725.87L370.836 723.554L369.679 722.975L358.684 722.396H327.435L326.856 735.133L325.12 740.922L322.805 742.659L318.176 743.238L312.967 742.08L311.231 739.185L310.653 714.87L303.708 714.291L302.551 711.975L301.972 672.028V651.186L302.551 606.608L306.602 602.555V549.293L303.708 546.398L297.921 541.767L294.449 537.714L295.028 534.24L298.5 527.872L303.13 522.083L307.759 517.451L314.703 513.978L332.643 506.451L340.166 504.136L351.161 503.557ZM311.231 562.03L312.389 566.082L315.861 568.398L317.597 567.819L317.018 564.345L313.546 562.03H311.231ZM323.962 570.135L322.805 571.293L321.648 578.819V595.029L322.805 597.345L324.541 597.924H450.117V573.608L447.802 570.714L443.752 570.135L422.919 571.293H349.425L332.643 570.714L323.962 570.135ZM362.156 746.133L362.735 747.869L363.313 746.133H362.156Z" fill="#6D981E"/>
<path d="M351.161 503.557H422.34L431.02 504.136L441.437 507.609L448.381 510.504L460.534 515.714L465.742 519.188L469.793 523.241L474.422 530.188L476.737 534.24V538.293L469.793 545.24L465.163 549.293L464.584 551.03H463.427L461.691 553.924L453.011 560.872L450.117 562.609L447.224 566.082L443.173 567.24L406.715 567.819H342.481L330.907 567.24L325.699 565.503L321.069 561.451L319.333 556.24L317.597 556.819L314.703 555.661L314.125 553.924L312.389 553.346V552.188L310.074 551.609L308.917 548.135V540.03L309.495 534.819L308.338 535.977L307.759 547.556L306.602 548.714L298.5 542.346L294.449 537.714L295.028 534.24L298.5 527.872L303.13 522.083L307.759 517.451L314.703 513.978L332.643 506.451L340.166 504.136L351.161 503.557Z" fill="#464240"/>
<path d="M307.76 534.82H309.496V548.136L310.653 551.61L312.389 552.189L315.283 555.662L319.333 556.241L319.912 555.083L321.648 561.452L326.856 565.504L330.907 566.662L348.268 567.241H406.716L443.173 566.662L447.224 566.083L448.382 563.767L451.275 560.873L455.326 558.557L460.534 553.925H461.691L462.849 550.452H465.164L464.585 588.662L465.164 602.556L468.636 606.03L469.214 694.029V712.555L468.057 713.713L461.113 715.45L459.377 716.029V714.292H443.752L443.173 717.187H429.863L424.655 716.029H399.772L399.193 691.134L398.035 689.397L392.827 688.818L391.67 687.082L388.776 688.818H382.989L378.939 685.924L376.624 681.871L377.203 676.661L379.517 673.187L382.411 671.45L384.147 670.871H388.198L391.67 673.187L393.985 676.082L394.563 677.24V687.082L397.457 687.661H399.193L398.614 685.345L400.35 683.608L402.665 677.24L402.086 673.187L400.929 672.608L402.086 666.819L403.822 665.082L406.137 667.977L407.294 672.029V678.976L405.558 684.766L403.244 688.818V692.871L404.401 695.187L404.98 701.555L405.558 705.608L431.6 706.187H468.057L466.321 701.555L463.428 698.082L462.849 669.134L461.113 656.398L461.691 652.345L462.849 650.029V630.345L453.011 628.03L451.275 623.398V600.82H321.069L320.491 605.451L319.912 625.714L318.176 627.451L314.704 628.03V629.188H307.76V694.029L306.602 700.397L304.287 703.871L303.709 706.766L326.856 707.345L367.365 707.923L369.101 713.134L367.943 714.292L346.532 715.45L348.268 717.187H326.856L326.278 715.45L311.232 714.871V719.502H310.653V714.871L303.709 714.292L302.551 711.976L301.973 672.029V651.187L302.551 606.609L306.602 602.556V548.715L307.181 544.662L307.76 534.82ZM311.232 562.031L312.389 566.083L315.861 568.399L317.597 567.82L317.019 564.346L313.546 562.031H311.232ZM323.963 570.136L322.806 571.294L321.648 578.82V595.03L322.806 597.346L324.542 597.925H450.118V573.609L447.803 570.715L443.752 570.136L422.919 571.294H349.425L332.643 570.715L323.963 570.136Z" fill="#30312F"/>
<path d="M373.73 688.238L376.624 689.396L377.781 696.343L380.675 696.922H394.563V689.396L395.142 688.817H398.035L399.772 691.133L400.35 715.448H424.655L430.442 716.606H443.173L443.752 714.291L444.909 713.712H458.219L459.377 714.291V730.501L458.798 739.185L456.483 742.08L454.747 742.659H450.118L444.909 740.922L444.331 739.764L443.752 729.343V721.238L405.558 721.817L399.772 722.396L400.35 743.238L414.239 743.817L415.396 744.395V747.869L413.66 749.606L409.031 750.185H403.822L404.401 754.237L400.35 756.553L399.772 775.658L399.193 776.816L396.299 777.395L392.249 775.658V794.763L391.67 803.447L388.776 806.921L386.462 807.5L381.832 805.763L380.096 804.026L379.517 801.711L378.939 775.079L374.888 777.974L372.573 777.395L371.994 775.658V766.974L372.573 752.501L371.994 750.764L368.522 749.606L361.578 749.027H356.948L355.791 747.869L356.37 744.974L356.948 744.395H368.522L366.786 734.554L367.365 729.343L370.258 725.869L370.837 723.554L369.68 722.975L358.684 722.396V721.817L368.522 721.238L372.573 720.08L371.994 714.87L371.416 714.291V698.08L371.994 689.396L373.73 688.238ZM362.157 746.132L362.735 747.869L363.314 746.132H362.157Z" fill="#464240"/>
<path d="M318.176 626.291H319.912L320.491 643.659H321.648L324.542 641.343L329.171 639.028L330.329 637.291L328.014 636.712L328.593 633.817L344.217 629.765L347.69 628.028L352.319 627.449L354.634 630.344L355.791 632.08L355.213 635.554L352.898 637.87L347.69 638.449L345.953 637.291H341.903L332.644 640.186L326.278 642.501L325.699 643.659H324.542V644.817H350.004L364.472 645.396L366.786 651.185L366.208 652.922H310.653V673.185L310.075 687.659L309.496 691.711L369.101 692.29L367.365 687.08L365.629 684.764L364.472 678.975V673.185L365.629 667.396L369.68 663.922L371.995 664.501L373.152 667.975H399.772V662.764L403.244 664.501L402.087 667.975L401.508 672.606L402.665 674.343L403.244 677.817L400.35 684.764L398.614 685.343L399.193 687.659L395.142 688.238L393.985 687.08V677.238L391.67 673.764L388.198 671.448H384.147L380.096 673.185L377.781 676.659L377.203 681.869L380.096 686.501L382.99 688.238H388.777L392.249 686.501L392.827 688.817L395.142 689.396L394.564 696.922L393.406 697.501H380.675L377.203 696.343L376.045 689.396L373.731 688.817L372.573 689.396L371.995 698.08V714.29L372.573 714.869V720.079L368.522 721.816L327.435 722.395L326.857 735.132L325.121 740.921L322.806 742.658L318.176 743.237L312.968 742.079L311.232 739.184V714.869H326.278L326.857 717.185L347.69 716.606L345.953 715.448L346.532 714.869L367.944 713.711L368.522 711.974L367.365 707.922H326.857L304.866 707.343L303.709 706.764L304.288 702.711L306.024 700.395L307.181 693.448L307.76 629.186L311.232 628.607L313.547 628.028L314.704 627.449H318.176V626.291Z" fill="#46423F"/>
<path d="M351.16 503.557H422.339L431.019 504.136L441.436 507.609L448.38 510.504L460.533 515.714L465.741 519.188L469.792 523.241L474.421 530.188L476.736 534.24V536.556L472.106 535.977V534.819L466.319 533.083L459.375 530.767L450.116 527.293L438.542 522.662L427.547 519.188L422.339 518.609H344.794L328.012 524.398L321.068 527.293L308.337 531.925L299.656 534.819H296.184L295.605 532.504L301.971 523.241L307.758 517.451L314.702 513.978L332.642 506.451L340.165 504.136L351.16 503.557Z" fill="#30312F"/>
<path d="M464.005 588.66H464.584L465.163 602.555L468.635 606.028L469.214 694.027V712.553L468.056 713.711L461.112 715.448L459.376 716.027V714.29H443.751L443.173 717.185H429.863L424.654 716.027H399.771L399.192 691.133L398.035 689.396L392.826 688.817L391.669 687.08L388.776 688.817H382.989L378.938 685.922L376.623 681.87L377.202 676.659L379.517 673.185L382.41 671.449L384.146 670.87H388.197L391.669 673.185L393.984 676.08L394.562 677.238V687.08L397.456 687.659H399.192L398.613 685.343L400.349 683.606L402.664 677.238L402.085 673.185L400.928 672.607L402.085 666.817L403.822 665.08L406.136 667.975L407.294 672.028V678.975L405.558 684.764L403.243 688.817V692.869L404.4 695.185L404.979 701.554L405.558 705.606L431.599 706.185H468.056L466.32 701.554L463.427 698.08L462.848 669.133L461.112 656.396L461.691 652.344L462.848 650.028V630.344L453.01 628.028L451.274 623.397V612.397L452.432 606.028L455.325 606.607L456.482 607.765L458.219 606.028H462.269L462.848 601.976L463.427 592.134L464.005 588.66Z" fill="black"/>
<path d="M451.852 624.555L453.01 625.713V628.028H456.482L462.847 630.344L463.426 641.923V650.028L461.69 654.66L462.269 660.449L463.426 669.133L464.005 698.08L467.477 702.133L468.056 706.185L458.218 706.764H431.598L407.293 706.185L405.557 705.606L404.4 701.554L403.821 695.185L403.242 692.87H421.76L461.69 693.449L460.533 673.186L459.954 655.239L458.797 652.923H408.45L404.978 651.765L406.714 645.397L407.293 644.818L446.644 644.239L444.908 643.081V641.923L438.542 640.186L428.126 636.712L424.654 638.449H420.024L416.552 635.555V630.923L417.709 628.028L422.339 627.449L425.811 628.607L427.547 630.344L443.172 633.239L443.751 633.818V637.291L441.436 638.449L443.172 639.607L447.801 640.765L448.959 644.239H452.431L451.852 624.555Z" fill="#464240"/>
<path d="M307.181 554.504H307.76L308.338 560.293L309.496 560.872L310.074 559.714L312.968 560.293L314.704 562.609L311.232 562.03L310.653 563.767L308.338 563.188V599.082L309.496 603.135V606.03L315.861 607.766H319.912V625.714L318.176 627.45L314.704 628.029V629.187H307.76V694.029L306.602 700.397L304.287 703.871L303.709 706.765L326.856 707.344L367.365 707.923L369.101 713.134L367.943 714.291L346.532 715.449L348.268 717.186H326.856L326.278 715.449L311.232 714.87V719.502H310.653V714.87L303.709 714.291L302.551 711.976L301.973 672.029V651.187L302.551 606.609L306.602 602.556L307.181 554.504Z" fill="#30312F"/>
<path d="M374.309 630.924H396.299L398.614 632.082L399.193 633.819L399.771 641.924L400.35 644.818L402.665 645.397L401.508 651.187V661.029L404.401 664.502L406.716 666.818L407.873 671.45V680.134L406.137 685.923L403.822 689.397L403.244 691.134L406.716 690.555L414.817 691.134H430.442L459.955 692.291L460.534 673.186H461.113L461.691 680.713V693.449H418.29L402.665 692.87V688.818L405.558 683.607L406.716 678.976V672.029L404.98 666.818L402.665 664.502L400.35 663.344L399.771 667.976L398.035 668.555H373.152L371.416 664.502L369.101 665.081L366.207 667.397L365.05 673.186V678.976L365.629 684.186L364.471 683.028L363.893 680.134V670.292L365.629 665.66L369.101 662.766L370.837 659.292L370.258 652.924L369.101 645.976L371.416 643.661L371.994 637.871L373.152 631.503L374.309 630.924Z" fill="black"/>
<path d="M351.16 503.557H422.339L431.019 504.136L433.913 505.293L431.598 507.03L429.283 508.188L428.126 509.925V515.714L425.232 516.872H348.266L342.48 515.135L336.693 510.504H332.063L321.647 513.978L315.86 515.714L312.388 516.872H309.494L310.652 515.714L329.748 507.609L340.165 504.136L351.16 503.557Z" fill="#30312F"/>
<path d="M307.759 534.82H309.495V548.136L310.652 551.61L312.388 552.189L315.282 555.662L319.333 556.241L319.911 555.083L321.648 561.452L326.856 565.504L330.907 566.662L348.267 567.241H406.715L443.173 566.662L447.224 566.083L448.381 563.767L451.274 560.873L455.325 558.557L460.533 553.925H461.691L462.848 550.452H465.163L464.584 585.767L463.427 583.451V574.767L462.848 573.609H464.006V572.451H462.848L463.427 568.399V564.925H461.691L460.533 566.083L457.64 568.399L453.589 570.136H450.696V568.978H449.538V572.451L446.645 570.715L422.919 571.872H349.425L332.643 571.294L323.962 570.715L322.805 574.767L318.754 571.294L315.282 569.557L310.652 567.82H307.759V563.188H310.074H311.81L312.967 566.083L315.861 567.82H317.018L316.439 564.346L312.388 560.294L310.074 559.715L309.495 561.452L307.759 560.294L306.602 548.715L307.18 544.662L307.759 534.82Z" fill="#30312F"/>
<path d="M376.206 717.162H377.252L378.299 719.481L381.962 717.742H392.428L396.614 719.481L397.661 721.221V731.658L398.184 735.717L398.707 743.834L399.231 746.154L397.661 753.691L397.137 756.59L397.661 763.548L395.568 772.246L393.474 773.405L392.951 772.826V757.75L395.568 756.011L396.091 754.851L392.951 754.271L392.428 733.397H381.962L381.439 754.851H379.346L381.439 757.17V772.246L380.915 772.826H378.299L377.252 762.969V756.59L377.776 754.271L376.206 747.313L375.159 745.574L374.636 739.775L372.543 737.456L372.02 732.238L373.066 730.498H374.636L375.159 724.7L375.683 719.481L376.206 717.162Z" fill="#FEFEFE"/>
<path d="M422.918 553.924H425.811L426.39 555.661H429.283L432.177 557.976L435.649 562.608L434.492 564.924L433.913 565.503L429.283 566.082H346.531L338.429 565.503L337.271 563.766L338.429 560.871L343.637 558.555L347.688 557.976H356.368L362.155 559.134L387.618 557.976H412.501L419.446 556.24L422.918 553.924Z" fill="#464240"/>
<path d="M364.471 520.346H411.345L414.818 521.504L414.239 531.925L412.503 532.503L396.299 533.082H377.203L358.106 532.503L356.948 531.346L355.791 522.083L356.948 520.925L364.471 520.346Z" fill="#464240"/>
<path d="M464.005 588.66H464.583L465.162 602.555L468.055 605.449L468.634 606.607L468.055 608.344L467.477 615.87L466.898 699.817L464.005 698.659L463.426 698.08L462.847 669.133L461.111 656.396L461.69 652.344L462.847 650.028V630.344L453.01 628.028L451.273 623.397V612.397L452.431 606.028L455.324 606.607L456.482 607.765L458.218 606.028H462.269L462.847 601.976L463.426 592.134L464.005 588.66Z" fill="#30312F"/>
<path d="M419.446 627.449H423.497L426.39 629.186L427.547 630.344L443.172 633.239L443.751 633.818V637.291L441.436 638.449L443.172 639.607L447.802 640.765L448.959 644.238H452.431L453.01 642.502L454.746 647.712L458.797 651.765V652.923H408.451L404.979 651.765L406.715 645.396L407.293 644.817L446.644 644.238L444.908 643.081V641.923L438.543 640.186L428.126 636.712L424.654 638.449H420.024L416.552 635.554V630.923L417.71 628.028L419.446 627.449Z" fill="black"/>
<path d="M319.332 627.449H319.911L320.49 643.66H321.647L324.54 641.344L329.17 639.028L330.327 637.291L328.013 636.712L328.591 633.818L344.216 629.765L347.688 628.028L352.318 627.449L354.632 630.344L355.79 632.081L355.211 635.554L352.896 637.87L347.688 638.449L345.952 637.291H341.901L332.642 640.186L326.276 642.502L325.698 643.66H324.54V644.817H350.003L364.47 645.396L366.785 651.186L366.206 652.923H311.23L311.809 650.028L317.596 646.554L318.753 640.765L319.332 627.449Z" fill="black"/>
<path d="M310.074 607.188H314.125L315.861 607.766H319.912V625.714L318.176 627.45L314.704 628.029V629.187H307.759V694.029L306.602 699.818H304.866L304.287 672.029V626.871L304.866 608.345L307.759 608.924L308.917 610.082L310.074 607.188Z" fill="#FEFEFE"/>
<path d="M310.848 714.939H326L325.417 718.415H369.71L370.875 718.994V720.153L360.968 720.732H344.067L341.153 721.312H326.583V735.214L324.835 741.007L322.503 742.745L317.841 743.324L312.596 742.166L310.848 739.269V714.939Z" fill="#323230"/>
<path d="M375.466 632.08H396.877L398.035 633.238L398.613 636.133L399.192 644.817L399.771 647.133V652.922L377.78 652.343L373.151 651.764L372.572 651.185L373.151 644.238L374.308 633.238L375.466 632.08Z" fill="#4A4E4E"/>
<path d="M399.772 662.766L403.244 664.502L402.086 667.976L401.508 672.608L402.665 674.344L403.244 677.818L400.35 684.765L398.614 685.344L399.193 687.66L395.142 688.239L393.985 687.081V677.239L391.67 673.765L388.198 671.45H384.147L380.096 673.187L377.781 676.66L377.203 681.871L380.096 686.502L382.99 688.239H388.777L392.249 686.502L392.827 688.818L395.142 689.397L394.563 696.923L393.406 697.502H380.675L377.203 696.344L376.045 689.397L374.888 688.818V687.081H373.731L371.994 683.607L370.258 673.187L369.68 669.134L370.258 667.976H399.772V662.766Z" fill="#48433F"/>
<path d="M369.68 663.924L371.995 664.503L372.573 667.976H370.258L370.837 674.345L372.573 683.608L373.731 687.081H374.888V688.239L372.573 689.397L371.995 698.081V714.292L372.573 714.871V720.081L368.522 721.818L327.435 722.397V726.449L326.278 725.291V720.66H341.324L344.217 720.081H370.837V718.923H334.38L325.699 718.344L326.278 715.45L326.857 717.186L347.69 716.607L345.953 715.45L346.532 714.871L367.944 713.713L368.522 711.976L367.365 707.923H326.857L304.866 707.344L303.709 706.765V703.871L304.866 705.608L333.222 706.186H366.786L367.365 706.765L367.944 705.608L368.522 699.818V689.397L365.629 684.766L364.472 678.976V673.187L365.629 667.397L369.68 663.924Z" fill="black"/>
<path d="M377.78 708.502H388.775L395.719 709.081L396.298 709.66L396.877 717.186H398.613V724.712L399.77 727.607L400.349 743.238L414.237 743.817L415.395 744.396V747.87L413.659 749.607L409.029 750.186H403.821L404.4 754.238L400.349 756.554L399.77 775.659L399.192 776.817L396.298 777.396L392.247 775.08V773.343L394.562 772.185L396.877 762.922L396.298 754.238L397.455 752.501L398.613 744.975L398.034 743.817L397.455 733.975L396.877 729.344V721.239L396.298 719.502L392.826 718.923L391.669 718.344H380.095L375.465 720.081L374.886 717.186H373.729L373.15 719.502V714.87L374.308 710.818L376.044 709.081L377.78 708.502Z" fill="#464240"/>
<path d="M308.915 567.24L314.702 568.398L317.017 570.135L321.068 572.451L322.225 574.188L321.646 596.187L320.489 597.924L319.332 603.135L317.017 606.608H310.651L309.494 606.029L307.758 597.345V567.819L308.915 567.24Z" fill="#30312F"/>
<path d="M446.978 714.939H459.98V739.16L457.616 742.044L455.843 742.62H451.115L445.796 740.89L445.205 739.737L444.614 729.357L444.023 721.283L431.021 720.706L403.835 720.13L402.062 719.553V718.4L403.244 717.823H445.796L446.978 718.976L446.387 721.86L448.751 722.436L450.524 721.86L451.706 720.13H452.888L452.297 716.67L446.978 715.516V714.939Z" fill="#323130"/>
<path d="M453.01 707.344H467.477L465.741 713.133L465.162 714.291L459.375 716.028V714.291H443.751L443.172 717.186H429.862L425.811 716.607L428.126 715.449L426.969 714.87L418.867 714.291L403.242 713.712L403.821 709.081L404.978 707.923L453.01 707.344Z" fill="#30312F"/>
<path d="M321.648 595.029L322.805 596.766L324.542 597.345L450.118 597.924L450.696 596.766V597.924L452.432 598.503V607.766L451.275 605.45V600.819H321.069L319.912 607.766L315.282 608.345L310.074 607.187V606.608L317.019 606.029L319.333 601.398L320.491 596.766L321.648 595.029Z" fill="#30312F"/>
<path d="M318.175 626.291H319.911L319.333 640.765L318.175 646.554L315.282 648.87L312.388 650.028L311.231 652.922L310.074 687.659L308.916 696.922L306.602 699.816L307.18 691.711L307.759 629.186L311.231 628.607L313.546 628.028L314.703 627.449H318.175V626.291Z" fill="#30312F"/>
<path d="M373.89 654.34C374.147 653.826 374.672 653.502 375.246 653.502H394.468C396.253 653.502 397.837 654.644 398.402 656.338V656.338C398.542 656.76 398.614 657.203 398.614 657.648V664.238C398.614 664.792 398.485 665.339 398.238 665.834V665.834C397.745 666.82 396.825 667.523 395.744 667.739L395.112 667.866C394.747 667.939 394.376 667.97 394.004 667.959L376.668 667.433C375.896 667.41 375.163 667.093 374.617 666.547V666.547C374.049 665.979 373.73 665.209 373.73 664.406V655.017C373.73 654.782 373.785 654.55 373.89 654.34V654.34Z" fill="black"/>
<path d="M303.709 707.922H367.365L367.944 709.08V713.132L367.365 713.711H316.44L313.547 713.132L311.232 710.817L310.653 709.659L307.181 709.08L306.024 711.396L304.866 710.817L303.709 707.922Z" fill="#30312F"/>
<path d="M373.73 691.133H374.887L375.466 692.291V697.501H394.563L395.72 696.922L396.877 692.87L398.035 692.291L398.613 694.606V700.396L399.192 701.554V709.08L398.613 717.185H396.299L395.72 709.659L388.776 709.08H377.78L374.887 710.817L373.151 711.975L372.572 706.764V697.501L373.151 692.291L373.73 691.133Z" fill="#FEFEFE"/>
<path d="M451.854 624.555L453.011 625.713V628.028H456.483L462.849 630.344L463.427 641.923V650.028L461.691 654.66L462.27 660.449L463.427 669.133V696.922L462.27 695.185L461.691 693.449L460.534 673.186L459.955 655.239L458.798 652.344L454.168 647.712L452.432 642.502L451.854 624.555Z" fill="#30312F"/>
<path d="M465.163 608.346L467.478 608.925L466.899 699.818L464.585 698.66L464.006 697.503V608.925L465.163 608.346Z" fill="#FEFEFE"/>
<path d="M310.073 607.188H314.123L315.859 607.766H319.91V625.714L318.174 627.45L314.702 628.029V629.187H307.758V618.766L308.337 610.082L309.494 608.345L310.073 607.188Z" fill="#30312F"/>
<path d="M444.908 713.711H458.218L459.375 714.29V730.5H458.797V714.869L449.538 715.448L452.431 718.342L451.852 720.079L448.959 722.974H446.065L444.908 721.237L445.487 718.921L444.329 718.342H402.085V719.5L430.441 720.079L443.172 720.658V721.237L405.557 721.816L400.349 722.395L399.191 720.079V716.606L403.242 715.448H424.654L430.441 716.606H443.172L443.751 714.29L444.908 713.711Z" fill="#464240"/>
<path d="M388.197 786.658L391.091 787.237L391.67 787.816V803.447L388.776 806.921L386.461 807.5L381.832 805.763L380.096 804.026V790.132L383.568 787.816L388.197 786.658Z" fill="#313130"/>
<path d="M350.583 627.449L352.897 628.028L355.791 632.081L355.212 635.554L352.897 637.87L347.689 638.449L345.953 637.291H341.902L332.643 640.186L326.278 642.502L323.963 643.081L324.542 641.344L329.171 639.028L330.328 637.291L328.014 636.712L328.592 633.818L344.217 629.765L347.689 628.028L350.583 627.449Z" fill="#30312F"/>
<path d="M462.848 550.451H465.163L464.585 585.767L463.427 583.451V574.767L462.848 573.609H464.006V572.451H462.848L463.427 568.398V564.925H461.691L460.534 566.083L457.64 568.398L453.589 570.135H450.696V568.977H449.539V572.451L446.645 570.714L446.066 566.083H447.224L448.381 563.767L451.275 560.872L455.325 558.556L460.534 553.925H461.691L462.848 550.451Z" fill="#30312F"/>
<path d="M468.057 606.607H468.635L469.214 694.027V712.553L468.057 713.711H464.585L465.742 713.132L466.899 707.922L459.955 707.343V706.764L467.478 706.185L466.899 702.133L464.585 699.817L465.163 698.659L466.899 699.817V615.87L467.478 608.344L468.057 606.607Z" fill="#30312F"/>
<path d="M344.795 518.029H422.34L427.548 518.608L441.437 523.24L450.117 526.713L447.802 527.292L437.386 523.24L429.863 520.924L426.391 520.345L417.132 519.766H354.633L343.638 520.345L336.115 523.24L319.333 529.029L301.394 535.398L295.607 536.555L294.449 537.713L295.028 534.24H299.657L318.176 527.871L326.856 524.398L341.323 519.187L344.795 518.029Z" fill="#30312F"/>
<path d="M384.726 672.027L389.355 672.606L392.827 675.501L393.985 678.396L393.406 682.448L391.091 685.922L388.776 687.08H382.989L380.096 685.343L377.781 680.711L378.36 676.659L380.675 673.764L384.726 672.027Z" fill="#FEFEFE"/>
<path d="M404.978 707.922H448.38V708.501L413.659 709.08L412.501 710.238L413.659 710.817L418.867 711.396H428.705L437.385 711.974L440.278 712.553V713.711H444.908L443.751 714.29L443.172 717.185H429.862L425.811 716.606L428.126 715.448L426.969 714.869L418.867 714.29L403.242 713.711L403.821 709.08L404.978 707.922Z" fill="#30312F"/>
<path d="M371.995 714.869H372.573V720.08L368.522 721.816L327.435 722.395V726.448L326.278 725.29V720.659H341.324L344.217 720.08H370.837V718.922H334.38L325.699 718.343L326.278 715.448L326.857 717.185L347.689 716.606L345.953 715.448H371.416L371.995 714.869Z" fill="#30312F"/>
<path d="M450.117 527.293L453.589 527.872L464.006 531.924L472.107 534.819V535.977L476.737 536.556L476.158 538.872L469.793 545.24L465.163 549.293L464.584 551.03H463.427L462.27 552.187V543.503L461.691 532.503L450.117 527.872V527.293Z" fill="#464240"/>
<path d="M391.67 686.502L392.827 688.818L395.142 689.397L394.563 696.923L393.406 697.502H380.674L377.202 696.344L376.045 688.818L378.938 688.239L381.253 687.081L382.989 688.239H388.776L391.67 686.502Z" fill="#464342"/>
<path d="M370.258 667.975L374.309 668.554L384.147 670.29V671.448L380.096 673.185L377.781 676.659L377.203 681.869L380.096 686.501L378.939 688.816L377.203 689.395L374.888 688.816V687.08H373.731L371.994 683.606L370.258 673.185L369.68 669.132L370.258 667.975Z" fill="#4A423D"/>
<path d="M321.069 600.24H439.122L451.275 600.819V601.977H320.49L321.069 600.24Z" fill="#3E767A"/>
<path d="M373.731 688.238L376.624 689.396L377.782 696.343L380.675 696.922H394.564V689.396L395.142 688.817H398.036L399.772 691.133L400.351 715.448L399.772 716.606L400.351 722.396L399.772 727.606L398.615 725.869L398.036 721.817L398.615 709.08V701.554L398.036 698.659V694.607L397.457 692.87L395.721 697.501L394.564 698.08H376.624L375.467 697.501L374.888 691.133H373.731L373.152 701.554V709.659L373.731 714.87L373.152 720.08H372.573L371.995 714.87L371.416 714.291V698.08L371.995 689.396L373.731 688.238Z" fill="#887F64"/>
<path d="M356.369 519.768H414.817L417.131 520.925L415.974 527.294L415.395 531.925L412.502 533.662L367.364 534.241L356.948 533.662L355.212 529.61L354.633 520.925L356.369 519.768ZM364.471 520.347L356.948 520.925L355.79 522.662L356.948 531.346L358.105 532.504L384.725 533.083H400.928L412.502 532.504L414.238 531.925L414.817 521.504L410.766 520.347H364.471Z" fill="#30312F"/>
<path d="M406.136 668.555H407.294L407.872 671.449V680.133L406.136 685.923L403.821 689.397L403.243 691.133L406.715 690.554L414.817 691.133H430.441L459.955 692.291L460.533 673.186H461.112L461.691 680.712V693.449H418.289L402.664 692.87V688.818L405.558 683.607L406.715 678.976V672.028L406.136 668.555Z" fill="#3E767A"/>
<path d="M309.494 691.713L368.521 692.292L366.206 693.45L360.419 694.608H332.642L318.753 695.187L312.966 695.765L309.494 695.187V691.713Z" fill="#4A4E4E"/>
<path d="M403.242 692.871H421.76L462.269 693.45L462.847 696.345H456.482L444.329 695.766H427.547L422.339 696.345L416.552 695.766H411.344L409.029 696.345L407.293 695.187L403.242 694.029V692.871Z" fill="#4A4E4D"/>
<path d="M307.18 554.504H307.759L308.338 560.293L309.495 560.872L310.074 559.714L312.967 560.293L314.703 562.609L311.231 562.03L310.652 563.767L308.338 563.188V599.082L309.495 603.135V606.03L310.652 606.609L309.495 610.661L307.18 608.924H304.866L304.287 614.135L303.708 674.345H303.129L302.551 606.609L306.602 602.556L307.18 554.504Z" fill="#30312F"/>
<path d="M371.994 739.764H372.573L373.151 745.553L374.887 748.448L376.045 755.395L375.466 758.29V764.658L376.045 772.763L378.938 772.184V757.132L377.202 755.974V754.816H379.517L380.096 755.974V777.395L378.938 776.816V775.079L374.887 777.974L372.573 777.395L371.994 775.658V766.974L372.573 752.5L371.994 750.764L370.837 749.606L371.415 746.132L370.258 745.553L371.415 744.974L371.994 739.764Z" fill="#5E9B9E"/>
<path d="M310.652 652.924H311.23V676.66L310.652 691.134L311.809 690.555H366.206L367.942 691.134V688.239L369.099 689.397V692.292H312.966L309.494 691.713L310.652 652.924Z" fill="#3E767A"/>
<path d="M398.614 641.924H399.771L400.35 644.819L402.665 645.397L401.507 651.187V661.029L404.401 664.503L406.716 666.818L406.137 668.555L402.665 664.503L400.35 663.345L399.771 667.976L398.035 668.555H373.152L371.994 666.239L373.152 654.082H373.73L374.309 666.818L396.299 667.397L397.457 666.818L398.035 665.081V656.976L397.457 654.082L374.309 653.503V652.924L398.035 652.345L399.771 652.924L398.614 644.819V641.924Z" fill="black"/>
<path d="M367.943 710.816L369.101 713.132L367.943 714.29L346.532 715.448L348.268 717.185H326.856L326.277 715.448L311.231 714.869V719.501H310.653V714.869L304.287 713.711L306.602 713.132H367.364L367.943 710.816Z" fill="#30312F"/>
<path d="M377.78 709.66H393.983L394.562 710.239V716.607L388.775 716.028H380.673L377.78 716.607L377.201 716.028V710.239L377.78 709.66Z" fill="#444240"/>
<path d="M377.78 708.502H388.775L395.719 709.081L396.298 709.66V717.186L395.141 718.344H380.095L375.465 720.081L374.886 717.186H373.729L373.15 719.502V714.87L374.308 710.818L376.044 709.081L377.78 708.502ZM377.78 709.66L377.201 710.239V716.028L378.937 716.607L380.673 716.028H388.775L394.562 716.607V710.239L393.983 709.66H377.78Z" fill="#6A867B"/>
<path d="M308.916 628.607L312.388 629.186L311.231 630.344L309.495 630.923V663.344L308.916 696.922L306.602 699.817L307.18 691.712L307.759 629.186L308.916 628.607Z" fill="#30312F"/>
<path d="M403.243 717.764H444.909L446.066 718.922L445.488 721.237H443.173L430.442 720.658L403.822 720.079L402.086 719.5V718.343L403.243 717.764Z" fill="#333231"/>
<path d="M311.23 714.869H321.068L319.911 715.448L320.49 718.343L322.226 719.501L321.647 722.395L316.439 724.132L313.545 725.29L312.388 727.027H311.23V714.869Z" fill="#30312F"/>
<path d="M402.086 743.816H414.238L415.396 744.395V747.869L413.66 749.606L409.03 750.185H403.243L400.35 749.027L400.928 745.553L402.086 743.816Z" fill="#4C5453"/>
<path d="M459.954 608.924H462.269V624.555L461.69 627.45L457.639 626.292L457.061 622.239V611.819L458.218 609.503L459.954 608.924Z" fill="#FEFEFE"/>
<path d="M303.709 703.869L304.866 705.606L333.222 706.185H366.786L367.365 707.922H326.857L304.866 707.343L303.709 706.764V703.869Z" fill="#30312F"/>
<path d="M459.955 652.924L461.112 653.503L463.427 669.134V696.923L462.27 695.186L461.691 693.45L460.534 673.187L459.955 652.924Z" fill="#30312F"/>
<path d="M402.664 694.027H403.821L404.4 695.185L404.979 701.554L405.558 705.606L431.599 706.185H467.478V706.764L459.955 707.343H404.979L403.243 706.764L402.664 705.606V694.027Z" fill="#464240"/>
<path d="M451.852 607.766L457.06 608.924L456.482 611.818L455.903 625.134L455.324 626.292L452.431 625.713L451.273 623.397V612.397L451.852 607.766Z" fill="#FEFEFE"/>
<path d="M444.909 713.711H458.219L459.377 714.29V730.5H458.798V714.869L449.539 715.448L452.432 718.342L451.854 720.079L448.96 722.974H446.067L444.909 721.237L445.488 718.921L444.331 718.342H439.701L440.859 717.185L443.173 716.606L443.752 714.29L444.909 713.711Z" fill="#464240"/>
<path d="M402.664 751.922L404.401 752.501L403.822 754.817L400.35 756.553L399.771 775.658L399.192 776.816L396.299 777.395L392.248 775.079V773.343L396.299 772.764L397.456 768.711L398.035 758.869L398.614 753.659L402.664 751.922Z" fill="#30312F"/>
<path d="M318.755 607.766H319.912V625.713L318.176 626.871L315.861 626.292V612.397L316.44 608.345L318.755 607.766Z" fill="#FEFEFE"/>
<path d="M384.146 670.871H388.197L391.669 673.187L393.984 676.082L394.562 677.239V682.45L392.826 686.502L388.776 688.818H382.989L378.938 685.924L376.623 681.871L377.202 676.66L379.517 673.187L382.41 671.45L384.146 670.871ZM384.725 672.029L380.674 673.766L378.359 676.66L377.78 680.713L380.095 685.345L382.989 687.081H388.776L391.09 685.924L393.984 681.292L393.405 676.66L390.512 673.187L387.618 672.029H384.725Z" fill="#827C64"/>
<path d="M460.533 558.555H463.427L464.005 560.87V564.923H461.691L460.533 566.081L457.64 568.397H452.432V565.502L454.746 562.607H456.482L457.64 560.292L460.533 559.713V558.555Z" fill="#FEFEFE"/>
<path d="M463.428 630.344H464.007L464.585 698.659L463.428 698.08L462.849 669.133L461.113 656.396L461.692 652.343L462.849 650.028L463.428 630.344Z" fill="#30312F"/>
<path d="M344.21 720.1H370.172L368.442 722.339L327.478 723.085V728.31L326.324 726.817V720.846H341.325L344.21 720.1Z" fill="#30312F"/>
<path d="M377.202 754.816H379.517L380.095 755.974V777.395L378.938 776.816V775.079L374.887 777.974L372.572 777.395V767.553H374.308L374.887 769.869H376.044V772.764L378.938 772.185V757.132L377.202 755.974V754.816Z" fill="#30312F"/>
<path d="M404.401 706.766L453.011 707.345V707.924L404.98 708.502L403.244 713.713H418.869L431.6 714.871V715.45L424.655 716.029V714.871H401.508L402.665 709.66L404.401 706.766Z" fill="#30312F"/>
<path d="M310.653 608.924L312.968 609.503L314.125 610.082V625.713L311.232 626.292L310.653 625.713L310.074 611.24L310.653 608.924Z" fill="#FEFEFE"/>
<path d="M402.086 717.186H414.239V717.764L402.086 718.343V719.501L430.442 720.08L443.173 720.659V721.238L402.665 721.817L399.771 719.501V718.343L402.086 717.186Z" fill="#464240"/>
<path d="M356.948 744.396H365.629L369.68 746.133V748.449H365.629L365.05 749.028H356.948L355.791 747.87L356.37 744.975L356.948 744.396ZM362.157 746.133L362.735 747.87L363.314 746.133H362.157Z" fill="#4E5957"/>
<path d="M310.652 651.186L311.231 652.922L310.073 687.659L309.495 693.448H308.916V659.291L309.495 652.343H310.652V651.186Z" fill="#30312F"/>
<path d="M450.117 527.293L453.589 527.872L464.006 531.924L472.107 534.819L470.371 535.398L463.427 533.082L464.006 535.398L464.584 546.977L465.163 549.293L464.584 551.03H463.427L462.27 552.187V543.503L461.691 532.503L450.117 527.872V527.293Z" fill="#30312F"/>
<path d="M373.731 688.238L375.467 688.817L376.046 694.028L374.888 692.291V691.133H373.731L373.152 701.554V709.659L373.731 714.87L373.152 720.08H372.573L371.995 714.87L371.416 714.291V698.08L371.995 689.396L373.731 688.238Z" fill="#30312F"/>
<path d="M307.18 554.504H307.758L308.337 560.293L309.494 560.872L310.073 559.714L312.967 560.293L314.703 562.609L311.231 562.03L310.652 563.767L308.337 563.188V599.082L309.494 602.556L307.18 601.398V554.504Z" fill="#30312F"/>
<path d="M373.152 654.082H373.73L374.309 666.819L396.299 667.398L397.457 666.819L398.614 659.292H399.193L399.771 667.977L398.035 668.556H373.152L371.994 666.24L373.152 654.082Z" fill="#7F8672"/>
<path d="M326.278 715.449L326.857 717.186L347.689 716.607L345.953 715.449L351.74 716.028L353.476 716.607V717.765L352.319 718.344L339.009 718.923L325.699 718.344L326.278 715.449Z" fill="#30312F"/>
<path d="M368.521 732.816L369.678 734.553L370.257 737.448L371.993 738.606V744.974L371.414 746.132V749.606L365.049 749.027L366.206 747.29V748.448L367.942 747.869L369.678 748.448V746.132L367.364 745.553L365.628 744.395H368.521L367.942 738.027L368.521 732.816Z" fill="#30312F"/>
<path d="M464.006 588.66H464.585L465.164 602.555L468.057 605.449L468.636 606.607L467.479 608.923H463.428V592.134L464.006 588.66Z" fill="#30312F"/>
<path d="M372.573 755.395H373.152V758.289L374.888 756.552L375.466 760.605V769.868L373.152 768.71L372.573 775.657H371.994V766.973L372.573 755.395Z" fill="#7CB6BC"/>
<path d="M450.117 563.188L450.696 564.345V566.082L452.432 565.503V568.398H456.483L454.168 569.556L453.589 570.135H450.696V568.977H449.539V572.451L446.645 570.714L446.066 566.082L449.539 563.766L450.117 563.188Z" fill="#30312F"/>
<path d="M377.202 667.975L398.035 668.554L397.456 669.711L389.355 670.29L388.197 671.448L382.41 670.29L374.309 669.132V668.554L377.202 667.975Z" fill="#455F5F"/>
<path d="M380.096 732.816H391.67V733.395L380.675 733.974V754.237L379.518 754.816V733.395L380.096 732.816Z" fill="#746755"/>
<path d="M432.757 714.869H443.752L443.173 717.185H429.863L425.812 716.606L428.127 715.448L432.757 714.869Z" fill="#464240"/>
<path d="M466.9 653.502H467.479V701.554L465.164 700.396V698.659L466.9 699.817V653.502Z" fill="#30312F"/>
<path d="M420.025 715.449H424.654L430.441 716.607L440.858 717.186V717.765H418.289L416.553 716.028L420.025 715.449Z" fill="#464240"/>
<path d="M462.849 556.818L464.585 557.397V585.765L463.427 583.45V574.766L462.849 573.608H464.006V572.45H462.849L463.427 568.397V560.871L461.691 557.976L462.849 556.818Z" fill="#30312F"/>
<path d="M307.759 534.82H309.495V548.136L310.652 552.189L307.759 551.031L306.602 548.715L307.18 544.662L307.759 534.82Z" fill="#30312F"/>
<path d="M326.277 720.658H345.374L355.212 721.237V721.816L327.435 722.395V726.448L326.277 725.29V720.658Z" fill="#30312F"/>
<path d="M376.623 709.66L377.78 710.239V716.028L380.674 715.45H388.776L394.562 716.607L393.984 709.66H395.141V717.186L393.984 717.765L392.826 717.186H379.517L377.202 718.344L376.623 717.765V709.66Z" fill="#3E767A"/>
<path d="M402.665 751.922L404.401 752.501L403.822 754.817L400.35 756.553L399.771 769.29H399.193L398.614 758.869L398.035 756.553L398.614 753.659L402.665 751.922Z" fill="#30312F"/>
<path d="M356.948 744.396H362.157L361.578 749.028H356.948L355.791 747.87L356.37 744.975L356.948 744.396Z" fill="#373735"/>
<path d="M304.287 713.133L326.277 713.712V714.87H311.231V719.501H310.653V714.87L304.287 713.712V713.133Z" fill="#30312F"/>
<path d="M459.956 565.504L460.534 566.662H462.849V569.556L459.377 568.978L455.326 570.714L449.539 573.03V568.978H450.696V570.135H453.59L454.169 568.978H456.483L457.062 567.82H458.798L459.956 565.504Z" fill="#30312F"/>
<path d="M413.659 744.396H415.395V747.87L414.817 749.028H410.766L406.715 747.291L407.294 746.133L413.659 745.554V744.396Z" fill="#454341"/>
<path d="M379.517 673.186L381.253 673.764L378.938 676.659L378.359 680.712L380.095 684.185V685.343L382.989 686.501L388.197 687.659V688.238H383.567L379.517 686.501L376.623 681.87L377.202 676.659L379.517 673.186Z" fill="#907959"/>
<path d="M462.847 650.029H463.426V669.134H462.847L461.111 656.398L461.69 652.345L462.847 650.029Z" fill="#30312F"/>
<path d="M371.415 720.08H373.151V727.606L371.993 728.764L370.836 725.869V723.554L369.679 722.975L358.684 722.396V721.817L368.521 721.238L371.415 720.08Z" fill="black"/>
<path d="M313.546 529.609L314.125 530.767L301.394 535.399L295.607 536.557L294.449 537.715L295.028 534.241H299.657L313.546 529.609Z" fill="#30312F"/>
<path d="M466.898 615.871H467.477L468.056 639.608H468.635V646.555H467.477L466.898 647.713V615.871Z" fill="#30312F"/>
<path d="M389.354 669.711H396.298L393.405 674.921L388.775 671.448L389.354 669.711Z" fill="#674626"/>
<path d="M399.193 709.08H399.771L400.35 715.448L399.771 716.606L400.35 722.396L399.771 727.606L398.614 725.869L398.035 721.817L398.614 709.659L399.193 709.08Z" fill="#30312F"/>
<path d="M452.432 606.029L455.325 606.608L456.482 607.766H462.848L462.269 610.082V608.924L458.219 609.503L457.64 611.819L455.904 611.24V610.082L454.746 608.924L452.432 608.345V606.029Z" fill="#30312F"/>
<path d="M307.18 554.504H307.758L308.337 560.293L309.494 560.872L310.073 559.714L312.967 560.293L314.703 562.609L311.231 562.03L310.652 563.767L308.337 563.188L307.758 566.083H307.18V554.504Z" fill="#30312F"/>
<path d="M375.465 669.133L382.409 669.712L384.145 670.291V671.449L380.094 673.185L377.78 675.501L377.201 670.291L375.465 669.712V669.133Z" fill="#30312F"/>
<path d="M319.912 568.398H323.385V569.556L324.542 570.135L323.385 571.293L322.806 574.767L318.755 571.293L317.598 569.556L319.912 568.398Z" fill="#30312F"/>
<path d="M468.057 704.449H468.635V713.133L468.057 713.712H464.585L465.742 713.133L466.899 707.923L459.955 707.344V706.765L467.478 706.186L468.057 704.449Z" fill="#30312F"/>
<path d="M340.744 714.291H357.526V714.87L346.531 715.449L348.267 717.186H343.638V716.028L340.744 714.87V714.291Z" fill="#30312F"/>
<path d="M319.912 600.818H320.491V605.45L319.912 607.766L315.282 608.345L310.074 607.187V606.608L317.019 606.029L319.912 600.818Z" fill="#30312F"/>
<path d="M377.201 754.816H379.516L380.095 755.974V777.395L378.937 776.816L378.359 773.342H379.516L378.937 757.132L377.201 755.974V754.816Z" fill="#567673"/>
<path d="M373.73 688.238L375.466 688.817L376.045 694.028L374.888 692.291V691.133H373.73L373.152 697.501H371.994V689.396L373.73 688.238Z" fill="#30312F"/>
<path d="M375.465 709.66L376.044 711.397L375.465 713.713L376.044 718.344L377.78 719.502L375.465 720.081L374.886 717.186H373.729L373.15 719.502V714.871L374.308 710.818L375.465 709.66Z" fill="#4E9CA5"/>
<path d="M377.78 709.66H393.983V710.239H378.359V715.45L380.673 716.028L377.78 716.607L377.201 716.028V710.239L377.78 709.66Z" fill="#4A4E4E"/>
<path d="M373.152 654.082H373.73L374.309 666.819L377.202 667.398V668.556H373.152L371.994 666.24L373.152 654.082Z" fill="#30312F"/>
<path d="M345.952 715.449L351.739 716.028L353.475 716.607V717.765H336.693V717.186L343.638 716.607H347.688L345.952 715.449Z" fill="#30312F"/>
<path d="M315.861 563.188L318.176 563.766L321.07 565.503L323.384 564.924L324.542 565.503L323.963 567.819L321.07 567.24L317.597 567.819L315.861 563.188Z" fill="#30312F"/>
<path d="M402.086 743.816H408.451L406.137 744.974L402.086 746.711L401.507 749.027L408.451 749.606V750.185H403.243L400.35 749.027L400.928 745.553L402.086 743.816Z" fill="#30312F"/>
<path d="M308.337 562.609L311.809 563.188L312.387 566.083L308.915 567.82H307.758V563.188L308.337 562.609Z" fill="#30312F"/>
<path d="M349.424 715.449L355.789 716.028L360.998 716.607L361.576 717.765L358.104 718.344H352.317L353.475 717.765V716.607L349.424 716.028V715.449Z" fill="#30312F"/>
<path d="M388.776 710.816H392.827L393.405 714.869H389.933L388.197 712.553L388.776 710.816Z" fill="#31302F"/>
<path d="M414.816 713.711L426.969 714.29L431.598 714.869V715.448L424.654 716.027V714.869H414.816V713.711Z" fill="#30312F"/>
<path d="M467.477 646.555H468.635V656.976H467.477L466.898 653.502V647.713L467.477 646.555Z" fill="#30312F"/>
<path d="M318.176 626.291H319.912L319.334 640.765L318.176 638.449V629.765L317.598 628.607H313.547L314.704 627.449H318.176V626.291Z" fill="#30312F"/>
<path d="M397.456 763.5H398.035V768.71L396.299 772.763L394.562 772.184L396.877 764.079L397.456 763.5Z" fill="#464240"/>
<path d="M375.465 688.818L376.622 689.397L377.78 696.345L380.673 696.924L378.358 698.081L375.465 697.502V688.818Z" fill="#30312F"/>
<path d="M392.826 684.186L393.404 685.922L388.775 688.817H382.988L381.252 687.08L384.145 687.659V687.08L389.932 685.922L392.247 685.343L392.826 684.186Z" fill="#4C7C7C"/>
<path d="M461.691 553.346H462.849L462.27 555.083L457.64 558.556L455.904 560.293L453.011 562.03L451.854 561.451L457.64 556.24L461.691 553.346Z" fill="#FCF9F6"/>
<path d="M302.551 606.607L304.287 607.186V614.134L303.708 615.87H302.551V606.607Z" fill="#30312F"/>
<path d="M326.278 715.449L326.857 717.186H336.694L336.116 718.344H325.699L326.278 715.449Z" fill="#30312F"/>
<path d="M395.72 717.186H398.613V722.396L397.456 724.712L396.298 719.501L392.826 718.922L395.141 717.764L395.72 717.186Z" fill="#4E9CA5"/>
<path d="M398.614 773.344H399.771L399.192 776.817L396.299 777.396L392.248 775.081L392.827 773.923L395.142 775.081L397.456 774.502L398.614 773.344Z" fill="#464240"/>
<path d="M402.664 694.027H403.243L404.4 703.869L404.979 706.764H403.243L402.664 705.606V694.027Z" fill="#464240"/>
<path d="M311.231 566.082L314.124 566.661L317.018 567.819L318.175 568.398V570.714L315.282 569.556L310.652 567.819L311.231 566.082Z" fill="#30312F"/>
<path d="M459.955 565.504L460.534 566.662H462.849V569.556L459.376 568.978L455.904 569.556L457.062 567.82H458.798L459.955 565.504Z" fill="#30312F"/>
<path d="M327.434 633.818L328.592 634.397V636.713L330.328 637.292L329.171 639.608L325.698 641.345L324.541 640.766L327.434 638.45L326.856 634.976L327.434 633.818Z" fill="#30312F"/>
<path d="M462.848 582.293L464.005 583.451L464.584 588.082L463.426 593.293H462.848V582.293Z" fill="#30312F"/>
<path d="M367.943 692.871H368.521L367.943 700.976L367.364 706.187H366.785V695.187L367.943 692.871Z" fill="#333231"/>
<path d="M319.333 555.082H319.912L321.07 558.556V561.45L317.019 557.977L315.861 556.24H319.333V555.082Z" fill="#30312F"/>
<path d="M413.659 744.396H415.395V747.87L412.501 748.449L411.344 747.87L411.922 746.133L413.659 744.396Z" fill="#343534"/>
<path d="M326.277 720.658L334.958 721.816V722.395H327.435V726.448L326.277 725.29V720.658Z" fill="#30312F"/>
<path d="M376.044 709.08L377.78 709.659H376.623L377.201 717.764L377.78 718.922L375.465 718.343L374.887 713.133L376.044 709.08Z" fill="#30312F"/>
<path d="M295.028 534.24H301.394V535.398L295.607 536.556L294.449 537.714L295.028 534.24Z" fill="#30312F"/>
<path d="M369.678 746.133H371.414V749.606L365.049 749.028L366.206 747.291V748.449L367.942 747.87L369.678 748.449V746.133Z" fill="#6C7C6F"/>
<path d="M371.415 720.08L371.993 721.817L370.257 722.396H358.684V721.817L368.521 721.238L371.415 720.08Z" fill="#30312F"/>
<path d="M384.147 670.871H388.197L389.355 672.029L382.41 673.187L381.253 673.766L380.096 672.608L384.147 670.871Z" fill="#5B7A72"/>
<path d="M398.614 659.291H399.192L399.771 667.975L396.299 668.554V667.396L397.456 666.817L398.614 659.291Z" fill="#957C5B"/>
<path d="M461.691 628.607L463.427 629.765V641.923H462.849V630.344L459.955 629.765L461.691 628.607Z" fill="#30312F"/>
<path d="M450.117 563.188L450.696 564.345L448.96 567.819H446.066V566.082L449.539 563.766L450.117 563.188Z" fill="#FEFEFE"/>
<path d="M341.902 714.869H345.953V716.027L348.268 716.606V717.185H343.638V716.027L341.902 715.448V714.869Z" fill="#30312F"/>
<path d="M462.849 556.818L464.585 557.397V564.924H464.006L462.849 559.713L461.691 557.976L462.849 556.818Z" fill="#30312F"/>
<path d="M369.679 663.924L371.994 664.503V667.397L367.943 666.819L369.679 663.924Z" fill="#5E4835"/>
<path d="M461.691 563.766L462.269 564.924H463.427L464.005 571.871L462.848 570.134V566.66L460.533 566.081L461.691 563.766Z" fill="#30312F"/>
<path d="M464.006 712.555L465.742 713.134L465.163 714.292L459.376 716.028V714.292L458.219 713.713H464.006V712.555Z" fill="#30312F"/>
<rect x="372.02" y="652.701" width="27.7245" height="16.4364" rx="3" fill="#FEFEFE"/>
<ellipse cx="385.37" cy="679.666" rx="8.9848" ry="8.98867" fill="#FEFEFE"/>
<rect x="373.303" y="706.891" width="3.33721" height="71.1389" rx="1.66861" fill="#30312F"/>
<rect x="396.15" y="706.891" width="3.33721" height="71.1389" rx="1.66861" fill="#30312F"/>
<rect x="378.695" y="726.922" width="14.6324" height="79.6139" rx="7.3162" fill="#3D3B39"/>
<rect x="376.127" y="708.174" width="20.28" height="11.3" fill="#454746"/>
</g>
<path d="M635.926 650.172V570.849L666.519 601.442V650.172H635.926ZM759.171 504.856H765.727V650.172H735.134V572.16L718.963 588.549L712.626 594.668L710.878 596.416L705.415 602.098L701.263 606.031L680.722 585.49L666.519 571.286L635.926 540.694V504.856H643.356L672.637 534.138L701.263 562.764L759.171 504.856ZM788.079 505.949H917.005V536.542H788.079V511.63V505.949ZM818.672 588.549V619.579H917.005V650.172H788.079V625.261V619.579V557.738L818.672 557.957H904.113V588.549H818.672ZM1073.12 641.431L1078.37 650.172H1042.53L1040.78 647.55L1003.63 586.583C1002.76 586.801 1001.88 587.02 1001.01 587.238C1000.57 587.238 1000.14 587.238 999.918 587.238C999.7 587.457 999.481 587.457 999.263 587.457C998.826 587.457 998.388 587.457 997.951 587.675C997.733 587.675 997.514 587.675 997.296 587.675C996.64 587.675 996.203 587.894 995.766 587.894C995.111 587.894 994.674 587.894 994.237 587.894L994.018 588.112H993.581C993.144 588.112 992.707 588.112 992.27 588.112C992.27 588.112 992.051 588.112 991.833 588.112C991.396 588.112 991.177 588.112 990.74 588.112H990.303H990.085H989.866C989.429 588.112 988.992 588.331 988.555 588.331H969.544V650.172H938.951V557.52H988.555C994.018 557.52 999.481 556.427 1004.51 554.46C1004.73 554.242 1004.73 554.242 1004.94 554.242C1009.75 552.057 1013.9 549.216 1017.62 545.501C1020.46 542.879 1022.86 539.601 1024.83 536.105H1004.51H938.951V505.512H1060.23L1060.45 510.975C1060.67 512.505 1060.67 514.253 1060.67 516.001C1060.67 521.245 1060.23 526.49 1058.92 531.734C1056.08 545.282 1049.09 557.52 1039.25 567.353C1038.16 568.446 1037.28 569.101 1036.41 569.975C1036.19 570.194 1035.76 570.631 1035.54 570.849C1035.54 570.849 1035.32 570.849 1035.32 571.068C1034.88 571.286 1034.44 571.723 1034.23 571.942C1033.79 572.16 1033.57 572.379 1033.13 572.597C1033.13 572.816 1032.91 573.034 1032.7 573.034L1032.48 573.253C1032.26 573.472 1032.04 573.69 1031.82 573.69L1073.12 641.431ZM1100.49 505.73H1131.09V650.172H1100.49V505.73Z" fill="#252525"/>
<path d="M1333.81 641.429L1339.06 650.17H1303.22L1301.47 647.548L1264.32 586.581C1263.45 586.799 1262.58 587.018 1261.7 587.236C1261.27 587.236 1260.83 587.236 1260.61 587.236C1260.39 587.455 1260.17 587.455 1259.95 587.455C1259.52 587.455 1259.08 587.455 1258.64 587.673C1258.42 587.673 1258.21 587.673 1257.99 587.673C1257.33 587.673 1256.89 587.892 1256.46 587.892C1255.8 587.892 1255.37 587.892 1254.93 587.892L1254.71 588.11H1254.27C1253.84 588.11 1253.4 588.11 1252.96 588.11C1252.96 588.11 1252.74 588.11 1252.52 588.11C1252.09 588.11 1251.87 588.11 1251.43 588.11H1250.99H1250.78H1250.56C1250.12 588.11 1249.68 588.329 1249.25 588.329H1230.24V650.17H1199.64V557.518H1249.25C1254.71 557.518 1260.17 556.425 1265.2 554.458C1265.42 554.24 1265.42 554.24 1265.64 554.24C1270.44 552.055 1274.59 549.214 1278.31 545.499C1281.15 542.877 1283.55 539.599 1285.52 536.103H1265.2H1199.64V505.51H1320.92L1321.14 510.973C1321.36 512.503 1321.36 514.251 1321.36 515.999C1321.36 521.243 1320.92 526.488 1319.61 531.732C1316.77 545.281 1309.78 557.518 1299.94 567.351C1298.85 568.444 1297.98 569.099 1297.1 569.973C1296.88 570.192 1296.45 570.629 1296.23 570.847C1296.23 570.847 1296.01 570.847 1296.01 571.066C1295.57 571.284 1295.14 571.721 1294.92 571.94C1294.48 572.158 1294.26 572.377 1293.82 572.595C1293.82 572.814 1293.61 573.033 1293.39 573.033L1293.17 573.251C1292.95 573.47 1292.73 573.688 1292.51 573.688L1333.81 641.429ZM1361.19 505.728H1391.78V650.17H1361.19V505.728ZM1553.52 568.225C1554.18 571.503 1554.4 574.999 1554.4 578.277C1554.4 581.992 1553.96 585.488 1553.52 588.984C1548.93 621.107 1522.93 646.237 1490.81 650.17H1490.37H1423.28V557.955H1453.88V619.577H1488.4C1505.45 616.955 1519.21 603.844 1522.71 587.018C1523.37 584.177 1523.58 581.336 1523.58 578.277C1523.58 575.655 1523.37 572.814 1522.93 570.192C1520.74 560.14 1515.28 551.181 1506.98 545.062C1501.95 541.347 1496.27 538.725 1490.15 537.414C1488.18 536.977 1486 536.758 1483.81 536.54H1423.28V505.947L1487.53 506.166C1503.04 507.258 1518.12 513.595 1529.92 524.084C1542.81 535.447 1551.12 551.181 1553.52 568.225ZM1576.29 505.947H1705.22V536.54H1576.29V511.629V505.947ZM1606.88 588.547V619.577H1705.22V650.17H1576.29V625.259V619.577V557.736L1606.88 557.955H1692.32V588.547H1606.88Z" fill="#A7E92F"/>
<path d="M639.645 710.512H669.75V715.638H639.645V710.512ZM640.296 736.793H674.55V742H634.275V685.045H673.33V690.253H640.296V736.793ZM713.616 742V732.562L713.372 731.016V715.231C713.372 711.597 712.341 708.804 710.28 706.851C708.273 704.898 705.263 703.922 701.249 703.922C698.482 703.922 695.851 704.383 693.356 705.305C690.861 706.227 688.746 707.448 687.01 708.966L684.406 704.654C686.576 702.81 689.18 701.4 692.217 700.423C695.255 699.393 698.455 698.877 701.818 698.877C707.351 698.877 711.609 700.26 714.592 703.027C717.63 705.739 719.149 709.888 719.149 715.475V742H713.616ZM698.889 742.407C695.689 742.407 692.895 741.892 690.509 740.861C688.176 739.776 686.386 738.312 685.139 736.467C683.891 734.569 683.267 732.399 683.267 729.958C683.267 727.734 683.782 725.727 684.813 723.937C685.898 722.093 687.634 720.628 690.02 719.544C692.461 718.405 695.716 717.835 699.784 717.835H714.511V722.147H699.947C695.824 722.147 692.949 722.88 691.322 724.344C689.749 725.809 688.963 727.626 688.963 729.795C688.963 732.236 689.912 734.189 691.81 735.654C693.709 737.118 696.367 737.85 699.784 737.85C703.039 737.85 705.832 737.118 708.164 735.654C710.551 734.135 712.287 731.965 713.372 729.145L714.674 733.131C713.589 735.952 711.69 738.203 708.978 739.885C706.32 741.566 702.957 742.407 698.889 742.407ZM734.839 742V699.284H740.372V710.919L739.802 708.885C740.996 705.63 743.003 703.162 745.823 701.481C748.644 699.745 752.142 698.877 756.319 698.877V704.491C756.102 704.491 755.885 704.491 755.668 704.491C755.451 704.437 755.234 704.41 755.017 704.41C750.515 704.41 746.989 705.793 744.44 708.56C741.891 711.272 740.616 715.15 740.616 720.195V742H734.839ZM788.666 698.877C792.137 698.877 795.175 699.555 797.778 700.911C800.436 702.213 802.497 704.22 803.962 706.932C805.481 709.644 806.24 713.062 806.24 717.184V742H800.463V717.754C800.463 713.252 799.324 709.861 797.046 707.583C794.822 705.251 791.676 704.085 787.608 704.085C784.57 704.085 781.912 704.708 779.634 705.956C777.41 707.149 775.674 708.912 774.427 711.245C773.234 713.523 772.637 716.289 772.637 719.544V742H766.86V699.284H772.393V711L771.498 708.804C772.854 705.712 775.024 703.298 778.007 701.562C780.99 699.772 784.543 698.877 788.666 698.877ZM855.424 742V690.253H835.409V685.045H881.461V690.253H861.445V742H855.424ZM911.665 698.877C915.136 698.877 918.174 699.555 920.777 700.911C923.435 702.213 925.496 704.22 926.961 706.932C928.48 709.644 929.239 713.062 929.239 717.184V742H923.462V717.754C923.462 713.252 922.323 709.861 920.045 707.583C917.821 705.251 914.675 704.085 910.607 704.085C907.569 704.085 904.911 704.708 902.633 705.956C900.409 707.149 898.673 708.912 897.426 711.245C896.233 713.523 895.636 716.289 895.636 719.544V742H889.859V681.628H895.636V711L894.497 708.804C895.853 705.712 898.023 703.298 901.006 701.562C903.989 699.772 907.542 698.877 911.665 698.877ZM962.987 742.407C958.539 742.407 954.634 741.485 951.271 739.64C947.908 737.742 945.277 735.165 943.379 731.911C941.48 728.602 940.531 724.832 940.531 720.601C940.531 716.37 941.426 712.628 943.216 709.373C945.06 706.119 947.555 703.569 950.701 701.725C953.902 699.826 957.482 698.877 961.441 698.877C965.455 698.877 969.008 699.799 972.1 701.644C975.246 703.434 977.714 705.983 979.504 709.292C981.294 712.546 982.189 716.316 982.189 720.601C982.189 720.873 982.162 721.171 982.108 721.496C982.108 721.768 982.108 722.066 982.108 722.391H944.924V718.079H979.016L976.738 719.788C976.738 716.696 976.06 713.957 974.704 711.57C973.402 709.129 971.612 707.231 969.334 705.875C967.055 704.518 964.425 703.84 961.441 703.84C958.512 703.84 955.881 704.518 953.549 705.875C951.217 707.231 949.399 709.129 948.098 711.57C946.796 714.011 946.145 716.804 946.145 719.95V720.845C946.145 724.1 946.85 726.975 948.26 729.47C949.725 731.911 951.732 733.837 954.281 735.247C956.885 736.603 959.841 737.281 963.15 737.281C965.754 737.281 968.167 736.82 970.391 735.898C972.669 734.976 974.622 733.565 976.249 731.667L979.504 735.41C977.606 737.688 975.219 739.423 972.344 740.617C969.523 741.81 966.404 742.407 962.987 742.407ZM1039.41 742.488C1032.14 742.488 1026.42 740.4 1022.24 736.223C1018.06 732.047 1015.97 725.863 1015.97 717.672V685.045H1021.99V717.428C1021.99 724.154 1023.51 729.117 1026.55 732.318C1029.59 735.518 1033.87 737.118 1039.41 737.118C1044.99 737.118 1049.31 735.518 1052.34 732.318C1055.38 729.117 1056.9 724.154 1056.9 717.428V685.045H1062.76V717.672C1062.76 725.863 1060.67 732.047 1056.49 736.223C1052.37 740.4 1046.68 742.488 1039.41 742.488ZM1079.68 742V681.628H1085.46V742H1079.68ZM1115.28 742.407C1111.26 742.407 1108.17 741.322 1106 739.152C1103.83 736.983 1102.75 733.918 1102.75 729.958V689.846H1108.52V729.633C1108.52 732.128 1109.15 734.053 1110.39 735.41C1111.7 736.766 1113.54 737.444 1115.93 737.444C1118.48 737.444 1120.59 736.711 1122.27 735.247L1124.31 739.396C1123.17 740.427 1121.79 741.186 1120.16 741.675C1118.59 742.163 1116.96 742.407 1115.28 742.407ZM1095.1 704.085V699.284H1121.54V704.085H1095.1ZM1134.82 742V699.284H1140.6V742H1134.82ZM1137.75 689.846C1136.56 689.846 1135.56 689.439 1134.74 688.625C1133.93 687.812 1133.52 686.835 1133.52 685.696C1133.52 684.557 1133.93 683.608 1134.74 682.849C1135.56 682.035 1136.56 681.628 1137.75 681.628C1138.95 681.628 1139.95 682.008 1140.76 682.767C1141.58 683.527 1141.98 684.476 1141.98 685.615C1141.98 686.808 1141.58 687.812 1140.76 688.625C1140 689.439 1139 689.846 1137.75 689.846ZM1210.05 698.877C1213.52 698.877 1216.53 699.555 1219.08 700.911C1221.68 702.213 1223.69 704.22 1225.1 706.932C1226.57 709.644 1227.3 713.062 1227.3 717.184V742H1221.52V717.754C1221.52 713.252 1220.44 709.861 1218.27 707.583C1216.15 705.251 1213.14 704.085 1209.24 704.085C1206.31 704.085 1203.76 704.708 1201.59 705.956C1199.47 707.149 1197.82 708.912 1196.62 711.245C1195.49 713.523 1194.92 716.289 1194.92 719.544V742H1189.14V717.754C1189.14 713.252 1188.05 709.861 1185.88 707.583C1183.71 705.251 1180.68 704.085 1176.77 704.085C1173.9 704.085 1171.37 704.708 1169.2 705.956C1167.04 707.149 1165.35 708.912 1164.16 711.245C1163.02 713.523 1162.45 716.289 1162.45 719.544V742H1156.67V699.284H1162.21V710.838L1161.31 708.804C1162.61 705.712 1164.7 703.298 1167.58 701.562C1170.51 699.772 1173.95 698.877 1177.91 698.877C1182.09 698.877 1185.64 699.935 1188.57 702.05C1191.5 704.112 1193.4 707.231 1194.26 711.407L1191.99 710.512C1193.23 707.041 1195.43 704.247 1198.58 702.132C1201.78 699.962 1205.6 698.877 1210.05 698.877ZM1269.73 742V732.562L1269.49 731.016V715.231C1269.49 711.597 1268.46 708.804 1266.4 706.851C1264.39 704.898 1261.38 703.922 1257.37 703.922C1254.6 703.922 1251.97 704.383 1249.47 705.305C1246.98 706.227 1244.86 707.448 1243.13 708.966L1240.52 704.654C1242.69 702.81 1245.3 701.4 1248.33 700.423C1251.37 699.393 1254.57 698.877 1257.94 698.877C1263.47 698.877 1267.73 700.26 1270.71 703.027C1273.75 705.739 1275.27 709.888 1275.27 715.475V742H1269.73ZM1255.01 742.407C1251.81 742.407 1249.01 741.892 1246.63 740.861C1244.29 739.776 1242.5 738.312 1241.26 736.467C1240.01 734.569 1239.38 732.399 1239.38 729.958C1239.38 727.734 1239.9 725.727 1240.93 723.937C1242.02 722.093 1243.75 720.628 1246.14 719.544C1248.58 718.405 1251.83 717.835 1255.9 717.835H1270.63V722.147H1256.06C1251.94 722.147 1249.07 722.88 1247.44 724.344C1245.87 725.809 1245.08 727.626 1245.08 729.795C1245.08 732.236 1246.03 734.189 1247.93 735.654C1249.83 737.118 1252.48 737.85 1255.9 737.85C1259.16 737.85 1261.95 737.118 1264.28 735.654C1266.67 734.135 1268.4 731.965 1269.49 729.145L1270.79 733.131C1269.71 735.952 1267.81 738.203 1265.1 739.885C1262.44 741.566 1259.07 742.407 1255.01 742.407ZM1304.46 742.407C1300.45 742.407 1297.36 741.322 1295.19 739.152C1293.02 736.983 1291.93 733.918 1291.93 729.958V689.846H1297.71V729.633C1297.71 732.128 1298.33 734.053 1299.58 735.41C1300.88 736.766 1302.73 737.444 1305.11 737.444C1307.66 737.444 1309.78 736.711 1311.46 735.247L1313.49 739.396C1312.36 740.427 1310.97 741.186 1309.34 741.675C1307.77 742.163 1306.14 742.407 1304.46 742.407ZM1284.28 704.085V699.284H1310.73V704.085H1284.28ZM1340.64 742.407C1336.2 742.407 1332.29 741.485 1328.93 739.64C1325.57 737.742 1322.93 735.165 1321.04 731.911C1319.14 728.602 1318.19 724.832 1318.19 720.601C1318.19 716.37 1319.08 712.628 1320.87 709.373C1322.72 706.119 1325.21 703.569 1328.36 701.725C1331.56 699.826 1335.14 698.877 1339.1 698.877C1343.11 698.877 1346.67 699.799 1349.76 701.644C1352.9 703.434 1355.37 705.983 1357.16 709.292C1358.95 712.546 1359.85 716.316 1359.85 720.601C1359.85 720.873 1359.82 721.171 1359.77 721.496C1359.77 721.768 1359.77 722.066 1359.77 722.391H1322.58V718.079H1356.67L1354.4 719.788C1354.4 716.696 1353.72 713.957 1352.36 711.57C1351.06 709.129 1349.27 707.231 1346.99 705.875C1344.71 704.518 1342.08 703.84 1339.1 703.84C1336.17 703.84 1333.54 704.518 1331.21 705.875C1328.87 707.231 1327.06 709.129 1325.76 711.57C1324.45 714.011 1323.8 716.804 1323.8 719.95V720.845C1323.8 724.1 1324.51 726.975 1325.92 729.47C1327.38 731.911 1329.39 733.837 1331.94 735.247C1334.54 736.603 1337.5 737.281 1340.81 737.281C1343.41 737.281 1345.83 736.82 1348.05 735.898C1350.33 734.976 1352.28 733.565 1353.91 731.667L1357.16 735.41C1355.26 737.688 1352.88 739.423 1350 740.617C1347.18 741.81 1344.06 742.407 1340.64 742.407ZM1394.12 742V685.045H1415.44C1420.26 685.045 1424.41 685.832 1427.89 687.405C1431.36 688.924 1434.02 691.148 1435.86 694.077C1437.76 696.952 1438.71 700.45 1438.71 704.573C1438.71 708.587 1437.76 712.058 1435.86 714.987C1434.02 717.862 1431.36 720.086 1427.89 721.659C1424.41 723.178 1420.26 723.937 1415.44 723.937H1397.46L1400.14 721.171V742H1394.12ZM1433.01 742L1418.37 721.334H1424.88L1439.6 742H1433.01ZM1400.14 721.659L1397.46 718.811H1415.27C1420.97 718.811 1425.28 717.564 1428.21 715.069C1431.19 712.573 1432.69 709.075 1432.69 704.573C1432.69 700.016 1431.19 696.491 1428.21 693.995C1425.28 691.5 1420.97 690.253 1415.27 690.253H1397.46L1400.14 687.405V721.659ZM1469.84 742.407C1465.39 742.407 1461.49 741.485 1458.13 739.64C1454.76 737.742 1452.13 735.165 1450.23 731.911C1448.33 728.602 1447.39 724.832 1447.39 720.601C1447.39 716.37 1448.28 712.628 1450.07 709.373C1451.91 706.119 1454.41 703.569 1457.56 701.725C1460.76 699.826 1464.34 698.877 1468.3 698.877C1472.31 698.877 1475.86 699.799 1478.95 701.644C1482.1 703.434 1484.57 705.983 1486.36 709.292C1488.15 712.546 1489.04 716.316 1489.04 720.601C1489.04 720.873 1489.02 721.171 1488.96 721.496C1488.96 721.768 1488.96 722.066 1488.96 722.391H1451.78V718.079H1485.87L1483.59 719.788C1483.59 716.696 1482.91 713.957 1481.56 711.57C1480.26 709.129 1478.47 707.231 1476.19 705.875C1473.91 704.518 1471.28 703.84 1468.3 703.84C1465.37 703.84 1462.74 704.518 1460.4 705.875C1458.07 707.231 1456.25 709.129 1454.95 711.57C1453.65 714.011 1453 716.804 1453 719.95V720.845C1453 724.1 1453.7 726.975 1455.11 729.47C1456.58 731.911 1458.59 733.837 1461.14 735.247C1463.74 736.603 1466.7 737.281 1470 737.281C1472.61 737.281 1475.02 736.82 1477.25 735.898C1479.52 734.976 1481.48 733.565 1483.1 731.667L1486.36 735.41C1484.46 737.688 1482.07 739.423 1479.2 740.617C1476.38 741.81 1473.26 742.407 1469.84 742.407ZM1508.71 742L1492.6 699.284H1498.14L1512.78 738.908H1510.26L1525.31 699.284H1530.27L1545.16 738.908H1542.64L1557.53 699.284H1562.82L1546.63 742H1541.18L1526.86 704.735H1528.57L1514.16 742H1508.71ZM1597.02 742V732.562L1596.77 731.016V715.231C1596.77 711.597 1595.74 708.804 1593.68 706.851C1591.67 704.898 1588.66 703.922 1584.65 703.922C1581.88 703.922 1579.25 704.383 1576.76 705.305C1574.26 706.227 1572.15 707.448 1570.41 708.966L1567.81 704.654C1569.98 702.81 1572.58 701.4 1575.62 700.423C1578.65 699.393 1581.85 698.877 1585.22 698.877C1590.75 698.877 1595.01 700.26 1597.99 703.027C1601.03 705.739 1602.55 709.888 1602.55 715.475V742H1597.02ZM1582.29 742.407C1579.09 742.407 1576.29 741.892 1573.91 740.861C1571.58 739.776 1569.79 738.312 1568.54 736.467C1567.29 734.569 1566.67 732.399 1566.67 729.958C1566.67 727.734 1567.18 725.727 1568.21 723.937C1569.3 722.093 1571.03 720.628 1573.42 719.544C1575.86 718.405 1579.12 717.835 1583.18 717.835H1597.91V722.147H1583.35C1579.22 722.147 1576.35 722.88 1574.72 724.344C1573.15 725.809 1572.36 727.626 1572.36 729.795C1572.36 732.236 1573.31 734.189 1575.21 735.654C1577.11 737.118 1579.77 737.85 1583.18 737.85C1586.44 737.85 1589.23 737.118 1591.56 735.654C1593.95 734.135 1595.69 731.965 1596.77 729.145L1598.07 733.131C1596.99 735.952 1595.09 738.203 1592.38 739.885C1589.72 741.566 1586.36 742.407 1582.29 742.407ZM1618.24 742V699.284H1623.77V710.919L1623.2 708.885C1624.4 705.63 1626.4 703.162 1629.22 701.481C1632.04 699.745 1635.54 698.877 1639.72 698.877V704.491C1639.5 704.491 1639.28 704.491 1639.07 704.491C1638.85 704.437 1638.63 704.41 1638.42 704.41C1633.91 704.41 1630.39 705.793 1627.84 708.56C1625.29 711.272 1624.02 715.15 1624.02 720.195V742H1618.24ZM1666.87 742.407C1662.8 742.407 1659.14 741.485 1655.88 739.64C1652.68 737.796 1650.16 735.247 1648.32 731.992C1646.47 728.683 1645.55 724.887 1645.55 720.601C1645.55 716.262 1646.47 712.465 1648.32 709.21C1650.16 705.956 1652.68 703.434 1655.88 701.644C1659.14 699.799 1662.8 698.877 1666.87 698.877C1670.61 698.877 1673.95 699.718 1676.88 701.4C1679.86 703.081 1682.22 705.549 1683.95 708.804C1685.74 712.004 1686.64 715.937 1686.64 720.601C1686.64 725.212 1685.77 729.145 1684.04 732.399C1682.3 735.654 1679.94 738.149 1676.96 739.885C1674.03 741.566 1670.66 742.407 1666.87 742.407ZM1667.27 737.281C1670.31 737.281 1673.02 736.603 1675.41 735.247C1677.85 733.837 1679.75 731.884 1681.11 729.389C1682.52 726.839 1683.22 723.91 1683.22 720.601C1683.22 717.238 1682.52 714.309 1681.11 711.814C1679.75 709.319 1677.85 707.393 1675.41 706.037C1673.02 704.627 1670.31 703.922 1667.27 703.922C1664.29 703.922 1661.61 704.627 1659.22 706.037C1656.83 707.393 1654.93 709.319 1653.52 711.814C1652.11 714.309 1651.41 717.238 1651.41 720.601C1651.41 723.91 1652.11 726.839 1653.52 729.389C1654.93 731.884 1656.83 733.837 1659.22 735.247C1661.61 736.603 1664.29 737.281 1667.27 737.281ZM1683.38 742V729.145L1683.95 720.52L1683.14 711.895V681.628H1688.92V742H1683.38Z" fill="#252525"/>
<defs>
<clipPath id="clip0_342_471">
<rect width="442" height="369" fill="white" transform="translate(165 432.5)"/>
</clipPath>
</defs>
</svg>
