<svg width="1504" height="328" viewBox="0 0 1504 328" fill="none" xmlns="http://www.w3.org/2000/svg">
<path d="M10.926 197.172V117.849L41.5187 148.442V197.172H10.926ZM134.171 51.8564H140.727V197.172H110.134V119.16L93.9634 135.549L87.6263 141.668L85.8782 143.416L80.4152 149.098L76.2633 153.031L55.7225 132.49L41.5187 118.286L10.926 87.6936V51.8564H18.3556L47.6373 81.138L76.2633 109.764L134.171 51.8564ZM163.079 52.949H292.005V83.5417H163.079V58.6305V52.949ZM193.672 135.549V166.579H292.005V197.172H163.079V172.261V166.579V104.738L193.672 104.957H279.113V135.549H193.672ZM448.122 188.431L453.367 197.172H417.529L415.781 194.55L378.633 133.583C377.759 133.801 376.885 134.02 376.011 134.238C375.574 134.238 375.137 134.238 374.918 134.238C374.7 134.457 374.481 134.457 374.263 134.457C373.826 134.457 373.388 134.457 372.951 134.675C372.733 134.675 372.514 134.675 372.296 134.675C371.64 134.675 371.203 134.894 370.766 134.894C370.111 134.894 369.674 134.894 369.237 134.894L369.018 135.112H368.581C368.144 135.112 367.707 135.112 367.27 135.112C367.27 135.112 367.051 135.112 366.833 135.112C366.396 135.112 366.177 135.112 365.74 135.112H365.303H365.085H364.866C364.429 135.112 363.992 135.331 363.555 135.331H344.544V197.172H313.951V104.52H363.555C369.018 104.52 374.481 103.427 379.507 101.46C379.726 101.242 379.726 101.242 379.944 101.242C384.751 99.0566 388.903 96.2158 392.618 92.501C395.459 89.8788 397.863 86.601 399.829 83.1047H379.507H313.951V52.5119H435.23L435.448 57.9749C435.667 59.5045 435.667 61.2527 435.667 63.0009C435.667 68.2453 435.23 73.4898 433.918 78.7343C431.078 92.2825 424.085 104.52 414.252 114.353C413.159 115.446 412.285 116.101 411.411 116.975C411.192 117.194 410.755 117.631 410.537 117.849C410.537 117.849 410.318 117.849 410.318 118.068C409.881 118.286 409.444 118.723 409.226 118.942C408.789 119.16 408.57 119.379 408.133 119.597C408.133 119.816 407.915 120.034 407.696 120.034L407.478 120.253C407.259 120.472 407.04 120.69 406.822 120.69L448.122 188.431ZM475.493 52.7304H506.086V197.172H475.493V52.7304Z" fill="#252525"/>
<path d="M708.814 188.429L714.058 197.17H678.221L676.473 194.548L639.325 133.581C638.45 133.799 637.576 134.018 636.702 134.236C636.265 134.236 635.828 134.236 635.61 134.236C635.391 134.455 635.173 134.455 634.954 134.455C634.517 134.455 634.08 134.455 633.643 134.673C633.425 134.673 633.206 134.673 632.987 134.673C632.332 134.673 631.895 134.892 631.458 134.892C630.802 134.892 630.365 134.892 629.928 134.892L629.71 135.11H629.273C628.836 135.11 628.399 135.11 627.962 135.11C627.962 135.11 627.743 135.11 627.525 135.11C627.087 135.11 626.869 135.11 626.432 135.11H625.995H625.776H625.558C625.121 135.11 624.684 135.329 624.247 135.329H605.236V197.17H574.643V104.518H624.247C629.71 104.518 635.173 103.425 640.199 101.458C640.417 101.24 640.417 101.24 640.636 101.24C645.443 99.0546 649.595 96.2139 653.31 92.499C656.151 89.8768 658.554 86.599 660.521 83.1027H640.199H574.643V52.51H695.921L696.14 57.973C696.358 59.5026 696.358 61.2507 696.358 62.9989C696.358 68.2434 695.921 73.4878 694.61 78.7323C691.769 92.2805 684.777 104.518 674.943 114.351C673.851 115.444 672.977 116.099 672.103 116.973C671.884 117.192 671.447 117.629 671.228 117.847C671.228 117.847 671.01 117.847 671.01 118.066C670.573 118.284 670.136 118.721 669.917 118.94C669.48 119.158 669.262 119.377 668.825 119.595C668.825 119.814 668.606 120.033 668.388 120.033L668.169 120.251C667.951 120.47 667.732 120.688 667.514 120.688L708.814 188.429ZM736.185 52.7285H766.778V197.17H736.185V52.7285ZM928.522 115.225C929.177 118.503 929.396 121.999 929.396 125.277C929.396 128.992 928.959 132.488 928.522 135.984C923.933 168.107 897.929 193.237 865.806 197.17H865.369H798.284V104.955H828.877V166.577H863.403C880.447 163.955 894.214 150.844 897.71 134.018C898.366 131.177 898.584 128.336 898.584 125.277C898.584 122.655 898.366 119.814 897.929 117.192C895.744 107.14 890.281 98.1806 881.977 92.062C876.951 88.3472 871.269 85.7249 865.151 84.4138C863.184 83.9768 860.999 83.7583 858.814 83.5397H798.284V52.947L862.529 53.1655C878.044 54.2581 893.121 60.5952 904.921 71.0841C917.814 82.4471 926.118 98.1806 928.522 115.225ZM951.29 52.947H1080.22V83.5397H951.29V58.6285V52.947ZM981.883 135.547V166.577H1080.22V197.17H951.29V172.259V166.577V104.736L981.883 104.955H1067.32V135.547H981.883Z" fill="#A7E92F"/>
<path d="M14.6455 257.512H44.75V262.638H14.6455V257.512ZM15.2964 283.793H49.5505V289H9.27546V232.045H48.33V237.253H15.2964V283.793ZM88.6158 289V279.562L88.3717 278.016V262.231C88.3717 258.597 87.3411 255.804 85.2799 253.851C83.273 251.898 80.2625 250.922 76.2486 250.922C73.4822 250.922 70.8514 251.383 68.3563 252.305C65.8611 253.227 63.7457 254.448 62.0099 255.966L59.4063 251.654C61.576 249.81 64.1796 248.4 67.2172 247.423C70.2548 246.393 73.4551 245.877 76.8181 245.877C82.3508 245.877 86.6089 247.26 89.5922 250.027C92.6298 252.739 94.1486 256.888 94.1486 262.475V289H88.6158ZM73.889 289.407C70.6887 289.407 67.8952 288.892 65.5086 287.861C63.1761 286.776 61.3861 285.312 60.1386 283.467C58.891 281.569 58.2672 279.399 58.2672 276.958C58.2672 274.734 58.7825 272.727 59.8131 270.937C60.8979 269.093 62.6337 267.628 65.0204 266.544C67.4613 265.405 70.7158 264.835 74.784 264.835H89.5108V269.147H74.9467C70.8243 269.147 67.9495 269.88 66.3222 271.344C64.7492 272.809 63.9626 274.626 63.9626 276.795C63.9626 279.236 64.9119 281.189 66.8104 282.654C68.7089 284.118 71.3667 284.85 74.784 284.85C78.0386 284.85 80.832 284.118 83.1645 282.654C85.5511 281.135 87.2869 278.965 88.3717 276.145L89.6736 280.131C88.5887 282.952 86.6902 285.203 83.9781 286.885C81.3202 288.566 77.9572 289.407 73.889 289.407ZM109.839 289V246.284H115.372V257.919L114.802 255.885C115.996 252.63 118.003 250.162 120.823 248.481C123.644 246.745 127.142 245.877 131.319 245.877V251.491C131.102 251.491 130.885 251.491 130.668 251.491C130.451 251.437 130.234 251.41 130.017 251.41C125.515 251.41 121.989 252.793 119.44 255.56C116.891 258.272 115.616 262.15 115.616 267.195V289H109.839ZM163.666 245.877C167.137 245.877 170.175 246.555 172.778 247.911C175.436 249.213 177.497 251.22 178.962 253.932C180.481 256.644 181.24 260.062 181.24 264.184V289H175.463V264.754C175.463 260.252 174.324 256.861 172.046 254.583C169.822 252.251 166.676 251.085 162.608 251.085C159.57 251.085 156.912 251.708 154.634 252.956C152.41 254.149 150.674 255.912 149.427 258.245C148.234 260.523 147.637 263.289 147.637 266.544V289H141.86V246.284H147.393V258L146.498 255.804C147.854 252.712 150.024 250.298 153.007 248.562C155.99 246.772 159.543 245.877 163.666 245.877ZM230.424 289V237.253H210.409V232.045H256.461V237.253H236.445V289H230.424ZM286.665 245.877C290.136 245.877 293.174 246.555 295.777 247.911C298.435 249.213 300.496 251.22 301.961 253.932C303.48 256.644 304.239 260.062 304.239 264.184V289H298.462V264.754C298.462 260.252 297.323 256.861 295.045 254.583C292.821 252.251 289.675 251.085 285.607 251.085C282.569 251.085 279.911 251.708 277.633 252.956C275.409 254.149 273.673 255.912 272.426 258.245C271.233 260.523 270.636 263.289 270.636 266.544V289H264.859V228.628H270.636V258L269.497 255.804C270.853 252.712 273.023 250.298 276.006 248.562C278.989 246.772 282.542 245.877 286.665 245.877ZM337.987 289.407C333.539 289.407 329.634 288.485 326.271 286.64C322.908 284.742 320.277 282.165 318.379 278.911C316.48 275.602 315.531 271.832 315.531 267.601C315.531 263.37 316.426 259.628 318.216 256.373C320.06 253.119 322.555 250.569 325.701 248.725C328.902 246.826 332.482 245.877 336.441 245.877C340.455 245.877 344.008 246.799 347.1 248.644C350.246 250.434 352.714 252.983 354.504 256.292C356.294 259.546 357.189 263.316 357.189 267.601C357.189 267.873 357.162 268.171 357.108 268.496C357.108 268.768 357.108 269.066 357.108 269.391H319.924V265.079H354.016L351.738 266.788C351.738 263.696 351.06 260.957 349.704 258.57C348.402 256.129 346.612 254.231 344.334 252.875C342.055 251.518 339.425 250.84 336.441 250.84C333.512 250.84 330.881 251.518 328.549 252.875C326.217 254.231 324.399 256.129 323.098 258.57C321.796 261.011 321.145 263.804 321.145 266.95V267.845C321.145 271.1 321.85 273.975 323.26 276.47C324.725 278.911 326.732 280.837 329.281 282.247C331.885 283.603 334.841 284.281 338.15 284.281C340.754 284.281 343.167 283.82 345.391 282.898C347.669 281.976 349.622 280.565 351.249 278.667L354.504 282.41C352.606 284.688 350.219 286.423 347.344 287.617C344.523 288.81 341.404 289.407 337.987 289.407ZM414.407 289.488C407.138 289.488 401.416 287.4 397.239 283.223C393.062 279.047 390.974 272.863 390.974 264.672V232.045H396.995V264.428C396.995 271.154 398.514 276.117 401.551 279.318C404.589 282.518 408.874 284.118 414.407 284.118C419.994 284.118 424.306 282.518 427.344 279.318C430.381 276.117 431.9 271.154 431.9 264.428V232.045H437.758V264.672C437.758 272.863 435.67 279.047 431.493 283.223C427.371 287.4 421.675 289.488 414.407 289.488ZM454.681 289V228.628H460.458V289H454.681ZM490.276 289.407C486.263 289.407 483.171 288.322 481.001 286.152C478.831 283.983 477.746 280.918 477.746 276.958V236.846H483.523V276.633C483.523 279.128 484.147 281.053 485.395 282.41C486.696 283.766 488.541 284.444 490.927 284.444C493.477 284.444 495.592 283.711 497.274 282.247L499.308 286.396C498.169 287.427 496.786 288.186 495.158 288.675C493.585 289.163 491.958 289.407 490.276 289.407ZM470.098 251.085V246.284H496.541V251.085H470.098ZM509.824 289V246.284H515.601V289H509.824ZM512.753 236.846C511.56 236.846 510.556 236.439 509.743 235.625C508.929 234.812 508.522 233.835 508.522 232.696C508.522 231.557 508.929 230.608 509.743 229.849C510.556 229.035 511.56 228.628 512.753 228.628C513.947 228.628 514.95 229.008 515.764 229.767C516.577 230.527 516.984 231.476 516.984 232.615C516.984 233.808 516.577 234.812 515.764 235.625C515.004 236.439 514.001 236.846 512.753 236.846ZM585.049 245.877C588.521 245.877 591.531 246.555 594.081 247.911C596.684 249.213 598.691 251.22 600.102 253.932C601.566 256.644 602.298 260.062 602.298 264.184V289H596.522V264.754C596.522 260.252 595.437 256.861 593.267 254.583C591.152 252.251 588.141 251.085 584.236 251.085C581.307 251.085 578.757 251.708 576.587 252.956C574.472 254.149 572.818 255.912 571.624 258.245C570.485 260.523 569.916 263.289 569.916 266.544V289H564.139V264.754C564.139 260.252 563.054 256.861 560.884 254.583C558.715 252.251 555.677 251.085 551.772 251.085C548.897 251.085 546.374 251.708 544.205 252.956C542.035 254.149 540.353 255.912 539.16 258.245C538.021 260.523 537.452 263.289 537.452 266.544V289H531.675V246.284H537.207V257.838L536.312 255.804C537.614 252.712 539.703 250.298 542.577 248.562C545.507 246.772 548.951 245.877 552.911 245.877C557.087 245.877 560.64 246.935 563.569 249.05C566.498 251.112 568.397 254.231 569.265 258.407L566.987 257.512C568.234 254.041 570.431 251.247 573.577 249.132C576.777 246.962 580.601 245.877 585.049 245.877ZM644.733 289V279.562L644.489 278.016V262.231C644.489 258.597 643.459 255.804 641.397 253.851C639.39 251.898 636.38 250.922 632.366 250.922C629.6 250.922 626.969 251.383 624.474 252.305C621.979 253.227 619.863 254.448 618.127 255.966L615.524 251.654C617.693 249.81 620.297 248.4 623.335 247.423C626.372 246.393 629.573 245.877 632.936 245.877C638.468 245.877 642.726 247.26 645.71 250.027C648.747 252.739 650.266 256.888 650.266 262.475V289H644.733ZM630.006 289.407C626.806 289.407 624.013 288.892 621.626 287.861C619.294 286.776 617.504 285.312 616.256 283.467C615.008 281.569 614.385 279.399 614.385 276.958C614.385 274.734 614.9 272.727 615.931 270.937C617.015 269.093 618.751 267.628 621.138 266.544C623.579 265.405 626.833 264.835 630.901 264.835H645.628V269.147H631.064C626.942 269.147 624.067 269.88 622.44 271.344C620.867 272.809 620.08 274.626 620.08 276.795C620.08 279.236 621.029 281.189 622.928 282.654C624.826 284.118 627.484 284.85 630.901 284.85C634.156 284.85 636.95 284.118 639.282 282.654C641.669 281.135 643.404 278.965 644.489 276.145L645.791 280.131C644.706 282.952 642.808 285.203 640.096 286.885C637.438 288.566 634.075 289.407 630.006 289.407ZM679.463 289.407C675.449 289.407 672.357 288.322 670.187 286.152C668.018 283.983 666.933 280.918 666.933 276.958V236.846H672.71V276.633C672.71 279.128 673.333 281.053 674.581 282.41C675.883 283.766 677.727 284.444 680.114 284.444C682.663 284.444 684.779 283.711 686.46 282.247L688.494 286.396C687.355 287.427 685.972 288.186 684.345 288.675C682.772 289.163 681.144 289.407 679.463 289.407ZM659.285 251.085V246.284H685.728V251.085H659.285ZM715.645 289.407C711.197 289.407 707.292 288.485 703.929 286.64C700.566 284.742 697.935 282.165 696.036 278.911C694.138 275.602 693.189 271.832 693.189 267.601C693.189 263.37 694.084 259.628 695.874 256.373C697.718 253.119 700.213 250.569 703.359 248.725C706.559 246.826 710.139 245.877 714.099 245.877C718.113 245.877 721.666 246.799 724.758 248.644C727.904 250.434 730.372 252.983 732.162 256.292C733.952 259.546 734.847 263.316 734.847 267.601C734.847 267.873 734.82 268.171 734.765 268.496C734.765 268.768 734.765 269.066 734.765 269.391H697.582V265.079H731.674L729.395 266.788C729.395 263.696 728.717 260.957 727.361 258.57C726.059 256.129 724.269 254.231 721.991 252.875C719.713 251.518 717.082 250.84 714.099 250.84C711.17 250.84 708.539 251.518 706.207 252.875C703.874 254.231 702.057 256.129 700.755 258.57C699.454 261.011 698.803 263.804 698.803 266.95V267.845C698.803 271.1 699.508 273.975 700.918 276.47C702.383 278.911 704.39 280.837 706.939 282.247C709.543 283.603 712.499 284.281 715.808 284.281C718.411 284.281 720.825 283.82 723.049 282.898C725.327 281.976 727.28 280.565 728.907 278.667L732.162 282.41C730.263 284.688 727.877 286.423 725.002 287.617C722.181 288.81 719.062 289.407 715.645 289.407ZM769.12 289V232.045H790.437C795.265 232.045 799.414 232.832 802.886 234.405C806.357 235.924 809.015 238.148 810.859 241.077C812.758 243.952 813.707 247.45 813.707 251.573C813.707 255.587 812.758 259.058 810.859 261.987C809.015 264.862 806.357 267.086 802.886 268.659C799.414 270.178 795.265 270.937 790.437 270.937H772.456L775.141 268.171V289H769.12ZM808.012 289L793.366 268.334H799.875L814.602 289H808.012ZM775.141 268.659L772.456 265.811H790.274C795.97 265.811 800.282 264.564 803.211 262.069C806.195 259.573 807.686 256.075 807.686 251.573C807.686 247.016 806.195 243.491 803.211 240.995C800.282 238.5 795.97 237.253 790.274 237.253H772.456L775.141 234.405V268.659ZM844.841 289.407C840.394 289.407 836.488 288.485 833.125 286.64C829.762 284.742 827.131 282.165 825.233 278.911C823.334 275.602 822.385 271.832 822.385 267.601C822.385 263.37 823.28 259.628 825.07 256.373C826.914 253.119 829.41 250.569 832.556 248.725C835.756 246.826 839.336 245.877 843.296 245.877C847.31 245.877 850.862 246.799 853.954 248.644C857.1 250.434 859.568 252.983 861.358 256.292C863.148 259.546 864.043 263.316 864.043 267.601C864.043 267.873 864.016 268.171 863.962 268.496C863.962 268.768 863.962 269.066 863.962 269.391H826.779V265.079H860.87L858.592 266.788C858.592 263.696 857.914 260.957 856.558 258.57C855.256 256.129 853.466 254.231 851.188 252.875C848.91 251.518 846.279 250.84 843.296 250.84C840.366 250.84 837.736 251.518 835.403 252.875C833.071 254.231 831.254 256.129 829.952 258.57C828.65 261.011 827.999 263.804 827.999 266.95V267.845C827.999 271.1 828.704 273.975 830.115 276.47C831.579 278.911 833.586 280.837 836.136 282.247C838.739 283.603 841.695 284.281 845.004 284.281C847.608 284.281 850.022 283.82 852.246 282.898C854.524 281.976 856.476 280.565 858.104 278.667L861.358 282.41C859.46 284.688 857.073 286.423 854.198 287.617C851.378 288.81 848.259 289.407 844.841 289.407ZM883.713 289L867.603 246.284H873.136L887.781 285.908H885.259L900.311 246.284H905.274L920.164 285.908H917.642L932.531 246.284H937.82L921.628 289H916.177L901.857 251.735H903.566L889.164 289H883.713ZM972.015 289V279.562L971.771 278.016V262.231C971.771 258.597 970.741 255.804 968.68 253.851C966.673 251.898 963.662 250.922 959.648 250.922C956.882 250.922 954.251 251.383 951.756 252.305C949.261 253.227 947.145 254.448 945.41 255.966L942.806 251.654C944.976 249.81 947.579 248.4 950.617 247.423C953.654 246.393 956.855 245.877 960.218 245.877C965.75 245.877 970.008 247.26 972.992 250.027C976.029 252.739 977.548 256.888 977.548 262.475V289H972.015ZM957.289 289.407C954.088 289.407 951.295 288.892 948.908 287.861C946.576 286.776 944.786 285.312 943.538 283.467C942.291 281.569 941.667 279.399 941.667 276.958C941.667 274.734 942.182 272.727 943.213 270.937C944.298 269.093 946.033 267.628 948.42 266.544C950.861 265.405 954.115 264.835 958.184 264.835H972.91V269.147H958.346C954.224 269.147 951.349 269.88 949.722 271.344C948.149 272.809 947.362 274.626 947.362 276.795C947.362 279.236 948.311 281.189 950.21 282.654C952.108 284.118 954.766 284.85 958.184 284.85C961.438 284.85 964.232 284.118 966.564 282.654C968.951 281.135 970.686 278.965 971.771 276.145L973.073 280.131C971.988 282.952 970.09 285.203 967.378 286.885C964.72 288.566 961.357 289.407 957.289 289.407ZM993.239 289V246.284H998.771V257.919L998.202 255.885C999.395 252.63 1001.4 250.162 1004.22 248.481C1007.04 246.745 1010.54 245.877 1014.72 245.877V251.491C1014.5 251.491 1014.28 251.491 1014.07 251.491C1013.85 251.437 1013.63 251.41 1013.42 251.41C1008.91 251.41 1005.39 252.793 1002.84 255.56C1000.29 258.272 999.015 262.15 999.015 267.195V289H993.239ZM1041.87 289.407C1037.8 289.407 1034.14 288.485 1030.88 286.64C1027.68 284.796 1025.16 282.247 1023.32 278.992C1021.47 275.683 1020.55 271.887 1020.55 267.601C1020.55 263.262 1021.47 259.465 1023.32 256.21C1025.16 252.956 1027.68 250.434 1030.88 248.644C1034.14 246.799 1037.8 245.877 1041.87 245.877C1045.61 245.877 1048.95 246.718 1051.88 248.4C1054.86 250.081 1057.22 252.549 1058.95 255.804C1060.74 259.004 1061.64 262.937 1061.64 267.601C1061.64 272.212 1060.77 276.145 1059.04 279.399C1057.3 282.654 1054.94 285.149 1051.96 286.885C1049.03 288.566 1045.66 289.407 1041.87 289.407ZM1042.27 284.281C1045.31 284.281 1048.02 283.603 1050.41 282.247C1052.85 280.837 1054.75 278.884 1056.11 276.389C1057.52 273.839 1058.22 270.91 1058.22 267.601C1058.22 264.238 1057.52 261.309 1056.11 258.814C1054.75 256.319 1052.85 254.393 1050.41 253.037C1048.02 251.627 1045.31 250.922 1042.27 250.922C1039.29 250.922 1036.61 251.627 1034.22 253.037C1031.83 254.393 1029.93 256.319 1028.52 258.814C1027.11 261.309 1026.41 264.238 1026.41 267.601C1026.41 270.91 1027.11 273.839 1028.52 276.389C1029.93 278.884 1031.83 280.837 1034.22 282.247C1036.61 283.603 1039.29 284.281 1042.27 284.281ZM1058.38 289V276.145L1058.95 267.52L1058.14 258.895V228.628H1063.92V289H1058.38Z" fill="#252525"/>
<g clip-path="url(#clip0_346_1412)">
<path fill-rule="evenodd" clip-rule="evenodd" d="M1307 0.000168427C1373.04 0.000168427 1429.9 39.2221 1455.43 95.5878C1452.71 95.1063 1449.9 95.5832 1447.49 96.9372C1445.08 98.2911 1443.22 100.438 1442.22 103.011C1440.99 102.141 1439.54 101.641 1438.04 101.572C1436.53 101.503 1435.04 101.867 1433.74 102.62C1434.36 97.9127 1433.11 93.1488 1430.26 89.3513C1427.4 85.5538 1423.16 83.0256 1418.46 82.3095C1413.75 81.5935 1408.95 82.7467 1405.09 85.5215C1401.23 88.2963 1398.61 92.4715 1397.8 97.1506C1395.35 95.343 1392.33 94.4929 1389.3 94.7614C1386.27 95.0299 1383.44 96.3984 1381.35 98.6074C1379.26 100.816 1378.06 103.713 1377.97 106.747C1377.88 109.782 1378.91 112.744 1380.86 115.072L1351.1 119.862L1416.08 120.026L1464.25 120.147C1467.97 133.944 1469.85 148.169 1469.84 162.455C1469.84 252.163 1396.94 324.883 1307.02 324.883C1217.1 324.883 1144.18 252.136 1144.18 162.428C1144.14 129.599 1154.11 97.5341 1172.77 70.4973L1220.26 70.7044L1270.93 70.9271L1244.92 67.1998C1245.75 65.7843 1246.3 64.2181 1246.53 62.5908C1246.76 60.9634 1246.67 59.3067 1246.26 57.7153C1245.85 56.1239 1245.12 54.629 1244.13 53.3158C1243.14 52.0026 1241.9 50.897 1240.48 50.062C1239.07 49.2269 1237.5 48.6789 1235.86 48.4492C1234.23 48.2194 1232.57 48.3124 1230.98 48.7229C1229.38 49.1334 1227.88 49.8534 1226.57 50.8417C1225.25 51.8299 1224.14 53.0671 1223.31 54.4827C1221.42 53.9289 1219.43 53.91 1217.54 54.428C1217.62 53.7804 1217.67 53.1278 1217.67 52.4745C1217.67 48.5681 1216.15 44.8134 1213.44 41.9985C1210.72 39.1836 1207.02 37.5276 1203.1 37.378C1232.28 13.1728 1269.05 -0.0544423 1307 0.000168427Z" fill="#A7E92F"/>
<path fill-rule="evenodd" clip-rule="evenodd" d="M1186.64 30.7832C1186.64 30.7832 1187.36 36.9796 1188.95 39.5739C1190.55 42.1681 1191.7 44.5982 1191.63 46.2157C1191.63 46.2157 1193.35 45.7742 1194.49 45.9969C1195.63 46.2196 1195.91 46.5478 1196.29 46.5868C1196.29 46.5868 1195.53 46.7822 1195.04 46.8721C1194.56 46.9619 1194.2 48.3723 1193.09 48.5559C1194.4 49.6227 1195.65 50.7587 1196.85 51.9589C1198.1 53.3146 1200.34 55.3345 1202.47 55.901C1202.47 55.901 1198.86 56.0417 1197.19 55.3502C1194.68 54.1952 1192.42 52.5704 1190.53 50.5641C1190.53 50.5641 1186.42 50.5641 1185.87 50.5641C1185.33 50.5641 1179.55 54.0218 1178.3 54.7055C1178.3 54.7055 1182.38 51.9277 1183.91 50.4665C1183.91 50.4665 1177.04 51.1267 1175.78 51.1971C1175.78 51.1971 1183.29 49.8921 1184.17 49.5796C1185.05 49.267 1186.52 47.8527 1187.83 47.2354C1187.83 47.2354 1186.49 45.3132 1185.04 40.8084C1183.58 36.3037 1186.64 30.7832 1186.64 30.7832Z" fill="#051E34"/>
<path fill-rule="evenodd" clip-rule="evenodd" d="M1223.06 60.7695C1223.06 60.7695 1223.45 64.2858 1224.38 65.7704C1225.3 67.2551 1225.94 68.6264 1225.9 69.5563C1226.43 69.4179 1226.98 69.3756 1227.53 69.4312C1227.87 69.5238 1228.21 69.636 1228.55 69.7672C1228.55 69.7672 1228.12 69.8767 1227.84 69.9274C1227.57 69.9782 1227.36 70.7831 1226.72 70.8846C1227.47 71.4974 1228.18 72.1495 1228.86 72.8381C1229.57 73.6195 1230.85 74.7564 1232.05 75.0807C1232.05 75.0807 1230 75.1588 1229.05 74.7681C1227.62 74.1072 1226.34 73.1787 1225.26 72.0333H1222.61C1222.3 72.0333 1219.02 73.9868 1218.3 74.3774C1219.41 73.6326 1220.48 72.8279 1221.5 71.9669C1221.5 71.9669 1217.58 72.3576 1216.87 72.3849C1216.87 72.3849 1221.15 71.6387 1221.64 71.4629C1222.14 71.2871 1222.98 70.4822 1223.72 70.1306C1223.72 70.1306 1222.97 69.0366 1222.14 66.4776C1221.31 63.9185 1223.06 60.7695 1223.06 60.7695Z" fill="#051E34"/>
<path fill-rule="evenodd" clip-rule="evenodd" d="M1177.2 74.9785C1177.2 74.9785 1177.7 79.3699 1178.83 81.2296C1179.97 83.0894 1180.77 84.7889 1180.73 85.9453C1181.39 85.7729 1182.08 85.7212 1182.76 85.793C1183.19 85.9094 1183.61 86.0476 1184.03 86.2071C1184.03 86.2071 1183.5 86.3478 1183.15 86.4103C1182.81 86.4728 1182.55 87.473 1181.75 87.5824C1182.68 88.3386 1183.57 89.1432 1184.42 89.9929C1185.3 90.9541 1186.89 92.384 1188.4 92.7903C1188.4 92.7903 1185.84 92.888 1184.66 92.3996C1182.88 91.5816 1181.28 90.4303 1179.94 89.0084C1179.94 89.0084 1177.02 89.0084 1176.63 89.0084C1176.25 89.0084 1172.16 91.462 1171.27 91.9425C1172.65 91.0135 1173.98 90.0119 1175.25 88.942C1175.25 88.942 1170.38 89.4069 1169.48 89.4577C1169.48 89.4577 1174.8 88.5318 1175.43 88.313C1176.06 88.0942 1177.1 87.0901 1178.02 86.6525C1178.02 86.6525 1177.08 85.2929 1176.06 82.1009C1175.05 78.9089 1177.2 74.9785 1177.2 74.9785Z" fill="#051E34"/>
<path fill-rule="evenodd" clip-rule="evenodd" d="M1454.36 231.373C1443.44 254.46 1427.24 274.667 1407.06 290.368H1206.94C1168.75 260.644 1144.18 214.3 1144.18 162.22C1144.18 156.75 1144.44 151.35 1144.97 146.018C1145.11 146.427 1145.18 146.856 1145.17 147.288V158.829H1151.2V203.04H1154.26V193.245H1161.79V185.103H1165.42V174.793H1173.29V185.103H1184.92V216.011H1189.13V223.169H1199.69V243.368H1204.28V207.99C1202.56 193.003 1199.88 175.844 1196.06 167.987C1193.79 168.905 1191.19 170.601 1189.17 171.984L1187.16 170.862L1188.46 172.468C1186.56 173.808 1184.78 175.226 1183.14 176.645L1182.16 175.625L1182.72 177.008C1181.12 178.411 1179.65 179.813 1178.35 181.138C1178.4 169.616 1187.89 167.612 1192.56 167.893C1190.35 167.362 1188.12 166.944 1185.92 166.623L1185 163.732L1184.81 166.467C1181.74 166.076 1178.71 165.834 1175.82 165.74L1175.8 163.861L1175.09 165.717C1172.25 165.639 1169.55 165.686 1167.07 165.795C1178.03 154.109 1189.65 161.841 1193.49 166.291C1191.93 163.529 1190.2 160.876 1188.4 158.345L1190.32 154.852L1187.55 157.145C1185.16 153.863 1182.63 150.8 1180.11 147.975L1181.87 146.245L1179.47 147.257C1176.97 144.498 1174.48 141.978 1172.13 139.732C1189.22 139.587 1194.52 151.402 1195.5 159.962C1197.88 151.687 1205 140.994 1221.74 143.822C1219.06 145.67 1216.21 147.761 1213.3 150.073L1211.1 148.706L1212.57 150.691C1209.63 153.082 1206.65 155.711 1203.76 158.571L1201.38 155.868L1202.72 159.618C1202.39 159.95 1202.07 160.286 1201.74 160.626C1206.25 157.958 1212.55 156.95 1219.58 162.611C1217.32 162.822 1214.88 163.123 1212.29 163.545L1211.42 161.951L1211.63 163.658C1209.02 164.111 1206.31 164.693 1203.57 165.447L1203.05 162.99L1202.58 165.725C1200.52 166.323 1198.46 167.018 1196.43 167.827C1198.48 170.788 1202.7 178.95 1206.97 199.735H1208.49V196.762H1216.32V188.557H1221.7V183.337C1221.71 182.383 1222.09 181.468 1222.76 180.794C1223.44 180.119 1224.36 179.74 1225.31 179.739C1226.27 179.741 1227.19 180.121 1227.86 180.795C1228.54 181.47 1228.92 182.384 1228.92 183.337V188.557H1234.31V196.762H1236.79V238.59H1241.32V183.74H1252.72V173.687H1262.8V183.74H1265.15V237.05H1272.83V222.938H1284.74V216.324H1294.63V222.938H1296.67V250.232H1301.67V237.503H1304.02V211.217H1305.76V204.966H1315.62V211.217H1318.25V200.223C1318.25 199.453 1318.56 198.714 1319.1 198.169C1319.65 197.623 1320.39 197.316 1321.16 197.312C1321.94 197.315 1322.68 197.622 1323.22 198.167C1323.77 198.713 1324.08 199.452 1324.08 200.223V211.217H1327.21V237.48H1329.56V262.121H1333.74V244.301H1341.77V248.99H1347.22V244.301H1352.16V241.125H1360.06V216.382H1365.93V215.288L1377.95 206.638V216.382H1385.14V207.951H1393.27V166.76H1395.31V162.943H1398.19V155.707H1399.86V153.32H1403.05V151.05C1403.05 150.027 1403.46 149.046 1404.19 148.323C1404.91 147.6 1405.9 147.192 1406.92 147.19C1407.95 147.193 1408.93 147.601 1409.65 148.324C1410.38 149.047 1410.79 150.027 1410.79 151.05V153.316H1413.98V162.939H1422.92V166.756H1426.23V237.941H1430.26V222.352H1439.13V216.386H1441.92V213.73C1441.93 212.845 1442.28 211.997 1442.91 211.371C1443.53 210.745 1444.38 210.392 1445.27 210.389C1446.16 210.392 1447.01 210.745 1447.63 211.371C1448.26 211.997 1448.62 212.845 1448.62 213.73V216.386H1451.41V222.352H1454.35L1454.36 231.373Z" fill="black"/>
<path fill-rule="evenodd" clip-rule="evenodd" d="M1271.22 247.759C1269.98 247.759 1268.75 247.919 1267.52 247.512C1265.96 246.989 1265.47 245.981 1265.88 244.469C1266.28 242.957 1267.2 242.515 1268.7 242.906C1270.66 243.406 1272.62 243.758 1274.48 244.594C1275.34 244.985 1276.25 245.45 1276.05 246.614C1275.84 247.778 1274.81 247.634 1274.01 247.72C1273.09 247.821 1272.15 247.759 1271.22 247.759Z" fill="#0A1B49"/>
<path fill-rule="evenodd" clip-rule="evenodd" d="M1470.98 256.99V300.841L1388.93 314.419L1306.9 328L1224.85 314.419L1142.82 300.841V256.99H1148.44C1148.05 256.779 1147.16 256.123 1151.84 256.023C1157.42 255.904 1162.36 254.319 1169.34 252.97C1176.31 251.621 1178.06 251.941 1182.82 252.813C1187.58 253.685 1187.12 249.72 1197.52 253.487C1207.92 257.253 1226.93 255.27 1234.31 253.168C1241.7 251.067 1247.57 247.702 1251.93 249.086C1256.29 250.47 1255.24 251.149 1257.68 250.08C1260.12 249.012 1261.63 247.938 1267.39 249.683C1273.14 251.427 1285.17 251.111 1297.95 249.683C1310.74 248.254 1305.1 249.961 1313.76 248.651C1322.43 247.342 1321.14 245.879 1325.38 247.702C1329.63 249.526 1329.51 247.066 1334.8 247.225C1340.09 247.384 1336.2 246.038 1341.55 244.927C1346.89 243.816 1352.01 250.319 1374.32 253.171C1396.64 256.023 1412.8 246.592 1418.61 247.384C1424.42 248.177 1424.77 253.012 1430.58 251.032C1436.4 249.051 1439.2 250.398 1446.97 253.25C1453.63 255.688 1462.55 256.729 1465.03 256.992L1470.98 256.99Z" fill="black"/>
<path d="M1275.94 63.1602H1339.39L1347.13 63.6748L1356.42 66.7625L1362.61 69.3355L1373.44 73.967L1378.08 77.0547L1381.69 80.657L1385.82 86.8324L1387.88 90.4347V94.037L1381.69 100.212L1377.57 103.815L1377.05 138.808L1377.57 151.159L1380.66 154.247L1381.18 232.468V248.936L1380.14 249.965L1373.95 251.509L1372.92 252.023L1371.89 272.608L1369.83 275.181L1368.28 275.696H1364.15L1359.51 274.152L1359 273.123L1358.48 263.859V256.655L1324.43 257.169L1319.27 257.684L1319.79 276.21L1332.17 276.725L1333.2 277.239V280.327L1331.66 281.871L1327.53 282.386H1322.89L1323.4 285.988L1319.79 288.046L1319.27 305.029L1318.76 306.058L1316.18 306.572L1312.57 305.029V322.011L1312.05 329.73L1309.47 332.818L1307.41 333.332L1303.28 331.788L1301.74 330.245L1301.22 328.186L1300.7 304.514L1297.09 307.087L1295.03 306.572L1294.51 305.029V297.309L1295.03 284.444L1294.51 282.9L1291.42 281.871L1285.23 281.356H1281.1L1280.07 280.327L1280.59 277.754L1281.1 277.239H1291.42L1289.87 268.491L1290.39 263.859L1292.97 260.772L1293.48 258.713L1292.45 258.199L1282.65 257.684H1254.79L1254.28 269.006L1252.73 274.152L1250.67 275.696L1246.54 276.21L1241.9 275.181L1240.35 272.608L1239.83 250.994L1233.64 250.48L1232.61 248.421L1232.1 212.913V194.387L1232.61 154.761L1236.22 151.159V103.815L1233.64 101.242L1228.49 97.1247L1225.39 93.5224L1225.91 90.4347L1229 84.7739L1233.13 79.6278L1237.26 75.5109L1243.45 72.4232L1259.44 65.7332L1266.14 63.6748L1275.94 63.1602ZM1240.35 115.136L1241.38 118.738L1244.48 120.797L1246.02 120.282L1245.51 117.195L1242.41 115.136H1240.35ZM1251.7 122.341L1250.67 123.37L1249.64 130.06V144.469L1250.67 146.528L1252.21 147.042H1364.15V125.428L1362.09 122.855L1358.48 122.341L1339.91 123.37H1274.4L1259.44 122.855L1251.7 122.341ZM1285.74 278.783L1286.26 280.327L1286.78 278.783H1285.74Z" fill="#6D981E"/>
<path d="M1275.94 63.1602H1339.39L1347.13 63.6748L1356.42 66.7625L1362.61 69.3355L1373.44 73.967L1378.08 77.0547L1381.69 80.657L1385.82 86.8324L1387.88 90.4347V94.037L1381.69 100.212L1377.57 103.815L1377.05 105.358H1376.02L1374.47 107.932L1366.73 114.107L1364.15 115.651L1361.57 118.738L1357.96 119.768L1325.46 120.282H1268.21L1257.89 119.768L1253.25 118.224L1249.12 114.622L1247.57 109.99L1246.02 110.505L1243.45 109.475L1242.93 107.932L1241.38 107.417V106.388L1239.32 105.873L1238.29 102.785V95.5808L1238.8 90.9493L1237.77 91.9785L1237.26 102.271L1236.22 103.3L1229 97.6393L1225.39 93.5224L1225.91 90.4347L1229 84.7739L1233.13 79.6278L1237.26 75.5109L1243.45 72.4232L1259.44 65.7332L1266.14 63.6748L1275.94 63.1602Z" fill="#464240"/>
<path d="M1237.26 90.9492H1238.8V102.785L1239.84 105.873L1241.38 106.388L1243.96 109.475L1247.57 109.99L1248.09 108.961L1249.64 114.621L1254.28 118.224L1257.89 119.253L1273.37 119.768H1325.47L1357.96 119.253L1361.58 118.738L1362.61 116.68L1365.19 114.107L1368.8 112.048L1373.44 107.931H1374.47L1375.5 104.844H1377.57L1377.05 138.808L1377.57 151.159L1380.66 154.247L1381.18 232.468V248.936L1380.15 249.965L1373.96 251.509L1372.41 252.023V250.479H1358.48L1357.96 253.053H1346.1L1341.46 252.023H1319.28L1318.76 229.895L1317.73 228.351L1313.09 227.836L1312.05 226.293L1309.47 227.836H1304.32L1300.71 225.263L1298.64 221.661L1299.16 217.03L1301.22 213.942L1303.8 212.398L1305.35 211.883H1308.96L1312.05 213.942L1314.12 216.515L1314.63 217.544V226.293L1317.21 226.807H1318.76L1318.24 224.749L1319.79 223.205L1321.86 217.544L1321.34 213.942L1320.31 213.427L1321.34 208.281L1322.89 206.737L1324.95 209.31L1325.98 212.913V219.088L1324.43 224.234L1322.37 227.836V231.439L1323.4 233.497L1323.92 239.158L1324.43 242.76L1347.65 243.275H1380.15L1378.6 239.158L1376.02 236.07L1375.5 210.34L1373.96 199.018L1374.47 195.416L1375.5 193.357V175.86L1366.73 173.802L1365.19 169.685V149.615H1249.12L1248.6 153.732L1248.09 171.744L1246.54 173.287L1243.45 173.802V174.831H1237.26V232.468L1236.22 238.129L1234.16 241.216L1233.65 243.789L1254.28 244.304L1290.39 244.819L1291.94 249.45L1290.9 250.479L1271.82 251.509L1273.37 253.053H1254.28L1253.76 251.509L1240.35 250.994V255.111H1239.84V250.994L1233.65 250.479L1232.61 248.421L1232.1 212.913V194.387L1232.61 154.761L1236.22 151.159V103.3L1236.74 99.6977L1237.26 90.9492ZM1240.35 115.136L1241.38 118.738L1244.48 120.797L1246.03 120.282L1245.51 117.195L1242.41 115.136H1240.35ZM1251.7 122.341L1250.67 123.37L1249.64 130.06V144.469L1250.67 146.527L1252.22 147.042H1364.15V125.428L1362.09 122.855L1358.48 122.341L1339.91 123.37H1274.4L1259.44 122.855L1251.7 122.341Z" fill="#30312F"/>
<path d="M1296.06 227.322L1298.64 228.351L1299.67 234.527L1302.25 235.041H1314.63V228.351L1315.15 227.837H1317.73L1319.27 229.895L1319.79 251.509H1341.46L1346.61 252.538H1357.96L1358.48 250.48L1359.51 249.965H1371.38L1372.41 250.48V264.889L1371.89 272.608L1369.83 275.181L1368.28 275.696H1364.15L1359.51 274.152L1358.99 273.123L1358.48 263.86V256.655L1324.43 257.17L1319.27 257.684L1319.79 276.211L1332.17 276.725L1333.2 277.24V280.327L1331.66 281.871L1327.53 282.386H1322.89L1323.4 285.988L1319.79 288.047L1319.27 305.029L1318.76 306.058L1316.18 306.573L1312.57 305.029V322.011L1312.05 329.73L1309.47 332.818L1307.41 333.333L1303.28 331.789L1301.74 330.245L1301.22 328.187L1300.7 304.514L1297.09 307.087L1295.03 306.573L1294.51 305.029V297.31L1295.03 284.444L1294.51 282.901L1291.42 281.871L1285.23 281.357H1281.1L1280.07 280.327L1280.59 277.754L1281.1 277.24H1291.42L1289.87 268.491L1290.39 263.86L1292.97 260.772L1293.48 258.714L1292.45 258.199L1282.65 257.684V257.17L1291.42 256.655L1295.03 255.626L1294.51 250.994L1294 250.48V236.071L1294.51 228.351L1296.06 227.322ZM1285.74 278.784L1286.26 280.327L1286.78 278.784H1285.74Z" fill="#464240"/>
<path d="M1246.54 172.258H1248.09L1248.6 187.696H1249.64L1252.22 185.638L1256.34 183.579L1257.37 182.035L1255.31 181.521L1255.83 178.948L1269.75 175.345L1272.85 173.802L1276.98 173.287L1279.04 175.86L1280.07 177.404L1279.55 180.492L1277.49 182.55L1272.85 183.065L1271.3 182.035H1267.69L1259.44 184.609L1253.76 186.667L1253.25 187.696H1252.22V188.725H1274.91L1287.81 189.24L1289.87 194.386L1289.36 195.93H1239.83V213.942L1239.32 226.807L1238.8 230.409L1291.94 230.924L1290.39 226.292L1288.84 224.234L1287.81 219.088V213.942L1288.84 208.795L1292.45 205.708L1294.51 206.222L1295.55 209.31H1319.28V204.678L1322.37 206.222L1321.34 209.31L1320.82 213.427L1321.85 214.971L1322.37 218.058L1319.79 224.234L1318.24 224.748L1318.76 226.807L1315.15 227.321L1314.12 226.292V217.544L1312.05 214.456L1308.96 212.398H1305.35L1301.74 213.942L1299.67 217.029L1299.16 221.661L1301.74 225.778L1304.32 227.321H1309.47L1312.57 225.778L1313.08 227.836L1315.15 228.351L1314.63 235.041L1313.6 235.555H1302.25L1299.16 234.526L1298.13 228.351L1296.06 227.836L1295.03 228.351L1294.51 236.07V250.479L1295.03 250.994V255.625L1291.42 257.169L1254.79 257.684L1254.28 269.005L1252.73 274.151L1250.67 275.695L1246.54 276.21L1241.9 275.181L1240.35 272.607V250.994H1253.76L1254.28 253.052L1272.85 252.538L1271.3 251.508L1271.82 250.994L1290.9 249.964L1291.42 248.421L1290.39 244.818H1254.28L1234.68 244.304L1233.64 243.789L1234.16 240.187L1235.71 238.128L1236.74 231.953L1237.26 174.831L1240.35 174.316L1242.41 173.802L1243.45 173.287H1246.54V172.258Z" fill="#46423F"/>
<path d="M1275.94 63.1602H1339.39L1347.13 63.6748L1356.42 66.7625L1362.61 69.3355L1373.44 73.967L1378.08 77.0547L1381.69 80.657L1385.82 86.8324L1387.88 90.4347V92.4931L1383.76 91.9785V90.9493L1378.6 89.4055L1372.41 87.347L1364.15 84.2593L1353.84 80.1424L1344.04 77.0547L1339.39 76.5401H1270.27L1255.31 81.6862L1249.12 84.2593L1237.77 88.3762L1230.03 90.9493H1226.94L1226.42 88.8908L1232.1 80.657L1237.25 75.5109L1243.44 72.4232L1259.44 65.7332L1266.14 63.6748L1275.94 63.1602Z" fill="#30312F"/>
<path d="M1376.53 138.809H1377.05L1377.57 151.159L1380.66 154.247L1381.18 232.468V248.936L1380.14 249.965L1373.95 251.509L1372.41 252.024V250.48H1358.48L1357.96 253.053H1346.1L1341.46 252.024H1319.27L1318.76 229.895L1317.73 228.351L1313.08 227.837L1312.05 226.293L1309.47 227.837H1304.31L1300.7 225.264L1298.64 221.661L1299.16 217.03L1301.22 213.942L1303.8 212.398L1305.35 211.884H1308.96L1312.05 213.942L1314.12 216.515L1314.63 217.544V226.293L1317.21 226.808H1318.76L1318.24 224.749L1319.79 223.205L1321.85 217.544L1321.34 213.942L1320.31 213.428L1321.34 208.281L1322.89 206.738L1324.95 209.311L1325.98 212.913V219.088L1324.43 224.234L1322.37 227.837V231.439L1323.4 233.498L1323.92 239.158L1324.43 242.761L1347.65 243.275H1380.14L1378.6 239.158L1376.02 236.071L1375.5 210.34L1373.95 199.018L1374.47 195.416L1375.5 193.358V175.861L1366.73 173.802L1365.18 169.685V159.908L1366.22 154.247L1368.8 154.762L1369.83 155.791L1371.38 154.247H1374.99L1375.5 150.645L1376.02 141.896L1376.53 138.809Z" fill="black"/>
<path d="M1365.7 170.715L1366.73 171.744V173.803H1369.83L1375.5 175.861L1376.02 186.153V193.358L1374.47 197.475L1374.99 202.621L1376.02 210.34L1376.54 236.071L1379.63 239.673L1380.15 243.275L1371.38 243.79H1347.65L1325.98 243.275L1324.43 242.761L1323.4 239.158L1322.89 233.498L1322.37 231.439H1338.88L1374.47 231.954L1373.44 213.942L1372.92 197.989L1371.89 195.931H1327.01L1323.92 194.902L1325.47 189.241L1325.98 188.726L1361.06 188.212L1359.51 187.182V186.153L1353.84 184.609L1344.55 181.522L1341.46 183.066H1337.33L1334.24 180.493V176.376L1335.27 173.803L1339.39 173.288L1342.49 174.317L1344.04 175.861L1357.96 178.434L1358.48 178.949V182.036L1356.42 183.066L1357.96 184.095L1362.09 185.124L1363.12 188.212H1366.22L1365.7 170.715Z" fill="#464240"/>
<path d="M1236.74 108.447H1237.26L1237.77 113.593L1238.8 114.108L1239.32 113.079L1241.9 113.593L1243.45 115.652L1240.35 115.137L1239.84 116.681L1237.77 116.166V148.073L1238.8 151.675V154.248L1244.48 155.792H1248.09V171.745L1246.54 173.289L1243.45 173.803V174.832H1237.26V232.469L1236.22 238.13L1234.16 241.218L1233.65 243.791L1254.28 244.305L1290.39 244.82L1291.94 249.451L1290.9 250.481L1271.82 251.51L1273.37 253.054H1254.28L1253.76 251.51L1240.35 250.995V255.112H1239.84V250.995L1233.65 250.481L1232.61 248.422L1232.1 212.914V194.388L1232.61 154.762L1236.22 151.16L1236.74 108.447Z" fill="#30312F"/>
<path d="M1296.58 176.375H1316.18L1318.24 177.404L1318.76 178.948L1319.28 186.153L1319.79 188.726L1321.85 189.24L1320.82 194.386V203.135L1323.4 206.223L1325.47 208.281L1326.5 212.398V220.117L1324.95 225.263L1322.89 228.351L1322.37 229.895L1325.47 229.38L1332.69 229.895H1346.62L1372.92 230.924L1373.44 213.942H1373.96L1374.47 220.632V231.953H1335.78L1321.85 231.439V227.836L1324.43 223.205L1325.47 219.088V212.913L1323.92 208.281L1321.85 206.223L1319.79 205.193L1319.28 209.31L1317.73 209.825H1295.55L1294 206.223L1291.94 206.737L1289.36 208.796L1288.32 213.942V219.088L1288.84 223.719L1287.81 222.69L1287.29 220.117V211.369L1288.84 207.252L1291.94 204.679L1293.48 201.591L1292.97 195.93L1291.94 189.755L1294 187.696L1294.51 182.55L1295.55 176.89L1296.58 176.375Z" fill="black"/>
<path d="M1275.94 63.1602H1339.39L1347.13 63.6748L1349.71 64.704L1347.65 66.2478L1345.58 67.2771L1344.55 68.8209V73.967L1341.97 74.9963H1273.36L1268.21 73.4524L1263.05 69.3355H1258.92L1249.64 72.4232L1244.48 73.967L1241.38 74.9963H1238.8L1239.83 73.967L1256.86 66.7625L1266.14 63.6748L1275.94 63.1602Z" fill="#30312F"/>
<path d="M1237.26 90.9492H1238.8V102.785L1239.84 105.873L1241.38 106.388L1243.96 109.475L1247.57 109.99L1248.09 108.961L1249.64 114.621L1254.28 118.224L1257.89 119.253L1273.37 119.768H1325.47L1357.96 119.253L1361.58 118.738L1362.61 116.68L1365.19 114.107L1368.8 112.048L1373.44 107.931H1374.47L1375.5 104.844H1377.57L1377.05 136.235L1376.02 134.177V126.458L1375.5 125.428H1376.54V124.399H1375.5L1376.02 120.797V117.709H1374.47L1373.44 118.738L1370.86 120.797L1367.25 122.341H1364.67V121.311H1363.64V124.399L1361.06 122.855L1339.91 123.884H1274.4L1259.44 123.37L1251.7 122.855L1250.67 126.458L1247.06 123.37L1243.96 121.826L1239.84 120.282H1237.26V116.165H1239.32H1240.87L1241.9 118.738L1244.48 120.282H1245.51L1244.99 117.195L1241.38 113.592L1239.32 113.078L1238.8 114.621L1237.26 113.592L1236.22 103.3L1236.74 99.6977L1237.26 90.9492Z" fill="#30312F"/>
<path d="M1298.27 253.033H1299.2L1300.14 255.095L1303.4 253.549H1312.73L1316.46 255.095L1317.4 256.641V265.918L1317.86 269.526L1318.33 276.742L1318.8 278.803L1317.4 285.504L1316.93 288.081L1317.4 294.265L1315.53 301.997L1313.66 303.027L1313.2 302.512V289.111L1315.53 287.565L1316 286.534L1313.2 286.019L1312.73 267.464H1303.4L1302.94 286.534H1301.07L1302.94 288.596V301.997L1302.47 302.512H1300.14L1299.2 293.75V288.081L1299.67 286.019L1298.27 279.834L1297.34 278.288L1296.87 273.134L1295.01 271.072L1294.54 266.434L1295.47 264.887H1296.87L1297.34 259.733L1297.8 255.095L1298.27 253.033Z" fill="#FEFEFE"/>
<path d="M1339.91 107.932H1342.49L1343 109.475H1345.58L1348.16 111.534L1351.26 115.651L1350.23 117.709L1349.71 118.224L1345.58 118.739H1271.82L1264.6 118.224L1263.56 116.68L1264.6 114.107L1269.24 112.049L1272.85 111.534H1280.59L1285.75 112.563L1308.44 111.534H1330.62L1336.81 109.99L1339.91 107.932Z" fill="#464240"/>
<path d="M1287.81 78.084H1329.59L1332.69 79.1132L1332.17 88.3763L1330.62 88.8909L1316.18 89.4055H1299.16L1282.13 88.8909L1281.1 87.8616L1280.07 79.6278L1281.1 78.5986L1287.81 78.084Z" fill="#464240"/>
<path d="M1376.53 138.809H1377.05L1377.57 151.159L1380.15 153.732L1380.66 154.762L1380.15 156.305L1379.63 162.995L1379.11 237.614L1376.53 236.585L1376.02 236.071L1375.5 210.34L1373.95 199.018L1374.47 195.416L1375.5 193.358V175.861L1366.73 173.802L1365.19 169.685V159.908L1366.22 154.247L1368.8 154.762L1369.83 155.791L1371.38 154.247H1374.99L1375.5 150.645L1376.02 141.896L1376.53 138.809Z" fill="#30312F"/>
<path d="M1336.81 173.287H1340.43L1343 174.831L1344.04 175.86L1357.96 178.433L1358.48 178.948V182.036L1356.42 183.065L1357.96 184.094L1362.09 185.123L1363.12 188.211H1366.22L1366.73 186.667L1368.28 191.299L1371.89 194.901V195.93H1327.01L1323.92 194.901L1325.47 189.24L1325.98 188.726L1361.06 188.211L1359.51 187.182V186.152L1353.84 184.609L1344.55 181.521L1341.46 183.065H1337.33L1334.23 180.492V176.375L1335.27 173.802L1336.81 173.287Z" fill="black"/>
<path d="M1247.57 173.287H1248.09L1248.61 187.696H1249.64L1252.22 185.638L1256.34 183.579L1257.37 182.036L1255.31 181.521L1255.83 178.948L1269.75 175.346L1272.85 173.802L1276.98 173.287L1279.04 175.86L1280.07 177.404L1279.56 180.492L1277.49 182.55L1272.85 183.065L1271.3 182.036H1267.69L1259.44 184.609L1253.76 186.667L1253.25 187.696H1252.22V188.726H1274.91L1287.81 189.24L1289.87 194.386L1289.36 195.93H1240.35L1240.87 193.357L1246.03 190.269L1247.06 185.123L1247.57 173.287Z" fill="black"/>
<path d="M1239.32 155.277H1242.93L1244.48 155.792H1248.09V171.745L1246.54 173.289L1243.45 173.803V174.833H1237.26V232.469L1236.22 237.616H1234.68L1234.16 212.914V172.774L1234.68 156.307L1237.26 156.821L1238.29 157.85L1239.32 155.277Z" fill="#FEFEFE"/>
<path d="M1240.01 251.057H1253.52L1253 254.146H1292.48L1293.52 254.661V255.691L1284.69 256.206H1269.62L1267.02 256.721H1254.04V269.079L1252.48 274.228L1250.4 275.773L1246.24 276.287L1241.57 275.258L1240.01 272.683V251.057Z" fill="#323230"/>
<path d="M1297.61 177.404H1316.7L1317.73 178.434L1318.24 181.007L1318.76 188.726L1319.28 190.784V195.93L1299.67 195.416L1295.55 194.901L1295.03 194.387L1295.55 188.211L1296.58 178.434L1297.61 177.404Z" fill="#4A4E4E"/>
<path d="M1319.28 204.68L1322.37 206.224L1321.34 209.311L1320.82 213.428L1321.85 214.972L1322.37 218.06L1319.79 224.235L1318.24 224.75L1318.76 226.808L1315.15 227.323L1314.12 226.293V217.545L1312.05 214.457L1308.96 212.399H1305.35L1301.74 213.943L1299.67 217.03L1299.16 221.662L1301.74 225.779L1304.32 227.323H1309.47L1312.57 225.779L1313.09 227.837L1315.15 228.352L1314.63 235.042L1313.6 235.557H1302.25L1299.16 234.527L1298.13 228.352L1297.09 227.837V226.293H1296.06L1294.51 223.206L1292.97 213.943L1292.45 210.34L1292.97 209.311H1319.28V204.68Z" fill="#48433F"/>
<path d="M1292.45 205.709L1294.51 206.224L1295.03 209.311H1292.97L1293.48 214.972L1295.03 223.206L1296.06 226.294H1297.09V227.323L1295.03 228.352L1294.51 236.071V250.48L1295.03 250.995V255.627L1291.42 257.17L1254.79 257.685V261.287L1253.76 260.258V256.141H1267.17L1269.75 255.627H1293.48V254.597H1260.98L1253.25 254.083L1253.76 251.51L1254.28 253.053L1272.85 252.539L1271.3 251.51L1271.82 250.995L1290.9 249.966L1291.42 248.422L1290.39 244.82H1254.28L1234.68 244.305L1233.64 243.79V241.217L1234.68 242.761L1259.95 243.276H1289.87L1290.39 243.79L1290.9 242.761L1291.42 237.615V228.352L1288.84 224.235L1287.81 219.089V213.943L1288.84 208.797L1292.45 205.709Z" fill="black"/>
<path d="M1299.67 245.334H1309.47L1315.66 245.849L1316.18 246.363L1316.7 253.053H1318.24V259.743L1319.28 262.316L1319.79 276.211L1332.17 276.725L1333.2 277.24V280.328L1331.66 281.872L1327.53 282.386H1322.89L1323.4 285.988L1319.79 288.047L1319.28 305.029L1318.76 306.058L1316.18 306.573L1312.57 304.515V302.971L1314.63 301.941L1316.7 293.708L1316.18 285.988L1317.21 284.445L1318.24 277.755L1317.73 276.725L1317.21 267.977L1316.7 263.86V256.655L1316.18 255.112L1313.09 254.597L1312.05 254.082H1301.74L1297.61 255.626L1297.09 253.053H1296.06L1295.55 255.112V250.995L1296.58 247.392L1298.13 245.849L1299.67 245.334Z" fill="#464240"/>
<path d="M1238.29 119.768L1243.45 120.797L1245.51 122.341L1249.12 124.399L1250.15 125.943L1249.64 145.498L1248.6 147.042L1247.57 151.674L1245.51 154.761H1239.84L1238.8 154.247L1237.26 146.527V120.282L1238.29 119.768Z" fill="#30312F"/>
<path d="M1361.35 251.057H1372.94V272.586L1370.84 275.149L1369.26 275.662H1365.04L1360.3 274.124L1359.77 273.099L1359.25 263.872L1358.72 256.695L1347.13 256.183L1322.9 255.67L1321.32 255.158V254.132L1322.37 253.62H1360.3L1361.35 254.645L1360.83 257.208L1362.93 257.721L1364.51 257.208L1365.57 255.67H1366.62L1366.1 252.594L1361.35 251.569V251.057Z" fill="#323130"/>
<path d="M1366.73 244.305H1379.63L1378.08 249.451L1377.57 250.48L1372.41 252.024V250.48H1358.48L1357.96 253.053H1346.1L1342.49 252.539L1344.55 251.509L1343.52 250.995L1336.3 250.48L1322.37 249.965L1322.89 245.849L1323.92 244.819L1366.73 244.305Z" fill="#30312F"/>
<path d="M1249.64 144.469L1250.67 146.013L1252.21 146.527L1364.15 147.042L1364.67 146.013V147.042L1366.22 147.556V155.79L1365.19 153.732V149.615H1249.12L1248.09 155.79L1243.96 156.305L1239.32 155.276V154.761L1245.51 154.246L1247.57 150.129L1248.6 146.013L1249.64 144.469Z" fill="#30312F"/>
<path d="M1246.54 172.258H1248.09L1247.57 185.123L1246.54 190.269L1243.96 192.328L1241.38 193.357L1240.35 195.93L1239.32 226.807L1238.29 235.041L1236.22 237.614L1236.74 230.409L1237.26 174.831L1240.35 174.316L1242.41 173.802L1243.45 173.287H1246.54V172.258Z" fill="#30312F"/>
<path d="M1296.21 197.189C1296.43 196.733 1296.9 196.445 1297.41 196.445H1314.56C1316.14 196.445 1317.55 197.46 1318.05 198.964V198.964C1318.18 199.341 1318.24 199.736 1318.24 200.133V205.987C1318.24 206.48 1318.13 206.967 1317.91 207.409V207.409C1317.47 208.284 1316.65 208.908 1315.69 209.1L1315.12 209.213C1314.8 209.278 1314.47 209.306 1314.14 209.296L1298.68 208.828C1297.99 208.808 1297.34 208.526 1296.85 208.042V208.042C1296.35 207.536 1296.06 206.85 1296.06 206.134V197.793C1296.06 197.584 1296.11 197.377 1296.21 197.189V197.189Z" fill="black"/>
<path d="M1233.64 244.818H1290.39L1290.9 245.848V249.45L1290.39 249.964H1244.99L1242.41 249.45L1240.35 247.391L1239.83 246.362L1236.74 245.848L1235.71 247.906L1234.68 247.391L1233.64 244.818Z" fill="#30312F"/>
<path d="M1296.06 229.896H1297.09L1297.61 230.926V235.557H1314.63L1315.67 235.043L1316.7 231.44L1317.73 230.926L1318.24 232.984V238.13L1318.76 239.16V245.85L1318.24 253.054H1316.18L1315.67 246.364L1309.47 245.85H1299.67L1297.09 247.393L1295.55 248.423L1295.03 243.791V235.557L1295.55 230.926L1296.06 229.896Z" fill="#FEFEFE"/>
<path d="M1365.7 170.715L1366.73 171.744V173.803H1369.83L1375.5 175.861L1376.02 186.153V193.358L1374.47 197.475L1374.99 202.621L1376.02 210.34V235.042L1374.99 233.498L1374.47 231.954L1373.44 213.942L1372.92 197.989L1371.89 195.416L1367.76 191.299L1366.22 186.668L1365.7 170.715Z" fill="#30312F"/>
<path d="M1377.57 156.307L1379.63 156.821L1379.11 237.616L1377.05 236.586L1376.54 235.557V156.821L1377.57 156.307Z" fill="#FEFEFE"/>
<path d="M1239.32 155.277H1242.93L1244.48 155.792H1248.09V171.745L1246.54 173.289L1243.45 173.803V174.833H1237.26V165.57L1237.77 157.85L1238.8 156.307L1239.32 155.277Z" fill="#30312F"/>
<path d="M1359.51 249.965H1371.38L1372.41 250.479V264.889H1371.89V250.994L1363.64 251.509L1366.22 254.082L1365.7 255.626L1363.12 258.199H1360.54L1359.51 256.655L1360.03 254.596L1359 254.082H1321.34V255.111L1346.62 255.626L1357.96 256.14V256.655L1324.43 257.169L1319.79 257.684L1318.76 255.626V252.538L1322.37 251.509H1341.46L1346.62 252.538H1357.96L1358.48 250.479L1359.51 249.965Z" fill="#464240"/>
<path d="M1308.96 314.807L1311.54 315.321L1312.05 315.836V329.73L1309.47 332.818L1307.41 333.333L1303.28 331.789L1301.74 330.245V317.894L1304.83 315.836L1308.96 314.807Z" fill="#313130"/>
<path d="M1275.43 173.289L1277.49 173.804L1280.07 177.406L1279.55 180.494L1277.49 182.552L1272.85 183.067L1271.3 182.037H1267.69L1259.44 184.611L1253.76 186.669L1251.7 187.184L1252.22 185.64L1256.34 183.581L1257.37 182.037L1255.31 181.523L1255.83 178.95L1269.75 175.348L1272.85 173.804L1275.43 173.289Z" fill="#30312F"/>
<path d="M1375.5 104.844H1377.57L1377.05 136.235L1376.02 134.177V126.458L1375.5 125.428H1376.53V124.399H1375.5L1376.02 120.797V117.709H1374.47L1373.44 118.738L1370.86 120.797L1367.25 122.341H1364.67V121.311H1363.64V124.399L1361.06 122.855L1360.54 118.738H1361.57L1362.61 116.68L1365.19 114.107L1368.8 112.048L1373.44 107.931H1374.47L1375.5 104.844Z" fill="#30312F"/>
<path d="M1380.15 154.762H1380.66L1381.18 232.468V248.936L1380.15 249.965H1377.05L1378.08 249.451L1379.11 244.819L1372.92 244.304V243.79L1379.63 243.275L1379.11 239.673L1377.05 237.615L1377.57 236.585L1379.11 237.615V162.996L1379.63 156.306L1380.15 154.762Z" fill="#30312F"/>
<path d="M1270.27 76.0254H1339.39L1344.04 76.54L1356.42 80.6569L1364.15 83.7446L1362.09 84.2592L1352.8 80.6569L1346.1 78.5985L1343 78.0838L1334.75 77.5692H1279.04L1269.24 78.0838L1262.53 80.6569L1247.57 85.803L1231.58 91.4638L1226.42 92.493L1225.39 93.5223L1225.91 90.4346H1230.03L1246.54 84.7738L1254.28 81.6861L1267.17 77.0546L1270.27 76.0254Z" fill="#30312F"/>
<path d="M1305.86 212.914L1309.99 213.429L1313.09 216.002L1314.12 218.575L1313.6 222.177L1311.54 225.265L1309.47 226.294H1304.32L1301.74 224.75L1299.67 220.633L1300.19 217.031L1302.25 214.458L1305.86 212.914Z" fill="#FEFEFE"/>
<path d="M1323.92 244.818H1362.61V245.333L1331.66 245.848L1330.62 246.877L1331.66 247.391L1336.3 247.906H1345.07L1352.81 248.421L1355.39 248.935V249.964H1359.51L1358.48 250.479L1357.96 253.052H1346.1L1342.49 252.538L1344.55 251.508L1343.52 250.994L1336.3 250.479L1322.37 249.964L1322.89 245.848L1323.92 244.818Z" fill="#30312F"/>
<path d="M1294.51 250.994H1295.03V255.626L1291.42 257.17L1254.79 257.684V261.286L1253.76 260.257V256.14H1267.17L1269.75 255.626H1293.48V254.596H1260.98L1253.25 254.082L1253.76 251.509L1254.28 253.053L1272.85 252.538L1271.3 251.509H1294L1294.51 250.994Z" fill="#30312F"/>
<path d="M1364.15 84.2598L1367.25 84.7744L1376.53 88.3767L1383.76 90.9497V91.979L1387.88 92.4936L1387.37 94.552L1381.69 100.213L1377.57 103.815L1377.05 105.359H1376.02L1374.99 106.388V98.6689L1374.47 88.8913L1364.15 84.7744V84.2598Z" fill="#464240"/>
<path d="M1312.05 225.779L1313.08 227.838L1315.15 228.352L1314.63 235.042L1313.6 235.557H1302.25L1299.16 234.528L1298.12 227.838L1300.7 227.323L1302.77 226.294L1304.32 227.323H1309.47L1312.05 225.779Z" fill="#464342"/>
<path d="M1292.97 209.311L1296.58 209.825L1305.35 211.369V212.398L1301.74 213.942L1299.67 217.03L1299.16 221.661L1301.74 225.778L1300.7 227.837L1299.16 228.351L1297.09 227.837V226.293H1296.06L1294.51 223.205L1292.97 213.942L1292.45 210.34L1292.97 209.311Z" fill="#4A423D"/>
<path d="M1249.12 149.102H1354.35L1365.18 149.616V150.645H1248.6L1249.12 149.102Z" fill="#3E767A"/>
<path d="M1296.06 227.322L1298.64 228.351L1299.67 234.527L1302.25 235.041H1314.63V228.351L1315.15 227.837H1317.73L1319.27 229.895L1319.79 251.509L1319.27 252.538L1319.79 257.684L1319.27 262.316L1318.24 260.772L1317.73 257.17L1318.24 245.848V239.158L1317.73 236.585V232.983L1317.21 231.439L1315.66 235.556L1314.63 236.071H1298.64L1297.61 235.556L1297.09 229.895H1296.06L1295.55 239.158V246.363L1296.06 250.994L1295.55 255.626H1295.03L1294.51 250.994L1294 250.48V236.071L1294.51 228.351L1296.06 227.322Z" fill="#887F64"/>
<path d="M1280.59 77.5703H1332.69L1334.75 78.5995L1333.72 84.2603L1333.2 88.3772L1330.62 89.921L1290.39 90.4357L1281.1 89.921L1279.55 86.3187L1279.04 78.5995L1280.59 77.5703ZM1287.81 78.0849L1281.1 78.5995L1280.07 80.1434L1281.1 87.8626L1282.13 88.8918L1305.86 89.4064H1320.31L1330.62 88.8918L1332.17 88.3772L1332.69 79.1142L1329.08 78.0849H1287.81Z" fill="#30312F"/>
<path d="M1324.95 209.826H1325.98L1326.5 212.399V220.118L1324.95 225.265L1322.89 228.352L1322.37 229.896L1325.47 229.381L1332.69 229.896H1346.62L1372.92 230.925L1373.44 213.943H1373.96L1374.47 220.633V231.955H1335.78L1321.86 231.44V227.838L1324.43 223.206L1325.47 219.089V212.914L1324.95 209.826Z" fill="#3E767A"/>
<path d="M1238.8 230.41L1291.42 230.925L1289.36 231.954L1284.2 232.983H1259.44L1247.06 233.498L1241.9 234.012L1238.8 233.498V230.41Z" fill="#4A4E4E"/>
<path d="M1322.37 231.439H1338.88L1374.99 231.954L1375.5 234.527H1369.83L1359 234.013H1344.04L1339.39 234.527L1334.24 234.013H1329.59L1327.53 234.527L1325.98 233.498L1322.37 232.469V231.439Z" fill="#4A4E4D"/>
<path d="M1236.74 108.447H1237.26L1237.77 113.593L1238.8 114.108L1239.32 113.079L1241.9 113.593L1243.45 115.652L1240.35 115.137L1239.84 116.681L1237.77 116.166V148.073L1238.8 151.675V154.248L1239.84 154.762L1238.8 158.365L1236.74 156.821H1234.68L1234.16 161.452L1233.64 214.972H1233.13L1232.61 154.762L1236.22 151.16L1236.74 108.447Z" fill="#30312F"/>
<path d="M1294.51 273.123H1295.03L1295.55 278.269L1297.09 280.842L1298.13 287.018L1297.61 289.591V295.251L1298.13 302.456L1300.7 301.941V288.561L1299.16 287.532V286.503H1301.22L1301.74 287.532V306.573L1300.7 306.058V304.514L1297.09 307.088L1295.03 306.573L1294.51 305.029V297.31L1295.03 284.445L1294.51 282.901L1293.48 281.871L1294 278.784L1292.97 278.269L1294 277.755L1294.51 273.123Z" fill="#5E9B9E"/>
<path d="M1239.83 195.932H1240.35V217.031L1239.83 229.896L1240.87 229.382H1289.36L1290.9 229.896V227.323L1291.93 228.352V230.925H1241.9L1238.8 230.411L1239.83 195.932Z" fill="#3E767A"/>
<path d="M1318.24 186.154H1319.28L1319.79 188.727L1321.86 189.242L1320.82 194.388V203.137L1323.4 206.224L1325.47 208.283L1324.95 209.827L1321.86 206.224L1319.79 205.195L1319.28 209.312L1317.73 209.827H1295.55L1294.52 207.768L1295.55 196.961H1296.06L1296.58 208.283L1316.18 208.797L1317.21 208.283L1317.73 206.739V199.534L1317.21 196.961L1296.58 196.447V195.932L1317.73 195.417L1319.28 195.932L1318.24 188.727V186.154Z" fill="black"/>
<path d="M1290.9 247.393L1291.94 249.451L1290.9 250.48L1271.82 251.509L1273.36 253.053H1254.28L1253.76 251.509L1240.35 250.995V255.112H1239.83V250.995L1234.16 249.966L1236.22 249.451H1290.39L1290.9 247.393Z" fill="#30312F"/>
<path d="M1299.67 246.363H1314.12L1314.63 246.878V252.539L1309.47 252.024H1302.25L1299.67 252.539L1299.16 252.024V246.878L1299.67 246.363Z" fill="#444240"/>
<path d="M1299.67 245.334H1309.47L1315.66 245.849L1316.18 246.363V253.053L1315.15 254.082H1301.74L1297.61 255.626L1297.09 253.053H1296.06L1295.55 255.112V250.995L1296.58 247.392L1298.13 245.849L1299.67 245.334ZM1299.67 246.363L1299.16 246.878V252.024L1300.71 252.539L1302.25 252.024H1309.47L1314.63 252.539V246.878L1314.12 246.363H1299.67Z" fill="#6A867B"/>
<path d="M1238.29 174.316L1241.38 174.831L1240.35 175.86L1238.8 176.375V205.193L1238.29 235.041L1236.22 237.614L1236.74 230.409L1237.26 174.831L1238.29 174.316Z" fill="#30312F"/>
<path d="M1322.37 253.568H1359.51L1360.54 254.598L1360.03 256.656H1357.96L1346.61 256.141L1322.89 255.627L1321.34 255.112V254.083L1322.37 253.568Z" fill="#333231"/>
<path d="M1240.35 250.994H1249.12L1248.09 251.509L1248.61 254.082L1250.15 255.111L1249.64 257.684L1244.99 259.228L1242.41 260.257L1241.38 261.801H1240.35V250.994Z" fill="#30312F"/>
<path d="M1321.34 276.725H1332.17L1333.2 277.239V280.327L1331.66 281.871L1327.53 282.385H1322.37L1319.79 281.356L1320.31 278.268L1321.34 276.725Z" fill="#4C5453"/>
<path d="M1372.92 156.82H1374.99V170.715L1374.47 173.288L1370.86 172.259L1370.34 168.656V159.393L1371.38 157.335L1372.92 156.82Z" fill="#FEFEFE"/>
<path d="M1233.64 241.217L1234.68 242.761L1259.95 243.275H1289.87L1290.39 244.819H1254.28L1234.68 244.304L1233.64 243.79V241.217Z" fill="#30312F"/>
<path d="M1372.92 195.932L1373.96 196.446L1376.02 210.341V235.042L1374.99 233.498L1374.47 231.955L1373.44 213.943L1372.92 195.932Z" fill="#30312F"/>
<path d="M1321.86 232.469H1322.89L1323.4 233.498L1323.92 239.159L1324.43 242.761L1347.65 243.276H1379.63V243.79L1372.92 244.305H1323.92L1322.37 243.79L1321.86 242.761V232.469Z" fill="#464240"/>
<path d="M1365.7 155.791L1370.34 156.82L1369.83 159.393L1369.31 171.229L1368.8 172.259L1366.22 171.744L1365.19 169.686V159.908L1365.7 155.791Z" fill="#FEFEFE"/>
<path d="M1359.51 249.965H1371.38L1372.41 250.479V264.889H1371.89V250.994L1363.64 251.509L1366.22 254.082L1365.7 255.626L1363.12 258.199H1360.54L1359.51 256.655L1360.03 254.596L1359 254.082H1354.87L1355.9 253.053L1357.96 252.538L1358.48 250.479L1359.51 249.965Z" fill="#464240"/>
<path d="M1321.85 283.93L1323.4 284.444L1322.89 286.503L1319.79 288.047L1319.27 305.029L1318.76 306.058L1316.18 306.573L1312.57 304.514V302.97L1316.18 302.456L1317.21 298.853L1317.73 290.105L1318.24 285.474L1321.85 283.93Z" fill="#30312F"/>
<path d="M1247.06 155.791H1248.09V171.744L1246.54 172.773L1244.48 172.259V159.908L1244.99 156.306L1247.06 155.791Z" fill="#FEFEFE"/>
<path d="M1305.35 211.885H1308.96L1312.05 213.943L1314.12 216.516L1314.63 217.546V222.177L1313.08 225.779L1309.47 227.838H1304.31L1300.7 225.265L1298.64 221.662L1299.16 217.031L1301.22 213.943L1303.8 212.399L1305.35 211.885ZM1305.86 212.914L1302.25 214.458L1300.19 217.031L1299.67 220.633L1301.74 224.75L1304.31 226.294H1309.47L1311.54 225.265L1314.12 221.148L1313.6 217.031L1311.02 213.943L1308.44 212.914H1305.86Z" fill="#827C64"/>
<path d="M1373.44 112.049H1376.02L1376.53 114.107V117.71H1374.47L1373.44 118.739L1370.86 120.797H1366.22V118.224L1368.28 115.651H1369.83L1370.86 113.593L1373.44 113.078V112.049Z" fill="#FEFEFE"/>
<path d="M1376.02 175.861H1376.53L1377.05 236.586L1376.02 236.071L1375.5 210.34L1373.96 199.019L1374.47 195.417L1375.5 193.358L1376.02 175.861Z" fill="#30312F"/>
<path d="M1269.75 255.645H1292.89L1291.35 257.635L1254.83 258.298V262.943L1253.8 261.616V256.308H1267.18L1269.75 255.645Z" fill="#30312F"/>
<path d="M1299.16 286.502H1301.22L1301.74 287.531V306.572L1300.71 306.057V304.513L1297.09 307.087L1295.03 306.572V297.823H1296.58L1297.09 299.882H1298.13V302.455L1300.71 301.94V288.56L1299.16 287.531V286.502Z" fill="#30312F"/>
<path d="M1323.4 243.791L1366.73 244.306V244.82L1323.92 245.335L1322.37 249.966H1336.3L1347.65 250.996V251.51L1341.46 252.025V250.996H1320.82L1321.85 246.364L1323.4 243.791Z" fill="#30312F"/>
<path d="M1239.83 156.82L1241.9 157.335L1242.93 157.85V171.744L1240.35 172.259L1239.83 171.744L1239.32 158.879L1239.83 156.82Z" fill="#FEFEFE"/>
<path d="M1321.34 253.053H1332.17V253.567L1321.34 254.082V255.111L1346.62 255.626L1357.96 256.14V256.655L1321.85 257.17L1319.28 255.111V254.082L1321.34 253.053Z" fill="#464240"/>
<path d="M1281.1 277.24H1288.84L1292.45 278.784V280.843H1288.84L1288.32 281.357H1281.1L1280.07 280.328L1280.59 277.755L1281.1 277.24ZM1285.74 278.784L1286.26 280.328L1286.78 278.784H1285.74Z" fill="#4E5957"/>
<path d="M1239.83 194.387L1240.35 195.931L1239.32 226.807L1238.8 231.954H1238.29V201.591L1238.8 195.416H1239.83V194.387Z" fill="#30312F"/>
<path d="M1364.15 84.2598L1367.25 84.7744L1376.53 88.3767L1383.76 90.9497L1382.21 91.4644L1376.02 89.4059L1376.53 91.4644L1377.05 101.757L1377.57 103.815L1377.05 105.359H1376.02L1374.99 106.388V98.6689L1374.47 88.8913L1364.15 84.7744V84.2598Z" fill="#30312F"/>
<path d="M1296.06 227.322L1297.61 227.837L1298.12 232.468L1297.09 230.925V229.895H1296.06L1295.55 239.158V246.363L1296.06 250.994L1295.55 255.626H1295.03L1294.51 250.994L1294 250.48V236.071L1294.51 228.351L1296.06 227.322Z" fill="#30312F"/>
<path d="M1236.74 108.447H1237.26L1237.77 113.593L1238.8 114.108L1239.32 113.079L1241.9 113.593L1243.45 115.652L1240.35 115.137L1239.84 116.681L1237.77 116.166V148.073L1238.8 151.16L1236.74 150.131V108.447Z" fill="#30312F"/>
<path d="M1295.55 196.961H1296.06L1296.58 208.282L1316.18 208.797L1317.21 208.282L1318.24 201.592H1318.76L1319.28 209.312L1317.73 209.826H1295.55L1294.52 207.768L1295.55 196.961Z" fill="#7F8672"/>
<path d="M1253.76 251.51L1254.28 253.054L1272.85 252.539L1271.3 251.51L1276.46 252.024L1278.01 252.539V253.568L1276.98 254.083L1265.11 254.597L1253.25 254.083L1253.76 251.51Z" fill="#30312F"/>
<path d="M1291.42 266.947L1292.45 268.491L1292.97 271.064L1294.51 272.093V277.754L1294 278.783V281.871L1288.32 281.356L1289.36 279.813V280.842L1290.9 280.327L1292.45 280.842V278.783L1290.39 278.269L1288.84 277.24H1291.42L1290.9 271.579L1291.42 266.947Z" fill="#30312F"/>
<path d="M1376.53 138.809H1377.05L1377.57 151.159L1380.14 153.732L1380.66 154.762L1379.63 156.82H1376.02V141.896L1376.53 138.809Z" fill="#30312F"/>
<path d="M1295.03 287.018H1295.55V289.591L1297.09 288.047L1297.61 291.649V299.883L1295.55 298.854L1295.03 305.029H1294.51V297.31L1295.03 287.018Z" fill="#7CB6BC"/>
<path d="M1364.15 116.166L1364.67 117.195V118.739L1366.22 118.224V120.798H1369.83L1367.76 121.827L1367.25 122.341H1364.67V121.312H1363.64V124.4L1361.06 122.856L1360.54 118.739L1363.64 116.681L1364.15 116.166Z" fill="#30312F"/>
<path d="M1299.16 209.311L1317.73 209.825L1317.21 210.854L1309.99 211.369L1308.96 212.398L1303.8 211.369L1296.58 210.34V209.825L1299.16 209.311Z" fill="#455F5F"/>
<path d="M1301.74 266.947H1312.05V267.462L1302.25 267.976V285.988L1301.22 286.503V267.462L1301.74 266.947Z" fill="#746755"/>
<path d="M1348.68 250.994H1358.48L1357.96 253.053H1346.1L1342.49 252.538L1344.55 251.509L1348.68 250.994Z" fill="#464240"/>
<path d="M1379.11 196.445H1379.63V239.158L1377.57 238.129V236.585L1379.11 237.614V196.445Z" fill="#30312F"/>
<path d="M1337.33 251.51H1341.46L1346.61 252.539L1355.9 253.054V253.568H1335.78L1334.23 252.024L1337.33 251.51Z" fill="#464240"/>
<path d="M1375.5 110.506L1377.05 111.02V136.237L1376.02 134.178V126.459L1375.5 125.43H1376.53V124.4H1375.5L1376.02 120.798V114.108L1374.47 111.535L1375.5 110.506Z" fill="#30312F"/>
<path d="M1237.26 90.9492H1238.8V102.785L1239.84 106.388L1237.26 105.358L1236.22 103.3L1236.74 99.6976L1237.26 90.9492Z" fill="#30312F"/>
<path d="M1253.76 256.141H1270.78L1279.55 256.655V257.17L1254.79 257.684V261.287L1253.76 260.258V256.141Z" fill="#30312F"/>
<path d="M1298.64 246.363L1299.67 246.878V252.024L1302.25 251.509H1309.47L1314.63 252.539L1314.12 246.363H1315.15V253.053L1314.12 253.568L1313.08 253.053H1301.22L1299.16 254.082L1298.64 253.568V246.363Z" fill="#3E767A"/>
<path d="M1321.86 283.93L1323.4 284.444L1322.89 286.503L1319.79 288.047L1319.28 299.368H1318.76L1318.24 290.105L1317.73 288.047L1318.24 285.474L1321.86 283.93Z" fill="#30312F"/>
<path d="M1281.1 277.24H1285.74L1285.23 281.357H1281.1L1280.07 280.328L1280.59 277.755L1281.1 277.24Z" fill="#373735"/>
<path d="M1234.16 249.451L1253.76 249.966V250.995H1240.35V255.112H1239.83V250.995L1234.16 249.966V249.451Z" fill="#30312F"/>
<path d="M1372.92 118.225L1373.44 119.254H1375.5V121.827L1372.41 121.312L1368.8 122.856L1363.64 124.915V121.312H1364.67V122.342H1367.25L1367.77 121.312H1369.83L1370.34 120.283H1371.89L1372.92 118.225Z" fill="#30312F"/>
<path d="M1331.66 277.24H1333.2V280.328L1332.69 281.357H1329.08L1325.46 279.813L1325.98 278.784L1331.66 278.269V277.24Z" fill="#454341"/>
<path d="M1301.22 213.943L1302.77 214.458L1300.7 217.031L1300.19 220.633L1301.74 223.721V224.75L1304.31 225.779L1308.96 226.809V227.323H1304.83L1301.22 225.779L1298.64 221.663L1299.16 217.031L1301.22 213.943Z" fill="#907959"/>
<path d="M1375.5 193.357H1376.02V210.34H1375.5L1373.96 199.018L1374.47 195.416L1375.5 193.357Z" fill="#30312F"/>
<path d="M1294 255.627H1295.55V262.317L1294.51 263.346L1293.48 260.773V258.715L1292.45 258.2L1282.65 257.685V257.171L1291.42 256.656L1294 255.627Z" fill="black"/>
<path d="M1242.41 86.3184L1242.93 87.3476L1231.58 91.4645L1226.42 92.4937L1225.39 93.5229L1225.91 90.4353H1230.03L1242.41 86.3184Z" fill="#30312F"/>
<path d="M1379.11 162.996H1379.63L1380.14 184.095H1380.66V190.271H1379.63L1379.11 191.3V162.996Z" fill="#30312F"/>
<path d="M1309.99 210.854H1316.18L1313.6 215.485L1309.47 212.397L1309.99 210.854Z" fill="#674626"/>
<path d="M1318.76 245.848H1319.28L1319.79 251.508L1319.28 252.538L1319.79 257.684L1319.28 262.315L1318.24 260.771L1317.73 257.169L1318.24 246.362L1318.76 245.848Z" fill="#30312F"/>
<path d="M1366.22 154.248L1368.8 154.763L1369.83 155.792H1375.5L1374.99 157.85V156.821L1371.38 157.336L1370.86 159.394L1369.31 158.88V157.85L1368.28 156.821L1366.22 156.307V154.248Z" fill="#30312F"/>
<path d="M1236.74 108.447H1237.26L1237.77 113.593L1238.8 114.108L1239.32 113.079L1241.9 113.593L1243.45 115.652L1240.35 115.137L1239.84 116.681L1237.77 116.166L1237.26 118.74H1236.74V108.447Z" fill="#30312F"/>
<path d="M1297.61 210.34L1303.8 210.854L1305.35 211.369V212.398L1301.74 213.942L1299.67 216.001L1299.16 211.369L1297.61 210.854V210.34Z" fill="#30312F"/>
<path d="M1248.09 120.797H1251.18V121.826L1252.22 122.341L1251.18 123.37L1250.67 126.458L1247.06 123.37L1246.03 121.826L1248.09 120.797Z" fill="#30312F"/>
<path d="M1380.15 241.73H1380.66V249.45L1380.15 249.964H1377.05L1378.08 249.45L1379.11 244.818L1372.92 244.304V243.789L1379.63 243.274L1380.15 241.73Z" fill="#30312F"/>
<path d="M1266.66 250.48H1281.62V250.995L1271.82 251.51L1273.36 253.054H1269.24V252.024L1266.66 250.995V250.48Z" fill="#30312F"/>
<path d="M1248.09 149.615H1248.6V153.732L1248.09 155.791L1243.96 156.305L1239.32 155.276V154.761L1245.51 154.247L1248.09 149.615Z" fill="#30312F"/>
<path d="M1299.16 286.502H1301.22L1301.74 287.531V306.572L1300.7 306.057L1300.19 302.97H1301.22L1300.7 288.56L1299.16 287.531V286.502Z" fill="#567673"/>
<path d="M1296.06 227.322L1297.61 227.837L1298.13 232.468L1297.09 230.925V229.895H1296.06L1295.55 235.556H1294.52V228.351L1296.06 227.322Z" fill="#30312F"/>
<path d="M1297.61 246.363L1298.13 247.907L1297.61 249.966L1298.13 254.082L1299.67 255.112L1297.61 255.626L1297.09 253.053H1296.06L1295.55 255.112V250.995L1296.58 247.393L1297.61 246.363Z" fill="#4E9CA5"/>
<path d="M1299.67 246.363H1314.12V246.878H1300.19V251.509L1302.25 252.024L1299.67 252.539L1299.16 252.024V246.878L1299.67 246.363Z" fill="#4A4E4E"/>
<path d="M1295.55 196.961H1296.06L1296.58 208.282L1299.16 208.797V209.826H1295.55L1294.52 207.768L1295.55 196.961Z" fill="#30312F"/>
<path d="M1271.3 251.51L1276.46 252.024L1278.01 252.539V253.568H1263.05V253.054L1269.24 252.539H1272.85L1271.3 251.51Z" fill="#30312F"/>
<path d="M1244.48 116.166L1246.54 116.681L1249.12 118.224L1251.18 117.71L1252.21 118.224L1251.7 120.283L1249.12 119.768L1246.02 120.283L1244.48 116.166Z" fill="#30312F"/>
<path d="M1321.34 276.725H1327.01L1324.95 277.754L1321.34 279.298L1320.82 281.356L1327.01 281.871V282.385H1322.37L1319.79 281.356L1320.31 278.268L1321.34 276.725Z" fill="#30312F"/>
<path d="M1237.77 115.65L1240.87 116.165L1241.38 118.738L1238.29 120.282H1237.26V116.165L1237.77 115.65Z" fill="#30312F"/>
<path d="M1274.4 251.51L1280.07 252.024L1284.71 252.539L1285.23 253.568L1282.13 254.083H1276.98L1278.01 253.568V252.539L1274.4 252.024V251.51Z" fill="#30312F"/>
<path d="M1309.47 247.393H1313.09L1313.6 250.995H1310.51L1308.96 248.936L1309.47 247.393Z" fill="#31302F"/>
<path d="M1332.69 249.965L1343.52 250.479L1347.65 250.994V251.509L1341.46 252.023V250.994H1332.69V249.965Z" fill="#30312F"/>
<path d="M1379.63 190.27H1380.66V199.533H1379.63L1379.11 196.445V191.299L1379.63 190.27Z" fill="#30312F"/>
<path d="M1246.54 172.258H1248.09L1247.57 185.123L1246.54 183.065V175.345L1246.02 174.316H1242.41L1243.45 173.287H1246.54V172.258Z" fill="#30312F"/>
<path d="M1317.21 294.223H1317.73V298.854L1316.18 302.456L1314.63 301.942L1316.7 294.737L1317.21 294.223Z" fill="#464240"/>
<path d="M1297.61 227.838L1298.64 228.353L1299.67 234.528L1302.25 235.042L1300.19 236.072L1297.61 235.557V227.838Z" fill="#30312F"/>
<path d="M1313.08 223.721L1313.6 225.265L1309.47 227.838H1304.32L1302.77 226.294L1305.35 226.808V226.294L1310.51 225.265L1312.57 224.75L1313.08 223.721Z" fill="#4C7C7C"/>
<path d="M1374.47 107.418H1375.5L1374.99 108.962L1370.86 112.049L1369.31 113.593L1366.73 115.137L1365.7 114.623L1370.86 109.991L1374.47 107.418Z" fill="#FCF9F6"/>
<path d="M1232.61 154.762L1234.16 155.276V161.452L1233.64 162.996H1232.61V154.762Z" fill="#30312F"/>
<path d="M1253.76 251.51L1254.28 253.054H1263.05L1262.53 254.083H1253.25L1253.76 251.51Z" fill="#30312F"/>
<path d="M1315.67 253.053H1318.24V257.684L1317.21 259.743L1316.18 255.111L1313.09 254.597L1315.15 253.567L1315.67 253.053Z" fill="#4E9CA5"/>
<path d="M1318.24 302.971H1319.27L1318.76 306.058L1316.18 306.573L1312.57 304.515L1313.08 303.485L1315.15 304.515L1317.21 304L1318.24 302.971Z" fill="#464240"/>
<path d="M1321.86 232.469H1322.37L1323.4 241.217L1323.92 243.79H1322.37L1321.86 242.761V232.469Z" fill="#464240"/>
<path d="M1240.35 118.738L1242.93 119.253L1245.51 120.282L1246.54 120.797V122.855L1243.96 121.826L1239.83 120.282L1240.35 118.738Z" fill="#30312F"/>
<path d="M1372.92 118.225L1373.44 119.254H1375.5V121.827L1372.41 121.312L1369.31 121.827L1370.34 120.283H1371.89L1372.92 118.225Z" fill="#30312F"/>
<path d="M1254.79 178.949L1255.83 179.464V181.522L1257.37 182.037L1256.34 184.095L1253.25 185.639L1252.21 185.125L1254.79 183.066L1254.28 179.978L1254.79 178.949Z" fill="#30312F"/>
<path d="M1375.5 133.148L1376.53 134.178L1377.05 138.295L1376.02 142.926H1375.5V133.148Z" fill="#30312F"/>
<path d="M1290.9 231.439H1291.42L1290.9 238.644L1290.39 243.276H1289.87V233.498L1290.9 231.439Z" fill="#333231"/>
<path d="M1247.57 108.961H1248.09L1249.12 112.049V114.622L1245.51 111.534L1244.48 109.99H1247.57V108.961Z" fill="#30312F"/>
<path d="M1331.66 277.24H1333.2V280.328L1330.62 280.843L1329.59 280.328L1330.11 278.784L1331.66 277.24Z" fill="#343534"/>
<path d="M1253.76 256.141L1261.5 257.17V257.684H1254.79V261.287L1253.76 260.258V256.141Z" fill="#30312F"/>
<path d="M1298.13 245.848L1299.67 246.362H1298.64L1299.16 253.567L1299.67 254.596L1297.61 254.081L1297.09 249.45L1298.13 245.848Z" fill="#30312F"/>
<path d="M1225.91 90.4355H1231.58V91.4648L1226.42 92.494L1225.39 93.5232L1225.91 90.4355Z" fill="#30312F"/>
<path d="M1292.45 278.783H1294V281.871L1288.32 281.356L1289.36 279.812V280.842L1290.9 280.327L1292.45 280.842V278.783Z" fill="#6C7C6F"/>
<path d="M1294 255.627L1294.51 257.171L1292.97 257.685H1282.65V257.171L1291.42 256.656L1294 255.627Z" fill="#30312F"/>
<path d="M1305.35 211.885H1308.96L1309.99 212.914L1303.8 213.943L1302.77 214.458L1301.74 213.429L1305.35 211.885Z" fill="#5B7A72"/>
<path d="M1318.24 201.592H1318.76L1319.27 209.311L1316.18 209.826V208.796L1317.21 208.282L1318.24 201.592Z" fill="#957C5B"/>
<path d="M1374.47 174.316L1376.02 175.346V186.153H1375.5V175.86L1372.92 175.346L1374.47 174.316Z" fill="#30312F"/>
<path d="M1364.15 116.166L1364.67 117.195L1363.12 120.283H1360.54V118.739L1363.64 116.681L1364.15 116.166Z" fill="#FEFEFE"/>
<path d="M1267.69 250.994H1271.3V252.023L1273.37 252.538V253.053H1269.24V252.023L1267.69 251.509V250.994Z" fill="#30312F"/>
<path d="M1375.5 110.506L1377.05 111.02V117.71H1376.53L1375.5 113.079L1374.47 111.535L1375.5 110.506Z" fill="#30312F"/>
<path d="M1292.45 205.709L1294.52 206.224V208.797L1290.9 208.282L1292.45 205.709Z" fill="#5E4835"/>
<path d="M1374.47 116.68L1374.99 117.709H1376.02L1376.53 123.884L1375.5 122.34V119.253L1373.44 118.738L1374.47 116.68Z" fill="#30312F"/>
<path d="M1376.53 248.936L1378.08 249.45L1377.57 250.479L1372.41 252.023V250.479L1371.38 249.965H1376.53V248.936Z" fill="#30312F"/>
<rect x="1294.54" y="195.734" width="24.7137" height="14.6101" rx="3" fill="#FEFEFE"/>
<ellipse cx="1306.44" cy="219.703" rx="8.00908" ry="7.98993" fill="#FEFEFE"/>
<rect x="1295.68" y="243.9" width="2.9748" height="63.2345" rx="1.4874" fill="#30312F"/>
<rect x="1316.05" y="243.9" width="2.9748" height="63.2345" rx="1.4874" fill="#30312F"/>
<rect x="1300.49" y="261.707" width="13.0434" height="70.7679" rx="6.52168" fill="#3D3B39"/>
<rect x="1298.2" y="245.043" width="18.0776" height="10.0445" fill="#454746"/>
</g>
<defs>
<clipPath id="clip0_346_1412">
<rect width="394" height="328" fill="white" transform="translate(1110)"/>
</clipPath>
</defs>
</svg>
