<svg width="1100" height="715" viewBox="0 0 1100 715" fill="none" xmlns="http://www.w3.org/2000/svg">
<path d="M10.926 603.172V523.849L41.5187 554.442V603.172H10.926ZM134.171 457.856H140.727V603.172H110.134V525.16L93.9634 541.549L87.6263 547.668L85.8782 549.416L80.4152 555.098L76.2633 559.031L55.7225 538.49L41.5187 524.286L10.926 493.694V457.856H18.3556L47.6373 487.138L76.2633 515.764L134.171 457.856ZM163.079 458.949H292.005V489.542H163.079V464.63V458.949ZM193.672 541.549V572.579H292.005V603.172H163.079V578.261V572.579V510.738L193.672 510.957H279.113V541.549H193.672ZM448.122 594.431L453.367 603.172H417.529L415.781 600.55L378.633 539.583C377.759 539.801 376.885 540.02 376.011 540.238C375.574 540.238 375.137 540.238 374.918 540.238C374.7 540.457 374.481 540.457 374.263 540.457C373.826 540.457 373.388 540.457 372.951 540.675C372.733 540.675 372.514 540.675 372.296 540.675C371.64 540.675 371.203 540.894 370.766 540.894C370.111 540.894 369.674 540.894 369.237 540.894L369.018 541.112H368.581C368.144 541.112 367.707 541.112 367.27 541.112C367.27 541.112 367.051 541.112 366.833 541.112C366.396 541.112 366.177 541.112 365.74 541.112H365.303H365.085H364.866C364.429 541.112 363.992 541.331 363.555 541.331H344.544V603.172H313.951V510.52H363.555C369.018 510.52 374.481 509.427 379.507 507.46C379.726 507.242 379.726 507.242 379.944 507.242C384.751 505.057 388.903 502.216 392.618 498.501C395.459 495.879 397.863 492.601 399.829 489.105H379.507H313.951V458.512H435.23L435.448 463.975C435.667 465.505 435.667 467.253 435.667 469.001C435.667 474.245 435.23 479.49 433.918 484.734C431.078 498.282 424.085 510.52 414.252 520.353C413.159 521.446 412.285 522.101 411.411 522.975C411.192 523.194 410.755 523.631 410.537 523.849C410.537 523.849 410.318 523.849 410.318 524.068C409.881 524.286 409.444 524.723 409.226 524.942C408.789 525.16 408.57 525.379 408.133 525.597C408.133 525.816 407.915 526.034 407.696 526.034L407.478 526.253C407.259 526.472 407.04 526.69 406.822 526.69L448.122 594.431ZM475.493 458.73H506.086V603.172H475.493V458.73Z" fill="#252525"/>
<path d="M708.814 594.429L714.058 603.17H678.221L676.473 600.548L639.325 539.581C638.45 539.799 637.576 540.018 636.702 540.236C636.265 540.236 635.828 540.236 635.61 540.236C635.391 540.455 635.173 540.455 634.954 540.455C634.517 540.455 634.08 540.455 633.643 540.673C633.425 540.673 633.206 540.673 632.987 540.673C632.332 540.673 631.895 540.892 631.458 540.892C630.802 540.892 630.365 540.892 629.928 540.892L629.71 541.11H629.273C628.836 541.11 628.399 541.11 627.962 541.11C627.962 541.11 627.743 541.11 627.525 541.11C627.087 541.11 626.869 541.11 626.432 541.11H625.995H625.776H625.558C625.121 541.11 624.684 541.329 624.247 541.329H605.236V603.17H574.643V510.518H624.247C629.71 510.518 635.173 509.425 640.199 507.458C640.417 507.24 640.417 507.24 640.636 507.24C645.443 505.055 649.595 502.214 653.31 498.499C656.151 495.877 658.554 492.599 660.521 489.103H640.199H574.643V458.51H695.921L696.14 463.973C696.358 465.503 696.358 467.251 696.358 468.999C696.358 474.243 695.921 479.488 694.61 484.732C691.769 498.281 684.777 510.518 674.943 520.351C673.851 521.444 672.977 522.099 672.103 522.973C671.884 523.192 671.447 523.629 671.228 523.847C671.228 523.847 671.01 523.847 671.01 524.066C670.573 524.284 670.136 524.721 669.917 524.94C669.48 525.158 669.262 525.377 668.825 525.595C668.825 525.814 668.606 526.033 668.388 526.033L668.169 526.251C667.951 526.47 667.732 526.688 667.514 526.688L708.814 594.429ZM736.185 458.728H766.778V603.17H736.185V458.728ZM928.522 521.225C929.177 524.503 929.396 527.999 929.396 531.277C929.396 534.992 928.959 538.488 928.522 541.984C923.933 574.107 897.929 599.237 865.806 603.17H865.369H798.284V510.955H828.877V572.577H863.403C880.447 569.955 894.214 556.844 897.71 540.018C898.366 537.177 898.584 534.336 898.584 531.277C898.584 528.655 898.366 525.814 897.929 523.192C895.744 513.14 890.281 504.181 881.977 498.062C876.951 494.347 871.269 491.725 865.151 490.414C863.184 489.977 860.999 489.758 858.814 489.54H798.284V458.947L862.529 459.166C878.044 460.258 893.121 466.595 904.921 477.084C917.814 488.447 926.118 504.181 928.522 521.225ZM951.29 458.947H1080.22V489.54H951.29V464.629V458.947ZM981.883 541.547V572.577H1080.22V603.17H951.29V578.259V572.577V510.736L981.883 510.955H1067.32V541.547H981.883Z" fill="#A7E92F"/>
<path d="M14.6455 663.512H44.75V668.638H14.6455V663.512ZM15.2964 689.793H49.5505V695H9.27546V638.045H48.33V643.253H15.2964V689.793ZM88.6158 695V685.562L88.3717 684.016V668.231C88.3717 664.597 87.3411 661.804 85.2799 659.851C83.273 657.898 80.2625 656.922 76.2486 656.922C73.4822 656.922 70.8514 657.383 68.3563 658.305C65.8611 659.227 63.7457 660.448 62.0099 661.966L59.4063 657.654C61.576 655.81 64.1796 654.4 67.2172 653.423C70.2548 652.393 73.4551 651.877 76.8181 651.877C82.3508 651.877 86.6089 653.26 89.5922 656.027C92.6298 658.739 94.1486 662.888 94.1486 668.475V695H88.6158ZM73.889 695.407C70.6887 695.407 67.8952 694.892 65.5086 693.861C63.1761 692.776 61.3861 691.312 60.1386 689.467C58.891 687.569 58.2672 685.399 58.2672 682.958C58.2672 680.734 58.7825 678.727 59.8131 676.937C60.8979 675.093 62.6337 673.628 65.0204 672.544C67.4613 671.405 70.7158 670.835 74.784 670.835H89.5108V675.147H74.9467C70.8243 675.147 67.9495 675.88 66.3222 677.344C64.7492 678.809 63.9626 680.626 63.9626 682.795C63.9626 685.236 64.9119 687.189 66.8104 688.654C68.7089 690.118 71.3667 690.85 74.784 690.85C78.0386 690.85 80.832 690.118 83.1645 688.654C85.5511 687.135 87.2869 684.965 88.3717 682.145L89.6736 686.131C88.5887 688.952 86.6902 691.203 83.9781 692.885C81.3202 694.566 77.9572 695.407 73.889 695.407ZM109.839 695V652.284H115.372V663.919L114.802 661.885C115.996 658.63 118.003 656.162 120.823 654.481C123.644 652.745 127.142 651.877 131.319 651.877V657.491C131.102 657.491 130.885 657.491 130.668 657.491C130.451 657.437 130.234 657.41 130.017 657.41C125.515 657.41 121.989 658.793 119.44 661.56C116.891 664.272 115.616 668.15 115.616 673.195V695H109.839ZM163.666 651.877C167.137 651.877 170.175 652.555 172.778 653.911C175.436 655.213 177.497 657.22 178.962 659.932C180.481 662.644 181.24 666.062 181.24 670.184V695H175.463V670.754C175.463 666.252 174.324 662.861 172.046 660.583C169.822 658.251 166.676 657.085 162.608 657.085C159.57 657.085 156.912 657.708 154.634 658.956C152.41 660.149 150.674 661.912 149.427 664.245C148.234 666.523 147.637 669.289 147.637 672.544V695H141.86V652.284H147.393V664L146.498 661.804C147.854 658.712 150.024 656.298 153.007 654.562C155.99 652.772 159.543 651.877 163.666 651.877ZM230.424 695V643.253H210.409V638.045H256.461V643.253H236.445V695H230.424ZM286.665 651.877C290.136 651.877 293.174 652.555 295.777 653.911C298.435 655.213 300.496 657.22 301.961 659.932C303.48 662.644 304.239 666.062 304.239 670.184V695H298.462V670.754C298.462 666.252 297.323 662.861 295.045 660.583C292.821 658.251 289.675 657.085 285.607 657.085C282.569 657.085 279.911 657.708 277.633 658.956C275.409 660.149 273.673 661.912 272.426 664.245C271.233 666.523 270.636 669.289 270.636 672.544V695H264.859V634.628H270.636V664L269.497 661.804C270.853 658.712 273.023 656.298 276.006 654.562C278.989 652.772 282.542 651.877 286.665 651.877ZM337.987 695.407C333.539 695.407 329.634 694.485 326.271 692.64C322.908 690.742 320.277 688.165 318.379 684.911C316.48 681.602 315.531 677.832 315.531 673.601C315.531 669.37 316.426 665.628 318.216 662.373C320.06 659.119 322.555 656.569 325.701 654.725C328.902 652.826 332.482 651.877 336.441 651.877C340.455 651.877 344.008 652.799 347.1 654.644C350.246 656.434 352.714 658.983 354.504 662.292C356.294 665.546 357.189 669.316 357.189 673.601C357.189 673.873 357.162 674.171 357.108 674.496C357.108 674.768 357.108 675.066 357.108 675.391H319.924V671.079H354.016L351.738 672.788C351.738 669.696 351.06 666.957 349.704 664.57C348.402 662.129 346.612 660.231 344.334 658.875C342.055 657.518 339.425 656.84 336.441 656.84C333.512 656.84 330.881 657.518 328.549 658.875C326.217 660.231 324.399 662.129 323.098 664.57C321.796 667.011 321.145 669.804 321.145 672.95V673.845C321.145 677.1 321.85 679.975 323.26 682.47C324.725 684.911 326.732 686.837 329.281 688.247C331.885 689.603 334.841 690.281 338.15 690.281C340.754 690.281 343.167 689.82 345.391 688.898C347.669 687.976 349.622 686.565 351.249 684.667L354.504 688.41C352.606 690.688 350.219 692.423 347.344 693.617C344.523 694.81 341.404 695.407 337.987 695.407ZM414.407 695.488C407.138 695.488 401.416 693.4 397.239 689.223C393.062 685.047 390.974 678.863 390.974 670.672V638.045H396.995V670.428C396.995 677.154 398.514 682.117 401.551 685.318C404.589 688.518 408.874 690.118 414.407 690.118C419.994 690.118 424.306 688.518 427.344 685.318C430.381 682.117 431.9 677.154 431.9 670.428V638.045H437.758V670.672C437.758 678.863 435.67 685.047 431.493 689.223C427.371 693.4 421.675 695.488 414.407 695.488ZM454.681 695V634.628H460.458V695H454.681ZM490.276 695.407C486.263 695.407 483.171 694.322 481.001 692.152C478.831 689.983 477.746 686.918 477.746 682.958V642.846H483.523V682.633C483.523 685.128 484.147 687.053 485.395 688.41C486.696 689.766 488.541 690.444 490.927 690.444C493.477 690.444 495.592 689.711 497.274 688.247L499.308 692.396C498.169 693.427 496.786 694.186 495.158 694.675C493.585 695.163 491.958 695.407 490.276 695.407ZM470.098 657.085V652.284H496.541V657.085H470.098ZM509.824 695V652.284H515.601V695H509.824ZM512.753 642.846C511.56 642.846 510.556 642.439 509.743 641.625C508.929 640.812 508.522 639.835 508.522 638.696C508.522 637.557 508.929 636.608 509.743 635.849C510.556 635.035 511.56 634.628 512.753 634.628C513.947 634.628 514.95 635.008 515.764 635.767C516.577 636.527 516.984 637.476 516.984 638.615C516.984 639.808 516.577 640.812 515.764 641.625C515.004 642.439 514.001 642.846 512.753 642.846ZM585.049 651.877C588.521 651.877 591.531 652.555 594.081 653.911C596.684 655.213 598.691 657.22 600.102 659.932C601.566 662.644 602.298 666.062 602.298 670.184V695H596.522V670.754C596.522 666.252 595.437 662.861 593.267 660.583C591.152 658.251 588.141 657.085 584.236 657.085C581.307 657.085 578.757 657.708 576.587 658.956C574.472 660.149 572.818 661.912 571.624 664.245C570.485 666.523 569.916 669.289 569.916 672.544V695H564.139V670.754C564.139 666.252 563.054 662.861 560.884 660.583C558.715 658.251 555.677 657.085 551.772 657.085C548.897 657.085 546.374 657.708 544.205 658.956C542.035 660.149 540.353 661.912 539.16 664.245C538.021 666.523 537.452 669.289 537.452 672.544V695H531.675V652.284H537.207V663.838L536.312 661.804C537.614 658.712 539.703 656.298 542.577 654.562C545.507 652.772 548.951 651.877 552.911 651.877C557.087 651.877 560.64 652.935 563.569 655.05C566.498 657.112 568.397 660.231 569.265 664.407L566.987 663.512C568.234 660.041 570.431 657.247 573.577 655.132C576.777 652.962 580.601 651.877 585.049 651.877ZM644.733 695V685.562L644.489 684.016V668.231C644.489 664.597 643.459 661.804 641.397 659.851C639.39 657.898 636.38 656.922 632.366 656.922C629.6 656.922 626.969 657.383 624.474 658.305C621.979 659.227 619.863 660.448 618.127 661.966L615.524 657.654C617.693 655.81 620.297 654.4 623.335 653.423C626.372 652.393 629.573 651.877 632.936 651.877C638.468 651.877 642.726 653.26 645.71 656.027C648.747 658.739 650.266 662.888 650.266 668.475V695H644.733ZM630.006 695.407C626.806 695.407 624.013 694.892 621.626 693.861C619.294 692.776 617.504 691.312 616.256 689.467C615.008 687.569 614.385 685.399 614.385 682.958C614.385 680.734 614.9 678.727 615.931 676.937C617.015 675.093 618.751 673.628 621.138 672.544C623.579 671.405 626.833 670.835 630.901 670.835H645.628V675.147H631.064C626.942 675.147 624.067 675.88 622.44 677.344C620.867 678.809 620.08 680.626 620.08 682.795C620.08 685.236 621.029 687.189 622.928 688.654C624.826 690.118 627.484 690.85 630.901 690.85C634.156 690.85 636.95 690.118 639.282 688.654C641.669 687.135 643.404 684.965 644.489 682.145L645.791 686.131C644.706 688.952 642.808 691.203 640.096 692.885C637.438 694.566 634.075 695.407 630.006 695.407ZM679.463 695.407C675.449 695.407 672.357 694.322 670.187 692.152C668.018 689.983 666.933 686.918 666.933 682.958V642.846H672.71V682.633C672.71 685.128 673.333 687.053 674.581 688.41C675.883 689.766 677.727 690.444 680.114 690.444C682.663 690.444 684.779 689.711 686.46 688.247L688.494 692.396C687.355 693.427 685.972 694.186 684.345 694.675C682.772 695.163 681.144 695.407 679.463 695.407ZM659.285 657.085V652.284H685.728V657.085H659.285ZM715.645 695.407C711.197 695.407 707.292 694.485 703.929 692.64C700.566 690.742 697.935 688.165 696.036 684.911C694.138 681.602 693.189 677.832 693.189 673.601C693.189 669.37 694.084 665.628 695.874 662.373C697.718 659.119 700.213 656.569 703.359 654.725C706.559 652.826 710.139 651.877 714.099 651.877C718.113 651.877 721.666 652.799 724.758 654.644C727.904 656.434 730.372 658.983 732.162 662.292C733.952 665.546 734.847 669.316 734.847 673.601C734.847 673.873 734.82 674.171 734.765 674.496C734.765 674.768 734.765 675.066 734.765 675.391H697.582V671.079H731.674L729.395 672.788C729.395 669.696 728.717 666.957 727.361 664.57C726.059 662.129 724.269 660.231 721.991 658.875C719.713 657.518 717.082 656.84 714.099 656.84C711.17 656.84 708.539 657.518 706.207 658.875C703.874 660.231 702.057 662.129 700.755 664.57C699.454 667.011 698.803 669.804 698.803 672.95V673.845C698.803 677.1 699.508 679.975 700.918 682.47C702.383 684.911 704.39 686.837 706.939 688.247C709.543 689.603 712.499 690.281 715.808 690.281C718.411 690.281 720.825 689.82 723.049 688.898C725.327 687.976 727.28 686.565 728.907 684.667L732.162 688.41C730.263 690.688 727.877 692.423 725.002 693.617C722.181 694.81 719.062 695.407 715.645 695.407ZM769.12 695V638.045H790.437C795.265 638.045 799.414 638.832 802.886 640.405C806.357 641.924 809.015 644.148 810.859 647.077C812.758 649.952 813.707 653.45 813.707 657.573C813.707 661.587 812.758 665.058 810.859 667.987C809.015 670.862 806.357 673.086 802.886 674.659C799.414 676.178 795.265 676.937 790.437 676.937H772.456L775.141 674.171V695H769.12ZM808.012 695L793.366 674.334H799.875L814.602 695H808.012ZM775.141 674.659L772.456 671.811H790.274C795.97 671.811 800.282 670.564 803.211 668.069C806.195 665.573 807.686 662.075 807.686 657.573C807.686 653.016 806.195 649.491 803.211 646.995C800.282 644.5 795.97 643.253 790.274 643.253H772.456L775.141 640.405V674.659ZM844.841 695.407C840.394 695.407 836.488 694.485 833.125 692.64C829.762 690.742 827.131 688.165 825.233 684.911C823.334 681.602 822.385 677.832 822.385 673.601C822.385 669.37 823.28 665.628 825.07 662.373C826.914 659.119 829.41 656.569 832.556 654.725C835.756 652.826 839.336 651.877 843.296 651.877C847.31 651.877 850.862 652.799 853.954 654.644C857.1 656.434 859.568 658.983 861.358 662.292C863.148 665.546 864.043 669.316 864.043 673.601C864.043 673.873 864.016 674.171 863.962 674.496C863.962 674.768 863.962 675.066 863.962 675.391H826.779V671.079H860.87L858.592 672.788C858.592 669.696 857.914 666.957 856.558 664.57C855.256 662.129 853.466 660.231 851.188 658.875C848.91 657.518 846.279 656.84 843.296 656.84C840.366 656.84 837.736 657.518 835.403 658.875C833.071 660.231 831.254 662.129 829.952 664.57C828.65 667.011 827.999 669.804 827.999 672.95V673.845C827.999 677.1 828.704 679.975 830.115 682.47C831.579 684.911 833.586 686.837 836.136 688.247C838.739 689.603 841.695 690.281 845.004 690.281C847.608 690.281 850.022 689.82 852.246 688.898C854.524 687.976 856.476 686.565 858.104 684.667L861.358 688.41C859.46 690.688 857.073 692.423 854.198 693.617C851.378 694.81 848.259 695.407 844.841 695.407ZM883.713 695L867.603 652.284H873.136L887.781 691.908H885.259L900.311 652.284H905.274L920.164 691.908H917.642L932.531 652.284H937.82L921.628 695H916.177L901.857 657.735H903.566L889.164 695H883.713ZM972.015 695V685.562L971.771 684.016V668.231C971.771 664.597 970.741 661.804 968.68 659.851C966.673 657.898 963.662 656.922 959.648 656.922C956.882 656.922 954.251 657.383 951.756 658.305C949.261 659.227 947.145 660.448 945.41 661.966L942.806 657.654C944.976 655.81 947.579 654.4 950.617 653.423C953.654 652.393 956.855 651.877 960.218 651.877C965.75 651.877 970.008 653.26 972.992 656.027C976.029 658.739 977.548 662.888 977.548 668.475V695H972.015ZM957.289 695.407C954.088 695.407 951.295 694.892 948.908 693.861C946.576 692.776 944.786 691.312 943.538 689.467C942.291 687.569 941.667 685.399 941.667 682.958C941.667 680.734 942.182 678.727 943.213 676.937C944.298 675.093 946.033 673.628 948.42 672.544C950.861 671.405 954.115 670.835 958.184 670.835H972.91V675.147H958.346C954.224 675.147 951.349 675.88 949.722 677.344C948.149 678.809 947.362 680.626 947.362 682.795C947.362 685.236 948.311 687.189 950.21 688.654C952.108 690.118 954.766 690.85 958.184 690.85C961.438 690.85 964.232 690.118 966.564 688.654C968.951 687.135 970.686 684.965 971.771 682.145L973.073 686.131C971.988 688.952 970.09 691.203 967.378 692.885C964.72 694.566 961.357 695.407 957.289 695.407ZM993.239 695V652.284H998.771V663.919L998.202 661.885C999.395 658.63 1001.4 656.162 1004.22 654.481C1007.04 652.745 1010.54 651.877 1014.72 651.877V657.491C1014.5 657.491 1014.28 657.491 1014.07 657.491C1013.85 657.437 1013.63 657.41 1013.42 657.41C1008.91 657.41 1005.39 658.793 1002.84 661.56C1000.29 664.272 999.015 668.15 999.015 673.195V695H993.239ZM1041.87 695.407C1037.8 695.407 1034.14 694.485 1030.88 692.64C1027.68 690.796 1025.16 688.247 1023.32 684.992C1021.47 681.683 1020.55 677.887 1020.55 673.601C1020.55 669.262 1021.47 665.465 1023.32 662.21C1025.16 658.956 1027.68 656.434 1030.88 654.644C1034.14 652.799 1037.8 651.877 1041.87 651.877C1045.61 651.877 1048.95 652.718 1051.88 654.4C1054.86 656.081 1057.22 658.549 1058.95 661.804C1060.74 665.004 1061.64 668.937 1061.64 673.601C1061.64 678.212 1060.77 682.145 1059.04 685.399C1057.3 688.654 1054.94 691.149 1051.96 692.885C1049.03 694.566 1045.66 695.407 1041.87 695.407ZM1042.27 690.281C1045.31 690.281 1048.02 689.603 1050.41 688.247C1052.85 686.837 1054.75 684.884 1056.11 682.389C1057.52 679.839 1058.22 676.91 1058.22 673.601C1058.22 670.238 1057.52 667.309 1056.11 664.814C1054.75 662.319 1052.85 660.393 1050.41 659.037C1048.02 657.627 1045.31 656.922 1042.27 656.922C1039.29 656.922 1036.61 657.627 1034.22 659.037C1031.83 660.393 1029.93 662.319 1028.52 664.814C1027.11 667.309 1026.41 670.238 1026.41 673.601C1026.41 676.91 1027.11 679.839 1028.52 682.389C1029.93 684.884 1031.83 686.837 1034.22 688.247C1036.61 689.603 1039.29 690.281 1042.27 690.281ZM1058.38 695V682.145L1058.95 673.52L1058.14 664.895V634.628H1063.92V695H1058.38Z" fill="#252525"/>
<g clip-path="url(#clip0_346_1601)">
<path fill-rule="evenodd" clip-rule="evenodd" d="M537 0.000197697C614.434 0.000197697 681.104 46.0381 711.046 112.199C707.852 111.634 704.561 112.194 701.735 113.783C698.909 115.372 696.723 117.892 695.551 120.912C694.114 119.891 692.412 119.304 690.65 119.223C688.888 119.142 687.139 119.569 685.614 120.454C686.345 114.928 684.878 109.336 681.527 104.879C678.176 100.421 673.209 97.4538 667.691 96.6133C662.174 95.7728 656.546 97.1264 652.017 100.383C647.487 103.64 644.417 108.541 643.466 114.033C640.599 111.912 637.053 110.914 633.498 111.229C629.944 111.544 626.629 113.151 624.181 115.743C621.734 118.336 620.324 121.736 620.218 125.298C620.113 128.86 621.319 132.336 623.609 135.069L588.708 140.691L664.903 140.884L721.387 141.026C725.747 157.22 727.95 173.918 727.94 190.687C727.94 295.984 642.465 381.342 537.023 381.342C431.58 381.342 346.082 295.952 346.082 190.655C346.026 152.121 357.719 114.484 379.606 82.7483L435.291 82.9914L494.705 83.2528L464.199 78.8778C465.181 77.2163 465.825 75.378 466.095 73.4678C466.365 71.5577 466.255 69.6131 465.773 67.7451C465.29 65.8772 464.444 64.1224 463.283 62.5811C462.121 61.0397 460.667 59.7419 459.003 58.7617C457.339 57.7816 455.498 57.1384 453.586 56.8687C451.673 56.599 449.725 56.7082 447.855 57.19C445.984 57.6719 444.227 58.5169 442.684 59.6769C441.14 60.8369 439.841 62.2892 438.859 63.9507C436.654 63.3007 434.312 63.2785 432.095 63.8865C432.196 63.1264 432.247 62.3604 432.246 61.5935C432.247 57.0083 430.469 52.6011 427.286 49.297C424.102 45.993 419.761 44.0491 415.172 43.8736C449.389 15.4619 492.501 -0.0639034 537 0.000197697Z" fill="#A7E92F"/>
<path fill-rule="evenodd" clip-rule="evenodd" d="M395.866 36.1328C395.866 36.1328 396.706 43.4061 398.58 46.4511C400.453 49.4962 401.794 52.3486 401.721 54.2472C401.721 54.2472 403.737 53.729 405.073 53.9903C406.41 54.2517 406.736 54.637 407.176 54.6828C407.176 54.6828 406.29 54.9121 405.721 55.0176C405.151 55.1231 404.729 56.7786 403.425 56.9941C404.964 58.2463 406.436 59.5796 407.833 60.9885C409.303 62.5798 411.934 64.9507 414.428 65.6156C414.428 65.6156 410.194 65.7807 408.233 64.969C405.294 63.6133 402.644 61.7062 400.426 59.3513C400.426 59.3513 395.604 59.3513 394.966 59.3513C394.327 59.3513 387.558 63.4098 386.084 64.2123C386.084 64.2123 390.869 60.9518 392.67 59.2366C392.67 59.2366 384.615 60.0116 383.127 60.0942C383.127 60.0942 391.939 58.5625 392.968 58.1956C393.997 57.8287 395.723 56.1686 397.257 55.4441C397.257 55.4441 395.691 53.1878 393.988 47.9002C392.284 42.6127 395.866 36.1328 395.866 36.1328Z" fill="#051E34"/>
<path fill-rule="evenodd" clip-rule="evenodd" d="M438.575 71.3301C438.575 71.3301 439.034 75.4574 440.118 77.2C441.202 78.9427 441.955 80.5523 441.904 81.6438C442.526 81.4814 443.171 81.4317 443.81 81.497C444.217 81.6057 444.617 81.7373 445.009 81.8914C445.009 81.8914 444.503 82.0198 444.182 82.0795C443.86 82.1391 443.617 83.0838 442.864 83.203C443.74 83.9223 444.577 84.6877 445.371 85.496C446.207 86.4131 447.704 87.7476 449.119 88.1283C449.119 88.1283 446.712 88.22 445.596 87.7614C443.924 86.9855 442.416 85.8957 441.156 84.5512H438.047C437.684 84.5512 433.836 86.8442 432.995 87.3028C434.295 86.4285 435.546 85.4839 436.742 84.4733C436.742 84.4733 432.15 84.9319 431.314 84.964C431.314 84.964 436.329 84.0881 436.912 83.8817C437.496 83.6753 438.483 82.7306 439.351 82.3179C439.351 82.3179 438.465 81.0339 437.491 78.0301C436.517 75.0263 438.575 71.3301 438.575 71.3301Z" fill="#051E34"/>
<path fill-rule="evenodd" clip-rule="evenodd" d="M384.795 88.0078C384.795 88.0078 385.388 93.1624 386.715 95.3453C388.042 97.5282 388.988 99.523 388.942 100.88C389.716 100.678 390.521 100.617 391.316 100.702C391.822 100.838 392.32 101.001 392.809 101.188C392.809 101.188 392.18 101.353 391.776 101.426C391.372 101.5 391.073 102.674 390.132 102.802C391.223 103.69 392.267 104.634 393.259 105.631C394.301 106.76 396.166 108.438 397.929 108.915C397.929 108.915 394.93 109.03 393.544 108.456C391.459 107.496 389.579 106.145 388.005 104.476C388.005 104.476 384.589 104.476 384.134 104.476C383.68 104.476 378.89 107.356 377.843 107.92C379.46 106.829 381.017 105.654 382.508 104.398C382.508 104.398 376.8 104.944 375.744 105.003C375.744 105.003 381.99 103.916 382.724 103.66C383.459 103.403 384.676 102.224 385.76 101.711C385.76 101.711 384.653 100.115 383.464 96.3679C382.274 92.6212 384.795 88.0078 384.795 88.0078Z" fill="#051E34"/>
<path fill-rule="evenodd" clip-rule="evenodd" d="M709.787 271.58C696.984 298.679 677.989 322.398 654.331 340.828H419.668C374.885 305.938 346.082 251.54 346.082 190.41C346.082 183.989 346.388 177.65 347 171.392C347.164 171.872 347.246 172.376 347.244 172.882V186.429H354.307V238.323H357.902V226.826H366.729V217.269H370.986V205.167H380.216V217.269H393.85V253.549H398.787V261.95H411.172V285.659H416.554V244.134C414.538 226.542 411.388 206.401 406.911 197.179C404.252 198.256 401.198 200.247 398.833 201.87L396.477 200.554L397.997 202.439C395.77 204.012 393.681 205.676 391.761 207.341L390.613 206.144L391.27 207.767C389.391 209.414 387.674 211.06 386.14 212.615C386.209 199.091 397.336 196.738 402.805 197.068C400.211 196.445 397.607 195.954 395.026 195.578L393.947 192.185L393.717 195.395C390.117 194.936 386.567 194.652 383.183 194.542L383.151 192.336L382.319 194.514C378.99 194.422 375.826 194.477 372.914 194.606C385.773 180.889 399.398 189.965 403.903 195.188C402.066 191.946 400.041 188.832 397.933 185.861L400.183 181.761L396.936 184.453C394.126 180.6 391.169 177.005 388.211 173.69L390.278 171.658L387.453 172.846C384.524 169.608 381.603 166.65 378.848 164.013C398.893 163.844 405.101 177.711 406.259 187.759C409.046 178.046 417.39 165.494 437.027 168.815C433.886 170.984 430.538 173.437 427.13 176.152L424.545 174.547L426.267 176.877C422.818 179.683 419.328 182.77 415.944 186.127L413.152 182.953L414.722 187.356C414.336 187.745 413.955 188.14 413.574 188.539C418.855 185.407 426.253 184.223 434.492 190.868C431.837 191.116 428.981 191.469 425.946 191.964L424.922 190.093L425.169 192.097C422.111 192.629 418.929 193.313 415.719 194.198L415.108 191.313L414.552 194.523C412.146 195.225 409.73 196.041 407.347 196.991C409.753 200.467 414.695 210.047 419.709 234.444H421.482V230.954H430.666V221.323H436.981V215.197C436.983 214.076 437.43 213.003 438.224 212.211C439.017 211.419 440.093 210.974 441.215 210.973C442.336 210.975 443.41 211.421 444.203 212.213C444.995 213.004 445.442 214.077 445.444 215.197V221.323H451.759V230.954H454.67V280.051H459.988V215.669H473.351V203.869H485.167V215.669H487.922V278.244H496.937V261.679H510.902V253.915H522.488V261.679H524.881V293.717H530.754V278.776H533.51V247.922H535.539V240.584H547.103V247.922H550.189V235.017C550.191 234.112 550.552 233.245 551.192 232.605C551.832 231.965 552.699 231.604 553.605 231.6C554.512 231.603 555.381 231.964 556.022 232.604C556.663 233.244 557.024 234.112 557.026 235.017V247.922H560.7V278.748H563.455V307.671H568.355V286.755H577.769V292.258H584.157V286.755H589.953V283.027H599.211V253.984H606.099V252.7L620.197 242.547V253.984H628.624V244.088H638.162V195.739H640.55V191.258H643.925V182.765H645.891V179.963H649.629V177.299C649.631 176.098 650.11 174.947 650.96 174.097C651.811 173.248 652.963 172.77 654.166 172.768C655.368 172.771 656.52 173.25 657.37 174.099C658.22 174.948 658.699 176.098 658.703 177.299V179.958H662.437V191.254H672.93V195.734H676.801V279.289H681.531V260.991H691.932V253.989H695.207V250.87C695.21 249.832 695.625 248.836 696.361 248.102C697.096 247.367 698.093 246.953 699.133 246.949C700.173 246.953 701.17 247.367 701.905 248.102C702.641 248.836 703.056 249.832 703.059 250.87V253.989H706.334V260.991H709.778L709.787 271.58Z" fill="black"/>
<path fill-rule="evenodd" clip-rule="evenodd" d="M495.046 290.815C493.595 290.815 492.153 291.003 490.711 290.526C488.874 289.911 488.305 288.728 488.778 286.953C489.251 285.179 490.334 284.66 492.089 285.119C494.385 285.706 496.681 286.119 498.867 287.1C499.872 287.559 500.942 288.104 500.704 289.471C500.465 290.838 499.252 290.668 498.311 290.769C497.241 290.888 496.13 290.815 495.046 290.815Z" fill="#0A1B49"/>
<path fill-rule="evenodd" clip-rule="evenodd" d="M729.276 301.649V353.12L633.075 369.058L536.878 384.999L440.677 369.058L344.48 353.12V301.649H351.08C350.621 301.401 349.579 300.631 355.063 300.515C361.608 300.375 367.4 298.514 375.578 296.93C383.756 295.347 385.803 295.723 391.388 296.747C396.973 297.77 396.436 293.116 408.63 297.537C420.824 301.958 443.114 299.631 451.769 297.164C460.425 294.696 467.309 290.748 472.421 292.372C477.534 293.996 476.304 294.793 479.168 293.539C482.031 292.285 483.803 291.025 490.549 293.072C497.296 295.119 511.398 294.749 526.392 293.072C541.385 291.395 534.776 293.399 544.933 291.862C555.089 290.325 553.583 288.607 558.558 290.748C563.533 292.888 563.4 290.001 569.6 290.188C575.8 290.374 571.239 288.794 577.508 287.49C583.777 286.186 589.775 293.819 615.943 297.167C642.111 300.515 661.061 289.444 667.876 290.374C674.691 291.305 675.099 296.98 681.915 294.656C688.73 292.331 692.011 293.912 701.13 297.26C708.932 300.121 719.395 301.343 722.3 301.652L729.276 301.649Z" fill="black"/>
<path d="M500.585 74.1367H574.984L584.058 74.7408L594.945 78.365L602.204 81.3852L614.906 86.8216L620.35 90.4459L624.584 94.6742L629.423 101.923L631.843 106.151V110.379L624.584 117.628L619.745 121.856L619.14 162.931L619.745 177.428L623.374 181.052L623.979 272.867V292.196L622.77 293.404L615.511 295.217L614.301 295.821L613.092 319.982L610.672 323.003L608.857 323.607H604.018L598.575 321.795L597.97 320.586L597.365 309.714V301.257L557.443 301.861L551.394 302.465L551.999 324.211L566.516 324.815L567.726 325.419V329.043L565.911 330.855L561.072 331.459H555.628L556.233 335.688L551.999 338.104L551.394 358.037L550.789 359.245L547.765 359.849L543.531 358.037V377.971L542.926 387.031L539.902 390.655L537.482 391.26L532.643 389.447L530.828 387.635L530.223 385.219L529.619 357.433L525.384 360.453L522.965 359.849L522.36 358.037V348.976L522.965 333.875L522.36 332.063L518.731 330.855L511.472 330.251H506.633L505.424 329.043L506.028 326.023L506.633 325.419H518.731L516.916 315.15L517.521 309.714L520.545 306.089L521.15 303.673L519.941 303.069L508.448 302.465H475.785L475.18 315.754L473.365 321.795L470.946 323.607L466.107 324.211L460.663 323.003L458.848 319.982L458.243 294.613L450.985 294.009L449.775 291.592L449.17 249.913V228.168L449.775 181.656L454.009 177.428V121.856L450.985 118.836L444.936 114.004L441.307 109.775L441.912 106.151L445.541 99.5065L450.38 93.4661L455.219 88.6338L462.477 85.0095L481.228 77.1569L489.092 74.7408L500.585 74.1367ZM458.848 135.145L460.058 139.373L463.687 141.79L465.502 141.186L464.897 137.561L461.268 135.145H458.848ZM472.155 143.602L470.946 144.81L469.736 152.662V169.576L470.946 171.992L472.76 172.596H604.018V147.226L601.599 144.206L597.365 143.602L575.589 144.81H498.77L481.228 144.206L472.155 143.602ZM512.077 327.231L512.682 329.043L513.287 327.231H512.077Z" fill="#6D981E"/>
<path d="M500.585 74.1367H574.984L584.058 74.7408L594.945 78.365L602.204 81.3852L614.906 86.8216L620.35 90.4459L624.584 94.6742L629.423 101.923L631.843 106.151V110.379L624.584 117.628L619.745 121.856L619.14 123.668H617.931L616.116 126.688L607.043 133.937L604.018 135.749L600.994 139.373L596.76 140.581L558.653 141.186H491.511L479.414 140.581L473.97 138.769L469.131 134.541L467.316 129.105L465.502 129.709L462.477 128.501L461.872 126.688L460.058 126.084V124.876L457.638 124.272L456.429 120.648V112.191L457.033 106.755L455.824 107.963L455.219 120.044L454.009 121.252L445.541 114.608L441.307 109.775L441.912 106.151L445.541 99.5065L450.38 93.4661L455.219 88.6338L462.477 85.0095L481.228 77.1569L489.092 74.7408L500.585 74.1367Z" fill="#464240"/>
<path d="M455.219 106.756H457.033V120.649L458.243 124.273L460.058 124.877L463.082 128.501L467.316 129.105L467.921 127.897L469.736 134.542L475.18 138.77L479.414 139.978L497.56 140.582H558.653L596.76 139.978L600.994 139.374L602.204 136.958L605.228 133.938L609.462 131.522L614.906 126.689H616.116L617.326 123.065H619.745L619.14 162.932L619.745 177.429L623.374 181.053L623.979 272.868V292.197L622.769 293.405L615.511 295.217L613.696 295.821V294.009H597.365L596.76 297.03H582.848L577.404 295.821H551.394L550.789 269.848L549.579 268.035L544.136 267.431L542.926 265.619L539.901 267.431H533.853L529.619 264.411L527.199 260.183L527.804 254.747L530.223 251.122L533.248 249.31L535.062 248.706H539.297L542.926 251.122L545.345 254.142L545.95 255.351V265.619L548.975 266.223H550.789L550.184 263.807L551.999 261.995L554.418 255.351L553.814 251.122L552.604 250.518L553.814 244.478L555.628 242.666L558.048 245.686L559.257 249.914V257.163L557.443 263.203L555.023 267.431V271.66L556.233 274.076L556.838 280.72L557.443 284.949L584.662 285.553H622.769L620.955 280.72L617.93 277.096L617.326 246.894L615.511 233.605L616.116 229.377L617.326 226.961V206.423L607.043 204.007L605.228 199.175V175.617H469.131L468.526 180.449L467.921 201.591L466.106 203.403L462.477 204.007V205.215H455.219V272.868L454.009 279.512L451.589 283.137L450.985 286.157L475.18 286.761L517.521 287.365L519.336 292.801L518.126 294.009L495.745 295.217L497.56 297.03H475.18L474.575 295.217L458.848 294.613V299.446H458.243V294.613L450.985 294.009L449.775 291.593L449.17 249.914V228.169L449.775 181.657L454.009 177.429V121.253L454.614 117.025L455.219 106.756ZM458.848 135.146L460.058 139.374L463.687 141.79L465.502 141.186L464.897 137.562L461.267 135.146H458.848ZM472.155 143.603L470.945 144.811L469.736 152.663V169.576L470.945 171.993L472.76 172.597H604.018V147.227L601.599 144.207L597.365 143.603L575.589 144.811H498.77L481.228 144.207L472.155 143.603Z" fill="#30312F"/>
<path d="M524.175 266.826L527.199 268.034L528.409 275.283L531.434 275.887H545.951V268.034L546.555 267.43H549.58L551.394 269.846L551.999 295.216H577.404L583.453 296.424H596.76L597.365 294.008L598.575 293.404H612.487L613.697 294.008V310.921L613.092 319.982L610.672 323.002L608.858 323.606H604.019L598.575 321.794L597.97 320.586L597.365 309.713V301.257L557.443 301.861L551.394 302.465L551.999 324.21L566.516 324.814L567.726 325.418V329.043L565.911 330.855L561.072 331.459H555.629L556.233 335.687L551.999 338.103L551.394 358.037L550.79 359.245L547.765 359.849L543.531 358.037V377.97L542.926 387.031L539.902 390.655L537.482 391.259L532.643 389.447L530.829 387.635L530.224 385.219L529.619 357.433L525.385 360.453L522.965 359.849L522.36 358.037V348.976L522.965 333.875L522.36 332.063L518.731 330.855L511.473 330.251H506.634L505.424 329.043L506.029 326.022L506.634 325.418H518.731L516.916 315.15L517.521 309.713L520.546 306.089L521.151 303.673L519.941 303.069L508.448 302.465V301.861L518.731 301.257L522.965 300.049L522.36 294.612L521.755 294.008V277.095L522.36 268.034L524.175 266.826ZM512.077 327.231L512.682 329.043L513.287 327.231H512.077Z" fill="#464240"/>
<path d="M466.106 202.193H467.921L468.526 220.315H469.736L472.76 217.898L477.599 215.482L478.809 213.67L476.389 213.066L476.994 210.046L493.326 205.818L496.955 204.005L501.794 203.401L504.214 206.422L505.423 208.234L504.818 211.858L502.399 214.274L496.955 214.878L495.14 213.67H490.906L481.228 216.69L474.575 219.107L473.97 220.315H472.76V221.523H499.374L514.496 222.127L516.916 228.167L516.311 229.979H458.243V251.121L457.638 266.222L457.033 270.45L519.335 271.054L517.521 265.618L515.706 263.202L514.496 257.161V251.121L515.706 245.08L519.94 241.456L522.36 242.06L523.57 245.684H551.394V240.248L555.023 242.06L553.813 245.684L553.209 250.517L554.418 252.329L555.023 255.953L551.999 263.202L550.184 263.806L550.789 266.222L546.555 266.826L545.345 265.618V255.349L542.926 251.725L539.296 249.309H535.062L530.828 251.121L528.409 254.745L527.804 260.182L530.828 265.014L533.852 266.826H539.901L543.53 265.014L544.135 267.43L546.555 268.034L545.95 275.887L544.74 276.491H531.433L527.804 275.283L526.594 268.034L524.174 267.43L522.965 268.034L522.36 277.095V294.008L522.965 294.612V300.048L518.731 301.861L475.784 302.465L475.179 315.754L473.365 321.794L470.945 323.606L466.106 324.21L460.662 323.002L458.848 319.982V294.612H474.575L475.179 297.028L496.955 296.424L495.14 295.216L495.745 294.612L518.126 293.404L518.731 291.592L517.521 287.363H475.179L452.194 286.759L450.984 286.155L451.589 281.927L453.404 279.511L454.614 272.262L455.219 205.214L458.848 204.61L461.267 204.005L462.477 203.401H466.106V202.193Z" fill="#46423F"/>
<path d="M500.584 74.1367H574.984L584.057 74.7408L594.945 78.365L602.203 81.3852L614.905 86.8216L620.349 90.4459L624.583 94.6742L629.422 101.923L631.842 106.151V108.567L627.003 107.963V106.755L620.954 104.943L613.696 102.527L604.018 98.9025L591.92 94.0702L580.427 90.4459L574.984 89.8418H493.93L476.389 95.8823L469.13 98.9025L455.823 103.735L446.75 106.755H443.121L442.516 104.339L449.169 94.6742L455.218 88.6338L462.477 85.0095L481.228 77.1569L489.091 74.7408L500.584 74.1367Z" fill="#30312F"/>
<path d="M618.536 162.932H619.14L619.745 177.429L623.375 181.053L623.979 272.868V292.197L622.77 293.405L615.511 295.217L613.697 295.821V294.009H597.365L596.76 297.029H582.848L577.404 295.821H551.394L550.789 269.847L549.58 268.035L544.136 267.431L542.926 265.619L539.902 267.431H533.853L529.619 264.411L527.199 260.183L527.804 254.746L530.224 251.122L533.248 249.31L535.063 248.706H539.297L542.926 251.122L545.346 254.142L545.95 255.35V265.619L548.975 266.223H550.789L550.185 263.807L551.999 261.995L554.419 255.35L553.814 251.122L552.604 250.518L553.814 244.478L555.628 242.665L558.048 245.686L559.258 249.914V257.162L557.443 263.203L555.024 267.431V271.659L556.233 274.076L556.838 280.72L557.443 284.948L584.662 285.552H622.77L620.955 280.72L617.931 277.096L617.326 246.894L615.511 233.605L616.116 229.376L617.326 226.96V206.423L607.043 204.007L605.228 199.174V187.697L606.438 181.053L609.462 181.657L610.672 182.865L612.487 181.053H616.721L617.326 176.825L617.931 166.556L618.536 162.932Z" fill="black"/>
<path d="M605.833 200.383L607.043 201.591V204.007H610.672L617.326 206.423L617.931 218.504V226.961L616.116 231.793L616.721 237.834L617.931 246.894L618.535 277.096L622.165 281.325L622.77 285.553L612.487 286.157H584.662L559.258 285.553L557.443 284.949L556.233 280.721L555.628 274.076L555.023 271.66H574.379L616.116 272.264L614.906 251.122L614.301 232.397L613.092 229.981H560.467L556.838 228.773L558.653 222.128L559.258 221.524L600.389 220.92L598.575 219.712V218.504L591.921 216.692L581.033 213.068L577.404 214.88H572.565L568.936 211.86V207.027L570.145 204.007L574.984 203.403L578.614 204.611L580.428 206.423L596.76 209.443L597.365 210.048V213.672L594.945 214.88L596.76 216.088L601.599 217.296L602.809 220.92H606.438L605.833 200.383Z" fill="#464240"/>
<path d="M454.614 127.293H455.219L455.824 133.333L457.033 133.937L457.638 132.729L460.663 133.333L462.477 135.75L458.848 135.146L458.243 136.958L455.824 136.354V173.804L457.033 178.033V181.053L463.687 182.865H467.921V201.59L466.106 203.402L462.477 204.006V205.215H455.219V272.867L454.009 279.512L451.589 283.136L450.985 286.156L475.18 286.76L517.521 287.364L519.336 292.801L518.126 294.009L495.745 295.217L497.56 297.029H475.18L474.575 295.217L458.848 294.613V299.445H458.243V294.613L450.985 294.009L449.775 291.593L449.17 249.914V228.168L449.775 181.657L454.009 177.429L454.614 127.293Z" fill="#30312F"/>
<path d="M524.78 207.027H547.766L550.185 208.235L550.79 210.048L551.395 218.504L552 221.524L554.419 222.128L553.21 228.169V238.438L556.234 242.062L558.653 244.478L559.863 249.31V258.371L558.049 264.411L555.629 268.036L555.024 269.848L558.653 269.244L567.122 269.848H583.453L614.302 271.056L614.907 251.123H615.512L616.117 258.975V272.264H570.751L554.419 271.66V267.432L557.444 261.995L558.653 257.163V249.914L556.839 244.478L554.419 242.062L552 240.854L551.395 245.686L549.58 246.29H523.571L521.756 242.062L519.336 242.666L516.312 245.082L515.102 251.123V257.163L515.707 262.599L514.497 261.391L513.893 258.371V248.102L515.707 243.27L519.336 240.25L521.151 236.625L520.546 229.981L519.336 222.732L521.756 220.316L522.361 214.276L523.571 207.631L524.78 207.027Z" fill="black"/>
<path d="M500.584 74.1367H574.984L584.057 74.7408L587.082 75.9488L584.662 77.761L582.243 78.9691L581.033 80.7812V86.8216L578.009 88.0297H497.56L491.511 86.2176L485.462 81.3852H480.623L469.736 85.0095L463.687 86.8216L460.058 88.0297H457.033L458.243 86.8216L478.204 78.365L489.092 74.7408L500.584 74.1367Z" fill="#30312F"/>
<path d="M455.22 106.756H457.034V120.649L458.244 124.273L460.059 124.877L463.083 128.501L467.317 129.105L467.922 127.897L469.737 134.542L475.18 138.77L479.415 139.978L497.561 140.582H558.653L596.761 139.978L600.995 139.374L602.205 136.958L605.229 133.938L609.463 131.522L614.907 126.689H616.117L617.326 123.065H619.746L619.141 159.912L617.931 157.496V148.435L617.326 147.227H618.536V146.019H617.326L617.931 141.79V138.166H616.117L614.907 139.374L611.883 141.79L607.648 143.603H604.624V142.394H603.414V146.019L600.39 144.207L575.59 145.415H498.771L481.229 144.811L472.156 144.207L470.946 148.435L466.712 144.811L463.083 142.998L458.244 141.186H455.22V136.354H457.639H459.454L460.663 139.374L463.688 141.186H464.898L464.293 137.562L460.059 133.334L457.639 132.73L457.034 134.542L455.22 133.334L454.01 121.253L454.615 117.025L455.22 106.756Z" fill="#30312F"/>
<path d="M526.762 297.004H527.856L528.95 299.424L532.779 297.609H543.719L548.094 299.424L549.188 301.239V312.128L549.735 316.363L550.282 324.833L550.829 327.252L549.188 335.117L548.641 338.142L549.188 345.402L547 354.476L544.812 355.686L544.265 355.081V339.352L547 337.537L547.547 336.327L544.265 335.722L543.719 313.943H532.779L532.232 336.327H530.044L532.232 338.747V354.476L531.685 355.081H528.95L527.856 344.797V338.142L528.403 335.722L526.762 328.462L525.669 326.647L525.122 320.598L522.934 318.178L522.387 312.733L523.481 310.918H525.122L525.669 304.869L526.216 299.424L526.762 297.004Z" fill="#FEFEFE"/>
<path d="M575.588 126.689H578.613L579.217 128.502H582.242L585.266 130.918L588.895 135.75L587.686 138.166L587.081 138.77L582.242 139.374H495.744L487.276 138.77L486.066 136.958L487.276 133.938L492.72 131.522L496.954 130.918H506.027L512.076 132.126L538.691 130.918H564.7L571.959 129.106L575.588 126.689Z" fill="#464240"/>
<path d="M514.497 91.6543H563.492L567.121 92.8624L566.516 103.735L564.702 104.339L547.765 104.943H527.804L507.843 104.339L506.634 103.131L505.424 93.4664L506.634 92.2583L514.497 91.6543Z" fill="#464240"/>
<path d="M618.536 162.932H619.141L619.746 177.429L622.77 180.449L623.375 181.657L622.77 183.469L622.165 191.322L621.56 278.908L618.536 277.7L617.931 277.096L617.326 246.894L615.511 233.605L616.116 229.376L617.326 226.96V206.423L607.043 204.007L605.229 199.174V187.697L606.438 181.053L609.463 181.657L610.672 182.865L612.487 181.053H616.721L617.326 176.825L617.931 166.556L618.536 162.932Z" fill="#30312F"/>
<path d="M571.96 203.402H576.194L579.218 205.214L580.428 206.423L596.76 209.443L597.365 210.047V213.671L594.945 214.879L596.76 216.087L601.599 217.295L602.809 220.92H606.438L607.043 219.107L608.857 224.544L613.091 228.772V229.98H560.467L556.838 228.772L558.653 222.128L559.257 221.524L600.389 220.92L598.574 219.712V218.503L591.921 216.691L581.033 213.067L577.404 214.879H572.565L568.935 211.859V207.027L570.145 204.006L571.96 203.402Z" fill="black"/>
<path d="M467.316 203.402H467.921L468.526 220.316H469.735L472.76 217.899L477.599 215.483L478.809 213.671L476.389 213.067L476.994 210.047L493.326 205.819L496.955 204.006L501.794 203.402L504.213 206.423L505.423 208.235L504.818 211.859L502.399 214.275L496.955 214.879L495.14 213.671H490.906L481.228 216.691L474.574 219.107L473.97 220.316H472.76V221.524H499.374L514.496 222.128L516.916 228.168L516.311 229.98H458.848L459.453 226.96L465.501 223.336L466.711 217.295L467.316 203.402Z" fill="black"/>
<path d="M457.639 182.26H461.873L463.687 182.864H467.922V201.589L466.107 203.401L462.478 204.005V205.213H455.219V272.866L454.009 278.907H452.195L451.59 249.913V202.797L452.195 183.468L455.219 184.072L456.429 185.28L457.639 182.26Z" fill="#FEFEFE"/>
<path d="M458.447 294.686H474.285L473.676 298.312H519.973L521.191 298.916V300.125L510.835 300.73H493.17L490.124 301.334H474.895V315.839L473.067 321.883L470.631 323.697L465.757 324.301L460.275 323.092L458.447 320.07V294.686Z" fill="#323230"/>
<path d="M525.989 208.234H548.37L549.579 209.442L550.184 212.463L550.789 221.523L551.394 223.94V229.98L528.409 229.376L523.57 228.772L522.965 228.168L523.57 220.919L524.779 209.442L525.989 208.234Z" fill="#4A4E4E"/>
<path d="M551.395 240.248L555.024 242.06L553.814 245.684L553.21 250.517L554.419 252.329L555.024 255.953L552 263.202L550.185 263.806L550.79 266.222L546.556 266.826L545.346 265.618V255.349L542.927 251.725L539.297 249.309H535.063L530.829 251.121L528.41 254.745L527.805 260.181L530.829 265.014L533.854 266.826H539.902L543.532 265.014L544.136 267.43L546.556 268.034L545.951 275.887L544.741 276.491H531.434L527.805 275.283L526.595 268.034L525.385 267.43V265.618H524.176L522.361 261.994L520.546 251.121L519.941 246.893L520.546 245.684H551.395V240.248Z" fill="#48433F"/>
<path d="M519.94 241.457L522.36 242.061L522.965 245.685H520.545L521.15 252.33L522.965 261.995L524.174 265.619H525.384V266.827L522.965 268.035L522.36 277.096V294.009L522.965 294.613V300.049L518.731 301.861L475.784 302.465V306.694L474.575 305.486V300.653H490.301L493.326 300.049H521.15V298.841H483.043L473.97 298.237L474.575 295.217L475.179 297.029L496.955 296.425L495.14 295.217L495.745 294.613L518.126 293.405L518.731 291.593L517.521 287.364H475.179L452.194 286.76L450.984 286.156V283.136L452.194 284.948L481.833 285.552H516.916L517.521 286.156L518.126 284.948L518.731 278.908V268.035L515.706 263.203L514.496 257.162V251.122L515.706 245.081L519.94 241.457Z" fill="black"/>
<path d="M528.409 287.969H539.902L547.16 288.573L547.765 289.177L548.37 297.029H550.185V304.882L551.395 307.902L552 324.211L566.517 324.815L567.726 325.419V329.044L565.912 330.856L561.073 331.46H555.629L556.234 335.688L552 338.104L551.395 358.038L550.79 359.246L547.765 359.85L543.531 357.434V355.622L545.951 354.414L548.37 344.749L547.765 335.688L548.975 333.876L550.185 326.023L549.58 324.815L548.975 314.547L548.37 309.714V301.258L547.765 299.446L544.136 298.842L542.926 298.237H530.829L525.99 300.05L525.385 297.029H524.175L523.57 299.446V294.613L524.78 290.385L526.595 288.573L528.409 287.969Z" fill="#464240"/>
<path d="M456.429 140.582L462.477 141.79L464.897 143.602L469.131 146.018L470.341 147.831L469.736 170.784L468.526 172.596L467.316 178.033L464.897 181.657H458.243L457.033 181.053L455.219 171.992V141.186L456.429 140.582Z" fill="#30312F"/>
<path d="M600.737 294.686H614.327V319.957L611.856 322.965L610.003 323.567H605.061L599.501 321.762L598.884 320.558L598.266 309.728L597.648 301.304L584.058 300.702L555.642 300.101L553.789 299.499V298.296L555.025 297.694H599.501L600.737 298.897L600.119 301.906L602.59 302.508L604.443 301.906L605.679 300.101H606.914L606.296 296.491L600.737 295.287V294.686Z" fill="#323130"/>
<path d="M607.043 286.76H622.165L620.35 292.8L619.745 294.008L613.696 295.82V294.008H597.365L596.76 297.029H582.848L578.614 296.424L581.033 295.216L579.823 294.612L571.355 294.008L555.023 293.404L555.628 288.572L556.838 287.364L607.043 286.76Z" fill="#30312F"/>
<path d="M469.736 169.576L470.946 171.388L472.761 171.992L604.019 172.596L604.624 171.388V172.596L606.438 173.2V182.865L605.229 180.449V175.617H469.131L467.922 182.865L463.083 183.469L457.639 182.261V181.657L464.897 181.053L467.317 176.221L468.526 171.388L469.736 169.576Z" fill="#30312F"/>
<path d="M466.107 202.193H467.922L467.317 217.294L466.107 223.335L463.083 225.751L460.059 226.959L458.849 229.979L457.639 266.222L456.429 275.887L454.01 278.907L454.615 270.45L455.22 205.214L458.849 204.61L461.268 204.005L462.478 203.401H466.107V202.193Z" fill="#30312F"/>
<path d="M524.341 231.458C524.609 230.922 525.157 230.584 525.756 230.584H545.856C547.718 230.584 549.371 231.775 549.961 233.541V233.541C550.108 233.983 550.184 234.446 550.184 234.911V241.784C550.184 242.363 550.049 242.934 549.789 243.452V243.452C549.275 244.48 548.315 245.213 547.188 245.438L546.522 245.571C546.141 245.647 545.754 245.679 545.366 245.667L527.241 245.119C526.436 245.095 525.671 244.764 525.102 244.196V244.196C524.508 243.602 524.174 242.797 524.174 241.958V232.166C524.174 231.92 524.231 231.678 524.341 231.458V231.458Z" fill="black"/>
<path d="M450.984 287.363H517.521L518.126 288.571V292.8L517.521 293.404H464.292L461.267 292.8L458.848 290.383L458.243 289.175L454.614 288.571L453.404 290.988L452.194 290.383L450.984 287.363Z" fill="#30312F"/>
<path d="M524.175 269.848H525.384L525.989 271.056V276.492H545.95L547.16 275.888L548.37 271.66L549.579 271.056L550.184 273.472V279.512L550.789 280.72V288.573L550.184 297.03H547.765L547.16 289.177L539.901 288.573H528.409L525.384 290.385L523.57 291.593L522.965 286.157V276.492L523.57 271.056L524.175 269.848Z" fill="#FEFEFE"/>
<path d="M605.834 200.383L607.044 201.591V204.007H610.673L617.327 206.423L617.932 218.504V226.961L616.117 231.793L616.722 237.834L617.932 246.894V275.888L616.722 274.076L616.117 272.264L614.907 251.122L614.302 232.397L613.093 229.377L608.253 224.545L606.439 219.108L605.834 200.383Z" fill="#30312F"/>
<path d="M619.745 183.469L622.164 184.073L621.56 278.908L619.14 277.7L618.535 276.491V184.073L619.745 183.469Z" fill="#FEFEFE"/>
<path d="M457.638 182.26H461.872L463.687 182.864H467.921V201.589L466.107 203.401L462.477 204.005V205.213H455.219V194.341L455.824 185.28L457.033 183.468L457.638 182.26Z" fill="#30312F"/>
<path d="M598.574 293.404H612.486L613.696 294.008V310.922H613.091V294.612L603.413 295.216L606.438 298.237L605.833 300.049L602.808 303.069H599.784L598.574 301.257L599.179 298.841L597.969 298.237H553.813V299.445L583.452 300.049L596.76 300.653V301.257L557.443 301.861L551.999 302.465L550.789 300.049V296.425L555.023 295.216H577.404L583.452 296.425H596.76L597.365 294.008L598.574 293.404Z" fill="#464240"/>
<path d="M539.296 369.514L542.321 370.118L542.926 370.722V387.031L539.901 390.655L537.482 391.259L532.643 389.447L530.828 387.635V373.138L534.457 370.722L539.296 369.514Z" fill="#313130"/>
<path d="M499.981 203.402L502.4 204.006L505.424 208.235L504.82 211.859L502.4 214.275L496.956 214.879L495.142 213.671H490.907L481.229 216.691L474.576 219.107L472.156 219.712L472.761 217.899L477.6 215.483L478.81 213.671L476.39 213.067L476.995 210.047L493.327 205.819L496.956 204.006L499.981 203.402Z" fill="#30312F"/>
<path d="M617.325 123.064H619.744L619.139 159.911L617.929 157.495V148.434L617.325 147.226H618.534V146.018H617.325L617.929 141.79V138.166H616.115L614.905 139.374L611.881 141.79L607.647 143.602H604.622V142.394H603.412V146.018L600.388 144.206L599.783 139.374H600.993L602.203 136.957L605.227 133.937L609.461 131.521L614.905 126.689H616.115L617.325 123.064Z" fill="#30312F"/>
<path d="M622.769 181.656H623.374L623.979 272.867V292.196L622.769 293.404H619.14L620.35 292.8L621.559 287.364L614.301 286.76V286.156L622.164 285.552L621.559 281.323L619.14 278.907L619.745 277.699L621.559 278.907V191.321L622.164 183.468L622.769 181.656Z" fill="#30312F"/>
<path d="M493.931 89.2383H574.984L580.428 89.8423L594.945 94.6747L604.018 98.2989L601.599 98.903L590.711 94.6747L582.848 92.2585L579.219 91.6545L569.54 91.0504H504.214L492.721 91.6545L484.858 94.6747L467.316 100.715L448.565 107.36L442.516 108.568L441.307 109.776L441.912 106.151H446.751L466.107 99.507L475.18 95.8828L490.302 90.4464L493.931 89.2383Z" fill="#30312F"/>
<path d="M535.667 249.914L540.506 250.518L544.135 253.538L545.345 256.559L544.74 260.787L542.32 264.411L539.901 265.619H533.852L530.828 263.807L528.408 258.975L529.013 254.746L531.433 251.726L535.667 249.914Z" fill="#FEFEFE"/>
<path d="M556.838 287.363H602.204V287.967L565.911 288.571L564.701 289.779L565.911 290.383L571.355 290.988H581.638L590.711 291.592L593.736 292.196V293.404H598.575L597.365 294.008L596.76 297.028H582.848L578.614 296.424L581.033 295.216L579.823 294.612L571.355 294.008L555.023 293.404L555.628 288.571L556.838 287.363Z" fill="#30312F"/>
<path d="M522.361 294.613H522.966V300.05L518.732 301.862L475.785 302.466V306.694L474.576 305.486V300.654H490.302L493.327 300.05H521.151V298.842H483.044L473.971 298.238L474.576 295.217L475.18 297.029L496.956 296.425L495.141 295.217H521.756L522.361 294.613Z" fill="#30312F"/>
<path d="M604.018 98.9023L607.647 99.5064L618.535 103.735L627.003 106.755V107.963L631.842 108.567L631.237 110.983L624.583 117.628L619.744 121.856L619.139 123.668H617.93L616.72 124.876V115.816L616.115 104.339L604.018 99.5064V98.9023Z" fill="#464240"/>
<path d="M542.925 265.014L544.135 267.43L546.555 268.034L545.95 275.886L544.74 276.49H531.433L527.804 275.282L526.594 267.43L529.618 266.826L532.038 265.618L533.852 266.826H539.901L542.925 265.014Z" fill="#464342"/>
<path d="M520.546 245.686L524.78 246.29L535.063 248.102V249.31L530.829 251.122L528.41 254.746L527.805 260.183L530.829 265.015L529.619 267.431L527.805 268.035L525.385 267.431V265.619H524.176L522.361 261.995L520.546 251.122L519.941 246.894L520.546 245.686Z" fill="#4A423D"/>
<path d="M469.13 175.012H592.525L605.227 175.616V176.824H468.525L469.13 175.012Z" fill="#3E767A"/>
<path d="M524.175 266.826L527.2 268.034L528.41 275.283L531.434 275.887H545.951V268.034L546.556 267.43H549.58L551.395 269.846L552 295.216L551.395 296.424L552 302.465L551.395 307.901L550.185 306.089L549.58 301.861L550.185 288.572V280.719L549.58 277.699V273.471L548.975 271.659L547.161 276.491L545.951 277.095H527.2L525.99 276.491L525.385 269.846H524.175L523.57 280.719V289.176L524.175 294.612L523.57 300.049H522.966L522.361 294.612L521.756 294.008V277.095L522.361 268.034L524.175 266.826Z" fill="#887F64"/>
<path d="M506.029 91.0508H567.122L569.542 92.2589L568.332 98.9033L567.727 103.736L564.702 105.548L517.522 106.152L506.634 105.548L504.82 101.32L504.215 92.2589L506.029 91.0508ZM514.498 91.6548L506.634 92.2589L505.425 94.071L506.634 103.132L507.844 104.34L535.668 104.944H552.605L564.702 104.34L566.517 103.736L567.122 92.8629L562.888 91.6548H514.498Z" fill="#30312F"/>
<path d="M558.047 246.289H559.257L559.862 249.309V258.37L558.047 264.41L555.628 268.035L555.023 269.847L558.652 269.243L567.12 269.847H583.452L614.301 271.055L614.906 251.121H615.51L616.115 258.974V272.263H570.75L554.418 271.659V267.431L557.442 261.994L558.652 257.162V249.913L558.047 246.289Z" fill="#3E767A"/>
<path d="M457.033 270.451L518.731 271.055L516.311 272.263L510.262 273.471H481.228L466.711 274.075L460.662 274.679L457.033 274.075V270.451Z" fill="#4A4E4E"/>
<path d="M555.023 271.66H574.379L616.721 272.264L617.326 275.284H610.672L597.97 274.68H580.428L574.984 275.284L568.936 274.68H563.492L561.072 275.284L559.258 274.076L555.023 272.868V271.66Z" fill="#4A4E4D"/>
<path d="M454.614 127.293H455.219L455.824 133.333L457.034 133.937L457.639 132.729L460.663 133.333L462.478 135.75L458.849 135.146L458.244 136.958L455.824 136.354V173.804L457.034 178.033V181.053L458.244 181.657L457.034 185.885L454.614 184.073H452.195L451.59 189.509L450.985 252.33H450.38L449.775 181.657L454.01 177.429L454.614 127.293Z" fill="#30312F"/>
<path d="M522.36 320.586H522.964L523.569 326.626L525.384 329.647L526.594 336.895L525.989 339.915V346.56L526.594 355.016L529.618 354.412V338.707L527.803 337.499V336.291H530.223L530.828 337.499V359.849L529.618 359.245V357.433L525.384 360.453L522.964 359.849L522.36 358.037V348.976L522.964 333.875L522.36 332.063L521.15 330.855L521.755 327.23L520.545 326.626L521.755 326.022L522.36 320.586Z" fill="#5E9B9E"/>
<path d="M458.243 229.98H458.848V254.746L458.243 269.847L459.453 269.243H516.311L518.126 269.847V266.827L519.335 268.035V271.055H460.662L457.033 270.451L458.243 229.98Z" fill="#3E767A"/>
<path d="M550.184 218.504H551.393L551.998 221.524L554.418 222.128L553.208 228.169V238.437L556.232 242.062L558.652 244.478L558.047 246.29L554.418 242.062L551.998 240.854L551.393 245.686L549.579 246.29H523.569L522.359 243.874L523.569 231.189H524.174L524.779 244.478L547.764 245.082L548.974 244.478L549.579 242.666V234.209L548.974 231.189L524.779 230.585V229.981L549.579 229.377L551.393 229.981L550.184 221.524V218.504Z" fill="black"/>
<path d="M518.126 290.385L519.336 292.801L518.126 294.009L495.746 295.217L497.56 297.029H475.18L474.575 295.217L458.848 294.613V299.445H458.243V294.613L451.59 293.405L454.009 292.801H517.521L518.126 290.385Z" fill="#30312F"/>
<path d="M528.41 289.176H545.346L545.951 289.78V296.424L539.902 295.82H531.434L528.41 296.424L527.805 295.82V289.78L528.41 289.176Z" fill="#444240"/>
<path d="M528.409 287.969H539.902L547.16 288.573L547.765 289.177V297.029L546.556 298.237H530.829L525.99 300.05L525.385 297.029H524.175L523.57 299.446V294.613L524.78 290.385L526.595 288.573L528.409 287.969ZM528.409 289.177L527.804 289.781V295.821L529.619 296.425L531.434 295.821H539.902L545.951 296.425V289.781L545.346 289.177H528.409Z" fill="#6A867B"/>
<path d="M456.429 204.609L460.059 205.213L458.849 206.422L457.034 207.026V240.852L456.429 275.887L454.01 278.907L454.615 270.45L455.22 205.213L456.429 204.609Z" fill="#30312F"/>
<path d="M555.022 297.633H598.573L599.783 298.841L599.178 301.257H596.759L583.451 300.653L555.627 300.049L553.812 299.445V298.237L555.022 297.633Z" fill="#333231"/>
<path d="M458.848 294.613H469.131L467.921 295.217L468.526 298.238L470.34 299.446L469.735 302.466L464.292 304.278L461.267 305.486L460.057 307.298H458.848V294.613Z" fill="#30312F"/>
<path d="M553.813 324.814H566.515L567.725 325.418V329.043L565.91 330.855L561.071 331.459H555.022L551.998 330.251L552.603 326.627L553.813 324.814Z" fill="#4C5453"/>
<path d="M614.302 184.072H616.721V200.381L616.116 203.402L611.882 202.194L611.277 197.965V187.092L612.487 184.676L614.302 184.072Z" fill="#FEFEFE"/>
<path d="M450.984 283.137L452.194 284.949L481.833 285.553H516.916L517.521 287.365H475.179L452.194 286.761L450.984 286.157V283.137Z" fill="#30312F"/>
<path d="M614.301 229.98L615.511 230.585L617.93 246.894V275.888L616.72 274.076L616.115 272.264L614.906 251.122L614.301 229.98Z" fill="#30312F"/>
<path d="M554.418 272.867H555.628L556.233 274.075L556.837 280.72L557.442 284.948L584.662 285.552H622.164V286.156L614.301 286.76H556.837L555.023 286.156L554.418 284.948V272.867Z" fill="#464240"/>
<path d="M605.833 182.863L611.277 184.071L610.672 187.092L610.068 200.985L609.463 202.193L606.438 201.589L605.229 199.172V187.696L605.833 182.863Z" fill="#FEFEFE"/>
<path d="M598.575 293.404H612.487L613.697 294.008V310.922H613.092V294.612L603.414 295.216L606.438 298.237L605.833 300.049L602.809 303.069H599.785L598.575 301.257L599.18 298.841L597.97 298.237H593.131L594.341 297.029L596.76 296.425L597.365 294.008L598.575 293.404Z" fill="#464240"/>
<path d="M554.419 333.271L556.234 333.876L555.629 336.292L552 338.104L551.395 358.037L550.79 359.245L547.765 359.849L543.531 357.433V355.621L547.765 355.017L548.975 350.789L549.58 340.52L550.185 335.084L554.419 333.271Z" fill="#30312F"/>
<path d="M466.712 182.863H467.922V201.589L466.107 202.797L463.688 202.193V187.696L464.292 183.467L466.712 182.863Z" fill="#FEFEFE"/>
<path d="M535.063 248.705H539.297L542.926 251.121L545.346 254.141L545.95 255.35V260.786L544.136 265.014L539.902 267.43H533.853L529.619 264.41L527.199 260.182L527.804 254.746L530.224 251.121L533.248 249.309L535.063 248.705ZM535.667 249.913L531.433 251.725L529.014 254.746L528.409 258.974L530.828 263.806L533.853 265.618H539.902L542.321 264.41L545.346 259.578L544.741 254.746L541.716 251.121L538.692 249.913H535.667Z" fill="#827C64"/>
<path d="M614.906 131.521H617.93L618.535 133.938V138.166H616.116L614.906 139.374L611.881 141.79H606.438V138.77L608.857 135.75H610.672L611.881 133.334L614.906 132.73V131.521Z" fill="#FEFEFE"/>
<path d="M617.931 206.422H618.536L619.141 277.699L617.931 277.095L617.326 246.893L615.512 233.604L616.117 229.376L617.326 226.959L617.931 206.422Z" fill="#30312F"/>
<path d="M493.318 300.07H520.455L518.646 302.407L475.829 303.185V308.637L474.623 307.079V300.849H490.303L493.318 300.07Z" fill="#30312F"/>
<path d="M527.804 336.291H530.223L530.828 337.499V359.849L529.618 359.245V357.433L525.384 360.453L522.965 359.849V349.58H524.779L525.384 351.996H526.594V355.016L529.618 354.412V338.707L527.804 337.499V336.291Z" fill="#30312F"/>
<path d="M556.233 286.156L607.043 286.76V287.364L556.838 287.968L555.024 293.405H571.355L584.663 294.613V295.217L577.404 295.821V294.613H553.209L554.419 289.176L556.233 286.156Z" fill="#30312F"/>
<path d="M458.244 184.072L460.663 184.676L461.873 185.28V201.59L458.848 202.194L458.244 201.59L457.639 186.488L458.244 184.072Z" fill="#FEFEFE"/>
<path d="M553.814 297.029H566.516V297.633L553.814 298.237V299.445L583.453 300.05L596.76 300.654V301.258L554.419 301.862L551.395 299.445V298.237L553.814 297.029Z" fill="#464240"/>
<path d="M506.634 325.418H515.707L519.941 327.23V329.646H515.707L515.102 330.25H506.634L505.424 329.042L506.029 326.022L506.634 325.418ZM512.077 327.23L512.682 329.042L513.287 327.23H512.077Z" fill="#4E5957"/>
<path d="M458.242 228.168L458.847 229.98L457.637 266.223L457.033 272.263H456.428V236.625L457.033 229.376H458.242V228.168Z" fill="#30312F"/>
<path d="M604.018 98.9023L607.647 99.5064L618.535 103.735L627.003 106.755L625.188 107.359L617.93 104.943L618.535 107.359L619.139 119.44L619.744 121.856L619.139 123.668H617.93L616.72 124.876V115.816L616.115 104.339L604.018 99.5064V98.9023Z" fill="#30312F"/>
<path d="M524.175 266.826L525.99 267.43L526.595 272.867L525.385 271.054V269.846H524.175L523.57 280.719V289.176L524.175 294.612L523.57 300.049H522.966L522.361 294.612L521.756 294.008V277.095L522.361 268.034L524.175 266.826Z" fill="#30312F"/>
<path d="M454.613 127.293H455.218L455.823 133.333L457.033 133.937L457.638 132.729L460.662 133.333L462.477 135.75L458.847 135.146L458.243 136.958L455.823 136.354V173.804L457.033 177.429L454.613 176.22V127.293Z" fill="#30312F"/>
<path d="M523.569 231.189H524.174L524.779 244.478L547.764 245.082L548.974 244.478L550.184 236.626H550.789L551.393 245.686L549.579 246.291H523.569L522.359 243.874L523.569 231.189Z" fill="#7F8672"/>
<path d="M474.576 295.217L475.18 297.029L496.956 296.425L495.141 295.217L501.19 295.821L503.005 296.425V297.633L501.795 298.237L487.883 298.841L473.971 298.237L474.576 295.217Z" fill="#30312F"/>
<path d="M518.731 313.338L519.941 315.15L520.545 318.17L522.36 319.378V326.023L521.755 327.231V330.855L515.102 330.251L516.311 328.439V329.647L518.126 329.043L519.941 329.647V327.231L517.521 326.627L515.706 325.419H518.731L518.126 318.774L518.731 313.338Z" fill="#30312F"/>
<path d="M618.535 162.932H619.139L619.744 177.429L622.769 180.449L623.374 181.657L622.164 184.073H617.93V166.556L618.535 162.932Z" fill="#30312F"/>
<path d="M522.964 336.895H523.569V339.915L525.384 338.103L525.989 342.331V351.996L523.569 350.788L522.964 358.036H522.359V348.975L522.964 336.895Z" fill="#7CB6BC"/>
<path d="M604.019 136.354L604.624 137.562V139.374L606.439 138.77V141.79H610.673L608.253 142.998L607.649 143.602H604.624V142.394H603.414V146.018L600.39 144.206L599.785 139.374L603.414 136.958L604.019 136.354Z" fill="#30312F"/>
<path d="M527.804 245.686L549.579 246.29L548.974 247.498L540.506 248.102L539.296 249.31L533.248 248.102L524.779 246.894V246.29L527.804 245.686Z" fill="#455F5F"/>
<path d="M530.828 313.338H542.925V313.942L531.432 314.546V335.687L530.223 336.292V313.942L530.828 313.338Z" fill="#746755"/>
<path d="M585.872 294.613H597.364L596.76 297.029H582.847L578.613 296.425L581.033 295.217L585.872 294.613Z" fill="#464240"/>
<path d="M621.561 230.584H622.166V280.72L619.746 279.512V277.699L621.561 278.907V230.584Z" fill="#30312F"/>
<path d="M572.565 295.217H577.404L583.453 296.425L594.34 297.029V297.633H570.75L568.936 295.821L572.565 295.217Z" fill="#464240"/>
<path d="M617.325 129.709L619.14 130.313V159.911L617.93 157.495V148.434L617.325 147.226H618.535V146.018H617.325L617.93 141.79V133.937L616.115 130.917L617.325 129.709Z" fill="#30312F"/>
<path d="M455.22 106.756H457.034V120.649L458.244 124.877L455.22 123.669L454.01 121.253L454.615 117.025L455.22 106.756Z" fill="#30312F"/>
<path d="M474.574 300.652H494.535L504.818 301.256V301.86L475.784 302.464V306.693L474.574 305.485V300.652Z" fill="#30312F"/>
<path d="M527.199 289.176L528.409 289.78V295.82L531.433 295.216H539.902L545.95 296.424L545.346 289.176H546.555V297.028L545.346 297.632L544.136 297.028H530.224L527.804 298.236L527.199 297.632V289.176Z" fill="#3E767A"/>
<path d="M554.419 333.271L556.234 333.876L555.629 336.292L552 338.104L551.395 351.393H550.79L550.185 340.52L549.58 338.104L550.185 335.084L554.419 333.271Z" fill="#30312F"/>
<path d="M506.634 325.418H512.077L511.473 330.25H506.634L505.424 329.042L506.029 326.022L506.634 325.418Z" fill="#373735"/>
<path d="M451.59 292.801L474.575 293.405V294.613H458.848V299.445H458.243V294.613L451.59 293.405V292.801Z" fill="#30312F"/>
<path d="M614.302 138.77L614.907 139.978H617.326V142.998L613.697 142.394L609.463 144.206L603.414 146.622V142.394H604.624V143.602H607.648L608.253 142.394H610.673L611.277 141.186H613.092L614.302 138.77Z" fill="#30312F"/>
<path d="M565.911 325.418H567.725V329.042L567.121 330.25H562.886L558.652 328.438L559.257 327.23L565.911 326.626V325.418Z" fill="#454341"/>
<path d="M530.224 251.121L532.038 251.725L529.619 254.745L529.014 258.974L530.828 262.598V263.806L533.853 265.014L539.297 266.222V266.826H534.458L530.224 265.014L527.199 260.182L527.804 254.745L530.224 251.121Z" fill="#907959"/>
<path d="M617.326 226.959H617.931V246.892H617.326L615.512 233.603L616.117 229.375L617.326 226.959Z" fill="#30312F"/>
<path d="M521.755 300.049H523.569V307.901L522.359 309.109L521.15 306.089V303.673L519.94 303.069L508.447 302.465V301.861L518.73 301.257L521.755 300.049Z" fill="black"/>
<path d="M461.268 101.318L461.872 102.526L448.565 107.359L442.516 108.567L441.307 109.775L441.912 106.151H446.751L461.268 101.318Z" fill="#30312F"/>
<path d="M621.561 191.32H622.165L622.77 216.086H623.375V223.335H622.165L621.561 224.543V191.32Z" fill="#30312F"/>
<path d="M540.507 247.496H547.766L544.741 252.932L539.902 249.308L540.507 247.496Z" fill="#674626"/>
<path d="M550.79 288.572H551.395L552 295.217L551.395 296.425L552 302.465L551.395 307.902L550.185 306.09L549.58 301.861L550.185 289.176L550.79 288.572Z" fill="#30312F"/>
<path d="M606.438 181.053L609.462 181.657L610.672 182.865H617.325L616.72 185.281V184.073L612.486 184.677L611.881 187.093L610.067 186.489V185.281L608.857 184.073L606.438 183.469V181.053Z" fill="#30312F"/>
<path d="M454.613 127.293H455.218L455.823 133.333L457.033 133.937L457.638 132.729L460.662 133.333L462.477 135.75L458.847 135.146L458.243 136.958L455.823 136.354L455.218 139.374H454.613V127.293Z" fill="#30312F"/>
<path d="M525.988 246.893L533.247 247.497L535.061 248.101V249.309L530.827 251.121L528.408 253.537L527.803 248.101L525.988 247.497V246.893Z" fill="#30312F"/>
<path d="M467.921 141.789H471.551V142.997L472.76 143.601L471.551 144.809L470.946 148.434L466.712 144.809L465.502 142.997L467.921 141.789Z" fill="#30312F"/>
<path d="M622.769 283.74H623.374V292.801L622.769 293.405H619.14L620.35 292.801L621.559 287.364L614.301 286.76V286.156L622.164 285.552L622.769 283.74Z" fill="#30312F"/>
<path d="M489.697 294.008H507.239V294.612L495.746 295.216L497.561 297.028H492.722V295.82L489.697 294.612V294.008Z" fill="#30312F"/>
<path d="M467.922 175.615H468.526V180.448L467.922 182.864L463.083 183.468L457.639 182.26V181.656L464.897 181.052L467.922 175.615Z" fill="#30312F"/>
<path d="M527.805 336.291H530.224L530.829 337.499V359.849L529.619 359.245L529.014 355.62H530.224L529.619 338.707L527.805 337.499V336.291Z" fill="#567673"/>
<path d="M524.174 266.826L525.989 267.43L526.594 272.867L525.384 271.054V269.846H524.174L523.569 276.491H522.359V268.034L524.174 266.826Z" fill="#30312F"/>
<path d="M525.99 289.176L526.595 290.988L525.99 293.404L526.595 298.236L528.409 299.445L525.99 300.049L525.385 297.028H524.175L523.57 299.445V294.612L524.78 290.384L525.99 289.176Z" fill="#4E9CA5"/>
<path d="M528.41 289.176H545.346V289.78H529.014V295.216L531.434 295.82L528.41 296.424L527.805 295.82V289.78L528.41 289.176Z" fill="#4A4E4E"/>
<path d="M523.569 231.189H524.174L524.779 244.478L527.803 245.082V246.291H523.569L522.359 243.874L523.569 231.189Z" fill="#30312F"/>
<path d="M495.141 295.217L501.19 295.821L503.004 296.425V297.633H485.463V297.029L492.721 296.425H496.956L495.141 295.217Z" fill="#30312F"/>
<path d="M463.688 136.354L466.107 136.958L469.131 138.77L471.551 138.166L472.761 138.77L472.156 141.186L469.131 140.582L465.502 141.186L463.688 136.354Z" fill="#30312F"/>
<path d="M553.813 324.814H560.466L558.047 326.023L553.813 327.835L553.208 330.251L560.466 330.855V331.459H555.022L551.998 330.251L552.603 326.627L553.813 324.814Z" fill="#30312F"/>
<path d="M455.824 135.75L459.453 136.354L460.058 139.374L456.429 141.186H455.219V136.354L455.824 135.75Z" fill="#30312F"/>
<path d="M498.77 295.217L505.423 295.821L510.867 296.425L511.472 297.633L507.843 298.237H501.794L503.004 297.633V296.425L498.77 295.821V295.217Z" fill="#30312F"/>
<path d="M539.902 290.385H544.136L544.741 294.613H541.112L539.297 292.197L539.902 290.385Z" fill="#31302F"/>
<path d="M567.121 293.404L579.824 294.008L584.663 294.612V295.216L577.404 295.82V294.612H567.121V293.404Z" fill="#30312F"/>
<path d="M622.165 223.336H623.375V234.209H622.165L621.561 230.584V224.544L622.165 223.336Z" fill="#30312F"/>
<path d="M466.107 202.193H467.921L467.316 217.294L466.107 214.878V205.818L465.502 204.61H461.268L462.477 203.401H466.107V202.193Z" fill="#30312F"/>
<path d="M548.976 345.352H549.58V350.788L547.766 355.016L545.951 354.412L548.371 345.956L548.976 345.352Z" fill="#464240"/>
<path d="M525.988 267.432L527.198 268.036L528.408 275.284L531.432 275.888L529.013 277.096L525.988 276.492V267.432Z" fill="#30312F"/>
<path d="M544.137 262.598L544.741 264.41L539.902 267.43H533.854L532.039 265.618L535.063 266.222V265.618L541.112 264.41L543.532 263.806L544.137 262.598Z" fill="#4C7C7C"/>
<path d="M616.117 126.084H617.327L616.722 127.896L611.883 131.52L610.068 133.333L607.044 135.145L605.834 134.541L611.883 129.104L616.117 126.084Z" fill="#FCF9F6"/>
<path d="M449.775 181.656L451.59 182.26V189.509L450.985 191.321H449.775V181.656Z" fill="#30312F"/>
<path d="M474.576 295.217L475.18 297.029H485.463L484.858 298.237H473.971L474.576 295.217Z" fill="#30312F"/>
<path d="M547.159 297.029H550.184V302.466L548.974 304.882L547.764 299.445L544.135 298.841L546.554 297.633L547.159 297.029Z" fill="#4E9CA5"/>
<path d="M550.185 355.621H551.395L550.79 359.245L547.765 359.849L543.531 357.433L544.136 356.225L546.556 357.433L548.975 356.829L550.185 355.621Z" fill="#464240"/>
<path d="M554.418 272.867H555.023L556.233 283.136L556.837 286.156H555.023L554.418 284.948V272.867Z" fill="#464240"/>
<path d="M458.849 139.373L461.873 139.977L464.898 141.185L466.108 141.789V144.205L463.083 142.997L458.244 141.185L458.849 139.373Z" fill="#30312F"/>
<path d="M614.301 138.77L614.905 139.978H617.325V142.998L613.696 142.394L610.066 142.998L611.276 141.186H613.091L614.301 138.77Z" fill="#30312F"/>
<path d="M475.784 210.047L476.994 210.651V213.067L478.809 213.671L477.599 216.087L473.97 217.899L472.76 217.295L475.784 214.879L475.179 211.255L475.784 210.047Z" fill="#30312F"/>
<path d="M617.326 156.287L618.536 157.495L619.141 162.328L617.931 167.764H617.326V156.287Z" fill="#30312F"/>
<path d="M518.126 271.66H518.731L518.126 280.117L517.521 285.553H516.916V274.076L518.126 271.66Z" fill="#333231"/>
<path d="M467.317 127.896H467.922L469.131 131.521V134.541L464.897 130.917L463.688 129.105H467.317V127.896Z" fill="#30312F"/>
<path d="M565.912 325.418H567.726V329.042L564.702 329.646L563.492 329.042L564.097 327.23L565.912 325.418Z" fill="#343534"/>
<path d="M474.574 300.652L483.647 301.86V302.464H475.784V306.693L474.574 305.485V300.652Z" fill="#30312F"/>
<path d="M526.595 288.572L528.409 289.176H527.199L527.804 297.633L528.409 298.841L525.99 298.237L525.385 292.801L526.595 288.572Z" fill="#30312F"/>
<path d="M441.912 106.15H448.565V107.358L442.516 108.567L441.307 109.775L441.912 106.15Z" fill="#30312F"/>
<path d="M519.941 327.23H521.755V330.855L515.102 330.251L516.311 328.439V329.647L518.126 329.043L519.941 329.647V327.23Z" fill="#6C7C6F"/>
<path d="M521.755 300.049L522.359 301.861L520.545 302.465H508.447V301.861L518.73 301.257L521.755 300.049Z" fill="#30312F"/>
<path d="M535.062 248.705H539.296L540.506 249.913L533.248 251.121L532.038 251.725L530.828 250.517L535.062 248.705Z" fill="#5B7A72"/>
<path d="M550.185 236.625H550.79L551.395 245.686L547.766 246.29V245.082L548.975 244.478L550.185 236.625Z" fill="#957C5B"/>
<path d="M616.115 204.609L617.93 205.817V218.502H617.325V206.422L614.301 205.817L616.115 204.609Z" fill="#30312F"/>
<path d="M604.019 136.354L604.624 137.562L602.81 141.186H599.785V139.374L603.414 136.958L604.019 136.354Z" fill="#FEFEFE"/>
<path d="M490.906 294.613H495.14V295.821L497.56 296.425V297.029H492.721V295.821L490.906 295.217V294.613Z" fill="#30312F"/>
<path d="M617.325 129.709L619.14 130.313V138.166H618.535L617.325 132.729L616.115 130.917L617.325 129.709Z" fill="#30312F"/>
<path d="M519.94 241.457L522.359 242.061V245.081L518.125 244.477L519.94 241.457Z" fill="#5E4835"/>
<path d="M616.116 136.957L616.721 138.165H617.931L618.536 145.414L617.326 143.602V139.977L614.906 139.373L616.116 136.957Z" fill="#30312F"/>
<path d="M618.535 292.195L620.35 292.799L619.745 294.007L613.696 295.82V294.007L612.486 293.403H618.535V292.195Z" fill="#30312F"/>
<rect x="522.387" y="229.748" width="28.979" height="17.1491" rx="3" fill="#FEFEFE"/>
<ellipse cx="536.341" cy="257.884" rx="9.39135" ry="9.37842" fill="#FEFEFE"/>
<rect x="523.729" y="286.287" width="3.48822" height="74.2235" rx="1.74411" fill="#30312F"/>
<rect x="547.609" y="286.287" width="3.48822" height="74.2235" rx="1.74411" fill="#30312F"/>
<rect x="529.363" y="307.188" width="15.2945" height="83.066" rx="7.64724" fill="#3D3B39"/>
<rect x="526.682" y="287.627" width="21.1976" height="11.79" fill="#454746"/>
</g>
<defs>
<clipPath id="clip0_346_1601">
<rect width="462" height="385" fill="white" transform="translate(306)"/>
</clipPath>
</defs>
</svg>
