<svg width="14" height="14" viewBox="0 0 14 14" fill="none" xmlns="http://www.w3.org/2000/svg">
<circle cx="7" cy="7" r="6.5" fill="#A7E92F" stroke="#A7E92F"/>
<path fill-rule="evenodd" clip-rule="evenodd" d="M5.58697 8.63717L9.69832 4.52587C9.81944 4.4047 10.0183 4.40594 10.1383 4.52587L10.5352 4.92281C10.6551 5.04274 10.6551 5.24286 10.5352 5.36274L6.42389 9.4741C6.30396 9.59402 6.10508 9.59526 5.98391 9.4741L5.58697 9.07715C5.4658 8.95599 5.4658 8.75834 5.58697 8.63717Z" fill="black"/>
<path fill-rule="evenodd" clip-rule="evenodd" d="M4.30321 6.13137L6.80764 8.6358C6.92876 8.75697 6.92733 8.95608 6.80764 9.07578L6.41069 9.47272C6.291 9.59237 6.09041 9.59237 5.97071 9.47272L3.46628 6.96829C3.34659 6.84859 3.34516 6.64948 3.46628 6.52831L3.86323 6.13137C3.9844 6.01025 4.18204 6.01025 4.30321 6.13137Z" fill="black"/>
</svg>
