<?xml version="1.0" encoding="utf-8"?>
<!-- Generator: Adobe Illustrator 26.0.3, SVG Export Plug-In . SVG Version: 6.00 Build 0)  -->
<svg version="1.0" id="katman_1" xmlns="http://www.w3.org/2000/svg" xmlns:xlink="http://www.w3.org/1999/xlink" x="0px" y="0px"
	 viewBox="0 0 267.9 192" style="enable-background:new 0 0 267.9 192;" xml:space="preserve">
<style type="text/css">
	.st0{fill:#1F4BDC;}
</style>
<path class="st0" d="M42,86.7c1.2,0,2.2,0,3.3,0c1,0,1.3-0.2,1.5-1.2c0.2-0.8,0.4-1.7,0.6-2.6c0.2-0.9,0.7-1.5,1.7-1.5
	c3.7-0.2,7.3,0,10.5,2.1c7.7,4.9,7.4,15.6-0.5,20.2c-2.2,1.3-4.5,1.7-7,1.8c-1.4,0-2.8,0-4.3,0c-1.4,0-1.5,0.1-1.8,1.5
	c-0.2,0.8-0.3,1.7-0.5,2.5c-0.2,0.8-0.7,1.3-1.5,1.3c-2.6,0-5.3,0.3-7.9-0.5c-4.7-1.4-7.8-4.4-8.8-9.3c-1.2-5.6,2.1-11.2,7.6-13.2
	c0.8-0.3,1.7-0.6,2.6-0.7C39,86.6,40.6,86.8,42,86.7z M50,100.6c0.8,0,1.6,0,2.4,0c1.8,0,3.5-0.5,5-1.5c2.3-1.7,3.4-4,3-6.9
	c-0.4-2.6-2-4.2-4.3-5.3c-2.2-1-4.6-0.9-6.9-0.8c-0.6,0-0.8,0.5-1,1c-0.2,0.8-0.3,1.6-0.5,2.4c-0.3,1.5-0.8,1.9-2.4,1.9
	c-2,0-3.9,0-5.9,0c-2.9,0.1-5.2,1.3-6.7,3.8c-2.2,3.7-0.5,8.3,3.7,9.9c2.5,1,5,0.6,7.5,0.6c0.5,0,0.8-0.4,0.9-0.9
	c0.2-0.9,0.4-1.8,0.6-2.6c0.3-1.2,0.8-1.6,2.1-1.7C48.2,100.6,49.1,100.6,50,100.6z"/>
<path class="st0" d="M168.4,103.9c0,2.4,0,4.6,0,6.8c0,1.3,0,1.3-1.3,1.2c-2.4,0-2.1,0.3-2.1-2c0-6.9,0-13.7,0-20.6
	c0-1.1,0-1.1,1.1-1.1c0.3,0,0.6,0,0.9,0c0.6,0,1.1,0.1,1.1,0.8c0.1,0.5,0.3,0.5,0.7,0.2c4.9-3.7,12.2-0.3,12.5,6.4
	c0.1,2.4-0.2,4.7-1.7,6.7c-2.5,3.4-7.4,4.1-10.8,1.7C168.8,104.1,168.7,104.1,168.4,103.9z M177.6,96.7c0-0.4,0-0.8,0-1.2
	c-0.2-2.4-1.9-4.1-4.1-4.3c-2.1-0.2-4.1,1.3-4.8,3.5c-0.4,1.5-0.4,3,0.1,4.4c1.1,3.3,5.1,4.2,7.5,1.6
	C177.3,99.6,177.6,98.2,177.6,96.7z"/>
<path class="st0" d="M118.4,103.8c-3.9,3-7.9,1.8-10.2-0.3c-2.1-1.9-2.8-4.4-2.8-7.1c0.1-3.3,1.4-6,4.3-7.6c2.7-1.5,5.5-1.4,8,0.4
	c0.6,0.4,0.8,0.4,0.9-0.3c0.1-0.5,0.4-0.6,0.8-0.6c2.9,0,2.3-0.3,2.3,2.2c0,4.5,0,9,0,13.5c0,1.2,0,1.2-1.2,1.2h-0.2
	C119,105.1,119,105.1,118.4,103.8z M118.5,96.7c-0.1-0.8-0.1-1.8-0.5-2.6c-0.8-1.8-2.2-2.8-4.2-2.9c-1.8-0.1-3.3,1-4,2.8
	c-0.4,0.9-0.6,1.9-0.5,2.9c0,1,0.3,2,0.7,2.8c1.4,2.9,5.4,3.4,7.4,0.9C118.2,99.5,118.4,98.1,118.5,96.7L118.5,96.7z"/>
<path class="st0" d="M203.2,96.7c0,2.5,0,5,0,7.4c0,0.7-0.2,1-0.9,1c-0.4,0-0.8,0-1.1,0c-0.6,0-1.1-0.1-1.1-0.8
	c0-0.3-0.2-0.6-0.6-0.3c-4.3,3.5-11.1,1-12.4-5.2c-0.6-3.3-0.1-6.3,2.4-8.8c2.7-2.7,6.7-3,9.8-0.8c0.6,0.4,0.8,0.3,0.9-0.3
	c0.1-0.5,0.4-0.6,0.8-0.6c0.5,0,0.9,0,1.4,0c0.7-0.1,1,0.2,1,0.9C203.2,91.7,203.2,94.2,203.2,96.7z M190.7,96.8
	c-0.1,1,0.1,1.9,0.5,2.8c0.8,1.6,2.1,2.5,3.9,2.6c1.6,0.1,2.9-0.6,3.8-1.9c1.3-1.9,1.3-5.2,0-7.1c-1.8-2.6-5.3-2.7-7.1-0.4
	C190.9,94,190.6,95.3,190.7,96.8L190.7,96.8z"/>
<path class="st0" d="M215.8,105.6c-1.9-0.1-3.8-0.6-5.5-1.5c-0.4-0.2-0.5-0.5-0.3-0.9c0.3-0.6,0.7-1.1,0.9-1.7
	c0.3-0.6,0.6-0.6,1.1-0.3c1.3,0.7,2.8,1.1,4.2,1c0.6,0,1.1-0.2,1.6-0.6c0.2-0.1,0.3-0.3,0.4-0.5c0.1-0.2,0.1-0.4,0.1-0.7
	c0-0.2-0.1-0.4-0.2-0.6c-0.1-0.2-0.3-0.4-0.5-0.5c-0.6-0.4-1.3-0.6-2-0.8c-1-0.3-2.1-0.6-3-1.1c-1.7-0.9-2.7-2.3-2.7-4.3
	c0-2,0.9-3.4,2.5-4.4c2.3-1.3,4.6-1.1,7-0.3c1.9,0.6,1.9,0.7,1,2.4c0,0-0.1,0.1-0.1,0.1c-0.6,1.2-0.6,1.2-1.9,0.7
	c-1-0.4-2-0.5-3.1-0.4c-0.5,0-1,0.2-1.4,0.5c-0.2,0.1-0.3,0.3-0.4,0.5c-0.1,0.2-0.1,0.4-0.1,0.7c0,0.2,0.1,0.5,0.2,0.7
	c0.1,0.2,0.3,0.4,0.5,0.5c0.8,0.5,1.7,0.7,2.6,0.9c0.6,0.2,1.2,0.4,1.9,0.6c2.2,1,3.3,2.7,3.2,4.9c-0.1,2-1.4,3.7-3.6,4.5
	C217.5,105.5,216.6,105.6,215.8,105.6z"/>
<path class="st0" d="M134.3,105.6c-1.9-0.1-3.7-0.6-5.4-1.5c-0.4-0.2-0.5-0.5-0.3-0.9c0.3-0.6,0.7-1.1,0.9-1.7
	c0.3-0.5,0.6-0.6,1.1-0.3c1.3,0.7,2.8,1.1,4.2,1c0.5,0,0.9-0.2,1.3-0.4c1-0.7,1-2,0-2.6c-0.6-0.3-1.3-0.6-2-0.8
	c-1.2-0.3-2.3-0.6-3.3-1.3c-0.7-0.4-1.2-1-1.6-1.7c-0.4-0.7-0.6-1.5-0.6-2.3c0-0.8,0.2-1.6,0.5-2.3c0.4-0.7,0.9-1.3,1.6-1.8
	c1.7-1.2,3.6-1.4,5.5-1.1c1.1,0.2,2.1,0.6,3.1,1c0.5,0.2,0.6,0.5,0.3,0.9c-0.4,0.6-0.7,1.2-1,1.8c-0.2,0.4-0.5,0.5-0.9,0.3
	c-1.1-0.5-2.3-0.8-3.5-0.7c-0.4,0-0.8,0.1-1.2,0.3c-0.6,0.3-1,0.7-1,1.4c0,0.7,0.4,1.1,0.9,1.4c0.8,0.4,1.7,0.6,2.6,0.9
	c1,0.3,2,0.6,2.8,1.2c2.7,1.9,2.8,6,0.1,8C137.3,105.2,136,105.6,134.3,105.6z"/>
<path class="st0" d="M233.9,105.6c-1.9-0.1-3.7-0.6-5.4-1.5c-0.4-0.2-0.6-0.5-0.3-0.9c0.4-0.6,0.7-1.2,1-1.9
	c0.2-0.5,0.5-0.5,0.9-0.2c1.3,0.7,2.8,1.1,4.3,1c0.4,0,0.8-0.1,1.2-0.3c1.2-0.6,1.3-2,0.1-2.7c-0.6-0.4-1.2-0.6-1.9-0.7
	c-0.9-0.2-1.8-0.5-2.7-0.9c-2-0.9-3-2.5-3-4.7s1.3-3.6,3.2-4.5c2.1-0.9,4.2-0.6,6.2,0.1c2,0.6,2,0.7,1,2.4c-0.1,0.1-0.1,0.2-0.2,0.4
	c-0.3,0.8-0.7,1-1.6,0.6c-1-0.5-2-0.7-3.1-0.6c-0.4,0-0.7,0.1-1,0.2c-0.7,0.2-1.1,0.7-1.1,1.4c0,0.7,0.4,1.2,1,1.4
	c0.8,0.3,1.6,0.5,2.3,0.8c0.6,0.2,1.3,0.4,1.9,0.6c2.1,0.9,3.3,2.8,3.2,4.9c-0.1,2.1-1.6,4-3.8,4.7
	C235.5,105.5,234.7,105.6,233.9,105.6z"/>
<path class="st0" d="M158.6,101c0,1.5-1.3,3.3-3.3,4.1c-1.2,0.5-2.6,0.6-3.9,0.4c-1.5-0.2-2.9-0.7-4.3-1.3c-0.5-0.2-0.6-0.5-0.3-1
	c0.3-0.6,0.7-1.1,0.9-1.7c0.2-0.5,0.5-0.6,1-0.3c1.3,0.7,2.8,1.1,4.3,1c0.4,0,0.7-0.1,1-0.3c0.6-0.3,1-0.7,1-1.4
	c0-0.7-0.4-1.1-1-1.4c-0.7-0.4-1.5-0.6-2.3-0.8c-1.4-0.4-2.8-0.8-3.8-1.9c-2.4-2.6-1.3-6.8,2.2-8.1c2.6-1,5.1-0.3,7.5,0.7
	c0.4,0.2,0.3,0.4,0.2,0.7c-0.4,0.6-0.7,1.3-1.1,1.9c-0.2,0.4-0.5,0.5-0.9,0.3c-1.1-0.5-2.3-0.8-3.5-0.7c-0.5,0-1,0.2-1.5,0.4
	c-1,0.6-1,1.9,0,2.5c0.7,0.4,1.4,0.6,2.1,0.8c1.1,0.3,2.2,0.6,3.2,1.2C157.8,97.1,158.6,98.5,158.6,101z"/>
<path class="st0" d="M75.9,96.6c0-4.8,3.3-8.3,8-8.8c2-0.2,3.8,0.3,5.6,1.2c0.5,0.3,0.6,0.5,0.3,1c-0.3,0.5-0.6,1.1-0.9,1.7
	c-0.3,0.6-0.6,0.7-1.2,0.3c-0.6-0.4-1.3-0.7-2-0.8c-0.7-0.1-1.4-0.1-2.1,0c-3.1,0.6-4.8,3.9-3.8,7.2c0.8,2.7,3.4,4.2,6.1,3.5
	c0.5-0.1,0.9-0.3,1.3-0.4c1.2-0.5,1.2-0.5,1.9,0.7c1.1,1.8,1.1,1.8-0.9,2.7c-5.4,2.2-11.3-0.9-12.3-6.6
	C75.9,97.7,75.9,97.2,75.9,96.6z"/>
<path class="st0" d="M95.9,92.5c0-3.8,0-7.6,0-11.5c0-0.8,0.2-1.1,1-1c0.6,0,1.3,0,1.9,0c0.5,0,0.7,0.2,0.7,0.7c0,0.2,0,0.4,0,0.6
	c0,7.5,0,15.1,0,22.6c0,1.3,0,1.3-1.3,1.3c-2.3,0-2.3,0-2.3-2.3L95.9,92.5z"/>
</svg>
