<?xml version="1.0" encoding="utf-8"?>
<!-- Generator: Adobe Illustrator 25.0.0, SVG Export Plug-In . SVG Version: 6.00 Build 0)  -->
<svg version="1.1" id="katman_1" xmlns="http://www.w3.org/2000/svg" xmlns:xlink="http://www.w3.org/1999/xlink" x="0px" y="0px"
	 viewBox="0 0 560 400" style="enable-background:new 0 0 560 400;" xml:space="preserve">
<style type="text/css">
	.st0{fill-rule:evenodd;clip-rule:evenodd;fill:#204156;}
</style>
<path class="st0" d="M278.2,236.4c0.5,0,0.8,0.3,0.8,0.8v7.1c0,0.5-0.3,0.8-0.8,0.8h-26.3c-0.5,0-0.8-0.3-0.8-0.8v-7.1
	c0-0.5,0.3-0.8,0.8-0.8H278.2z M243.9,155c0.2,0,0.4,0.1,0.6,0.2l0,0l0,0c0.1,0.1,0.2,0.3,0.2,0.5v88.4c0,0.2-0.1,0.4-0.2,0.5
	c-0.1,0.2-0.3,0.3-0.6,0.3H66.8c-0.2,0-0.3,0-0.4-0.1v0l0,0c-0.2-0.1-0.3-0.3-0.3-0.6v-88.4c0-0.3,0.2-0.6,0.4-0.7l0,0l0.1,0l0,0
	l0.2,0L243.9,155z M464.9,240.5c-0.5,0-0.8-0.3-0.8-0.8v-6.2c0-0.5,0.3-0.8,0.8-0.8h1.4c2.9,0,4.4-1.3,5.5-4.4l1.1-3.2l-13.6-35.3
	c-0.2-0.5,0.2-0.8,0.6-0.8h7.6c0.5,0,0.8,0.3,0.9,0.8l8.4,24.5h0.2l8-24.5c0.2-0.5,0.5-0.8,0.9-0.8h7.3c0.5,0,0.8,0.3,0.6,0.8
	l-14.2,39.1c-3.2,8.9-6.3,11.7-12.5,11.7L464.9,240.5L464.9,240.5z M235.3,236.4l0.2,0l0,0l0.1,0l0,0c0.3-0.1,0.4-0.4,0.4-0.7v-71.2
	c0-0.3-0.2-0.6-0.4-0.7l0,0l-0.1,0l0,0l-0.2,0H75.4l-0.2,0l-0.2,0l0,0c-0.3,0.1-0.4,0.4-0.4,0.7v71.2c0,0.3,0.2,0.6,0.4,0.7l0,0
	l0.1,0l0,0l0.2,0v0L235.3,236.4L235.3,236.4z M83.4,217c-0.8-2.3-1.2-5.3-1.2-9.3c0-4,0.4-6.9,1.2-9.3c2.2-6.7,7.9-10.4,15.3-10.4
	c5.5,0,9.9,2.3,12.9,5.8c0.2,0.3,0.3,0.8-0.1,1.1l-4.9,4.3c-0.4,0.3-0.8,0.2-1.1-0.2c-1.9-2.1-3.8-3.3-6.9-3.3
	c-3.3,0-5.9,1.6-6.9,4.9c-0.6,1.9-0.8,4-0.8,6.9c0,2.9,0.2,5.1,0.8,7c1.1,3.2,3.6,4.8,6.9,4.8c3.1,0,5-1.2,6.9-3.3
	c0.3-0.4,0.7-0.4,1.1-0.1l4.9,4.3c0.4,0.3,0.3,0.7,0.1,1.1c-2.9,3.5-7.3,5.8-12.9,5.8C91.2,227.4,85.5,223.7,83.4,217L83.4,217z
	 M251.7,217c-0.8-2.3-1.2-5.3-1.2-9.3c0-4,0.4-6.9,1.2-9.3c2.2-6.7,7.9-10.4,15.3-10.4c5.5,0,9.9,2.3,12.9,5.8
	c0.2,0.3,0.3,0.8-0.1,1.1l-4.9,4.3c-0.4,0.3-0.8,0.2-1.1-0.2c-1.8-2.1-3.8-3.3-6.9-3.3c-3.3,0-5.9,1.6-6.9,4.9
	c-0.6,1.9-0.8,4-0.8,6.9c0,2.9,0.1,5.1,0.8,7c1.1,3.2,3.6,4.8,6.9,4.8c3.1,0,5-1.2,6.9-3.3c0.3-0.4,0.7-0.4,1.1-0.1l4.9,4.3
	c0.4,0.3,0.3,0.7,0.1,1.1c-2.9,3.5-7.3,5.8-12.9,5.8C259.6,227.4,253.9,223.7,251.7,217L251.7,217z M307.9,201.4
	c-0.1-4-2.2-5.9-8.2-5.9c-4.2,0-6.7,1.2-8.5,2.6c-0.4,0.3-0.8,0.2-1.1-0.2l-2.8-5.1c-0.2-0.4-0.2-0.8,0.1-1c3-2.2,7.1-3.7,13.2-3.7
	c11.3,0,15.5,3.9,15.5,13.1v24.5c0,0.5-0.3,0.8-0.8,0.8h-6.5c-0.5,0-0.8-0.3-0.8-0.8V223H308c-1.8,2.6-5.2,4.4-10.5,4.4
	c-6.8,0-12.5-3.6-12.5-11.4c0-8.2,5.7-11.9,14.9-11.9l2.7,0h0.4c0.5,0,0.8,0.3,0.8,0.8v5c0,0.5-0.3,0.8-0.8,0.8l-1.7,0
	c-5.5,0-8,1.6-8,5.1c0,3.1,2.2,4.7,6.4,4.7c5.3,0,8.2-2.1,8.2-6.4v-12.1L307.9,201.4L307.9,201.4L307.9,201.4L307.9,201.4z
	 M204.4,212.3c0.1,0.6,0.3,1.1,0.4,1.6c1.2,3.7,4.2,5.7,8.3,5.7c4.2,0,6.9-1.6,8.7-3.6c0.4-0.4,0.8-0.5,1.2-0.2l4.5,4
	c0.4,0.3,0.4,0.7,0.1,1.1c-3.2,3.7-8.4,6.4-15.3,6.4c-7.9,0-13.4-3.9-15.5-10.4c-0.8-2.4-1.3-5.3-1.3-9.2s0.5-6.8,1.2-9.3
	c2.1-6.5,7.8-10.3,15.2-10.3c7.6,0,13.2,4,15.3,10.3c0.8,2.6,1.2,5.2,1.2,11.3c0,0.5-0.3,0.8-0.8,0.8h-19.1c-0.2,0-0.3-0.1-0.3-0.3
	v-5.9c0-0.2,0.1-0.3,0.3-0.3l0.6,0l0,0h10.1c0.3,0,0.5-0.2,0.5-0.5c0-1.3-0.2-2.3-0.5-3.2c-1-3-3.8-4.8-7.2-4.8
	c-3.5,0-6.3,1.8-7.3,4.8c-0.1,0.4-0.2,0.8-0.3,1.2v0l0,0l0,0.1c-0.3,1.7-0.4,3.1-0.5,5.2C203.9,209.2,204.1,210.7,204.4,212.3
	L204.4,212.3L204.4,212.3z M369.8,212.3c0.1,0.6,0.3,1.1,0.4,1.6c1.2,3.7,4.2,5.7,8.3,5.7c4.2,0,6.9-1.6,8.7-3.6
	c0.4-0.4,0.8-0.5,1.2-0.2l4.5,4c0.4,0.3,0.4,0.7,0.1,1.1c-3.2,3.7-8.4,6.4-15.3,6.4c-7.9,0-13.4-3.9-15.5-10.4
	c-0.8-2.4-1.3-5.3-1.3-9.2s0.5-6.8,1.2-9.3c2.1-6.5,7.8-10.3,15.2-10.3c7.6,0,13.2,4,15.3,10.3c0.8,2.6,1.2,5.2,1.2,11.3
	c0,0.5-0.3,0.8-0.8,0.8h-19.1c-0.2,0-0.3-0.1-0.3-0.3v-5.9c0-0.2,0.1-0.3,0.3-0.3l0.6,0v0h10.1c0.3,0,0.5-0.2,0.5-0.5
	c0-1.3-0.2-2.3-0.5-3.2c-1-3-3.8-4.8-7.2-4.8c-3.5,0-6.3,1.8-7.3,4.8c-0.1,0.4-0.2,0.8-0.3,1.2v0l0,0l0,0.1
	c-0.3,1.7-0.4,3.1-0.5,5.2C369.3,209.2,369.5,210.7,369.8,212.3L369.8,212.3L369.8,212.3z M354.2,173.6c0.5,0,0.8,0.3,0.8,0.8v51.4
	c0,0.5-0.3,0.8-0.8,0.8h-7.1c-0.5,0-0.8-0.3-0.8-0.8v-2.8h-0.1c-1.8,2.6-4.9,4.4-9.9,4.4c-6.3,0-10.9-3-12.9-9
	c-0.9-2.9-1.3-5.5-1.3-10.6c0-5.1,0.4-7.7,1.3-10.6c1.9-5.9,6.5-9,12.7-9v0h0.3l4.6,0h0.4c0.5,0,0.8,0.3,0.8,0.8v6.2
	c0,0.5-0.3,0.8-0.8,0.8l-3,0c-3.4,0.1-5.7,1.8-6.7,4.8c-0.5,1.7-0.8,3.6-0.8,7c0,3.4,0.2,5.3,0.8,7c1,3.1,3.4,4.8,6.9,4.8
	c3.5,0,5.9-1.7,6.9-4.8c0.4-1.3,0.6-2.7,0.7-4.9h0v-35.5c0-0.5,0.3-0.8,0.8-0.8L354.2,173.6L354.2,173.6z M118.7,217
	c-0.8-2.6-1.2-5.1-1.2-9.3c0-4.1,0.4-6.6,1.2-9.2c2.1-6.5,7.8-10.4,15.3-10.4c7.5,0,13.2,3.8,15.3,10.4c0.8,2.6,1.2,5.1,1.2,9.2
	c0,4.1-0.4,6.6-1.2,9.3c-2.1,6.5-7.8,10.3-15.3,10.3C126.5,227.4,120.8,223.6,118.7,217z M188.4,173.6c0.5,0,0.8,0.3,0.8,0.8v51.3
	c0,0.5-0.3,0.8-0.8,0.8h-7.1c-0.5,0-0.8-0.3-0.8-0.8v-2.8h-0.1c-1.8,2.6-4.8,4.4-9.8,4.4c-6.3,0-10.9-3-12.8-9
	c-0.9-2.9-1.3-5.5-1.3-10.6c0-5,0.4-7.7,1.3-10.6c1.9-5.9,6.4-8.9,12.6-9v0h2.8l2.4,0c0.2,0,0.3,0.1,0.3,0.3l0,7.1
	c0,0.2-0.1,0.3-0.2,0.3h-3c-3.3,0.1-5.7,1.8-6.6,4.8c-0.5,1.7-0.8,3.6-0.8,7c0,3.4,0.2,5.3,0.8,7c1,3.1,3.4,4.8,6.9,4.8
	c3.5,0,5.9-1.7,6.9-4.8c0.4-1.3,0.6-2.7,0.7-4.9h0v-35.5c0-0.5,0.3-0.8,0.8-0.8H188.4z M407.9,226.5h-7.1c-0.5,0-0.8-0.3-0.8-0.8
	v-36c0-0.5,0.3-0.8,0.8-0.8h7.1c0.5,0,0.8,0.3,0.8,0.8v2.7h0.1c1.6-2.3,4.9-4.4,9.8-4.4c4.4,0,7.9,1.8,10.2,5h0.1
	c2.9-3.1,6.5-5,11.9-5c8.6,0,13.5,5.9,13.5,13.9v23.7c0,0.5-0.3,0.8-0.8,0.8h-7.1c-0.5,0-0.8-0.3-0.8-0.8v-21.6c0-4.8-2.4-8.2-7-8.2
	c-4.5,0-7.1,3.3-7.1,8.2v21.6c0,0.5-0.3,0.8-0.8,0.8h-7.1c-0.5,0-0.8-0.3-0.8-0.8v-21.6c0-4.8-2.4-8.2-7-8.2c-4.5,0-7.1,3.3-7.1,8.2
	v21.6C408.7,226.2,408.4,226.5,407.9,226.5L407.9,226.5z M140.9,214.7c0.6-1.9,0.8-3.7,0.8-6.9c0-3.2-0.2-4.9-0.8-6.9
	c-1.1-3.1-3.5-4.9-6.9-4.9c-3.5,0-5.9,1.8-7,4.9c-0.6,2-0.8,3.7-0.8,6.9c0,3.2,0.2,5,0.8,6.9c1.1,3.1,3.5,4.9,7,4.9
	C137.5,219.6,139.9,217.8,140.9,214.7z"/>
</svg>
