<?xml version="1.0" encoding="utf-8"?>
<!-- Generator: Adobe Illustrator 25.0.0, SVG Export Plug-In . SVG Version: 6.00 Build 0)  -->
<svg version="1.1" id="katman_1" xmlns="http://www.w3.org/2000/svg" xmlns:xlink="http://www.w3.org/1999/xlink" x="0px" y="0px"
	 viewBox="0 0 560 400" style="enable-background:new 0 0 560 400;" xml:space="preserve">
<style type="text/css">
	.st0{fill:#FF3008;}
</style>
<path class="st0" d="M182.2,188.2V212h5.9c3,0,6-1.3,8-3.6c2.2-2.3,3.2-5.3,3.2-8.4c0.1-3.1-1.1-6.1-3.2-8.4c-2.2-2.3-5-3.5-8.2-3.5
	L182.2,188.2z M188.1,180.8c11,0,19.4,8.5,19.4,19.3c0,10.8-8.4,19.3-19.4,19.3H175c-0.5,0-1-0.5-1-1v-36.7c0-0.5,0.5-1,1-1H188.1z
	 M236,212.8c5,0,9.6-3.1,11.5-7.8c1.9-4.8,0.8-10.2-2.6-13.9c-3.5-3.6-8.9-4.8-13.6-2.8c-4.7,1.9-7.7,6.6-7.7,11.8
	C223.6,207.2,229.1,212.8,236,212.8 M236,180c11.6,0,20.5,9.1,20.5,20.2c0,11-8.9,20.2-20.5,20.2c-11.6,0-20.4-9.1-20.4-20.2
	C215.6,189.1,224.5,180,236,180 M284.8,212.8c6.8,0,12.4-5.8,12.4-12.7c0-7.1-5.5-12.7-12.4-12.7s-12.4,5.6-12.4,12.7
	c0,3.4,1.3,6.6,3.6,9C278.3,211.5,281.5,212.8,284.8,212.8 M284.8,180c11.6,0,20.5,9.1,20.5,20.2c0,11-8.9,20.2-20.5,20.2
	c-11.5,0-20.5-9.1-20.5-20.2C264.3,189.1,273.2,180,284.8,180 M332.3,188.2h-8.4v10.2h8.4c1.3,0,2.6-0.5,3.6-1.3
	c1-1,1.6-2.3,1.6-3.6c0-1.4-0.5-2.8-1.4-3.7C335.1,188.7,333.8,188.2,332.3,188.2L332.3,188.2z M315.9,181.8c0-0.5,0.5-1,1-1h15.7
	c7.6,0,13,5.6,13,12.7c0,4.8-2.5,9.2-6.7,11.3L346,218c0.2,0.4,0.2,0.7,0,1.1c-0.1,0.4-0.5,0.5-0.8,0.5h-6.4c-0.4,0-0.7-0.2-0.8-0.5
	l-7-13.1h-7v12.5c0,0.5-0.4,1-1,1H317c-0.5,0-1-0.5-1-1L315.9,181.8z M366.7,188.5v23.8h5.9c3,0,6-1.3,8-3.5
	c2.2-2.3,3.4-5.3,3.2-8.4c0.1-3.1-1.1-6.1-3.2-8.4c-2.2-2.3-5-3.5-8.2-3.5L366.7,188.5z M372.5,181c11,0,19.4,8.5,19.4,19.3
	s-8.4,19.3-19.4,19.3h-13.1c-0.5,0-1-0.5-1-1V182c0-0.5,0.5-1,1-1H372.5z M416.6,190.4l-4.6,12.7h9.1L416.6,190.4z M409.4,210.3
	l-3,8.5c-0.1,0.4-0.5,0.7-1,0.7h-6.5c-0.4,0-0.7-0.1-0.8-0.4c-0.2-0.2-0.2-0.6-0.1-1l14-36.7c0.1-0.4,0.5-0.6,1-0.6h7.3
	c0.5,0,0.8,0.2,1,0.6l14,36.7c0.1,0.4,0.1,0.7-0.1,1c-0.2,0.2-0.5,0.5-0.8,0.4h-6.5c-0.5,0-0.8-0.2-1-0.7l-3-8.5H409.4z
	 M442.7,191.2c0-6.1,5.2-11.3,13.2-11.3c4.3-0.1,8.5,1.6,11.8,4.6c0.4,0.4,0.4,1,0,1.3l-3.6,3.7c-0.4,0.4-1,0.4-1.3,0
	c-1.7-1.6-4-2.5-6.2-2.5c-3.2,0-5.6,1.9-5.6,4.2c0,7.2,19.1,3,19.1,16.9c0,7-5.2,12.4-14.3,12.4c-5.2,0-10.1-1.9-13.7-5.6
	c-0.4-0.4-0.4-1,0-1.3l3.5-3.6c0.4-0.4,1-0.4,1.3,0c2.2,2.2,5.2,3.4,8.3,3.5c4.1,0,6.7-2.2,6.7-5C461.9,201,442.7,205.2,442.7,191.2
	 M504.7,181.8v14.5h-16.2v-14.5c0-0.5-0.4-1-1-1h-6c-0.5,0-1,0.5-1,1v36.7c0,0.5,0.5,1,1,1h6.1c0.5,0,1-0.5,1-1v-14.8h16.2v14.8
	c0,0.5,0.5,1,1,1h6.1c0.5,0,1-0.5,1-1v-36.7c0-0.5-0.4-1-1-1h-6.1C505.1,180.8,504.7,181.3,504.7,181.8z M139.6,185.7
	c-4.2-7.9-12.6-12.8-21.6-12.7H49.5c-1,0-1.8,0.6-2.2,1.4c-0.4,0.8-0.1,1.9,0.5,2.5l14.9,14.8c1.3,1.3,3.1,2,5,2h48.4
	c3.5,0,6.2,2.6,6.2,6.1c0,3.4-2.8,6.1-6.1,6.2H82.9c-1,0-1.8,0.6-2.2,1.4c-0.4,0.8-0.1,1.9,0.5,2.5L96.1,225c1.3,1.3,3.1,2,5,2h15.1
	C135.8,226.9,150.5,206.2,139.6,185.7"/>
</svg>
