<?xml version="1.0" encoding="utf-8"?>
<!-- Generator: Adobe Illustrator 24.3.0, SVG Export Plug-In . SVG Version: 6.00 Build 0)  -->
<svg version="1.1" id="Layer_1" xmlns="http://www.w3.org/2000/svg" xmlns:xlink="http://www.w3.org/1999/xlink" x="0px" y="0px"
	 viewBox="0 0 512 512" style="enable-background:new 0 0 512 512;" xml:space="preserve">
<g id="XMLID_62_">
	<g>
		<path id="XMLID_61_" d="M114.4,252.6c0.9-0.1,1.8-0.1,2.6,0c0.5-1.1,0.5-2.9,0.1-4.8c-0.6-2.9-1.4-4.7-3.2-4.4
			c-1.7,0.3-1.8,2.4-1.2,5.3C113.1,250.3,113.7,251.7,114.4,252.6L114.4,252.6z"/>
		<g>
			<path id="XMLID_60_" d="M99.7,254.9c1.2,0.5,2,0.9,2.3,0.6c0.2-0.2,0.1-0.6-0.2-1c-0.6-1-1.8-2-3.2-2.6c-2.7-1.2-5.9-0.8-8.4,1
				c-0.8,0.6-1.6,1.4-1.5,1.9c0,0.2,0.2,0.3,0.4,0.3c0.7,0.1,3-1.1,5.8-1.3C96.9,253.8,98.5,254.4,99.7,254.9L99.7,254.9z"/>
			<path id="XMLID_59_" d="M97.2,256.3c-1.6,0.3-2.5,0.8-3,1.3c-0.5,0.4-0.8,0.9-0.8,1.2l0.1,0.3l0.3,0.1c0.4,0,1.2-0.3,1.2-0.3
				c2.2-0.8,3.7-0.7,5.1-0.5c0.8,0.1,1.2,0.1,1.4-0.1c0.1-0.1,0.1-0.2,0-0.5C101,257.1,99.4,256.1,97.2,256.3L97.2,256.3z"/>
		</g>
		<g>
			<path id="XMLID_58_" d="M97.9,258.5c0.5-1,0.5-3.5,0.1-5.5c-0.6-2.9-1.5-4.6-3.2-4.3c-1.7,0.3-1.8,2.6-1.2,5.6
				c0.3,1.9,1.1,3.1,1.5,3.8C96.3,260,97.3,259.5,97.9,258.5L97.9,258.5z"/>
		</g>
		<path id="XMLID_57_" d="M109.4,261.5c1.1,0.5,2.3,0.3,2.7-0.5s-0.2-1.9-1.3-2.4c-1.1-0.5-2.3-0.3-2.7,0.5
			C107.8,259.9,108.3,261,109.4,261.5z"/>
		<path id="XMLID_56_" d="M116.4,255.4c-0.9,0-1.6,1-1.6,2.2c0,1.2,0.7,2.2,1.6,2.2s1.6-1,1.6-2.2
			C117.9,256.4,117.3,255.4,116.4,255.4z"/>
		<path id="XMLID_55_" d="M57.3,277.2c-0.2-0.3-0.6-0.2-0.9-0.1c-0.2,0.1-0.5,0.1-0.8,0.1c-0.6,0-1.2-0.3-1.5-0.8
			c-0.4-0.6-0.4-1.5,0.1-2.6l0.2-0.5c0.7-1.6,1.9-4.2,0.6-6.8c-1-1.9-2.6-3.1-4.6-3.3c-1.9-0.2-3.8,0.5-5,1.8
			c-1.9,2.1-2.2,5.1-1.9,6.1c0.1,0.4,0.4,0.5,0.5,0.5c0.3,0,0.8-0.2,1.1-1l0.1-0.3c0.1-0.4,0.4-1.2,0.8-1.9c0.5-0.8,1.3-1.3,2.2-1.5
			c0.9-0.2,1.9,0,2.7,0.5c1.4,0.9,1.9,2.6,1.3,4.2c-0.3,0.8-0.8,2.4-0.7,3.7c0.2,2.6,1.8,3.7,3.3,3.8c1.4,0.1,2.4-0.7,2.6-1.3
			C57.5,277.5,57.4,277.3,57.3,277.2L57.3,277.2z"/>
		<path d="M138.6,272.4c-0.1-0.2-0.4-1.5-0.9-3l-1-2.6c1.9-2.9,2-5.5,1.7-6.9c-0.3-1.8-1-3.4-2.5-4.9c-1.5-1.6-4.6-3.2-9-4.5
			l-2.3-0.6c0-0.1-0.1-5.4-0.2-7.7c-0.1-1.6-0.2-4.2-1-6.7c-1-3.4-2.6-6.4-4.7-8.3c5.7-5.9,9.3-12.4,9.3-18c0-10.7-13.2-14-29.5-7.3
			l-3.4,1.5c0,0-6.2-6.1-6.3-6.2c-18.5-16.2-76.5,48.3-58,63.9l4,3.4c-1.1,2.7-1.5,5.8-1.1,9.2c0.4,4.3,2.7,8.4,6.3,11.6
			c3.4,3,7.9,4.9,12.3,4.9c7.2,16.6,23.7,26.8,43,27.4c20.7,0.6,38.1-9.1,45.4-26.6c0.5-1.2,2.5-6.7,2.5-11.6
			C143.1,274.4,140.3,272.4,138.6,272.4L138.6,272.4z M53.8,285.5c-0.6,0.1-1.3,0.2-1.9,0.1c-6.3-0.2-13-5.8-13.7-12.5
			c-0.7-7.4,3-13.1,9.7-14.4c0.8-0.2,1.8-0.3,2.8-0.2c3.7,0.2,9.3,3.1,10.5,11.2C62.3,276.9,60.6,284.3,53.8,285.5z M46.8,254.3
			c-4.2,0.8-7.8,3.2-10.1,6.4c-1.3-1.1-3.8-3.3-4.3-4.1c-3.6-6.8,3.9-20,9.1-27.5c12.9-18.4,33.2-32.4,42.5-29.9
			c1.5,0.4,6.6,6.3,6.6,6.3s-9.4,5.2-18.1,12.4C60.9,227,52.1,240.1,46.8,254.3z M112.5,282.7c0.1-0.1,0.2-0.2,0.2-0.4
			c0-0.2-0.2-0.3-0.4-0.3c0,0-9.8,1.5-19.1-1.9c1-3.3,3.7-2.1,7.7-1.8c7.3,0.4,13.9-0.6,18.7-2c4.2-1.2,9.7-3.6,14-7
			c1.4,3.2,2,6.7,2,6.7s1.1-0.2,2.1,0.4c0.9,0.5,1.5,1.7,1.1,4.6c-0.9,5.5-3.2,9.9-7.1,13.9c-2.4,2.6-5.2,4.8-8.5,6.4
			c-1.7,0.9-3.6,1.7-5.6,2.4c-14.7,4.8-29.7-0.5-34.6-11.8c-0.4-0.9-0.7-1.7-1-2.7c-2.1-7.5-0.3-16.4,5.2-22v0
			c0.3-0.4,0.7-0.8,0.7-1.3c0-0.4-0.3-0.9-0.5-1.2c-1.9-2.8-8.6-7.5-7.2-16.7c1-6.6,6.7-11.2,12.1-10.9l1.4,0.1
			c2.3,0.1,4.4,0.4,6.3,0.5c3.2,0.1,6.1-0.3,9.5-3.2c1.2-1,2.1-1.8,3.6-2.1c0.2,0,0.6-0.2,1.4-0.1c0.8,0,1.6,0.3,2.3,0.7
			c2.7,1.8,3.1,6.2,3.3,9.5c0.1,1.8,0.3,6.3,0.4,7.6c0.2,2.9,0.9,3.3,2.5,3.9c0.9,0.3,1.7,0.5,2.9,0.8c3.6,1,5.8,2.1,7.1,3.4
			c0.8,0.8,1.2,1.7,1.3,2.6c0.4,3.1-2.4,7-10,10.5c-8.2,3.8-18.2,4.8-25.1,4l-2.4-0.3c-5.5-0.7-8.7,6.4-5.4,11.3
			c2.1,3.2,8,5.2,13.8,5.2c13.4,0,23.6-5.7,27.4-10.6l0.3-0.4c0.2-0.3,0-0.4-0.2-0.3c-3.1,2.1-17,10.6-31.8,8.1c0,0-1.8-0.3-3.4-0.9
			c-1.3-0.5-4-1.8-4.4-4.6C105,286.2,112.5,282.7,112.5,282.7L112.5,282.7z M93.6,280.5L93.6,280.5L93.6,280.5L93.6,280.5
			L93.6,280.5z M70.7,229c4.6-5.3,10.2-9.9,15.3-12.5c0.2-0.1,0.4,0.1,0.3,0.3c-0.4,0.7-1.2,2.3-1.4,3.5c0,0.2,0.2,0.3,0.3,0.2
			c3.2-2.1,8.6-4.5,13.4-4.7c0.2,0,0.3,0.3,0.1,0.4c-0.7,0.6-1.5,1.3-2.1,2.1c-0.1,0.1,0,0.3,0.2,0.3c3.4,0,8.1,1.2,11.2,2.9
			c0.2,0.1,0.1,0.5-0.2,0.5c-4.7-1.1-12.4-1.9-20.4,0.1c-7.1,1.7-12.6,4.4-16.5,7.3C70.8,229.5,70.5,229.2,70.7,229L70.7,229z"/>
	</g>
	<g>
		<path d="M470.2,241.5c-6.9,0-10,5.1-11.4,8.1c-0.9,1.9-0.9,2.5-1.5,2.5c-1,0-0.2-1.6,0.3-3.4c0.8-3.6,0.2-6.4,0.2-6.4H448v47h13.4
			v-14.9c1.6,2.7,4.5,5.5,9,5.5c9.7,0,14.5-8.2,14.5-19.2C484.9,248.2,479,241.5,470.2,241.5L470.2,241.5L470.2,241.5z M466.5,271.3
			c-3.1,0-5.3-3.9-5.3-9.3c0-5.3,2.3-9.3,5.2-9.3c3.7,0,5.3,3.4,5.3,9.3C471.7,268.1,470.2,271.3,466.5,271.3L466.5,271.3z"/>
		<path d="M204.6,241.5c-5.9,0-8.8,4.6-10.1,7.6c-0.7,1.7-1,3-1.6,3c-0.9,0-0.2-1.1-0.9-3.7c-0.9-3.3-3.7-6.9-9.6-6.9
			c-6.2,0-8.8,5.2-10.1,8.1c-0.9,2-0.9,2.5-1.5,2.5c-1,0-0.2-1.6,0.3-3.4c0.8-3.6,0.2-6.4,0.2-6.4h-9.8v36.8h13.4v-18.3
			c0-3.6,1.5-8.2,4.1-8.2c3,0,3.6,2.3,3.6,6.6v20H196v-18.3c0-3.2,1.3-8.2,4.1-8.2c3,0,3.6,3.2,3.6,6.6v20h13.2v-21.6
			C216.9,247.9,213.5,241.5,204.6,241.5L204.6,241.5z M431.4,241.5c-5.9,0-8.8,4.6-10.1,7.6c-0.7,1.7-1,3-1.6,3
			c-0.9,0-0.3-1.5-0.9-3.7c-1-3.3-3.4-6.9-9.6-6.9c-6.2,0-8.8,5.2-10.1,8.1c-0.9,2-0.9,2.5-1.5,2.5c-1,0-0.2-1.6,0.3-3.4
			c0.8-3.6,0.2-6.4,0.2-6.4h-9.8v36.8h13.4v-18.3c0-3.6,1.5-8.2,4.1-8.2c3,0,3.6,2.3,3.6,6.6v20h13.4v-18.3c0-3.2,1.3-8.2,4.1-8.2
			c3,0,3.6,3.2,3.6,6.6v20h13.2v-21.6C443.6,247.9,440.3,241.5,431.4,241.5L431.4,241.5z M239.7,241.5c-10.2,0-17.6,3.8-17.6,3.8
			v11.1c0,0,8.1-4.7,14.7-4.7c5.3,0,5.9,2.8,5.7,5.2c0,0-1.5-0.4-6.1-0.4c-10.9,0-16.4,4.9-16.4,12.9c0,7.5,6.2,10.7,11.4,10.7
			c7.6,0,10.9-5.1,12-7.5c0.7-1.7,0.8-2.8,1.5-2.8c0.7,0,0.5,0.8,0.4,2.5c-0.1,2.9,0.1,5.1,0.5,7h10.1v-18.1
			C255.8,249.7,251.8,241.5,239.7,241.5L239.7,241.5z M236.4,270.6c-3.2,0.7-4.8-0.2-4.8-2.4c0-2.9,3-4.1,7.3-4.1
			c1.9,0,3.7,0.2,3.7,0.2C242.5,265.5,239.8,269.8,236.4,270.6z M277.8,231.2h13.4v48h-13.4V231.2z M305.9,260.8
			c0-3.3,3.1-6.3,8.7-6.3c6.1,0,11.1,3,12.2,3.6v-12.8c0,0-3.9-3.8-13.5-3.8c-10.1,0-18.6,5.9-18.6,18.7c0,12.8,7.7,19.8,18.5,19.8
			c8.5,0,13.6-4.7,13.6-4.7v-12.2c-1.6,0.9-6.1,4-12.2,4C308.2,267.2,305.9,264.2,305.9,260.8L305.9,260.8z M353.9,241.5
			c-7.7,0-10.7,7.3-11.3,8.6c-0.6,1.3-0.9,2-1.4,2c-0.8,0-0.3-1.6,0.1-2.6c0.6-1.9,1.9-6.8,1.9-12.9c0-4.1-0.6-5.5-0.6-5.5h-11.5v48
			h13.4v-18.3c0-3,1.2-8.2,4.6-8.2c2.8,0,3.7,2.1,3.7,6.2v20.3h13.4v-19.5C366.1,250.2,364.5,241.5,353.9,241.5L353.9,241.5z
			 M370.4,242.4v36.8h13.4v-36.8c0,0-2.2,1.3-6.7,1.3C372.7,243.7,370.4,242.4,370.4,242.4L370.4,242.4z"/>
		<ellipse id="XMLID_35_" cx="377.1" cy="236.2" rx="8.2" ry="5.3"/>
		<path id="XMLID_33_" d="M260.1,242.4v36.8h13.4v-36.8c0,0-2.2,1.3-6.7,1.3L260.1,242.4z"/>
		<ellipse id="XMLID_32_" cx="266.8" cy="236.2" rx="8.2" ry="5.3"/>
	</g>
</g>
</svg>
